<?xml version="1.0" encoding="UTF-8"?>
<svg id="Layer_1" xmlns="http://www.w3.org/2000/svg" version="1.1" viewBox="0 0 666.67 533.33">
  <!-- Generator: Adobe Illustrator 30.5.1, SVG Export Plug-In . SVG Version: 2.1.4 Build 3)  -->
  <defs>
    <style>
      .st0 {
        fill: #fec656;
      }

      .st1 {
        fill: #ef9f2c;
      }
    </style>
  </defs>
  <path class="st1" d="M619.51,70.26h-305.69c-26.02,0-47.15-15.75-47.15-35.13S245.53,0,219.51,0H47.15C21.14,0,0,15.75,0,35.13v426.42c0,19.38,21.14,35.13,47.15,35.13h572.36c26.02,0,47.15-15.75,47.15-35.13V105.39c-1.63-19.38-22.76-35.13-47.15-35.13Z"/>
  <path class="st0" d="M600,66.67H41.71C18.77,66.67,0,85.44,0,108.37v383.25c0,22.94,18.77,41.71,41.71,41.71h583.25c22.94,0,41.71-18.77,41.71-41.71V108.37c0-22.94-18.77-41.71-41.71-41.71h-24.96Z"/>
</svg>