<svg preserveAspectRatio="none" width="100%" height="100%" overflow="visible" style="display: block;" viewBox="0 0 48 30" fill="none" xmlns="http://www.w3.org/2000/svg">
<g id="Frame">
<path id="path2997" d="M48 15C48 23.2843 41.3542 30 33.1561 30C24.958 30 18.3122 23.2843 18.3122 15C18.3122 6.71573 24.958 0 33.1561 0C41.3542 0 48 6.71573 48 15V15Z" fill="var(--fill-0, #F79F1A)"/>
<path id="path2995" d="M29.6878 15C29.6878 23.2843 23.042 30 14.8439 30C6.64584 30 0 23.2843 0 15C0 6.71573 6.64584 0 14.8439 0C23.042 0 29.6878 6.71573 29.6878 15V15Z" fill="var(--fill-0, #E60019)"/>
<path id="path2999" d="M24.0001 3.19189C20.5366 5.93791 18.3134 10.205 18.3134 14.9986C18.3134 19.7922 20.5366 24.0625 24.0001 26.8086C27.4635 24.0625 29.6867 19.7922 29.6867 14.9986C29.6867 10.205 27.4635 5.93791 24.0001 3.19189V3.19189Z" fill="var(--fill-0, #FF5700)"/>
</g>
</svg>
