<svg width="32" height="32" viewBox="0 0 32 32" fill="none" xmlns="http://www.w3.org/2000/svg">
<g id="GrinningCat">
<g id="Shape">
<path d="M4 25.942C4 28.1739 5.76327 30 7.91837 30H24.0816C26.2367 30 28 28.0725 28 25.8406V6.4297C28 5.1297 26.4099 4.5297 25.5155 5.4297L20.9736 10H11.1617L6.5 5.4297C5.6 4.5297 4 5.1297 4 6.4297V25.942Z" fill="url(#paint0_linear_25596_105751)"/>
<path d="M4 25.942C4 28.1739 5.76327 30 7.91837 30H24.0816C26.2367 30 28 28.0725 28 25.8406V6.4297C28 5.1297 26.4099 4.5297 25.5155 5.4297L20.9736 10H11.1617L6.5 5.4297C5.6 4.5297 4 5.1297 4 6.4297V25.942Z" fill="url(#paint1_radial_25596_105751)"/>
<path d="M4 25.942C4 28.1739 5.76327 30 7.91837 30H24.0816C26.2367 30 28 28.0725 28 25.8406V6.4297C28 5.1297 26.4099 4.5297 25.5155 5.4297L20.9736 10H11.1617L6.5 5.4297C5.6 4.5297 4 5.1297 4 6.4297V25.942Z" fill="url(#paint2_linear_25596_105751)"/>
<path d="M4 25.942C4 28.1739 5.76327 30 7.91837 30H24.0816C26.2367 30 28 28.0725 28 25.8406V6.4297C28 5.1297 26.4099 4.5297 25.5155 5.4297L20.9736 10H11.1617L6.5 5.4297C5.6 4.5297 4 5.1297 4 6.4297V25.942Z" fill="url(#paint3_linear_25596_105751)"/>
<path d="M4 25.942C4 28.1739 5.76327 30 7.91837 30H24.0816C26.2367 30 28 28.0725 28 25.8406V6.4297C28 5.1297 26.4099 4.5297 25.5155 5.4297L20.9736 10H11.1617L6.5 5.4297C5.6 4.5297 4 5.1297 4 6.4297V25.942Z" fill="url(#paint4_linear_25596_105751)"/>
<path d="M4 25.942C4 28.1739 5.76327 30 7.91837 30H24.0816C26.2367 30 28 28.0725 28 25.8406V6.4297C28 5.1297 26.4099 4.5297 25.5155 5.4297L20.9736 10H11.1617L6.5 5.4297C5.6 4.5297 4 5.1297 4 6.4297V25.942Z" fill="url(#paint5_linear_25596_105751)"/>
<path d="M4 25.942C4 28.1739 5.76327 30 7.91837 30H24.0816C26.2367 30 28 28.0725 28 25.8406V6.4297C28 5.1297 26.4099 4.5297 25.5155 5.4297L20.9736 10H11.1617L6.5 5.4297C5.6 4.5297 4 5.1297 4 6.4297V25.942Z" fill="url(#paint6_radial_25596_105751)"/>
<path d="M4 25.942C4 28.1739 5.76327 30 7.91837 30H24.0816C26.2367 30 28 28.0725 28 25.8406V6.4297C28 5.1297 26.4099 4.5297 25.5155 5.4297L20.9736 10H11.1617L6.5 5.4297C5.6 4.5297 4 5.1297 4 6.4297V25.942Z" fill="url(#paint7_radial_25596_105751)"/>
<path d="M4 25.942C4 28.1739 5.76327 30 7.91837 30H24.0816C26.2367 30 28 28.0725 28 25.8406V6.4297C28 5.1297 26.4099 4.5297 25.5155 5.4297L20.9736 10H11.1617L6.5 5.4297C5.6 4.5297 4 5.1297 4 6.4297V25.942Z" fill="url(#paint8_radial_25596_105751)"/>
<path d="M4 25.942C4 28.1739 5.76327 30 7.91837 30H24.0816C26.2367 30 28 28.0725 28 25.8406V6.4297C28 5.1297 26.4099 4.5297 25.5155 5.4297L20.9736 10H11.1617L6.5 5.4297C5.6 4.5297 4 5.1297 4 6.4297V25.942Z" fill="url(#paint9_radial_25596_105751)"/>
<path d="M4 25.942C4 28.1739 5.76327 30 7.91837 30H24.0816C26.2367 30 28 28.0725 28 25.8406V6.4297C28 5.1297 26.4099 4.5297 25.5155 5.4297L20.9736 10H11.1617L6.5 5.4297C5.6 4.5297 4 5.1297 4 6.4297V25.942Z" fill="url(#paint10_radial_25596_105751)"/>
<path d="M4 25.942C4 28.1739 5.76327 30 7.91837 30H24.0816C26.2367 30 28 28.0725 28 25.8406V6.4297C28 5.1297 26.4099 4.5297 25.5155 5.4297L20.9736 10H11.1617L6.5 5.4297C5.6 4.5297 4 5.1297 4 6.4297V25.942Z" fill="url(#paint11_radial_25596_105751)"/>
<path d="M4 25.942C4 28.1739 5.76327 30 7.91837 30H24.0816C26.2367 30 28 28.0725 28 25.8406V6.4297C28 5.1297 26.4099 4.5297 25.5155 5.4297L20.9736 10H11.1617L6.5 5.4297C5.6 4.5297 4 5.1297 4 6.4297V25.942Z" fill="url(#paint12_radial_25596_105751)"/>
<path d="M4 25.942C4 28.1739 5.76327 30 7.91837 30H24.0816C26.2367 30 28 28.0725 28 25.8406V6.4297C28 5.1297 26.4099 4.5297 25.5155 5.4297L20.9736 10H11.1617L6.5 5.4297C5.6 4.5297 4 5.1297 4 6.4297V25.942Z" fill="url(#paint13_radial_25596_105751)"/>
<path d="M4 25.942C4 28.1739 5.76327 30 7.91837 30H24.0816C26.2367 30 28 28.0725 28 25.8406V6.4297C28 5.1297 26.4099 4.5297 25.5155 5.4297L20.9736 10H11.1617L6.5 5.4297C5.6 4.5297 4 5.1297 4 6.4297V25.942Z" fill="url(#paint14_radial_25596_105751)"/>
<path d="M4 25.942C4 28.1739 5.76327 30 7.91837 30H24.0816C26.2367 30 28 28.0725 28 25.8406V6.4297C28 5.1297 26.4099 4.5297 25.5155 5.4297L20.9736 10H11.1617L6.5 5.4297C5.6 4.5297 4 5.1297 4 6.4297V25.942Z" fill="url(#paint15_radial_25596_105751)"/>
<path d="M4 25.942C4 28.1739 5.76327 30 7.91837 30H24.0816C26.2367 30 28 28.0725 28 25.8406V6.4297C28 5.1297 26.4099 4.5297 25.5155 5.4297L20.9736 10H11.1617L6.5 5.4297C5.6 4.5297 4 5.1297 4 6.4297V25.942Z" fill="url(#paint16_radial_25596_105751)"/>
<path d="M4 25.942C4 28.1739 5.76327 30 7.91837 30H24.0816C26.2367 30 28 28.0725 28 25.8406V6.4297C28 5.1297 26.4099 4.5297 25.5155 5.4297L20.9736 10H11.1617L6.5 5.4297C5.6 4.5297 4 5.1297 4 6.4297V25.942Z" fill="url(#paint17_radial_25596_105751)"/>
<path d="M4 25.942C4 28.1739 5.76327 30 7.91837 30H24.0816C26.2367 30 28 28.0725 28 25.8406V6.4297C28 5.1297 26.4099 4.5297 25.5155 5.4297L20.9736 10H11.1617L6.5 5.4297C5.6 4.5297 4 5.1297 4 6.4297V25.942Z" fill="url(#paint18_radial_25596_105751)"/>
<path d="M4 25.942C4 28.1739 5.76327 30 7.91837 30H24.0816C26.2367 30 28 28.0725 28 25.8406V6.4297C28 5.1297 26.4099 4.5297 25.5155 5.4297L20.9736 10H11.1617L6.5 5.4297C5.6 4.5297 4 5.1297 4 6.4297V25.942Z" fill="url(#paint19_radial_25596_105751)"/>
<path d="M4 25.942C4 28.1739 5.76327 30 7.91837 30H24.0816C26.2367 30 28 28.0725 28 25.8406V6.4297C28 5.1297 26.4099 4.5297 25.5155 5.4297L20.9736 10H11.1617L6.5 5.4297C5.6 4.5297 4 5.1297 4 6.4297V25.942Z" fill="url(#paint20_radial_25596_105751)"/>
<path d="M4 25.942C4 28.1739 5.76327 30 7.91837 30H24.0816C26.2367 30 28 28.0725 28 25.8406V6.4297C28 5.1297 26.4099 4.5297 25.5155 5.4297L20.9736 10H11.1617L6.5 5.4297C5.6 4.5297 4 5.1297 4 6.4297V25.942Z" fill="url(#paint21_radial_25596_105751)"/>
</g>
<g id="L-Inside Ear">
<path d="M6.13255 13.5034L8.93255 10.9034C9.25255 10.6034 9.25255 10.1234 8.93255 9.83344L5.91787 7.15626C5.53505 6.82032 4.74255 6.9297 4.74255 7.76344V12.9634C4.74255 13.7969 5.62255 13.9834 6.13255 13.5034Z" fill="url(#paint22_linear_25596_105751)"/>
<path d="M6.13255 13.5034L8.93255 10.9034C9.25255 10.6034 9.25255 10.1234 8.93255 9.83344L5.91787 7.15626C5.53505 6.82032 4.74255 6.9297 4.74255 7.76344V12.9634C4.74255 13.7969 5.62255 13.9834 6.13255 13.5034Z" fill="#FBA430"/>
<path d="M6.13255 13.5034L8.93255 10.9034C9.25255 10.6034 9.25255 10.1234 8.93255 9.83344L5.91787 7.15626C5.53505 6.82032 4.74255 6.9297 4.74255 7.76344V12.9634C4.74255 13.7969 5.62255 13.9834 6.13255 13.5034Z" fill="url(#paint23_radial_25596_105751)"/>
<path d="M6.13255 13.5034L8.93255 10.9034C9.25255 10.6034 9.25255 10.1234 8.93255 9.83344L5.91787 7.15626C5.53505 6.82032 4.74255 6.9297 4.74255 7.76344V12.9634C4.74255 13.7969 5.62255 13.9834 6.13255 13.5034Z" fill="url(#paint24_radial_25596_105751)"/>
<path d="M6.13255 13.5034L8.93255 10.9034C9.25255 10.6034 9.25255 10.1234 8.93255 9.83344L5.91787 7.15626C5.53505 6.82032 4.74255 6.9297 4.74255 7.76344V12.9634C4.74255 13.7969 5.62255 13.9834 6.13255 13.5034Z" fill="url(#paint25_radial_25596_105751)"/>
</g>
<g id="R-Whisker 1 (Stroke)">
<path fill-rule="evenodd" clip-rule="evenodd" d="M29.9128 20.4685C30.0553 20.7677 29.9283 21.1257 29.6292 21.2682L25.8245 23.0807C25.5253 23.2232 25.1673 23.0962 25.0248 22.7971C24.8823 22.4979 25.0092 22.1399 25.3084 21.9974L29.1131 20.1849C29.4122 20.0424 29.7703 20.1693 29.9128 20.4685Z" fill="url(#paint26_linear_25596_105751)"/>
<path fill-rule="evenodd" clip-rule="evenodd" d="M29.9128 20.4685C30.0553 20.7677 29.9283 21.1257 29.6292 21.2682L25.8245 23.0807C25.5253 23.2232 25.1673 23.0962 25.0248 22.7971C24.8823 22.4979 25.0092 22.1399 25.3084 21.9974L29.1131 20.1849C29.4122 20.0424 29.7703 20.1693 29.9128 20.4685Z" fill="url(#paint27_linear_25596_105751)"/>
<path fill-rule="evenodd" clip-rule="evenodd" d="M29.9128 20.4685C30.0553 20.7677 29.9283 21.1257 29.6292 21.2682L25.8245 23.0807C25.5253 23.2232 25.1673 23.0962 25.0248 22.7971C24.8823 22.4979 25.0092 22.1399 25.3084 21.9974L29.1131 20.1849C29.4122 20.0424 29.7703 20.1693 29.9128 20.4685Z" fill="url(#paint28_radial_25596_105751)"/>
<path fill-rule="evenodd" clip-rule="evenodd" d="M29.9128 20.4685C30.0553 20.7677 29.9283 21.1257 29.6292 21.2682L25.8245 23.0807C25.5253 23.2232 25.1673 23.0962 25.0248 22.7971C24.8823 22.4979 25.0092 22.1399 25.3084 21.9974L29.1131 20.1849C29.4122 20.0424 29.7703 20.1693 29.9128 20.4685Z" fill="url(#paint29_radial_25596_105751)"/>
<path fill-rule="evenodd" clip-rule="evenodd" d="M29.9128 20.4685C30.0553 20.7677 29.9283 21.1257 29.6292 21.2682L25.8245 23.0807C25.5253 23.2232 25.1673 23.0962 25.0248 22.7971C24.8823 22.4979 25.0092 22.1399 25.3084 21.9974L29.1131 20.1849C29.4122 20.0424 29.7703 20.1693 29.9128 20.4685Z" fill="url(#paint30_radial_25596_105751)"/>
</g>
<g id="R-Whisker 2 (Stroke)">
<path fill-rule="evenodd" clip-rule="evenodd" d="M29.9065 26.7473C29.7635 27.0462 29.4052 27.1726 29.1063 27.0295L25.3047 25.2105C25.0058 25.0674 24.8794 24.7092 25.0225 24.4103C25.1655 24.1114 25.5238 23.985 25.8227 24.128L29.6242 25.9471C29.9231 26.0901 30.0495 26.4484 29.9065 26.7473Z" fill="url(#paint31_linear_25596_105751)"/>
<path fill-rule="evenodd" clip-rule="evenodd" d="M29.9065 26.7473C29.7635 27.0462 29.4052 27.1726 29.1063 27.0295L25.3047 25.2105C25.0058 25.0674 24.8794 24.7092 25.0225 24.4103C25.1655 24.1114 25.5238 23.985 25.8227 24.128L29.6242 25.9471C29.9231 26.0901 30.0495 26.4484 29.9065 26.7473Z" fill="url(#paint32_linear_25596_105751)"/>
<path fill-rule="evenodd" clip-rule="evenodd" d="M29.9065 26.7473C29.7635 27.0462 29.4052 27.1726 29.1063 27.0295L25.3047 25.2105C25.0058 25.0674 24.8794 24.7092 25.0225 24.4103C25.1655 24.1114 25.5238 23.985 25.8227 24.128L29.6242 25.9471C29.9231 26.0901 30.0495 26.4484 29.9065 26.7473Z" fill="url(#paint33_radial_25596_105751)"/>
<path fill-rule="evenodd" clip-rule="evenodd" d="M29.9065 26.7473C29.7635 27.0462 29.4052 27.1726 29.1063 27.0295L25.3047 25.2105C25.0058 25.0674 24.8794 24.7092 25.0225 24.4103C25.1655 24.1114 25.5238 23.985 25.8227 24.128L29.6242 25.9471C29.9231 26.0901 30.0495 26.4484 29.9065 26.7473Z" fill="url(#paint34_radial_25596_105751)"/>
<path fill-rule="evenodd" clip-rule="evenodd" d="M29.9065 26.7473C29.7635 27.0462 29.4052 27.1726 29.1063 27.0295L25.3047 25.2105C25.0058 25.0674 24.8794 24.7092 25.0225 24.4103C25.1655 24.1114 25.5238 23.985 25.8227 24.128L29.6242 25.9471C29.9231 26.0901 30.0495 26.4484 29.9065 26.7473Z" fill="url(#paint35_radial_25596_105751)"/>
</g>
<g id="L-Whisker 2 (Stroke)">
<path fill-rule="evenodd" clip-rule="evenodd" d="M2.18531 26.759C2.32834 27.0579 2.68661 27.1843 2.98552 27.0412L6.78708 25.2222C7.08599 25.0792 7.21236 24.7209 7.06933 24.422C6.9263 24.1231 6.56804 23.9967 6.26912 24.1397L2.46756 25.9588C2.16865 26.1018 2.04228 26.4601 2.18531 26.759Z" fill="url(#paint36_linear_25596_105751)"/>
<path fill-rule="evenodd" clip-rule="evenodd" d="M2.18531 26.759C2.32834 27.0579 2.68661 27.1843 2.98552 27.0412L6.78708 25.2222C7.08599 25.0792 7.21236 24.7209 7.06933 24.422C6.9263 24.1231 6.56804 23.9967 6.26912 24.1397L2.46756 25.9588C2.16865 26.1018 2.04228 26.4601 2.18531 26.759Z" fill="url(#paint37_linear_25596_105751)"/>
<path fill-rule="evenodd" clip-rule="evenodd" d="M2.18531 26.759C2.32834 27.0579 2.68661 27.1843 2.98552 27.0412L6.78708 25.2222C7.08599 25.0792 7.21236 24.7209 7.06933 24.422C6.9263 24.1231 6.56804 23.9967 6.26912 24.1397L2.46756 25.9588C2.16865 26.1018 2.04228 26.4601 2.18531 26.759Z" fill="url(#paint38_radial_25596_105751)"/>
<path fill-rule="evenodd" clip-rule="evenodd" d="M2.18531 26.759C2.32834 27.0579 2.68661 27.1843 2.98552 27.0412L6.78708 25.2222C7.08599 25.0792 7.21236 24.7209 7.06933 24.422C6.9263 24.1231 6.56804 23.9967 6.26912 24.1397L2.46756 25.9588C2.16865 26.1018 2.04228 26.4601 2.18531 26.759Z" fill="url(#paint39_radial_25596_105751)"/>
<path fill-rule="evenodd" clip-rule="evenodd" d="M2.18531 26.759C2.32834 27.0579 2.68661 27.1843 2.98552 27.0412L6.78708 25.2222C7.08599 25.0792 7.21236 24.7209 7.06933 24.422C6.9263 24.1231 6.56804 23.9967 6.26912 24.1397L2.46756 25.9588C2.16865 26.1018 2.04228 26.4601 2.18531 26.759Z" fill="url(#paint40_radial_25596_105751)"/>
</g>
<g id="L-Whisker 1 (Stroke)">
<path fill-rule="evenodd" clip-rule="evenodd" d="M2.18317 20.4752C2.04213 20.7751 2.17088 21.1325 2.47074 21.2735L6.28431 23.0673C6.58417 23.2083 6.94159 23.0796 7.08263 22.7797C7.22367 22.4798 7.09492 22.1224 6.79506 21.9814L2.98149 20.1877C2.68163 20.0466 2.32421 20.1754 2.18317 20.4752Z" fill="url(#paint41_linear_25596_105751)"/>
<path fill-rule="evenodd" clip-rule="evenodd" d="M2.18317 20.4752C2.04213 20.7751 2.17088 21.1325 2.47074 21.2735L6.28431 23.0673C6.58417 23.2083 6.94159 23.0796 7.08263 22.7797C7.22367 22.4798 7.09492 22.1224 6.79506 21.9814L2.98149 20.1877C2.68163 20.0466 2.32421 20.1754 2.18317 20.4752Z" fill="url(#paint42_linear_25596_105751)"/>
<path fill-rule="evenodd" clip-rule="evenodd" d="M2.18317 20.4752C2.04213 20.7751 2.17088 21.1325 2.47074 21.2735L6.28431 23.0673C6.58417 23.2083 6.94159 23.0796 7.08263 22.7797C7.22367 22.4798 7.09492 22.1224 6.79506 21.9814L2.98149 20.1877C2.68163 20.0466 2.32421 20.1754 2.18317 20.4752Z" fill="url(#paint43_radial_25596_105751)"/>
<path fill-rule="evenodd" clip-rule="evenodd" d="M2.18317 20.4752C2.04213 20.7751 2.17088 21.1325 2.47074 21.2735L6.28431 23.0673C6.58417 23.2083 6.94159 23.0796 7.08263 22.7797C7.22367 22.4798 7.09492 22.1224 6.79506 21.9814L2.98149 20.1877C2.68163 20.0466 2.32421 20.1754 2.18317 20.4752Z" fill="url(#paint44_radial_25596_105751)"/>
<path fill-rule="evenodd" clip-rule="evenodd" d="M2.18317 20.4752C2.04213 20.7751 2.17088 21.1325 2.47074 21.2735L6.28431 23.0673C6.58417 23.2083 6.94159 23.0796 7.08263 22.7797C7.22367 22.4798 7.09492 22.1224 6.79506 21.9814L2.98149 20.1877C2.68163 20.0466 2.32421 20.1754 2.18317 20.4752Z" fill="url(#paint45_radial_25596_105751)"/>
</g>
<g id="R-Inside Ear 1">
<path d="M25.8329 13.5034L23.0329 10.9034C22.7129 10.6034 22.7129 10.1234 23.0329 9.83344L26.0476 7.15626C26.4304 6.82032 27.2229 6.9297 27.2229 7.76344V12.9634C27.2229 13.7969 26.3429 13.9834 25.8329 13.5034Z" fill="#FFCD45"/>
<path d="M25.8329 13.5034L23.0329 10.9034C22.7129 10.6034 22.7129 10.1234 23.0329 9.83344L26.0476 7.15626C26.4304 6.82032 27.2229 6.9297 27.2229 7.76344V12.9634C27.2229 13.7969 26.3429 13.9834 25.8329 13.5034Z" fill="url(#paint46_linear_25596_105751)"/>
<path d="M25.8329 13.5034L23.0329 10.9034C22.7129 10.6034 22.7129 10.1234 23.0329 9.83344L26.0476 7.15626C26.4304 6.82032 27.2229 6.9297 27.2229 7.76344V12.9634C27.2229 13.7969 26.3429 13.9834 25.8329 13.5034Z" fill="url(#paint47_radial_25596_105751)"/>
<path d="M25.8329 13.5034L23.0329 10.9034C22.7129 10.6034 22.7129 10.1234 23.0329 9.83344L26.0476 7.15626C26.4304 6.82032 27.2229 6.9297 27.2229 7.76344V12.9634C27.2229 13.7969 26.3429 13.9834 25.8329 13.5034Z" fill="url(#paint48_radial_25596_105751)"/>
<path d="M25.8329 13.5034L23.0329 10.9034C22.7129 10.6034 22.7129 10.1234 23.0329 9.83344L26.0476 7.15626C26.4304 6.82032 27.2229 6.9297 27.2229 7.76344V12.9634C27.2229 13.7969 26.3429 13.9834 25.8329 13.5034Z" fill="url(#paint49_radial_25596_105751)"/>
<path d="M25.8329 13.5034L23.0329 10.9034C22.7129 10.6034 22.7129 10.1234 23.0329 9.83344L26.0476 7.15626C26.4304 6.82032 27.2229 6.9297 27.2229 7.76344V12.9634C27.2229 13.7969 26.3429 13.9834 25.8329 13.5034Z" fill="url(#paint50_radial_25596_105751)"/>
<path d="M25.8329 13.5034L23.0329 10.9034C22.7129 10.6034 22.7129 10.1234 23.0329 9.83344L26.0476 7.15626C26.4304 6.82032 27.2229 6.9297 27.2229 7.76344V12.9634C27.2229 13.7969 26.3429 13.9834 25.8329 13.5034Z" fill="url(#paint51_radial_25596_105751)"/>
</g>
<g id="Nose">
<path d="M15.2265 20.2066L15.2908 20.1916C15.7644 20.0811 16.2577 20.0863 16.7289 20.2066C17.25 20.3047 17.561 20.902 17.121 21.332L16.5703 21.9336C16.3003 22.2036 15.7075 22.2036 15.4375 21.9336L14.8945 21.332C14.4453 20.8242 14.7265 20.3164 15.2265 20.2066Z" fill="url(#paint52_radial_25596_105751)"/>
<path d="M15.2265 20.2066L15.2908 20.1916C15.7644 20.0811 16.2577 20.0863 16.7289 20.2066C17.25 20.3047 17.561 20.902 17.121 21.332L16.5703 21.9336C16.3003 22.2036 15.7075 22.2036 15.4375 21.9336L14.8945 21.332C14.4453 20.8242 14.7265 20.3164 15.2265 20.2066Z" fill="url(#paint53_radial_25596_105751)" fill-opacity="0.8"/>
</g>
<path id="Mouth" d="M20.418 23.0547C20.418 25.4947 18.4361 27.3906 15.9961 27.3906C13.5561 27.3906 11.6836 25.4478 11.6836 23.0078C11.6836 23.0078 13.4883 25.1406 15.9961 23.0078C18.3477 25.0859 20.418 23.0547 20.418 23.0547Z" fill="url(#paint54_linear_25596_105751)"/>
<g id="L-Eye (Stroke)">
<path fill-rule="evenodd" clip-rule="evenodd" d="M11.3038 18.8661C11.1628 19.0516 11.1052 19.2872 11.1004 19.4322C11.0904 19.7358 10.8362 19.9738 10.5326 19.9638C10.229 19.9538 9.99103 19.6995 10.001 19.396C10.0119 19.067 10.1246 18.5995 10.4282 18.2003C10.7502 17.7768 11.2688 17.4578 12.0039 17.4578C12.7463 17.4578 13.2699 17.7929 13.5939 18.2207C13.9001 18.625 14.0228 19.1015 14.0303 19.4411C14.037 19.7447 13.7962 19.9963 13.4925 20.003C13.1888 20.0097 12.9372 19.7689 12.9306 19.4652C12.9276 19.3309 12.8683 19.0847 12.717 18.8848C12.5834 18.7085 12.3739 18.5578 12.0039 18.5578C11.6264 18.5578 11.4263 18.705 11.3038 18.8661Z" fill="url(#paint55_radial_25596_105751)"/>
<path fill-rule="evenodd" clip-rule="evenodd" d="M11.3038 18.8661C11.1628 19.0516 11.1052 19.2872 11.1004 19.4322C11.0904 19.7358 10.8362 19.9738 10.5326 19.9638C10.229 19.9538 9.99103 19.6995 10.001 19.396C10.0119 19.067 10.1246 18.5995 10.4282 18.2003C10.7502 17.7768 11.2688 17.4578 12.0039 17.4578C12.7463 17.4578 13.2699 17.7929 13.5939 18.2207C13.9001 18.625 14.0228 19.1015 14.0303 19.4411C14.037 19.7447 13.7962 19.9963 13.4925 20.003C13.1888 20.0097 12.9372 19.7689 12.9306 19.4652C12.9276 19.3309 12.8683 19.0847 12.717 18.8848C12.5834 18.7085 12.3739 18.5578 12.0039 18.5578C11.6264 18.5578 11.4263 18.705 11.3038 18.8661Z" fill="url(#paint56_linear_25596_105751)"/>
</g>
<g id="R-Eye (Stroke)">
<path fill-rule="evenodd" clip-rule="evenodd" d="M19.2725 18.8661C19.1315 19.0516 19.074 19.2872 19.0692 19.4322C19.0592 19.7358 18.805 19.9738 18.5014 19.9638C18.1978 19.9538 17.9598 19.6995 17.9698 19.396C17.9806 19.067 18.0934 18.5995 18.3969 18.2003C18.7189 17.7768 19.2376 17.4578 19.9726 17.4578C20.715 17.4578 21.2386 17.7929 21.5626 18.2207C21.8688 18.625 21.9916 19.1015 21.999 19.4411C22.0057 19.7447 21.7649 19.9963 21.4613 20.003C21.1576 20.0097 20.906 19.7689 20.8993 19.4652C20.8964 19.3309 20.8371 19.0847 20.6857 18.8848C20.5522 18.7085 20.3427 18.5578 19.9726 18.5578C19.5951 18.5578 19.3951 18.705 19.2725 18.8661Z" fill="url(#paint57_radial_25596_105751)"/>
<path fill-rule="evenodd" clip-rule="evenodd" d="M19.2725 18.8661C19.1315 19.0516 19.074 19.2872 19.0692 19.4322C19.0592 19.7358 18.805 19.9738 18.5014 19.9638C18.1978 19.9538 17.9598 19.6995 17.9698 19.396C17.9806 19.067 18.0934 18.5995 18.3969 18.2003C18.7189 17.7768 19.2376 17.4578 19.9726 17.4578C20.715 17.4578 21.2386 17.7929 21.5626 18.2207C21.8688 18.625 21.9916 19.1015 21.999 19.4411C22.0057 19.7447 21.7649 19.9963 21.4613 20.003C21.1576 20.0097 20.906 19.7689 20.8993 19.4652C20.8964 19.3309 20.8371 19.0847 20.6857 18.8848C20.5522 18.7085 20.3427 18.5578 19.9726 18.5578C19.5951 18.5578 19.3951 18.705 19.2725 18.8661Z" fill="url(#paint58_linear_25596_105751)"/>
</g>
</g>
<defs>
<linearGradient id="paint0_linear_25596_105751" x1="7.90668" y1="1.34978" x2="7.90668" y2="30.99" gradientUnits="userSpaceOnUse">
<stop offset="0.288159" stop-color="#FFCE2C"/>
<stop offset="0.762024" stop-color="#F79B22"/>
<stop offset="0.9925" stop-color="#E3821D"/>
<stop offset="1" stop-color="#E3801D"/>
</linearGradient>
<radialGradient id="paint1_radial_25596_105751" cx="0" cy="0" r="1" gradientUnits="userSpaceOnUse" gradientTransform="translate(23.9499 16.7886) rotate(90) scale(10.3023 9.89025)">
<stop stop-color="#FFDE68"/>
<stop offset="1" stop-color="#FFDD68" stop-opacity="0"/>
</radialGradient>
<linearGradient id="paint2_linear_25596_105751" x1="16.4007" y1="13.9648" x2="4" y2="12.2364" gradientUnits="userSpaceOnUse">
<stop stop-color="#E99E20" stop-opacity="0"/>
<stop offset="1" stop-color="#FF9F3D"/>
</linearGradient>
<linearGradient id="paint3_linear_25596_105751" x1="26.7911" y1="12.033" x2="30.245" y2="12.033" gradientUnits="userSpaceOnUse">
<stop stop-color="#E99E20" stop-opacity="0"/>
<stop offset="0.9925" stop-color="#E3821D"/>
<stop offset="1" stop-color="#E3801D"/>
</linearGradient>
<linearGradient id="paint4_linear_25596_105751" x1="16.001" y1="-1.59459" x2="16" y2="30.99" gradientUnits="userSpaceOnUse">
<stop offset="0.77079" stop-color="#F59639" stop-opacity="0"/>
<stop offset="1" stop-color="#FF63C4"/>
</linearGradient>
<linearGradient id="paint5_linear_25596_105751" x1="16" y1="11.2521" x2="16" y2="32.475" gradientUnits="userSpaceOnUse">
<stop offset="0.854227" stop-color="white" stop-opacity="0"/>
<stop offset="0.985362" stop-color="white"/>
</linearGradient>
<radialGradient id="paint6_radial_25596_105751" cx="0" cy="0" r="1" gradientTransform="matrix(3.04569 4.42401 -8.87254 5.92994 22.1755 4.47688)" gradientUnits="userSpaceOnUse">
<stop stop-color="#FFA720"/>
<stop offset="0.921158" stop-color="#FFA720" stop-opacity="0"/>
</radialGradient>
<radialGradient id="paint7_radial_25596_105751" cx="0" cy="0" r="1" gradientUnits="userSpaceOnUse" gradientTransform="translate(3.47479 23.6769) scale(6.09045 8.66347)">
<stop offset="0.260619" stop-color="#C57310" stop-opacity="0.8"/>
<stop offset="0.590058" stop-color="#CB750D" stop-opacity="0.37"/>
<stop offset="0.921158" stop-color="#D77A09" stop-opacity="0"/>
</radialGradient>
<radialGradient id="paint8_radial_25596_105751" cx="0" cy="0" r="1" gradientUnits="userSpaceOnUse" gradientTransform="translate(25.4052 22.6255) rotate(63.9247) scale(0.741389 1.12753)">
<stop offset="0.380208" stop-color="#D77A09"/>
<stop offset="1" stop-color="#D77A09" stop-opacity="0"/>
</radialGradient>
<radialGradient id="paint9_radial_25596_105751" cx="0" cy="0" r="1" gradientUnits="userSpaceOnUse" gradientTransform="translate(27.0729 25.879) rotate(111.218) scale(0.967272 2.82507)">
<stop offset="0.380208" stop-color="#D77A09"/>
<stop offset="1" stop-color="#D77A09" stop-opacity="0"/>
</radialGradient>
<radialGradient id="paint10_radial_25596_105751" cx="0" cy="0" r="1" gradientUnits="userSpaceOnUse" gradientTransform="translate(15.2813 21.4687) rotate(140.08) scale(0.99829 1.31398)">
<stop offset="0.493447" stop-color="#D77A09" stop-opacity="0.5"/>
<stop offset="1" stop-color="#D77A09" stop-opacity="0"/>
</radialGradient>
<radialGradient id="paint11_radial_25596_105751" cx="0" cy="0" r="1" gradientUnits="userSpaceOnUse" gradientTransform="translate(21.1019 19.3853) rotate(73.2562) scale(1.12025 0.597468)">
<stop offset="0.616663" stop-color="#D77A09" stop-opacity="0.5"/>
<stop offset="1" stop-color="#D77A09" stop-opacity="0"/>
</radialGradient>
<radialGradient id="paint12_radial_25596_105751" cx="0" cy="0" r="1" gradientUnits="userSpaceOnUse" gradientTransform="translate(20.211 18.3217) rotate(35.2367) scale(1.30784 0.697515)">
<stop offset="0.616663" stop-color="#D77A09" stop-opacity="0.5"/>
<stop offset="1" stop-color="#D77A09" stop-opacity="0"/>
</radialGradient>
<radialGradient id="paint13_radial_25596_105751" cx="0" cy="0" r="1" gradientUnits="userSpaceOnUse" gradientTransform="translate(19.1927 18.5717) rotate(-17.057) scale(1.25525 0.669465)">
<stop offset="0.616663" stop-color="#D77A09" stop-opacity="0.5"/>
<stop offset="1" stop-color="#D77A09" stop-opacity="0"/>
</radialGradient>
<radialGradient id="paint14_radial_25596_105751" cx="0" cy="0" r="1" gradientUnits="userSpaceOnUse" gradientTransform="translate(18.3516 19.2344) rotate(-84.144) scale(1.22514 0.719203)">
<stop offset="0.616663" stop-color="#D77A09" stop-opacity="0.5"/>
<stop offset="1" stop-color="#D77A09" stop-opacity="0"/>
</radialGradient>
<radialGradient id="paint15_radial_25596_105751" cx="0" cy="0" r="1" gradientUnits="userSpaceOnUse" gradientTransform="translate(13.0938 19.4844) rotate(69.6769) scale(0.899761 0.479873)">
<stop offset="0.616663" stop-color="#D77A09" stop-opacity="0.5"/>
<stop offset="1" stop-color="#D77A09" stop-opacity="0"/>
</radialGradient>
<radialGradient id="paint16_radial_25596_105751" cx="0" cy="0" r="1" gradientUnits="userSpaceOnUse" gradientTransform="translate(12.4219 18.3906) rotate(43.2986) scale(1.11639 0.595411)">
<stop offset="0.616663" stop-color="#D77A09" stop-opacity="0.5"/>
<stop offset="1" stop-color="#D77A09" stop-opacity="0"/>
</radialGradient>
<radialGradient id="paint17_radial_25596_105751" cx="0" cy="0" r="1" gradientUnits="userSpaceOnUse" gradientTransform="translate(10.9688 18.8437) rotate(-22.4794) scale(1.47116 0.784618)">
<stop offset="0.616663" stop-color="#D77A09" stop-opacity="0.5"/>
<stop offset="1" stop-color="#D77A09" stop-opacity="0"/>
</radialGradient>
<radialGradient id="paint18_radial_25596_105751" cx="0" cy="0" r="1" gradientUnits="userSpaceOnUse" gradientTransform="translate(10.3438 19.3438) rotate(-86.8202) scale(1.12674 0.661435)">
<stop offset="0.616663" stop-color="#D77A09" stop-opacity="0.5"/>
<stop offset="1" stop-color="#D77A09" stop-opacity="0"/>
</radialGradient>
<radialGradient id="paint19_radial_25596_105751" cx="0" cy="0" r="1" gradientUnits="userSpaceOnUse" gradientTransform="translate(8.10508 6.83318) rotate(44.113) scale(5.58911 1.56071)">
<stop offset="0.293395" stop-color="#FFDE68"/>
<stop offset="1" stop-color="#FFDD68" stop-opacity="0"/>
</radialGradient>
<radialGradient id="paint20_radial_25596_105751" cx="0" cy="0" r="1" gradientUnits="userSpaceOnUse" gradientTransform="translate(10.4058 8.24278) rotate(-65.2905) scale(3.21524 2.19727)">
<stop offset="0.257229" stop-color="#FFDE68"/>
<stop offset="1" stop-color="#FFDD68" stop-opacity="0"/>
</radialGradient>
<radialGradient id="paint21_radial_25596_105751" cx="0" cy="0" r="1" gradientUnits="userSpaceOnUse" gradientTransform="translate(27.5443 5.76246) rotate(101.957) scale(2.5607 1.41151)">
<stop stop-color="#FFDE68"/>
<stop offset="1" stop-color="#FFDD68" stop-opacity="0"/>
</radialGradient>
<linearGradient id="paint22_linear_25596_105751" x1="10.6023" y1="10.6172" x2="4.74255" y2="10.0703" gradientUnits="userSpaceOnUse">
<stop offset="0.437473" stop-color="#ED8C1B"/>
<stop offset="1" stop-color="#FFB03A"/>
</linearGradient>
<radialGradient id="paint23_radial_25596_105751" cx="0" cy="0" r="1" gradientUnits="userSpaceOnUse" gradientTransform="translate(5.13129 10.3713) scale(0.311177 3.07294)">
<stop stop-color="white" stop-opacity="0.3"/>
<stop offset="1" stop-color="white" stop-opacity="0"/>
</radialGradient>
<radialGradient id="paint24_radial_25596_105751" cx="0" cy="0" r="1" gradientUnits="userSpaceOnUse" gradientTransform="translate(7.66041 12.1316) rotate(46.1691) scale(0.936482 9.24798)">
<stop stop-color="#ED8C1B" stop-opacity="0.8"/>
<stop offset="1" stop-color="#ED8C1B" stop-opacity="0"/>
</radialGradient>
<radialGradient id="paint25_radial_25596_105751" cx="0" cy="0" r="1" gradientUnits="userSpaceOnUse" gradientTransform="translate(7.43558 8.4694) rotate(-49.1362) scale(0.907259 8.9594)">
<stop stop-color="#ED8C1B" stop-opacity="0.5"/>
<stop offset="1" stop-color="#ED8C1B" stop-opacity="0"/>
</radialGradient>
<linearGradient id="paint26_linear_25596_105751" x1="25.2899" y1="22.9453" x2="29.3711" y2="21.0078" gradientUnits="userSpaceOnUse">
<stop offset="0.15625" stop-color="#D64A38"/>
<stop offset="1" stop-color="#FB7425"/>
</linearGradient>
<linearGradient id="paint27_linear_25596_105751" x1="27.3247" y1="21.0378" x2="27.8471" y2="22.1228" gradientUnits="userSpaceOnUse">
<stop stop-color="white" stop-opacity="0"/>
<stop offset="0.520833" stop-color="white" stop-opacity="0.2"/>
<stop offset="1" stop-color="white" stop-opacity="0"/>
</linearGradient>
<radialGradient id="paint28_radial_25596_105751" cx="0" cy="0" r="1" gradientUnits="userSpaceOnUse" gradientTransform="translate(24.9648 22.8374) rotate(-26.8937) scale(1.04481)">
<stop stop-color="#D64A38"/>
<stop offset="1" stop-color="#D64A38" stop-opacity="0"/>
</radialGradient>
<radialGradient id="paint29_radial_25596_105751" cx="0" cy="0" r="1" gradientUnits="userSpaceOnUse" gradientTransform="translate(29.9731 20.5061) rotate(151.353) scale(0.967535)">
<stop stop-color="#FB7425"/>
<stop offset="1" stop-color="#FB7425" stop-opacity="0"/>
</radialGradient>
<radialGradient id="paint30_radial_25596_105751" cx="0" cy="0" r="1" gradientUnits="userSpaceOnUse" gradientTransform="translate(29.4461 20.5037) rotate(125.032) scale(0.468717)">
<stop stop-color="white" stop-opacity="0.3"/>
<stop offset="1" stop-color="white" stop-opacity="0"/>
</radialGradient>
<linearGradient id="paint31_linear_25596_105751" x1="25.0739" y1="24.7097" x2="29.1465" y2="26.6651" gradientUnits="userSpaceOnUse">
<stop offset="0.15625" stop-color="#D64A38"/>
<stop offset="1" stop-color="#FB7425"/>
</linearGradient>
<linearGradient id="paint32_linear_25596_105751" x1="27.8366" y1="25.0927" x2="27.3213" y2="26.1811" gradientUnits="userSpaceOnUse">
<stop stop-color="white" stop-opacity="0"/>
<stop offset="0.520833" stop-color="white" stop-opacity="0.2"/>
<stop offset="1" stop-color="white" stop-opacity="0"/>
</linearGradient>
<radialGradient id="paint33_radial_25596_105751" cx="0" cy="0" r="1" gradientUnits="userSpaceOnUse" gradientTransform="translate(24.9534 24.3889) rotate(24.15) scale(1.04481)">
<stop stop-color="#D64A38"/>
<stop offset="1" stop-color="#D64A38" stop-opacity="0"/>
</radialGradient>
<radialGradient id="paint34_radial_25596_105751" cx="0" cy="0" r="1" gradientUnits="userSpaceOnUse" gradientTransform="translate(29.9152 26.8178) rotate(-157.603) scale(0.967535)">
<stop stop-color="#FB7425"/>
<stop offset="1" stop-color="#FB7425" stop-opacity="0"/>
</radialGradient>
<radialGradient id="paint35_radial_25596_105751" cx="0" cy="0" r="1" gradientUnits="userSpaceOnUse" gradientTransform="translate(29.6005 26.2805) rotate(154.486) scale(0.578723)">
<stop stop-color="white" stop-opacity="0.3"/>
<stop offset="1" stop-color="white" stop-opacity="0"/>
</radialGradient>
<linearGradient id="paint36_linear_25596_105751" x1="7.01786" y1="24.7214" x2="2.94525" y2="26.6768" gradientUnits="userSpaceOnUse">
<stop offset="0.15625" stop-color="#D64A38"/>
<stop offset="1" stop-color="#FB7425"/>
</linearGradient>
<linearGradient id="paint37_linear_25596_105751" x1="4.25522" y1="25.1044" x2="4.77052" y2="26.1928" gradientUnits="userSpaceOnUse">
<stop stop-color="white" stop-opacity="0"/>
<stop offset="0.520833" stop-color="white" stop-opacity="0.2"/>
<stop offset="1" stop-color="white" stop-opacity="0"/>
</linearGradient>
<radialGradient id="paint38_radial_25596_105751" cx="0" cy="0" r="1" gradientUnits="userSpaceOnUse" gradientTransform="translate(7.13839 24.4007) rotate(155.85) scale(1.04481)">
<stop stop-color="#D64A38"/>
<stop offset="1" stop-color="#D64A38" stop-opacity="0"/>
</radialGradient>
<radialGradient id="paint39_radial_25596_105751" cx="0" cy="0" r="1" gradientUnits="userSpaceOnUse" gradientTransform="translate(2.17661 26.8295) rotate(-22.3971) scale(0.967535)">
<stop stop-color="#FB7425"/>
<stop offset="1" stop-color="#FB7425" stop-opacity="0"/>
</radialGradient>
<radialGradient id="paint40_radial_25596_105751" cx="0" cy="0" r="1" gradientUnits="userSpaceOnUse" gradientTransform="translate(6.53878 24.5667) rotate(141.872) scale(0.496749)">
<stop stop-color="white" stop-opacity="0.3"/>
<stop offset="1" stop-color="white" stop-opacity="0"/>
</radialGradient>
<linearGradient id="paint41_linear_25596_105751" x1="6.81819" y1="22.9292" x2="2.7275" y2="21.0119" gradientUnits="userSpaceOnUse">
<stop offset="0.15625" stop-color="#D64A38"/>
<stop offset="1" stop-color="#FB7425"/>
</linearGradient>
<linearGradient id="paint42_linear_25596_105751" x1="4.77403" y1="21.0318" x2="4.25698" y2="22.1194" gradientUnits="userSpaceOnUse">
<stop stop-color="white" stop-opacity="0"/>
<stop offset="0.520833" stop-color="white" stop-opacity="0.2"/>
<stop offset="1" stop-color="white" stop-opacity="0"/>
</linearGradient>
<radialGradient id="paint43_radial_25596_105751" cx="0" cy="0" r="1" gradientUnits="userSpaceOnUse" gradientTransform="translate(7.14282 22.8197) rotate(-153.389) scale(1.04481)">
<stop stop-color="#D64A38"/>
<stop offset="1" stop-color="#D64A38" stop-opacity="0"/>
</radialGradient>
<radialGradient id="paint44_radial_25596_105751" cx="0" cy="0" r="1" gradientUnits="userSpaceOnUse" gradientTransform="translate(2.12305 20.5131) rotate(28.3641) scale(0.967535)">
<stop stop-color="#FB7425"/>
<stop offset="1" stop-color="#FB7425" stop-opacity="0"/>
</radialGradient>
<radialGradient id="paint45_radial_25596_105751" cx="0" cy="0" r="1" gradientUnits="userSpaceOnUse" gradientTransform="translate(6.63491 22.4603) rotate(-167.367) scale(0.496749)">
<stop stop-color="white" stop-opacity="0.3"/>
<stop offset="1" stop-color="white" stop-opacity="0"/>
</radialGradient>
<linearGradient id="paint46_linear_25596_105751" x1="26.5398" y1="15.5078" x2="25.2898" y2="12.0391" gradientUnits="userSpaceOnUse">
<stop stop-color="#EF8A47"/>
<stop offset="1" stop-color="#EF8A47" stop-opacity="0"/>
</linearGradient>
<radialGradient id="paint47_radial_25596_105751" cx="0" cy="0" r="1" gradientUnits="userSpaceOnUse" gradientTransform="translate(24.305 12.1316) rotate(133.831) scale(0.936482 9.24798)">
<stop stop-color="#FFA319"/>
<stop offset="1" stop-color="#FFBA19" stop-opacity="0"/>
</radialGradient>
<radialGradient id="paint48_radial_25596_105751" cx="0" cy="0" r="1" gradientUnits="userSpaceOnUse" gradientTransform="translate(27.2229 10.2812) scale(0.771161 7.6154)">
<stop stop-color="#FF9419"/>
<stop offset="1" stop-color="#FFBA19" stop-opacity="0"/>
</radialGradient>
<radialGradient id="paint49_radial_25596_105751" cx="0" cy="0" r="1" gradientUnits="userSpaceOnUse" gradientTransform="translate(24.5299 8.4694) rotate(-130.864) scale(0.907259 8.9594)">
<stop stop-color="#FF9B19" stop-opacity="0.5"/>
<stop offset="1" stop-color="#FFBA19" stop-opacity="0"/>
</radialGradient>
<radialGradient id="paint50_radial_25596_105751" cx="0" cy="0" r="1" gradientUnits="userSpaceOnUse" gradientTransform="translate(24.9267 11.6233) rotate(-45.7638) scale(0.502944 2.40101)">
<stop stop-color="white" stop-opacity="0.3"/>
<stop offset="1" stop-color="white" stop-opacity="0"/>
</radialGradient>
<radialGradient id="paint51_radial_25596_105751" cx="0" cy="0" r="1" gradientUnits="userSpaceOnUse" gradientTransform="translate(25.1828 8.87328) rotate(-132.184) scale(0.409519 2.45272)">
<stop stop-color="white" stop-opacity="0.2"/>
<stop offset="1" stop-color="white" stop-opacity="0"/>
</radialGradient>
<radialGradient id="paint52_radial_25596_105751" cx="0" cy="0" r="1" gradientUnits="userSpaceOnUse" gradientTransform="translate(16.4461 21.1797) rotate(-153.246) scale(2.11729 2.12981)">
<stop stop-color="#FF2BA3"/>
<stop offset="1" stop-color="#F9326A"/>
</radialGradient>
<radialGradient id="paint53_radial_25596_105751" cx="0" cy="0" r="1" gradientUnits="userSpaceOnUse" gradientTransform="translate(16.5286 20.7017) rotate(90) scale(0.467818 0.822375)">
<stop stop-color="white" stop-opacity="0.5"/>
<stop offset="1" stop-color="white" stop-opacity="0"/>
</radialGradient>
<linearGradient id="paint54_linear_25596_105751" x1="16.0467" y1="27.5225" x2="16.0467" y2="23.1004" gradientUnits="userSpaceOnUse">
<stop stop-color="#E61E27"/>
<stop offset="1" stop-color="#672A7A"/>
</linearGradient>
<radialGradient id="paint55_radial_25596_105751" cx="0" cy="0" r="1" gradientTransform="matrix(-0.109863 -5.75867 5.75679 -0.16706 12.0156 19.5886)" gradientUnits="userSpaceOnUse">
<stop offset="0.166667" stop-color="#482641"/>
<stop offset="0.276042" stop-color="#594253"/>
<stop offset="0.401042" stop-color="#483637"/>
</radialGradient>
<linearGradient id="paint56_linear_25596_105751" x1="9.98433" y1="20.1406" x2="11.75" y2="18.8594" gradientUnits="userSpaceOnUse">
<stop stop-color="#271B27"/>
<stop offset="1" stop-color="#483637" stop-opacity="0"/>
</linearGradient>
<radialGradient id="paint57_radial_25596_105751" cx="0" cy="0" r="1" gradientTransform="matrix(-0.109863 -5.75867 5.75679 -0.16706 19.9843 19.5886)" gradientUnits="userSpaceOnUse">
<stop offset="0.166667" stop-color="#482641"/>
<stop offset="0.276042" stop-color="#594253"/>
<stop offset="0.401042" stop-color="#483637"/>
</radialGradient>
<linearGradient id="paint58_linear_25596_105751" x1="17.9531" y1="20.1406" x2="19.7187" y2="18.8594" gradientUnits="userSpaceOnUse">
<stop stop-color="#271B27"/>
<stop offset="1" stop-color="#483637" stop-opacity="0"/>
</linearGradient>
</defs>
</svg>
