<svg width="32" height="32" viewBox="0 0 32 32" fill="none" xmlns="http://www.w3.org/2000/svg">
<g id="UmbrellaEmoji">
<g id="Sand">
<path d="M5.01 29.9375H26.99C28.65 29.9375 30 28.5875 30 26.9275V20C30 18.9 29.11 18 28 18H4C2.9 18 2 18.89 2 20V26.9275C2 28.5975 3.35 29.9375 5.01 29.9375Z" fill="url(#paint0_linear_25596_105751)"/>
<path d="M5.01 29.9375H26.99C28.65 29.9375 30 28.5875 30 26.9275V20C30 18.9 29.11 18 28 18H4C2.9 18 2 18.89 2 20V26.9275C2 28.5975 3.35 29.9375 5.01 29.9375Z" fill="url(#paint1_linear_25596_105751)"/>
<path d="M5.01 29.9375H26.99C28.65 29.9375 30 28.5875 30 26.9275V20C30 18.9 29.11 18 28 18H4C2.9 18 2 18.89 2 20V26.9275C2 28.5975 3.35 29.9375 5.01 29.9375Z" fill="url(#paint2_linear_25596_105751)"/>
<path d="M5.01 29.9375H26.99C28.65 29.9375 30 28.5875 30 26.9275V20C30 18.9 29.11 18 28 18H4C2.9 18 2 18.89 2 20V26.9275C2 28.5975 3.35 29.9375 5.01 29.9375Z" fill="url(#paint3_linear_25596_105751)"/>
<path d="M5.01 29.9375H26.99C28.65 29.9375 30 28.5875 30 26.9275V20C30 18.9 29.11 18 28 18H4C2.9 18 2 18.89 2 20V26.9275C2 28.5975 3.35 29.9375 5.01 29.9375Z" fill="url(#paint4_radial_25596_105751)"/>
<path d="M5.01 29.9375H26.99C28.65 29.9375 30 28.5875 30 26.9275V20C30 18.9 29.11 18 28 18H4C2.9 18 2 18.89 2 20V26.9275C2 28.5975 3.35 29.9375 5.01 29.9375Z" fill="url(#paint5_linear_25596_105751)"/>
<path d="M5.01 29.9375H26.99C28.65 29.9375 30 28.5875 30 26.9275V20C30 18.9 29.11 18 28 18H4C2.9 18 2 18.89 2 20V26.9275C2 28.5975 3.35 29.9375 5.01 29.9375Z" fill="url(#paint6_radial_25596_105751)" fill-opacity="0.4"/>
<path d="M5.01 29.9375H26.99C28.65 29.9375 30 28.5875 30 26.9275V20C30 18.9 29.11 18 28 18H4C2.9 18 2 18.89 2 20V26.9275C2 28.5975 3.35 29.9375 5.01 29.9375Z" fill="url(#paint7_radial_25596_105751)" fill-opacity="0.8"/>
<path d="M5.01 29.9375H26.99C28.65 29.9375 30 28.5875 30 26.9275V20C30 18.9 29.11 18 28 18H4C2.9 18 2 18.89 2 20V26.9275C2 28.5975 3.35 29.9375 5.01 29.9375Z" fill="url(#paint8_radial_25596_105751)"/>
<path d="M5.01 29.9375H26.99C28.65 29.9375 30 28.5875 30 26.9275V20C30 18.9 29.11 18 28 18H4C2.9 18 2 18.89 2 20V26.9275C2 28.5975 3.35 29.9375 5.01 29.9375Z" fill="url(#paint9_radial_25596_105751)"/>
<path d="M5.01 29.9375H26.99C28.65 29.9375 30 28.5875 30 26.9275V20C30 18.9 29.11 18 28 18H4C2.9 18 2 18.89 2 20V26.9275C2 28.5975 3.35 29.9375 5.01 29.9375Z" fill="url(#paint10_radial_25596_105751)"/>
<path d="M5.01 29.9375H26.99C28.65 29.9375 30 28.5875 30 26.9275V20C30 18.9 29.11 18 28 18H4C2.9 18 2 18.89 2 20V26.9275C2 28.5975 3.35 29.9375 5.01 29.9375Z" fill="url(#paint11_radial_25596_105751)"/>
<path d="M5.01 29.9375H26.99C28.65 29.9375 30 28.5875 30 26.9275V20C30 18.9 29.11 18 28 18H4C2.9 18 2 18.89 2 20V26.9275C2 28.5975 3.35 29.9375 5.01 29.9375Z" fill="url(#paint12_radial_25596_105751)"/>
</g>
<g id="Post">
<path d="M24.25 7.87754L7.11997 25.0075C6.91997 25.2075 6.91997 25.5275 7.11997 25.7275C7.31997 25.9275 7.63997 25.9275 7.83997 25.7275L24.97 8.59754C25.17 8.39754 25.17 8.07754 24.97 7.87754C24.77 7.67754 24.45 7.67754 24.25 7.87754Z" fill="url(#paint13_linear_25596_105751)"/>
<path d="M24.25 7.87754L7.11997 25.0075C6.91997 25.2075 6.91997 25.5275 7.11997 25.7275C7.31997 25.9275 7.63997 25.9275 7.83997 25.7275L24.97 8.59754C25.17 8.39754 25.17 8.07754 24.97 7.87754C24.77 7.67754 24.45 7.67754 24.25 7.87754Z" fill="url(#paint14_linear_25596_105751)"/>
<path d="M24.25 7.87754L7.11997 25.0075C6.91997 25.2075 6.91997 25.5275 7.11997 25.7275C7.31997 25.9275 7.63997 25.9275 7.83997 25.7275L24.97 8.59754C25.17 8.39754 25.17 8.07754 24.97 7.87754C24.77 7.67754 24.45 7.67754 24.25 7.87754Z" fill="url(#paint15_radial_25596_105751)"/>
<path d="M24.25 7.87754L7.11997 25.0075C6.91997 25.2075 6.91997 25.5275 7.11997 25.7275C7.31997 25.9275 7.63997 25.9275 7.83997 25.7275L24.97 8.59754C25.17 8.39754 25.17 8.07754 24.97 7.87754C24.77 7.67754 24.45 7.67754 24.25 7.87754Z" fill="url(#paint16_linear_25596_105751)"/>
<path d="M24.25 7.87754L7.11997 25.0075C6.91997 25.2075 6.91997 25.5275 7.11997 25.7275C7.31997 25.9275 7.63997 25.9275 7.83997 25.7275L24.97 8.59754C25.17 8.39754 25.17 8.07754 24.97 7.87754C24.77 7.67754 24.45 7.67754 24.25 7.87754Z" fill="url(#paint17_radial_25596_105751)"/>
<path d="M24.25 7.87754L7.11997 25.0075C6.91997 25.2075 6.91997 25.5275 7.11997 25.7275C7.31997 25.9275 7.63997 25.9275 7.83997 25.7275L24.97 8.59754C25.17 8.39754 25.17 8.07754 24.97 7.87754C24.77 7.67754 24.45 7.67754 24.25 7.87754Z" fill="url(#paint18_radial_25596_105751)"/>
<path d="M24.25 7.87754L7.11997 25.0075C6.91997 25.2075 6.91997 25.5275 7.11997 25.7275C7.31997 25.9275 7.63997 25.9275 7.83997 25.7275L24.97 8.59754C25.17 8.39754 25.17 8.07754 24.97 7.87754C24.77 7.67754 24.45 7.67754 24.25 7.87754Z" fill="url(#paint19_linear_25596_105751)"/>
<path d="M24.25 7.87754L7.11997 25.0075C6.91997 25.2075 6.91997 25.5275 7.11997 25.7275C7.31997 25.9275 7.63997 25.9275 7.83997 25.7275L24.97 8.59754C25.17 8.39754 25.17 8.07754 24.97 7.87754C24.77 7.67754 24.45 7.67754 24.25 7.87754Z" fill="url(#paint20_radial_25596_105751)"/>
</g>
<g id="Brella Side Red">
<path d="M22.82 25.8475C23.58 26.6075 24.77 26.6675 25.34 25.9275C29.24 20.8275 28.83 13.4675 24.13 8.76751C19.43 4.06751 12.05 3.64751 6.94999 7.54751C6.20999 8.10751 6.26999 9.29751 7.02999 10.0575L7.78999 10.8175L15.3689 18.4605L22.05 25.0775L22.82 25.8475Z" fill="url(#paint21_linear_25596_105751)"/>
<path d="M22.82 25.8475C23.58 26.6075 24.77 26.6675 25.34 25.9275C29.24 20.8275 28.83 13.4675 24.13 8.76751C19.43 4.06751 12.05 3.64751 6.94999 7.54751C6.20999 8.10751 6.26999 9.29751 7.02999 10.0575L7.78999 10.8175L15.3689 18.4605L22.05 25.0775L22.82 25.8475Z" fill="url(#paint22_radial_25596_105751)"/>
<path d="M22.82 25.8475C23.58 26.6075 24.77 26.6675 25.34 25.9275C29.24 20.8275 28.83 13.4675 24.13 8.76751C19.43 4.06751 12.05 3.64751 6.94999 7.54751C6.20999 8.10751 6.26999 9.29751 7.02999 10.0575L7.78999 10.8175L15.3689 18.4605L22.05 25.0775L22.82 25.8475Z" fill="url(#paint23_linear_25596_105751)"/>
<path d="M22.82 25.8475C23.58 26.6075 24.77 26.6675 25.34 25.9275C29.24 20.8275 28.83 13.4675 24.13 8.76751C19.43 4.06751 12.05 3.64751 6.94999 7.54751C6.20999 8.10751 6.26999 9.29751 7.02999 10.0575L7.78999 10.8175L15.3689 18.4605L22.05 25.0775L22.82 25.8475Z" fill="url(#paint24_linear_25596_105751)"/>
<path d="M22.82 25.8475C23.58 26.6075 24.77 26.6675 25.34 25.9275C29.24 20.8275 28.83 13.4675 24.13 8.76751C19.43 4.06751 12.05 3.64751 6.94999 7.54751C6.20999 8.10751 6.26999 9.29751 7.02999 10.0575L7.78999 10.8175L15.3689 18.4605L22.05 25.0775L22.82 25.8475Z" fill="url(#paint25_radial_25596_105751)"/>
<path d="M22.82 25.8475C23.58 26.6075 24.77 26.6675 25.34 25.9275C29.24 20.8275 28.83 13.4675 24.13 8.76751C19.43 4.06751 12.05 3.64751 6.94999 7.54751C6.20999 8.10751 6.26999 9.29751 7.02999 10.0575L7.78999 10.8175L15.3689 18.4605L22.05 25.0775L22.82 25.8475Z" fill="url(#paint26_radial_25596_105751)"/>
</g>
<g id="Subtract">
<path d="M24.2331 8.89375C28.0185 12.8639 27.0621 20.0555 22.04 25.0775L18.4643 21.4992L18.47 21.4975C23.4291 16.5385 25.9485 10.979 24.2331 8.89375Z" fill="url(#paint27_linear_25596_105751)"/>
<path d="M24.2331 8.89375C28.0185 12.8639 27.0621 20.0555 22.04 25.0775L18.4643 21.4992L18.47 21.4975C23.4291 16.5385 25.9485 10.979 24.2331 8.89375Z" fill="url(#paint28_linear_25596_105751)"/>
<path d="M23.9597 8.62053C19.9889 4.83973 12.8103 5.79726 7.79004 10.8175L11.3409 14.3949C16.3042 9.43309 21.8712 6.90417 23.9597 8.62053Z" fill="url(#paint29_linear_25596_105751)"/>
<path d="M23.9597 8.62053C19.9889 4.83973 12.8103 5.79726 7.79004 10.8175L11.3409 14.3949C16.3042 9.43309 21.8712 6.90417 23.9597 8.62053Z" fill="url(#paint30_linear_25596_105751)"/>
<defs>
<linearGradient id="paint0_linear_25596_105751" x1="27.0186" y1="29.124" x2="12.0289" y2="20.7298" gradientUnits="userSpaceOnUse">
<stop stop-color="#FFC250"/>
<stop offset="1" stop-color="#FFB000"/>
</linearGradient>
<linearGradient id="paint1_linear_25596_105751" x1="30.6863" y1="24.7801" x2="26.2406" y2="24.7801" gradientUnits="userSpaceOnUse">
<stop stop-color="#FFE273" stop-opacity="0.62"/>
<stop offset="1" stop-color="#FFE273" stop-opacity="0"/>
</linearGradient>
<linearGradient id="paint2_linear_25596_105751" x1="29.9589" y1="24.7801" x2="29.2955" y2="24.7801" gradientUnits="userSpaceOnUse">
<stop offset="0.0603049" stop-color="#FFE273"/>
<stop offset="0.702028" stop-color="#FFE273" stop-opacity="0.195296"/>
<stop offset="1" stop-color="#FFE273" stop-opacity="0"/>
</linearGradient>
<linearGradient id="paint3_linear_25596_105751" x1="22.2268" y1="30.584" x2="22.2268" y2="28.9728" gradientUnits="userSpaceOnUse">
<stop offset="0.0603049" stop-color="#FFE273"/>
<stop offset="0.702028" stop-color="#FFE273" stop-opacity="0.195296"/>
<stop offset="1" stop-color="#FFE273" stop-opacity="0"/>
</linearGradient>
<radialGradient id="paint4_radial_25596_105751" cx="0" cy="0" r="1" gradientUnits="userSpaceOnUse" gradientTransform="translate(29.2085 29.2413) rotate(-131.878) scale(1.4941 3.5045)">
<stop offset="0.0603049" stop-color="#FFE273"/>
<stop offset="0.702028" stop-color="#FFE273" stop-opacity="0.195296"/>
<stop offset="1" stop-color="#FFE273" stop-opacity="0"/>
</radialGradient>
<linearGradient id="paint5_linear_25596_105751" x1="17.1905" y1="16.6826" x2="17.1905" y2="26.0503" gradientUnits="userSpaceOnUse">
<stop stop-color="#FFE273" stop-opacity="0.62"/>
<stop offset="1" stop-color="#FFE273" stop-opacity="0"/>
</linearGradient>
<radialGradient id="paint6_radial_25596_105751" cx="0" cy="0" r="1" gradientUnits="userSpaceOnUse" gradientTransform="translate(14.0888 24.5272) rotate(180) scale(12.7338 3.11142)">
<stop stop-color="#D7731C"/>
<stop offset="0.47907" stop-color="#D7731C" stop-opacity="0.558829"/>
<stop offset="0.820164" stop-color="#D7731C" stop-opacity="0.147746"/>
<stop offset="1" stop-color="#D7731C" stop-opacity="0"/>
</radialGradient>
<radialGradient id="paint7_radial_25596_105751" cx="0" cy="0" r="1" gradientUnits="userSpaceOnUse" gradientTransform="translate(17.3881 24.8053) rotate(-177.494) scale(10.0168 2.74846)">
<stop stop-color="#D7731C" stop-opacity="0.68"/>
<stop offset="0.420948" stop-color="#D7731C" stop-opacity="0.558829"/>
<stop offset="0.808064" stop-color="#D7731C" stop-opacity="0.147746"/>
<stop offset="1" stop-color="#D7731C" stop-opacity="0"/>
</radialGradient>
<radialGradient id="paint8_radial_25596_105751" cx="0" cy="0" r="1" gradientUnits="userSpaceOnUse" gradientTransform="translate(21.1262 25.1449) rotate(-177.595) scale(6.39175 1.56847)">
<stop stop-color="#D7731C"/>
<stop offset="0.331283" stop-color="#D7731C" stop-opacity="0.716603"/>
<stop offset="0.796174" stop-color="#D7731C" stop-opacity="0.12"/>
<stop offset="1" stop-color="#D7731C" stop-opacity="0"/>
</radialGradient>
<radialGradient id="paint9_radial_25596_105751" cx="0" cy="0" r="1" gradientUnits="userSpaceOnUse" gradientTransform="translate(22.4638 25.6399) rotate(172.179) scale(5.0098 1.54307)">
<stop stop-color="#D7731C"/>
<stop offset="0.356078" stop-color="#D7731C" stop-opacity="0.75818"/>
<stop offset="0.783927" stop-color="#D7731C" stop-opacity="0.142029"/>
<stop offset="1" stop-color="#D7731C" stop-opacity="0"/>
</radialGradient>
<radialGradient id="paint10_radial_25596_105751" cx="0" cy="0" r="1" gradientUnits="userSpaceOnUse" gradientTransform="translate(19.7495 21.0292) rotate(93.3678) scale(2.62107 11.0007)">
<stop offset="0.0603049" stop-color="#FFE273" stop-opacity="0.65"/>
<stop offset="0.687467" stop-color="#FFE273" stop-opacity="0.195296"/>
<stop offset="1" stop-color="#FFE273" stop-opacity="0"/>
</radialGradient>
<radialGradient id="paint11_radial_25596_105751" cx="0" cy="0" r="1" gradientUnits="userSpaceOnUse" gradientTransform="translate(23.4327 29.187) rotate(-99.4623) scale(3.45744 14.5111)">
<stop offset="0.0603049" stop-color="#FFE273" stop-opacity="0.65"/>
<stop offset="0.687467" stop-color="#FFE273" stop-opacity="0.195296"/>
<stop offset="1" stop-color="#FFE273" stop-opacity="0"/>
</radialGradient>
<radialGradient id="paint12_radial_25596_105751" cx="0" cy="0" r="1" gradientUnits="userSpaceOnUse" gradientTransform="translate(26.4909 25.4312) rotate(3.74299) scale(3.07506 12.9062)">
<stop offset="0.0603049" stop-color="#FFE273" stop-opacity="0.65"/>
<stop offset="0.687467" stop-color="#FFE273" stop-opacity="0.195296"/>
<stop offset="1" stop-color="#FFE273" stop-opacity="0"/>
</radialGradient>
<linearGradient id="paint13_linear_25596_105751" x1="24.9971" y1="7.88726" x2="7.14585" y2="25.7385" gradientUnits="userSpaceOnUse">
<stop stop-color="#A66459"/>
<stop offset="0.588542" stop-color="#8A3F42"/>
<stop offset="1" stop-color="#7B4230"/>
</linearGradient>
<linearGradient id="paint14_linear_25596_105751" x1="10.2058" y1="21.7471" x2="11.0677" y2="22.6136" gradientUnits="userSpaceOnUse">
<stop offset="0.0180493" stop-color="#7F5951" stop-opacity="0"/>
<stop offset="0.247686" stop-color="#7F5951" stop-opacity="0.430027"/>
<stop offset="0.448063" stop-color="#7F5951"/>
<stop offset="0.519826" stop-color="#7F5951" stop-opacity="0.85"/>
<stop offset="0.691794" stop-color="#7F5951" stop-opacity="0.384758"/>
<stop offset="1" stop-color="#7F5951" stop-opacity="0"/>
</linearGradient>
<radialGradient id="paint15_radial_25596_105751" cx="0" cy="0" r="1" gradientUnits="userSpaceOnUse" gradientTransform="translate(15.0372 17.9763) rotate(82.7316) scale(7.96529)">
<stop stop-color="#8A3F42"/>
<stop offset="1" stop-color="#8A3F42" stop-opacity="0"/>
</radialGradient>
<linearGradient id="paint16_linear_25596_105751" x1="11.5426" y1="22.1035" x2="11.2701" y2="21.8359" gradientUnits="userSpaceOnUse">
<stop stop-color="#8A3F42"/>
<stop offset="1" stop-color="#8A3F42" stop-opacity="0"/>
</linearGradient>
<radialGradient id="paint17_radial_25596_105751" cx="0" cy="0" r="1" gradientUnits="userSpaceOnUse" gradientTransform="translate(24.8377 8.01034) rotate(137.366) scale(3.54112)">
<stop stop-color="#A66459"/>
<stop offset="1" stop-color="#A66459" stop-opacity="0"/>
</radialGradient>
<radialGradient id="paint18_radial_25596_105751" cx="0" cy="0" r="1" gradientUnits="userSpaceOnUse" gradientTransform="translate(25.0617 7.81232) rotate(139.857) scale(0.921383 0.590771)">
<stop stop-color="#C18E80"/>
<stop offset="0.993283" stop-color="#C18E80" stop-opacity="0"/>
</radialGradient>
<linearGradient id="paint19_linear_25596_105751" x1="13.7045" y1="19.9631" x2="13.4461" y2="19.7038" gradientUnits="userSpaceOnUse">
<stop offset="0.167047" stop-color="#7F431C"/>
<stop offset="0.731012" stop-color="#7F431C" stop-opacity="0.259538"/>
<stop offset="1" stop-color="#7F431C" stop-opacity="0"/>
</linearGradient>
<radialGradient id="paint20_radial_25596_105751" cx="0" cy="0" r="1" gradientUnits="userSpaceOnUse" gradientTransform="translate(7.13112 25.8313) rotate(-56.9761) scale(0.672113 2.78649)">
<stop stop-color="#7F431C"/>
<stop offset="0.731012" stop-color="#7F431C" stop-opacity="0.259538"/>
<stop offset="1" stop-color="#7F431C" stop-opacity="0"/>
</radialGradient>
<linearGradient id="paint21_linear_25596_105751" x1="22.1299" y1="14.3753" x2="13.1924" y2="16.4378" gradientUnits="userSpaceOnUse">
<stop stop-color="#FF6072"/>
<stop offset="1" stop-color="#EC3A51"/>
</linearGradient>
<radialGradient id="paint22_radial_25596_105751" cx="0" cy="0" r="1" gradientUnits="userSpaceOnUse" gradientTransform="translate(16.1827 19.2592) rotate(-23.1654) scale(12.8413 20.2531)">
<stop offset="0.767914" stop-color="#EA596B" stop-opacity="0"/>
<stop offset="1" stop-color="#EA596B"/>
</radialGradient>
<linearGradient id="paint23_linear_25596_105751" x1="13.0893" y1="17.67" x2="15.984" y2="14.7752" gradientUnits="userSpaceOnUse">
<stop stop-color="#CB3A43"/>
<stop offset="0.481167" stop-color="#D92E49"/>
<stop offset="0.666151" stop-color="#D92E49" stop-opacity="0.205341"/>
<stop offset="0.746861" stop-color="#D92E49" stop-opacity="0"/>
</linearGradient>
<linearGradient id="paint24_linear_25596_105751" x1="29.6914" y1="23.2891" x2="22.6533" y2="18.2375" gradientUnits="userSpaceOnUse">
<stop stop-color="#EE442B"/>
<stop offset="1" stop-color="#EE442B" stop-opacity="0"/>
</linearGradient>
<radialGradient id="paint25_radial_25596_105751" cx="0" cy="0" r="1" gradientUnits="userSpaceOnUse" gradientTransform="translate(20.4424 17.4378) rotate(-119.416) scale(13.489 22.5036)">
<stop stop-color="#CA3E4B" stop-opacity="0"/>
<stop offset="0.611421" stop-color="#CA3E4B" stop-opacity="0"/>
<stop offset="1" stop-color="#CA3E4B"/>
</radialGradient>
<radialGradient id="paint26_radial_25596_105751" cx="0" cy="0" r="1" gradientUnits="userSpaceOnUse" gradientTransform="translate(6.3608 9.85944) rotate(-39.1737) scale(2.75642 5.47875)">
<stop stop-color="#C9B9C9" stop-opacity="0.41"/>
<stop offset="0.878771" stop-color="#D4C9DC" stop-opacity="0"/>
</radialGradient>
<linearGradient id="paint27_linear_25596_105751" x1="15.0674" y1="18.1878" x2="24.0049" y2="9.25033" gradientUnits="userSpaceOnUse">
<stop stop-color="#E5DFEA"/>
<stop offset="1" stop-color="#FEFCFF"/>
</linearGradient>
<linearGradient id="paint28_linear_25596_105751" x1="13.6924" y1="19.0003" x2="16.4737" y2="16.2191" gradientUnits="userSpaceOnUse">
<stop offset="0.323696" stop-color="#C9B9C9"/>
<stop offset="0.61236" stop-color="#D4C9DC"/>
<stop offset="0.774058" stop-color="#D4C9DC" stop-opacity="0.30057"/>
<stop offset="0.878771" stop-color="#D4C9DC" stop-opacity="0"/>
</linearGradient>
<linearGradient id="paint29_linear_25596_105751" x1="15.0674" y1="18.1878" x2="24.0049" y2="9.25033" gradientUnits="userSpaceOnUse">
<stop stop-color="#E5DFEA"/>
<stop offset="1" stop-color="#FEFCFF"/>
</linearGradient>
<linearGradient id="paint30_linear_25596_105751" x1="13.6924" y1="19.0003" x2="16.4737" y2="16.2191" gradientUnits="userSpaceOnUse">
<stop offset="0.323696" stop-color="#C9B9C9"/>
<stop offset="0.61236" stop-color="#D4C9DC"/>
<stop offset="0.774058" stop-color="#D4C9DC" stop-opacity="0.30057"/>
<stop offset="0.878771" stop-color="#D4C9DC" stop-opacity="0"/>
</linearGradient>
</defs>
</svg>
