<svg width="16" height="16" viewBox="0 0 16 16" fill="none" xmlns="http://www.w3.org/2000/svg" aria-hidden="true">
  <path d="M12.07 8.34C12.1 10.94 14.28 11.78 14.3 11.79C14.28 11.84 13.98 12.92 13.22 14.04C12.54 15.02 11.84 16 10.64 16.02C9.46 16.04 9.08 15.34 7.72 15.34C6.36 15.34 5.92 16 4.8 16.02C3.64 16.04 2.84 14.94 2.14 13.96C0.68 11.94 -0.52 9.38 0.98 6.78C1.72 5.5 3.08 4.66 4.56 4.64C5.7 4.62 6.76 5.4 7.44 5.4C8.12 5.4 9.38 4.46 10.78 4.62C11.36 4.64 12.86 4.86 13.88 6.34C13.8 6.4 12.06 7.36 12.07 8.34ZM10.02 3.28C10.66 2.5 11.12 1.44 11 0.36C10.08 0.4 8.96 0.98 8.36 1.72C7.76 2.44 7.22 3.52 7.36 4.56C8.36 4.64 9.42 4.06 10.02 3.28Z" fill="#000000"/>
</svg>
