<?xml version="1.0" encoding="UTF-8"?>
<svg id="Layer_1" xmlns="http://www.w3.org/2000/svg" version="1.1" viewBox="0 0 2500 2500">
  <!-- Generator: Adobe Illustrator 30.6.0, SVG Export Plug-In . SVG Version: 2.1.4 Build 109)  -->
  <defs>
    <style>
      .st0 {
        fill: #fff;
      }

      .st1 {
        fill: #0161d4;
      }
    </style>
  </defs>
  <path class="st1" d="M2085.59,2500H414.41c-228.88,0-414.41-185.54-414.41-414.41V414.41C0,185.54,185.54,0,414.41,0h1671.17c228.88,0,414.41,185.54,414.41,414.41v1671.17c0,228.88-185.54,414.41-414.41,414.41"/>
  <path class="st0" d="M1279.49,1052.6c-130.07,0-243.25,73.16-300.25,180.58-57.02-107.41-170.15-180.58-300.3-180.58-73.58-.08-145.18,23.78-204,67.98v-286.36c-.68-37.04-30.94-66.69-67.98-66.62-37.13,0-67.01,29.62-67.86,66.62v563.89h.07c3,185.15,153.88,334.3,339.78,334.3,130.16,0,243.28-73.23,300.3-180.54,57,107.3,170.19,180.54,300.25,180.54,187.66,0,339.88-152.17,339.88-339.97s-152.23-339.83-339.88-339.83M678.94,1596.32c-112.61,0-204-91.22-204-203.84s91.4-203.81,204-203.81,203.8,91.23,203.8,203.76-91.2,203.89-203.8,203.89M1279.49,1596.32c-112.64,0-203.96-91.25-203.96-203.89s91.33-203.76,203.96-203.76,203.87,91.23,203.87,203.76-91.28,203.89-203.87,203.89"/>
  <path class="st0" d="M2146.78,1618.6l-184.75-226.61,184.97-227.05c23.39-29.95,16.68-71.78-15.61-93.99-32.32-22.41-77.68-16.67-102.69,12.39v-.04l-159.14,195.04-158.99-195.04v.04c-24.76-29.06-70.39-34.8-102.62-12.39-32.23,22.24-38.96,64.04-15.46,93.99h-.07l184.65,227.05-184.65,226.61h.07c-23.51,30.05-16.77,71.74,15.46,94.05s77.86,16.63,102.62-12.47l158.99-194.77,158.92,194.77c25.04,29.1,70.37,34.79,102.7,12.47,32.29-22.31,39.03-64,15.6-94.05"/>
</svg>