<svg preserveAspectRatio="none" width="100%" height="100%" overflow="visible" style="display: block;" viewBox="0 0 24 24" fill="none" xmlns="http://www.w3.org/2000/svg">
<g id="Frame">
<path id="Path" d="M0 12C0 5.3726 5.3726 0 12 0C18.6274 0 24 5.3726 24 12C24 18.6274 18.6274 24 12 24C5.3726 24 0 18.6274 0 12Z" fill="var(--fill-0, #FFE300)"/>
<path id="Path_2" d="M18.4356 15.4375C16.1128 14.313 15.7426 12.5769 15.7261 12.4482C15.7062 12.2922 15.6836 12.1695 15.8556 12.0109C16.0216 11.8576 16.7578 11.4019 16.9621 11.2593C17.2997 11.0233 17.4484 10.7876 17.3388 10.4978C17.2621 10.2974 17.0755 10.2219 16.8789 10.2219C16.8169 10.2221 16.7551 10.229 16.6946 10.2426C16.3236 10.3231 15.9634 10.5089 15.7549 10.5592C15.7298 10.5656 15.7041 10.5691 15.6782 10.5695C15.567 10.5695 15.5249 10.5201 15.5357 10.3863C15.5617 9.9808 15.6169 9.1894 15.5529 8.45015C15.4652 7.433 15.137 6.92905 14.748 6.4833C14.5599 6.26715 13.6861 5.33855 11.9998 5.33855C10.3135 5.33855 9.4409 6.26715 9.2539 6.48065C8.86375 6.92635 8.53605 7.4303 8.44905 8.44745C8.38505 9.18675 8.44255 9.97775 8.4663 10.3836C8.47395 10.5109 8.4349 10.5668 8.32375 10.5668C8.29785 10.5664 8.27215 10.5629 8.2471 10.5565C8.039 10.5063 7.67875 10.3204 7.30775 10.2399C7.24725 10.2263 7.18545 10.2194 7.1234 10.2192C6.92605 10.2192 6.74015 10.2959 6.6635 10.4951C6.5539 10.7849 6.70185 11.0206 7.04065 11.2567C7.2449 11.3992 7.9811 11.8545 8.14705 12.0082C8.31875 12.1669 8.29655 12.2895 8.2766 12.4455C8.2601 12.5762 7.8895 14.3123 5.56705 15.4348C5.431 15.5007 5.19955 15.6402 5.6077 15.8656C6.24845 16.2197 6.675 16.1817 7.00655 16.3952C7.28785 16.5765 7.1215 16.9674 7.32615 17.1084C7.57755 17.282 8.32065 17.0962 9.2807 17.4131C10.0855 17.6783 10.5746 18.4276 12.0017 18.4276C13.4289 18.4276 13.9322 17.6749 14.7228 17.4131C15.6809 17.0962 16.4256 17.282 16.6774 17.1084C16.8816 16.9674 16.7157 16.5765 16.997 16.3952C17.3285 16.1817 17.7546 16.2197 18.3958 15.8656C18.8032 15.6429 18.5717 15.5034 18.4356 15.4375Z" fill="var(--fill-0, white)"/>
<path id="Shape" fill-rule="evenodd" clip-rule="evenodd" d="M18.9175 14.7442C19.1436 14.8699 19.3421 15.0216 19.4463 15.3052C19.5632 15.6226 19.4916 15.982 19.2064 16.2871L19.2026 16.2917C19.0875 16.419 18.9514 16.5256 18.8002 16.6067C18.5001 16.7715 18.1809 16.8986 17.8498 16.9853C17.7864 17.0023 17.7262 17.0297 17.6719 17.0666C17.6152 17.1168 17.5917 17.1792 17.5623 17.257C17.5401 17.3159 17.5146 17.3836 17.4688 17.4614C17.3903 17.5982 17.2824 17.716 17.153 17.8062C16.8433 18.0201 16.4954 18.0336 16.1267 18.0477L16.1256 18.0477C15.7928 18.0604 15.4157 18.0747 14.985 18.2171C14.8114 18.2746 14.627 18.3876 14.4136 18.5187L14.4123 18.5195C13.8923 18.838 13.1808 19.2737 11.9991 19.2737C10.8164 19.2737 10.1097 18.8395 9.59355 18.5222C9.37855 18.3888 9.19305 18.2746 9.01445 18.2156C8.5833 18.0734 8.2058 18.0588 7.87275 18.0462H7.87272C7.50408 18.032 7.15609 18.0186 6.84645 17.8048C6.73715 17.7289 6.64305 17.6332 6.56895 17.5226C6.49705 17.4184 6.46391 17.3303 6.43602 17.2562C6.40667 17.1782 6.38313 17.1156 6.32635 17.0659C6.26845 17.0272 6.20445 16.9985 6.13705 16.9811C5.81035 16.8947 5.4954 16.7687 5.19925 16.606C5.0569 16.5302 4.92754 16.4323 4.816 16.3159C4.51209 16.0038 4.43391 15.6337 4.55348 15.3083C4.6889 14.9403 4.98232 14.7931 5.29009 14.6388C5.34291 14.6123 5.39616 14.5856 5.4491 14.5575C6.1313 14.1869 6.66555 13.724 7.0388 13.1778C7.14525 13.0237 7.2377 12.8604 7.31515 12.6899C7.35155 12.5903 7.3508 12.5363 7.32625 12.4861C7.29995 12.4451 7.2652 12.4102 7.2243 12.3837C7.1074 12.3063 6.98825 12.2289 6.9066 12.176C6.87642 12.1562 6.84748 12.1373 6.81989 12.1193C6.70939 12.0471 6.62033 11.989 6.559 11.9461C6.26965 11.7437 6.0673 11.5287 5.94045 11.2884C5.85235 11.1221 5.80115 10.9388 5.79025 10.7509C5.7793 10.563 5.809 10.375 5.8772 10.1996C6.06805 9.69525 6.5452 9.38215 7.12275 9.38215C7.2445 9.38205 7.3659 9.3949 7.4849 9.4205C7.51675 9.4274 7.54815 9.43465 7.5792 9.4427C7.5742 9.0997 7.5819 8.7337 7.61255 8.37535C7.7214 7.1168 8.1625 6.4553 8.6224 5.92875C8.91715 5.59785 9.26475 5.3181 9.651 5.10095C10.3496 4.70235 11.1372 4.5 11.9999 4.5C12.8626 4.5 13.654 4.70235 14.3519 5.10095C14.7372 5.31805 15.0841 5.59725 15.3786 5.9272C15.8385 6.4538 16.2796 7.1141 16.3884 8.37385C16.4191 8.73215 16.4268 9.09625 16.4214 9.4412C16.4524 9.43315 16.4842 9.42585 16.5161 9.41895C16.6351 9.39335 16.7565 9.3805 16.8782 9.3806C17.4554 9.3806 17.9318 9.69375 18.1234 10.1981C18.1913 10.3734 18.2207 10.5613 18.2095 10.749C18.1983 10.9366 18.1469 11.1197 18.0586 11.2857C17.9321 11.5261 17.7298 11.741 17.4404 11.9434C17.3638 11.9979 17.245 12.0749 17.095 12.172L17.0928 12.1733C17.0081 12.2281 16.8832 12.3094 16.7621 12.3895C16.7259 12.4142 16.6952 12.4461 16.672 12.4834C16.6487 12.5316 16.6472 12.5845 16.6797 12.6777C16.7582 12.8519 16.8523 13.0186 16.9606 13.1759C17.3424 13.7347 17.8927 14.206 18.5975 14.5798C18.6333 14.5983 18.6692 14.6164 18.7049 14.6344C18.7377 14.6509 18.7703 14.6673 18.8025 14.684C18.8358 14.6993 18.8749 14.7192 18.9175 14.7442ZM17.5155 16.2048C17.7574 16.1404 18.044 16.064 18.3952 15.8701C18.8033 15.6428 18.5718 15.5033 18.4346 15.4347C16.1118 14.3122 15.7416 12.5761 15.7251 12.4454C15.7244 12.4402 15.7237 12.4349 15.723 12.4297C15.7038 12.2811 15.6884 12.1614 15.8546 12.0082C15.9674 11.9036 16.3439 11.6597 16.6376 11.4695C16.7758 11.3799 16.8957 11.3022 16.9611 11.2566C17.2995 11.0205 17.4473 10.7849 17.3378 10.4951C17.2611 10.2958 17.0752 10.2192 16.8779 10.2192C16.8159 10.2193 16.7541 10.2263 16.6936 10.2399C16.4749 10.2873 16.2599 10.3713 16.0776 10.4426C15.9506 10.4923 15.8394 10.5358 15.7538 10.5564C15.7288 10.5629 15.7031 10.5663 15.6771 10.5668C15.566 10.5668 15.5258 10.5174 15.5346 10.3836C15.5355 10.3694 15.5365 10.3546 15.5374 10.3394C15.5644 9.92255 15.6136 9.16072 15.5519 8.4474C15.4648 7.4303 15.1368 6.9263 14.747 6.4806C14.56 6.26715 13.6789 5.34235 11.9984 5.34235C10.3179 5.34235 9.4391 6.271 9.25205 6.4852C8.8627 6.9309 8.535 7.4349 8.44725 8.452C8.38843 9.1315 8.43224 9.85467 8.45816 10.2824C8.46044 10.32 8.46258 10.3554 8.4645 10.3882C8.47215 10.5154 8.43305 10.5714 8.3219 10.5714C8.29605 10.5709 8.27035 10.5675 8.24525 10.561C8.15992 10.5404 8.04902 10.497 7.92229 10.4474C7.73993 10.3761 7.5248 10.2919 7.30595 10.2445C7.24545 10.2309 7.1836 10.2239 7.1216 10.2238C6.9254 10.2238 6.73835 10.2993 6.6617 10.4997C6.5521 10.7895 6.7008 11.0251 7.0388 11.2612C7.10427 11.3069 7.22437 11.3847 7.36281 11.4745C7.65639 11.6648 8.03248 11.9086 8.14525 12.0128C8.31139 12.1663 8.29594 12.2861 8.27674 12.435C8.27609 12.44 8.27544 12.445 8.2748 12.45C8.2583 12.5788 7.8877 14.3149 5.56525 15.4394C5.4292 15.5052 5.1977 15.6447 5.60585 15.8701C5.95604 16.0626 6.24213 16.1385 6.48376 16.2027C6.68428 16.2559 6.85418 16.301 7.0047 16.3979C7.15681 16.4959 7.17814 16.6552 7.19796 16.8031C7.21479 16.9288 7.23052 17.0463 7.32435 17.111C7.43348 17.1863 7.63516 17.194 7.90668 17.2044C8.26166 17.218 8.736 17.2362 9.2789 17.4157C9.55141 17.5055 9.7882 17.6511 10.0375 17.8043C10.5245 18.1035 11.0592 18.4321 12.001 18.4321C12.9464 18.4321 13.4868 18.1004 13.9749 17.8008C14.2221 17.6491 14.4559 17.5056 14.7221 17.4177C15.266 17.2381 15.7403 17.2199 16.0949 17.2063C16.3663 17.1959 16.5677 17.1882 16.6767 17.113C16.7706 17.0482 16.7863 16.9307 16.8031 16.805C16.8228 16.6571 16.844 16.4978 16.9963 16.3997C17.1463 16.3032 17.3156 16.2581 17.5155 16.2048Z" fill="var(--fill-0, black)"/>
</g>
</svg>
