<svg preserveAspectRatio="none" width="100%" height="100%" overflow="visible" style="display: block;" viewBox="0 0 40 40" fill="none" xmlns="http://www.w3.org/2000/svg">
<g id="Frame">
<path id="Vector" fill-rule="evenodd" clip-rule="evenodd" d="M19.9982 0C8.95423 0 0 8.95423 0 20.0006C0 28.837 5.73007 36.3326 13.6775 38.9785C14.6782 39.1614 15.0428 38.5438 15.0428 38.0134C15.0428 37.5395 15.0256 36.281 15.0158 34.6125C9.45271 35.8206 8.27895 31.931 8.27895 31.931C7.36916 29.6215 6.05789 29.0064 6.05789 29.0064C4.242 27.7651 6.1954 27.7897 6.1954 27.7897C8.20283 27.9321 9.25872 29.8511 9.25872 29.8511C11.0427 32.9071 13.9403 32.0243 15.0797 31.5135C15.2614 30.2207 15.777 29.3391 16.3492 28.8394C11.9083 28.3348 7.23902 26.6184 7.23902 18.9545C7.23902 16.7715 8.01866 14.9863 9.29801 13.5879C9.09175 13.082 8.40541 11.0488 9.49323 8.29491C9.49323 8.29491 11.1728 7.75714 14.9937 10.3453C16.5886 9.90208 18.3001 9.67985 20.0006 9.67249C21.6986 9.67985 23.4102 9.90208 25.0075 10.3453C28.8259 7.75714 30.5019 8.29491 30.5019 8.29491C31.5934 11.0488 30.907 13.082 30.7008 13.5879C31.9826 14.9863 32.7573 16.7715 32.7573 18.9545C32.7573 26.638 28.0807 28.3287 23.625 28.8235C24.3433 29.441 24.983 30.6615 24.983 32.5277C24.983 35.2006 24.9584 37.3578 24.9584 38.0134C24.9584 38.5488 25.3181 39.1712 26.3335 38.976C34.2748 36.3252 40 28.8345 40 20.0006C40 8.95423 31.0445 0 19.9982 0Z" fill="var(--fill-0, black)"/>
</g>
</svg>
