<svg width="16" height="16" viewBox="0 0 16 16" fill="none" xmlns="http://www.w3.org/2000/svg" aria-hidden="true">
  <path d="M15.04 8.18C15.04 7.64 14.99 7.12 14.9 6.64H8V9.48H11.94C11.76 10.48 11.18 11.32 10.32 11.9V13.86H12.78C14.36 12.4 15.04 10.42 15.04 8.18Z" fill="#4285F4"/>
  <path d="M8 16C10.08 16 11.84 15.28 13.08 14.04L10.62 12.08C9.92 12.58 9.02 12.88 8 12.88C6.02 12.88 4.32 11.54 3.72 9.72H1.16V11.72C2.38 14.28 4.98 16 8 16Z" fill="#34A853"/>
  <path d="M3.72 9.72C3.56 9.22 3.46 8.68 3.46 8.12C3.46 7.56 3.56 7.02 3.72 6.52V4.52H1.16C0.62 5.58 0.32 6.82 0.32 8.12C0.32 9.42 0.62 10.66 1.16 11.72L3.72 9.72Z" fill="#FBBC05"/>
  <path d="M8 3.36C9.16 3.36 10.2 3.76 11.02 4.54L13.18 2.38C11.84 1.14 10.08 0.32 8 0.32C4.98 0.32 2.38 2.04 1.16 4.6L3.72 6.52C4.32 4.7 6.02 3.36 8 3.36Z" fill="#EA4335"/>
</svg>
