<svg width="16" height="16" viewBox="0 0 16 16" fill="none" xmlns="http://www.w3.org/2000/svg" aria-hidden="true">
  <rect width="16" height="16" rx="2" fill="#0A66C2"/>
  <path d="M5.4 6.35H3.55V12.4H5.4V6.35Z" fill="#FFFFFF"/>
  <path d="M4.47 3.6C3.86 3.6 3.4 4.05 3.4 4.63C3.4 5.21 3.86 5.66 4.47 5.66C5.08 5.66 5.54 5.21 5.54 4.63C5.54 4.05 5.08 3.6 4.47 3.6Z" fill="#FFFFFF"/>
  <path d="M10.09 6.22C9.2 6.22 8.72 6.68 8.5 7.03V6.35H6.65C6.67 6.86 6.65 12.4 6.65 12.4H8.5V9.06C8.5 8.9 8.51 8.75 8.56 8.63C8.69 8.31 8.98 7.98 9.47 7.98C10.11 7.98 10.37 8.46 10.37 9.17V12.4H12.22V8.96C12.22 7.28 11.31 6.22 10.09 6.22Z" fill="#FFFFFF"/>
</svg>
