<svg preserveAspectRatio="none" width="100%" height="100%" overflow="visible" style="display: block;" viewBox="0 0 40 40" fill="none" xmlns="http://www.w3.org/2000/svg">
<g id="Frame">
<path id="Vector" d="M20 0C8.735 0 0 8.25427 0 19.3983C0 25.2278 2.39 30.2673 6.28 33.747C6.605 34.037 6.805 34.4469 6.815 34.8869L6.925 38.4466C6.96 39.5815 8.13 40.3214 9.17 39.8615L13.14 38.1116C13.475 37.9616 13.855 37.9366 14.21 38.0316C16.035 38.5316 17.975 38.8016 20 38.8016C31.265 38.8016 40 30.5473 40 19.4033C40 8.25927 31.265 0 20 0Z" fill="url(#paint0_radial_0_20)"/>
<path id="Vector_2" d="M7.99 25.0728L13.865 15.7536C14.8 14.2687 16.8 13.9038 18.205 14.9537L22.88 18.4584C23.31 18.7783 23.9 18.7783 24.325 18.4534L30.635 13.6638C31.475 13.0238 32.575 14.0338 32.015 14.9287L26.135 24.2428C25.2 25.7277 23.2 26.0927 21.795 25.0428L17.12 21.5381C16.69 21.2181 16.1 21.2181 15.675 21.5431L9.365 26.3327C8.525 26.9726 7.425 25.9677 7.99 25.0728Z" fill="var(--fill-0, white)"/>
</g>
<defs>
<radialGradient id="paint0_radial_0_20" cx="0" cy="0" r="1" gradientUnits="userSpaceOnUse" gradientTransform="translate(7.7 39.7787) scale(43.584 43.5801)">
<stop stop-color="#0099FF"/>
<stop offset="0.6098" stop-color="#A033FF"/>
<stop offset="0.9348" stop-color="#FF5280"/>
<stop offset="1" stop-color="#FF7061"/>
</radialGradient>
</defs>
</svg>
