<svg preserveAspectRatio="none" width="100%" height="100%" overflow="visible" style="display: block;" viewBox="0 0 40.0002 40.0002" fill="none" xmlns="http://www.w3.org/2000/svg">
<g id="Slack_Mark">
<path id="Shape" d="M8.40393 25.277C8.40393 27.5897 6.51468 29.479 4.20197 29.479C1.88926 29.479 0 27.5897 0 25.277C0 22.9643 1.88926 21.075 4.20197 21.075H8.40393V25.277Z" fill="var(--fill-0, #E01E5A)"/>
<path id="Shape_2" d="M10.5212 25.277C10.5212 22.9643 12.4105 21.075 14.7232 21.075C17.0359 21.075 18.9251 22.9643 18.9251 25.277V35.7982C18.9251 38.1109 17.0359 40.0002 14.7232 40.0002C12.4105 40.0002 10.5212 38.1109 10.5212 35.7982V25.277Z" fill="var(--fill-0, #E01E5A)"/>
<path id="Shape_3" d="M14.7232 8.40393C12.4105 8.40393 10.5212 6.51468 10.5212 4.20197C10.5212 1.88926 12.4105 0 14.7232 0C17.0359 0 18.9251 1.88926 18.9251 4.20197V8.40393H14.7232Z" fill="var(--fill-0, #36C5F0)"/>
<path id="Shape_4" d="M14.7232 10.5212C17.0359 10.5212 18.9251 12.4105 18.9251 14.7232C18.9251 17.0359 17.0359 18.9252 14.7232 18.9252H4.20197C1.88926 18.9252 0 17.0359 0 14.7232C0 12.4105 1.88926 10.5212 4.20197 10.5212H14.7232Z" fill="var(--fill-0, #36C5F0)"/>
<path id="Shape_5" d="M31.5962 14.7232C31.5962 12.4105 33.4854 10.5212 35.7981 10.5212C38.1108 10.5212 40.0001 12.4105 40.0001 14.7232C40.0001 17.0359 38.1108 18.9252 35.7981 18.9252H31.5962V14.7232Z" fill="var(--fill-0, #2EB67D)"/>
<path id="Shape_6" d="M29.4789 14.7232C29.4789 17.0359 27.5896 18.9251 25.2769 18.9251C22.9642 18.9251 21.075 17.0359 21.075 14.7232V4.20197C21.075 1.88926 22.9642 0 25.2769 0C27.5896 0 29.4789 1.88926 29.4789 4.20197V14.7232Z" fill="var(--fill-0, #2EB67D)"/>
<path id="Shape_7" d="M25.2769 31.5963C27.5896 31.5963 29.4789 33.4855 29.4789 35.7982C29.4789 38.1109 27.5896 40.0002 25.2769 40.0002C22.9642 40.0002 21.075 38.1109 21.075 35.7982V31.5963H25.2769Z" fill="var(--fill-0, #ECB22E)"/>
<path id="Shape_8" d="M25.2769 29.479C22.9642 29.479 21.075 27.5897 21.075 25.277C21.075 22.9643 22.9642 21.075 25.2769 21.075H35.7981C38.1108 21.075 40.0001 22.9643 40.0001 25.277C40.0001 27.5897 38.1108 29.479 35.7981 29.479H25.2769Z" fill="var(--fill-0, #ECB22E)"/>
</g>
</svg>
