<svg preserveAspectRatio="none" width="100%" height="100%" overflow="visible" style="display: block;" viewBox="0 0 40 40" fill="none" xmlns="http://www.w3.org/2000/svg">
<g id="Frame">
<path id="back" d="M0 20C0 8.9543 8.9543 0 20 0C31.0457 0 40 8.9543 40 20C40 31.0457 31.0457 40 20 40C8.9543 40 0 31.0457 0 20Z" fill="var(--fill-0, #1769FF)"/>
<path id="Shape" d="M25.8236 16.4652C26.6727 16.4652 27.4367 16.6166 28.1165 16.9173C28.7976 17.2168 29.3586 17.6918 29.8001 18.3402C30.2027 18.9118 30.4605 19.575 30.5785 20.3285C30.6474 20.7689 30.6757 21.4074 30.6644 22.2376H23.5609C23.6035 23.2016 23.9401 23.8786 24.5824 24.266C24.9712 24.5072 25.4393 24.6283 25.9886 24.6283C26.5666 24.6282 27.0393 24.481 27.4017 24.1878C27.6011 24.0282 27.7766 23.8078 27.9271 23.5257H30.5296C30.4606 24.0949 30.1447 24.676 29.5853 25.265C28.7124 26.199 27.4896 26.6663 25.9183 26.6663C24.6201 26.6663 23.4744 26.2732 22.4847 25.4837C21.4901 24.6955 20.9964 23.411 20.9964 21.6341C20.9964 19.9673 21.4439 18.6889 22.3382 17.7992C23.235 16.912 24.3951 16.4652 25.8236 16.4652ZM15.7044 13.3333C17.3121 13.3569 18.4494 13.8185 19.1204 14.7191C19.5231 15.2722 19.7249 15.9335 19.7249 16.7044C19.7249 17.4975 19.5231 18.1369 19.1156 18.6195C18.8873 18.8892 18.5525 19.137 18.1097 19.3597C18.782 19.6022 19.2892 19.9847 19.6341 20.5081C19.9751 21.0302 20.1468 21.6662 20.1468 22.4134C20.1468 23.1843 19.9515 23.8764 19.5589 24.4876C19.3106 24.8923 18.9991 25.2339 18.6253 25.5111C18.2051 25.8291 17.7093 26.0456 17.1361 26.1644C16.5629 26.2819 15.9434 26.3392 15.2738 26.3392H9.33333V13.3333H15.7044ZM11.9613 20.6136V24.0814H15.1624C15.7343 24.0814 16.1811 24.005 16.4984 23.8529C17.0764 23.5682 17.3646 23.0281 17.3646 22.2288C17.3645 21.551 17.0862 21.087 16.5257 20.8333C16.2122 20.6923 15.7718 20.6186 15.2074 20.6136H11.9613ZM25.8255 18.5404C25.1733 18.5404 24.664 18.7239 24.304 19.0902C23.944 19.4564 23.7162 19.9523 23.6234 20.5785H28.0179C27.9715 19.9104 27.7429 19.4056 27.3392 19.0579C26.9304 18.7128 26.4274 18.5405 25.8255 18.5404ZM11.9613 15.5921V18.4613H15.1673C15.738 18.4612 16.2031 18.3533 16.5618 18.138C16.918 17.9227 17.098 17.5418 17.098 16.9974C17.098 16.3898 16.8616 15.9898 16.39 15.7943C15.9812 15.6595 15.462 15.5921 14.8314 15.5921H11.9613ZM28.6146 15.5579H22.9652V13.9398H28.6146V15.5579Z" fill="var(--fill-0, white)"/>
</g>
</svg>
