<svg preserveAspectRatio="none" width="100%" height="100%" overflow="visible" style="display: block;" viewBox="0 0 40 40" fill="none" xmlns="http://www.w3.org/2000/svg">
<g id="Frame">
<path id="back" d="M0 20C0 8.9543 8.9543 0 20 0C31.0457 0 40 8.9543 40 20C40 31.0457 31.0457 40 20 40C8.9543 40 0 31.0457 0 20Z" fill="var(--fill-0, #F26798)"/>
<path id="Path" d="M20.0018 5.9998C20.95 5.99981 21.8991 6.09535 22.8221 6.28398C23.7212 6.46722 24.6071 6.74188 25.4529 7.09941C26.2827 7.45204 27.0831 7.886 27.8309 8.39238C28.5713 8.89413 29.2693 9.46774 29.9031 10.0994C30.5356 10.7345 31.1114 11.4293 31.6111 12.1717C32.1184 12.9181 32.5521 13.7195 32.9021 14.5506C33.2604 15.3948 33.5339 16.2805 33.7186 17.1814C33.9079 18.1022 34.0047 19.0511 34.0047 19.9998C34.0047 20.9479 33.9079 21.8953 33.7186 22.8182C33.5339 23.719 33.2604 24.6036 32.9021 25.449C32.5521 26.2796 32.1184 27.0805 31.6111 27.827C31.1114 28.5685 30.5354 29.264 29.9031 29.8982C29.2693 30.5299 28.5713 31.1047 27.8309 31.6072C27.083 32.1116 26.2829 32.5462 25.4529 32.8982C24.6072 33.2551 23.7212 33.5281 22.8221 33.7127C21.8991 33.9028 20.9501 33.9998 20.0018 33.9998C19.0529 33.9998 18.104 33.9027 17.1824 33.7127C16.282 33.5281 15.3957 33.2551 14.5506 32.8982C13.7206 32.5462 12.9196 32.1116 12.1717 31.6072C11.4312 31.1048 10.7338 30.5299 10.1014 29.8982C9.46829 29.2639 8.89187 28.5686 8.39141 27.827C7.8868 27.0805 7.45181 26.2796 7.10039 25.449C6.74213 24.6036 6.4683 23.719 6.28301 22.8182C6.09568 21.8953 5.9998 20.9479 5.9998 19.9998C5.99982 19.0511 6.09558 18.1022 6.28301 17.1814C6.46831 16.2805 6.74305 15.3948 7.10137 14.5506C7.45274 13.7195 7.88689 12.9181 8.39141 12.1717C8.8919 11.4293 9.46824 10.7345 10.1014 10.0994C10.7338 9.4678 11.4312 8.8941 12.1717 8.39238C12.9195 7.88594 13.7208 7.45212 14.5506 7.09941C15.3957 6.74183 16.2819 6.46716 17.1824 6.28398C18.104 6.09539 19.0529 5.9998 20.0018 5.9998ZM22.0369 21.9549C14.9948 24.4093 12.6856 29.3512 12.6521 29.4236C14.6822 31.002 17.2285 31.9549 20.0018 31.9549C21.6577 31.9549 23.2356 31.618 24.6707 31.0076C24.4936 29.9631 23.7986 26.3016 22.116 21.9295C22.0895 21.9383 22.0628 21.9454 22.0369 21.9549ZM31.8074 21.8953C31.5588 21.8152 28.2144 20.7574 24.3562 21.3758C25.9247 25.6851 26.5627 29.1944 26.6844 29.9148C29.3691 28.1034 31.2754 25.2269 31.8074 21.8953ZM20.3309 17.9168C14.1758 19.7591 8.26907 19.6272 8.05352 19.6189C8.05006 19.7472 8.04376 19.8714 8.04375 19.9998C8.04375 23.0709 9.20253 25.871 11.1072 27.9881C11.1243 27.9445 14.3968 22.1712 20.8289 20.0916C20.9847 20.0397 21.1434 19.9931 21.3006 19.948C21.0005 19.2688 20.6733 18.5879 20.3309 17.9168ZM29.2361 12.4051C29.2136 12.4371 27.296 15.2078 22.575 17.1355C22.8525 17.7056 23.1208 18.2859 23.3689 18.8689C23.4572 19.0782 23.5437 19.284 23.6277 19.4891C27.7356 18.9723 31.7828 19.8413 31.9559 19.8768C31.9285 17.0427 30.9139 14.4414 29.2361 12.4051ZM14.8992 9.18633C11.5648 10.7607 9.07664 13.8328 8.30059 17.535C8.61988 17.5378 13.6009 17.5994 19.3396 16.075C17.2701 12.3988 15.0585 9.39898 14.8992 9.18633ZM20.0018 8.0457C19.0303 8.0457 18.0875 8.16335 17.1844 8.38066C17.3657 8.62431 19.6102 11.6022 21.6541 15.3543C26.1662 13.6631 27.8698 11.0709 27.8992 11.0271C25.794 9.17117 23.0293 8.04573 20.0018 8.0457Z" fill="var(--fill-0, white)"/>
</g>
</svg>
