<svg preserveAspectRatio="none" width="100%" height="100%" overflow="visible" style="display: block;" viewBox="0 0 40 40" fill="none" xmlns="http://www.w3.org/2000/svg">
<g id="Frame">
<path id="back" d="M0 20C0 8.9543 8.9543 0 20 0C31.0457 0 40 8.9543 40 20C40 31.0457 31.0457 40 20 40C8.9543 40 0 31.0457 0 20Z" fill="var(--fill-0, #2E2882)"/>
<path id="Combined-Shape" d="M25.4404 26.8551L27.6191 25.4499V27.0251L20.3486 31.3337L13.0771 27.0251V25.4499L15.2559 26.8551L20.3486 22.6803L25.4404 26.8551ZM20.333 21.7799L15.2559 25.9665L8 21.2858L13.0166 17.3161H13.0176L20.333 21.7799ZM32.667 21.2858L25.4102 25.9665L20.333 21.7799L27.6494 17.3171L32.667 21.2858ZM32.667 13.3473L27.6494 17.3171L20.333 12.8532L25.4111 8.66667L32.667 13.3473ZM20.333 12.8532L13.0166 17.3161L8 13.3473L15.2559 8.66667L20.333 12.8532Z" fill="var(--fill-0, #FEB0A5)"/>
</g>
</svg>
