<svg preserveAspectRatio="none" width="100%" height="100%" overflow="visible" style="display: block;" viewBox="0 0 40 40" fill="none" xmlns="http://www.w3.org/2000/svg">
<g id="Frame">
<path id="Vector" d="M20.4167 40C31.2323 40 40 31.2404 40 20.4349C40 9.62928 31.2323 0.869565 20.4167 0.869565C9.60117 0.869565 0.833333 9.62928 0.833333 20.4349C0.833333 31.2404 9.60117 40 20.4167 40Z" fill="var(--fill-0, black)"/>
<path id="Vector_2" d="M20 39.1304C30.5517 39.1304 39.1667 30.5999 39.1667 20C39.1667 9.40027 30.5517 0.869565 20 0.869565C9.44846 0.869565 0.833333 9.40027 0.833333 20C0.833333 30.5999 9.44846 39.1304 20 39.1304Z" fill="var(--fill-0, #FF90E8)"/>
<path id="Vector (Stroke)" fill-rule="evenodd" clip-rule="evenodd" d="M0 20C0 8.88843 9.01918 0 20 0C30.9809 0 40 8.88843 40 20C40 31.1117 30.9809 40 20 40C9.01919 40 0 31.1117 0 20ZM20 1.40252C9.69916 1.40252 1.34228 9.7256 1.34228 20C1.34228 30.2746 9.69916 38.5975 20 38.5975C30.301 38.5975 38.6577 30.2746 38.6577 20C38.6577 9.7256 30.301 1.40252 20 1.40252Z" fill="var(--fill-0, black)"/>
<path id="Vector_3" d="M17.719 29.5652C12.3341 29.5652 9.16667 25.0139 9.16667 19.3525C9.16667 13.469 12.6509 8.69565 19.3025 8.69565C26.1655 8.69565 28.4882 13.5801 28.5938 16.3552H23.6315C23.526 14.8011 22.2589 12.47 19.197 12.47C15.9241 12.47 13.8123 15.4672 13.8123 19.1305C13.8123 22.7938 15.9241 25.7909 19.197 25.7909C22.1534 25.7909 23.4204 23.3487 23.9483 20.9067H19.197V18.9085H29.1667V29.1212H24.7929V22.6827C24.4761 25.0139 23.1035 29.5652 17.719 29.5652Z" fill="var(--fill-0, black)"/>
</g>
</svg>
