<svg preserveAspectRatio="none" width="100%" height="100%" overflow="visible" style="display: block;" viewBox="0 0 30 40" fill="none" xmlns="http://www.w3.org/2000/svg">
<g id="Frame">
<g id="Union">
<path d="M6.18558 0C1.72158 0 -1.26911 4.18264 0.532495 7.90598L5.5335 18.2392C5.78358 18.756 6.58758 18.756 6.83766 18.2392L11.8387 7.90598C13.6403 4.18264 10.6496 0 6.18558 0Z" fill="var(--fill-0, #FFC233)"/>
<path d="M23.0249 6.56388C19.8684 3.59316 14.6104 4.56066 13.087 8.39257L8.85854 19.0271C8.64712 19.5586 9.21584 20.0941 9.78064 19.8951L21.0814 15.916C25.153 14.4824 26.1814 9.53402 23.0249 6.56388Z" fill="var(--fill-0, #FFC233)"/>
<path d="M21.5987 17.091C25.555 15.3953 30 18.2097 30 22.4105C30 26.6114 25.555 29.4257 21.5987 27.7301L10.6179 23.0239C10.0691 22.7891 10.0691 22.0319 10.6179 21.7972L21.5987 17.091Z" fill="var(--fill-0, #FFC233)"/>
<path d="M23.0249 38.2572C26.1814 35.2864 25.1533 30.3387 21.0817 28.905L9.78094 24.9259C9.21584 24.7269 8.64742 25.2619 8.85884 25.7939L13.0873 36.4285C14.6107 40.2598 19.8684 41.2273 23.0249 38.2572Z" fill="var(--fill-0, #FFC233)"/>
</g>
</g>
</svg>
