<svg preserveAspectRatio="none" width="100%" height="100%" overflow="visible" style="display: block;" viewBox="0 0 40 40" fill="none" xmlns="http://www.w3.org/2000/svg">
<g id="Frame">
<path id="Vector" d="M20 0C17.3736 0 14.7728 0.517315 12.3463 1.52241C9.91982 2.5275 7.71504 4.00069 5.85786 5.85786C2.10714 9.60859 0 14.6957 0 20V40H20C25.3043 40 30.3914 37.8929 34.1421 34.1421C37.8929 30.3914 40 25.3043 40 20C40 14.6957 37.8929 9.60859 34.1421 5.85786C30.3914 2.10714 25.3043 0 20 0ZM20 13C20.9193 13 21.8295 13.1811 22.6788 13.5328C23.5281 13.8846 24.2997 14.4002 24.9497 15.0502C25.5998 15.7003 26.1154 16.4719 26.4672 17.3212C26.8189 18.1705 27 19.0807 27 20C27 20.9192 26.8189 21.8295 26.4672 22.6788C26.1154 23.5281 25.5998 24.2997 24.9497 24.9497C24.2997 25.5997 23.5281 26.1154 22.6788 26.4671C21.8295 26.8189 20.9193 27 20 27H13V20C13 18.1435 13.7375 16.363 15.0503 15.0502C16.363 13.7375 18.1435 13 20 13Z" fill="url(#paint0_linear_0_32)"/>
<path id="Vector_2" d="M40 20C40 25.3043 37.8929 30.3914 34.1421 34.1421C30.3914 37.8929 25.3043 40 20 40H0C0 36.5522 1.36964 33.2456 3.80761 30.8076C6.24558 28.3696 9.55219 27 13 27H20C21.8565 27 23.637 26.2625 24.9497 24.9497C26.2625 23.637 27 21.8565 27 20H40Z" fill="url(#paint1_linear_0_32)"/>
<path id="Vector_3" d="M40 20C40 25.3043 37.8929 30.3914 34.1421 34.1421C30.3914 37.8929 25.3043 40 20 40H0C0 36.5522 1.36964 33.2456 3.80761 30.8076C6.24558 28.3696 9.55219 27 13 27H20C21.8565 27 23.637 26.2625 24.9497 24.9497C26.2625 23.637 27 21.8565 27 20H40Z" fill="url(#paint2_radial_0_32)" fill-opacity="0.56"/>
<path id="Vector_4" d="M40 20C40 25.3043 37.8929 30.3914 34.1421 34.1421C30.3914 37.8929 25.3043 40 20 40H0C0 36.5522 1.36964 33.2456 3.80761 30.8076C6.24558 28.3696 9.55219 27 13 27H20C21.8565 27 23.637 26.2625 24.9497 24.9497C26.2625 23.637 27 21.8565 27 20H40Z" fill="url(#paint3_radial_0_32)" fill-opacity="0.15"/>
<path id="Vector_5" d="M20 1.10789e-05C17.3736 1.10789e-05 14.7728 0.517326 12.3463 1.52242C9.91982 2.52751 7.71504 4.0007 5.85786 5.85787C2.10714 9.6086 0 14.6957 0 20V40C3.4409 40 6.74145 38.6359 9.17828 36.2065C11.6151 33.7772 12.9894 30.4809 13 27.04L13.04 27H13V20C12.9958 18.6077 13.4069 17.2457 14.1808 16.0882C14.9547 14.9308 16.0562 14.0304 17.3445 13.5022C18.6328 12.974 20.0493 12.842 21.413 13.1231C22.7767 13.4041 24.0256 14.0855 25 15.08L34.2 5.92001C32.3431 4.04203 30.1316 2.55164 27.6939 1.53538C25.2563 0.519117 22.641 -0.00277281 20 1.10789e-05Z" fill="url(#paint4_linear_0_32)"/>
<path id="Vector_6" d="M20 1.10789e-05C17.3736 1.10789e-05 14.7728 0.517326 12.3463 1.52242C9.91982 2.52751 7.71504 4.0007 5.85786 5.85787C2.10714 9.6086 0 14.6957 0 20V40C3.4409 40 6.74145 38.6359 9.17828 36.2065C11.6151 33.7772 12.9894 30.4809 13 27.04L13.04 27H13V20C12.9958 18.6077 13.4069 17.2457 14.1808 16.0882C14.9547 14.9308 16.0562 14.0304 17.3445 13.5022C18.6328 12.974 20.0493 12.842 21.413 13.1231C22.7767 13.4041 24.0256 14.0855 25 15.08L34.2 5.92001C32.3431 4.04203 30.1316 2.55164 27.6939 1.53538C25.2563 0.519117 22.641 -0.00277281 20 1.10789e-05Z" fill="url(#paint5_radial_0_32)"/>
</g>
<defs>
<linearGradient id="paint0_linear_0_32" x1="24.4" y1="14.2" x2="17.8" y2="41.2" gradientUnits="userSpaceOnUse">
<stop stop-color="#9237E3"/>
<stop offset="1" stop-color="#48E6F3"/>
</linearGradient>
<linearGradient id="paint1_linear_0_32" x1="13" y1="37" x2="30.6" y2="33" gradientUnits="userSpaceOnUse">
<stop stop-color="#51E6FF"/>
<stop offset="1" stop-color="#71D4FF" stop-opacity="0"/>
</linearGradient>
<radialGradient id="paint2_radial_0_32" cx="0" cy="0" r="1" gradientTransform="matrix(8 5.5 -9.66636 14.0602 7 31.5)" gradientUnits="userSpaceOnUse">
<stop/>
<stop offset="0.7" stop-opacity="0"/>
</radialGradient>
<radialGradient id="paint3_radial_0_32" cx="0" cy="0" r="1" gradientUnits="userSpaceOnUse" gradientTransform="translate(4.6 30) rotate(31.866) scale(17.4264 30.6274)">
<stop offset="0.33"/>
<stop offset="0.6" stop-opacity="0"/>
</radialGradient>
<linearGradient id="paint4_linear_0_32" x1="8.2" y1="21.4" x2="18.4" y2="7.00001" gradientUnits="userSpaceOnUse">
<stop stop-color="#6E06E9"/>
<stop offset="1" stop-color="#AB5ADD" stop-opacity="0"/>
</linearGradient>
<radialGradient id="paint5_radial_0_32" cx="0" cy="0" r="1" gradientUnits="userSpaceOnUse" gradientTransform="translate(-3.4 12.4) rotate(-9.73941) scale(27.192 71.4912)">
<stop stop-color="#6D05E8"/>
<stop offset="1" stop-color="#6D05E8" stop-opacity="0"/>
</radialGradient>
</defs>
</svg>
