<svg preserveAspectRatio="xMidYMid meet" width="100%" height="100%" overflow="visible" style="display: block;" viewBox="0 0 33.3333 40" fill="none" xmlns="http://www.w3.org/2000/svg">
<g id="Frame">
<path id="Shape" d="M9.4697 38.6441L10.1513 34.2407L8.63299 34.2049H1.38281L6.42131 1.71259C6.43695 1.6145 6.48778 1.52304 6.56207 1.45809C6.63635 1.39314 6.73149 1.35735 6.83054 1.35735H19.0554C23.1138 1.35735 25.9146 2.21628 27.3768 3.91162C28.0624 4.70692 28.499 5.53802 28.7101 6.45263C28.9317 7.4123 28.9356 8.55887 28.7192 9.95728L28.7036 10.0593V10.9554L29.3891 11.3504C29.9665 11.6619 30.4252 12.0185 30.7771 12.4267C31.3636 13.1067 31.7428 13.9709 31.9031 14.9956C32.0687 16.0493 32.0139 17.3033 31.7428 18.7229C31.4301 20.3559 30.9244 21.7782 30.2415 22.942C29.6133 24.0144 28.8131 24.9038 27.863 25.593C26.9559 26.2478 25.8781 26.7449 24.6595 27.063C23.4787 27.3759 22.1324 27.5336 20.6558 27.5336H19.7044C19.0241 27.5336 18.3633 27.7828 17.8446 28.2295C17.3246 28.6855 16.9805 29.3085 16.875 29.9898L16.8033 30.3861L15.599 38.147L15.5443 38.432C15.53 38.5221 15.5052 38.5672 15.4687 38.5977C15.4361 38.6255 15.3892 38.6441 15.3436 38.6441H9.4697V38.6441Z" fill="var(--fill-0, #253B80)"/>
<path id="Shape_2" d="M30.0381 10.1627V10.1627V10.1627C30.0017 10.3999 29.96 10.6425 29.913 10.8917C28.3009 19.3101 22.7854 22.2182 15.7411 22.2182H12.1545C11.293 22.2182 10.5671 22.8545 10.4328 23.7187V23.7187V23.7187L8.5965 35.5635L8.07649 38.921C7.98917 39.4884 8.41926 40 8.98227 40H15.3436C16.0969 40 16.7368 39.4433 16.8554 38.6877L16.918 38.359L18.1157 30.6286L18.1926 30.2045C18.3099 29.4463 18.9511 28.8895 19.7044 28.8895H20.6558C26.819 28.8895 31.6438 26.3446 33.054 18.98C33.643 15.9035 33.3381 13.3346 31.7793 11.528C31.3075 10.9832 30.7224 10.5312 30.0381 10.1627V10.1627Z" fill="var(--fill-0, #179BD7)"/>
<path id="Shape_3" d="M28.3516 9.47874C28.1053 9.40584 27.8511 9.33956 27.5905 9.27992C27.3285 9.22159 27.06 9.1699 26.7837 9.12483C25.8167 8.96577 24.7571 8.89021 23.622 8.89021H14.0402C13.8043 8.89021 13.5802 8.94456 13.3795 9.04265C12.9376 9.25871 12.6092 9.6842 12.5297 10.2051L10.4914 23.3357L10.4327 23.7187C10.567 22.8545 11.2929 22.2183 12.1544 22.2183H15.741C22.7853 22.2183 28.3008 19.3088 29.9129 10.8917C29.9612 10.6425 30.0016 10.4 30.038 10.1627C29.6301 9.94267 29.1883 9.75445 28.7126 9.59406C28.5953 9.5543 28.4741 9.51586 28.3516 9.47874V9.47874Z" fill="var(--fill-0, #222D65)"/>
<path id="Shape_4" d="M13.3795 9.04398C13.5815 8.94589 13.8044 8.89155 14.0403 8.89155H23.622C24.7572 8.89155 25.8168 8.9671 26.7838 9.12616C27.0601 9.17123 27.3286 9.22293 27.5905 9.28125C27.8512 9.3409 28.1053 9.40717 28.3517 9.48008C28.4742 9.51719 28.5954 9.55563 28.714 9.59407C29.1897 9.75446 29.6315 9.94401 30.0394 10.1627C30.519 7.05173 30.0355 4.93356 28.3816 3.01554C26.5583 0.904001 23.2675 0 19.0566 0H6.83181C5.97164 0 5.23789 0.636247 5.10495 1.50181L0.0130183 34.3282C-0.0873347 34.9777 0.405307 35.5635 1.04913 35.5635H8.59646L10.4914 23.3357L12.5298 10.2051C12.6093 9.6842 12.9377 9.25871 13.3795 9.04398Z" fill="var(--fill-0, #253B80)"/>
</g>
</svg>
