<svg preserveAspectRatio="none" width="100%" height="100%" overflow="visible" style="display: block;" viewBox="0 0 24 24" fill="none" xmlns="http://www.w3.org/2000/svg">
<g id="Frame">
<path id="Vector" d="M12 0C10.4241 0 8.86371 0.310389 7.4078 0.913445C5.95189 1.5165 4.62902 2.40041 3.51472 3.51472C1.26428 5.76515 0 8.8174 0 12V24H12C15.1826 24 18.2348 22.7357 20.4853 20.4853C22.7357 18.2348 24 15.1826 24 12C24 8.8174 22.7357 5.76515 20.4853 3.51472C18.2348 1.26428 15.1826 0 12 0ZM12 7.8C12.5516 7.8 13.0977 7.90863 13.6073 8.1197C14.1168 8.33077 14.5798 8.64014 14.9698 9.03015C15.3599 9.42015 15.6692 9.88316 15.8803 10.3927C16.0914 10.9023 16.2 11.4484 16.2 12C16.2 12.5515 16.0914 13.0977 15.8803 13.6073C15.6692 14.1168 15.3599 14.5798 14.9698 14.9698C14.5798 15.3598 14.1168 15.6692 13.6073 15.8803C13.0977 16.0914 12.5516 16.2 12 16.2H7.8V12C7.8 10.8861 8.2425 9.8178 9.03015 9.03015C9.8178 8.2425 10.8861 7.8 12 7.8Z" fill="url(#paint0_linear_0_29)"/>
<path id="Vector_2" d="M24 12C24 15.1826 22.7357 18.2348 20.4853 20.4853C18.2348 22.7357 15.1826 24 12 24H0C0 21.9313 0.821783 19.9473 2.28457 18.4846C3.74735 17.0218 5.73131 16.2 7.8 16.2H12C13.1139 16.2 14.1822 15.7575 14.9698 14.9698C15.7575 14.1822 16.2 13.1139 16.2 12H24Z" fill="url(#paint1_linear_0_29)"/>
<path id="Vector_3" d="M24 12C24 15.1826 22.7357 18.2348 20.4853 20.4853C18.2348 22.7357 15.1826 24 12 24H0C0 21.9313 0.821783 19.9473 2.28457 18.4846C3.74735 17.0218 5.73131 16.2 7.8 16.2H12C13.1139 16.2 14.1822 15.7575 14.9698 14.9698C15.7575 14.1822 16.2 13.1139 16.2 12H24Z" fill="url(#paint2_radial_0_29)" fill-opacity="0.56"/>
<path id="Vector_4" d="M24 12C24 15.1826 22.7357 18.2348 20.4853 20.4853C18.2348 22.7357 15.1826 24 12 24H0C0 21.9313 0.821783 19.9473 2.28457 18.4846C3.74735 17.0218 5.73131 16.2 7.8 16.2H12C13.1139 16.2 14.1822 15.7575 14.9698 14.9698C15.7575 14.1822 16.2 13.1139 16.2 12H24Z" fill="url(#paint3_radial_0_29)" fill-opacity="0.15"/>
<path id="Vector_5" d="M12 6.64735e-06C10.4241 6.64735e-06 8.86371 0.310396 7.4078 0.913452C5.95189 1.51651 4.62902 2.40042 3.51472 3.51472C1.26428 5.76516 0 8.81741 0 12V24C2.06454 24 4.04487 23.1815 5.50697 21.7239C6.96906 20.2663 7.79365 18.2885 7.8 16.224L7.824 16.2H7.8V12C7.79749 11.1646 8.04417 10.3474 8.5085 9.65294C8.97284 8.95846 9.63373 8.41823 10.4067 8.10132C11.1797 7.7844 12.0296 7.7052 12.8478 7.87383C13.666 8.04247 14.4153 8.45128 15 9.048L20.52 3.55201C19.4058 2.42522 18.079 1.53099 16.6164 0.921228C15.1538 0.31147 13.5846 -0.00166369 12 6.64735e-06Z" fill="url(#paint4_linear_0_29)"/>
<path id="Vector_6" d="M12 6.64735e-06C10.4241 6.64735e-06 8.86371 0.310396 7.4078 0.913452C5.95189 1.51651 4.62902 2.40042 3.51472 3.51472C1.26428 5.76516 0 8.81741 0 12V24C2.06454 24 4.04487 23.1815 5.50697 21.7239C6.96906 20.2663 7.79365 18.2885 7.8 16.224L7.824 16.2H7.8V12C7.79749 11.1646 8.04417 10.3474 8.5085 9.65294C8.97284 8.95846 9.63373 8.41823 10.4067 8.10132C11.1797 7.7844 12.0296 7.7052 12.8478 7.87383C13.666 8.04247 14.4153 8.45128 15 9.048L20.52 3.55201C19.4058 2.42522 18.079 1.53099 16.6164 0.921228C15.1538 0.31147 13.5846 -0.00166369 12 6.64735e-06Z" fill="url(#paint5_radial_0_29)"/>
</g>
<defs>
<linearGradient id="paint0_linear_0_29" x1="14.64" y1="8.52" x2="10.68" y2="24.72" gradientUnits="userSpaceOnUse">
<stop stop-color="#9237E3"/>
<stop offset="1" stop-color="#48E6F3"/>
</linearGradient>
<linearGradient id="paint1_linear_0_29" x1="7.8" y1="22.2" x2="18.36" y2="19.8" gradientUnits="userSpaceOnUse">
<stop stop-color="#51E6FF"/>
<stop offset="1" stop-color="#71D4FF" stop-opacity="0"/>
</linearGradient>
<radialGradient id="paint2_radial_0_29" cx="0" cy="0" r="1" gradientTransform="matrix(4.8 3.3 -5.79982 8.43612 4.2 18.9)" gradientUnits="userSpaceOnUse">
<stop/>
<stop offset="0.7" stop-opacity="0"/>
</radialGradient>
<radialGradient id="paint3_radial_0_29" cx="0" cy="0" r="1" gradientUnits="userSpaceOnUse" gradientTransform="translate(2.76 18) rotate(31.866) scale(10.4558 18.3764)">
<stop offset="0.33"/>
<stop offset="0.6" stop-opacity="0"/>
</radialGradient>
<linearGradient id="paint4_linear_0_29" x1="4.92" y1="12.84" x2="11.04" y2="4.2" gradientUnits="userSpaceOnUse">
<stop stop-color="#6E06E9"/>
<stop offset="1" stop-color="#AB5ADD" stop-opacity="0"/>
</linearGradient>
<radialGradient id="paint5_radial_0_29" cx="0" cy="0" r="1" gradientUnits="userSpaceOnUse" gradientTransform="translate(-2.04 7.44) rotate(-9.73941) scale(16.3152 42.8947)">
<stop stop-color="#6D05E8"/>
<stop offset="1" stop-color="#6D05E8" stop-opacity="0"/>
</radialGradient>
</defs>
</svg>
