<svg preserveAspectRatio="none" width="100%" height="100%" overflow="visible" style="display: block;" viewBox="0 0 40 23.3333" fill="none" xmlns="http://www.w3.org/2000/svg">
<g id="Frame">
<path id="Vector" d="M22.5623 11.6665C22.5623 18.1098 17.5116 23.3333 11.281 23.3333C5.05037 23.3333 0 18.1113 0 11.6665C0 5.2216 5.05076 0 11.281 0C17.5112 0 22.5623 5.22318 22.5623 11.6665ZM34.9381 11.6665C34.9381 17.732 32.4126 22.6487 29.2975 22.6487C26.1823 22.6487 23.6568 17.7305 23.6568 11.6665C23.6568 5.60247 26.1823 0.684226 29.2975 0.684226C32.4126 0.684226 34.9381 5.60247 34.9381 11.6665ZM40 11.6665C40 17.1009 39.1117 21.5061 38.0161 21.5061C36.9205 21.5061 36.0322 17.0994 36.0322 11.6665C36.0322 6.23358 36.9205 1.82683 38.0165 1.82683C39.1124 1.82683 40 6.2324 40 11.6665Z" fill="var(--fill-0, black)"/>
</g>
</svg>
