<svg preserveAspectRatio="none" width="100%" height="100%" overflow="visible" style="display: block;" viewBox="0 0 24.0001 24.0001" fill="none" xmlns="http://www.w3.org/2000/svg">
<g id="Slack_Mark">
<path id="Shape" d="M5.04236 15.1662C5.04236 16.5538 3.90881 17.6874 2.52118 17.6874C1.13355 17.6874 0 16.5538 0 15.1662C0 13.7786 1.13355 12.645 2.52118 12.645H5.04236V15.1662Z" fill="var(--fill-0, #E01E5A)"/>
<path id="Shape_2" d="M6.31272 15.1662C6.31272 13.7786 7.44628 12.645 8.8339 12.645C10.2215 12.645 11.3551 13.7786 11.3551 15.1662V21.4789C11.3551 22.8665 10.2215 24.0001 8.8339 24.0001C7.44628 24.0001 6.31272 22.8665 6.31272 21.4789V15.1662Z" fill="var(--fill-0, #E01E5A)"/>
<path id="Shape_3" d="M8.8339 5.04236C7.44628 5.04236 6.31272 3.90881 6.31272 2.52118C6.31272 1.13355 7.44628 0 8.8339 0C10.2215 0 11.3551 1.13355 11.3551 2.52118V5.04236H8.8339Z" fill="var(--fill-0, #36C5F0)"/>
<path id="Shape_4" d="M8.8339 6.31274C10.2215 6.31274 11.3551 7.4463 11.3551 8.83392C11.3551 10.2215 10.2215 11.3551 8.8339 11.3551H2.52118C1.13355 11.3551 0 10.2215 0 8.83392C0 7.4463 1.13355 6.31274 2.52118 6.31274H8.8339Z" fill="var(--fill-0, #36C5F0)"/>
<path id="Shape_5" d="M18.9577 8.83392C18.9577 7.4463 20.0913 6.31274 21.4789 6.31274C22.8665 6.31274 24.0001 7.4463 24.0001 8.83392C24.0001 10.2215 22.8665 11.3551 21.4789 11.3551H18.9577V8.83392Z" fill="var(--fill-0, #2EB67D)"/>
<path id="Shape_6" d="M17.6873 8.8339C17.6873 10.2215 16.5538 11.3551 15.1662 11.3551C13.7785 11.3551 12.645 10.2215 12.645 8.8339V2.52118C12.645 1.13355 13.7785 0 15.1662 0C16.5538 0 17.6873 1.13355 17.6873 2.52118V8.8339Z" fill="var(--fill-0, #2EB67D)"/>
<path id="Shape_7" d="M15.1662 18.9578C16.5538 18.9578 17.6873 20.0913 17.6873 21.4789C17.6873 22.8666 16.5538 24.0001 15.1662 24.0001C13.7785 24.0001 12.645 22.8666 12.645 21.4789V18.9578H15.1662Z" fill="var(--fill-0, #ECB22E)"/>
<path id="Shape_8" d="M15.1662 17.6874C13.7785 17.6874 12.645 16.5538 12.645 15.1662C12.645 13.7786 13.7785 12.645 15.1662 12.645H21.4789C22.8665 12.645 24.0001 13.7786 24.0001 15.1662C24.0001 16.5538 22.8665 17.6874 21.4789 17.6874H15.1662Z" fill="var(--fill-0, #ECB22E)"/>
</g>
</svg>
