<svg preserveAspectRatio="none" width="100%" height="100%" overflow="visible" style="display: block;" viewBox="0 0 32 32" fill="none" xmlns="http://www.w3.org/2000/svg">
<g id="Frame">
<path id="vector" d="M0.996512 4.99209C0 6.94785 0 9.50809 0 14.6286V17.3714C0 22.4919 0 25.0521 0.996512 27.0079C1.87307 28.7283 3.27175 30.1269 4.99209 31.0035C6.94785 32 9.50809 32 14.6286 32H17.3714C22.4919 32 25.0521 32 27.0079 31.0035C28.7283 30.1269 30.1269 28.7283 31.0035 27.0079C32 25.0521 32 22.4919 32 17.3714V14.6286C32 9.50809 32 6.94785 31.0035 4.99209C30.1269 3.27175 28.7283 1.87307 27.0079 0.996512C25.0521 0 22.4919 0 17.3714 0H14.6286C9.50809 0 6.94785 0 4.99209 0.996512C3.27175 1.87307 1.87307 3.27175 0.996512 4.99209Z" fill="url(#paint0_linear_0_197)"/>
<path id="vector_2" d="M0.303112 7.1766C0 8.89921 0 11.1849 0 14.6285V17.3714C0 22.4919 0 25.0521 0.996512 27.0079C1.87307 28.7282 3.27175 30.1269 4.99209 31.0034C6.94785 32 9.50809 32 14.6286 32H17.3714C22.4919 32 25.0521 32 27.0079 31.0034C28.7283 30.1269 30.1269 28.7282 31.0035 27.0079C32 25.0521 32 22.4919 32 17.3714V14.6285C32 9.50804 32 6.9478 31.0035 4.99204C30.1574 3.33155 28.825 1.97074 27.1863 1.08984L0.303112 7.1766Z" fill="url(#paint1_linear_0_197)"/>
<path id="vector_3" d="M31.669 24.976C31.522 25.7483 31.3098 26.4066 31.0035 27.0078C30.127 28.7282 28.7283 30.1269 27.0079 31.0034C25.1107 31.9701 22.6446 31.999 17.8243 31.9999H16.067V28.3848L31.669 24.976Z" fill="url(#paint2_linear_0_197)"/>
<path id="vector_4" d="M17.3714 0H14.6285C13.6324 0 12.7331 0 11.9163 0.00733792V4.53774L27.1833 1.08829C27.1252 1.05709 27.0667 1.0265 27.0079 0.996512C25.9221 0.443294 24.6501 0.197197 22.8571 0.0877224C21.4204 0 19.6492 0 17.3714 0Z" fill="url(#paint3_linear_0_197)"/>
<path id="vector_5" d="M32 17.5695C31.9999 21.0045 31.9938 23.2687 31.6689 24.976L26.2427 26.1616V18.0752L32 16.7363V17.5695Z" fill="url(#paint4_linear_0_197)"/>
<path id="s" fill-rule="evenodd" clip-rule="evenodd" d="M14.7896 13.0033C14.7896 12.2688 15.3901 11.9863 16.3847 11.9863C17.8109 11.9863 19.6124 12.4195 21.0386 13.1916V8.76587C19.4811 8.14438 17.9423 7.89955 16.3847 7.89955C12.5752 7.89955 10.0419 9.89586 10.0419 13.2293C10.0419 18.4272 17.1729 17.5986 17.1729 19.8397C17.1729 20.706 16.4222 20.9885 15.3714 20.9885C13.8138 20.9885 11.8246 20.3482 10.2483 19.4819V23.9641C11.9935 24.7175 13.7575 25.0376 15.3714 25.0376C19.2747 25.0376 21.9582 23.0978 21.9582 19.7267C21.9394 14.1145 14.7896 15.1126 14.7896 13.0033Z" fill="var(--fill-0, white)"/>
</g>
<defs>
<linearGradient id="paint0_linear_0_197" x1="0" y1="0" x2="10.5105" y2="7.43096" gradientUnits="userSpaceOnUse">
<stop stop-color="#392993"/>
<stop offset="1" stop-color="#4B47B9"/>
</linearGradient>
<linearGradient id="paint1_linear_0_197" x1="1.20502" y1="7.51363" x2="24.4076" y2="26.6525" gradientUnits="userSpaceOnUse">
<stop stop-color="#594BB9"/>
<stop offset="1" stop-color="#60A8F2"/>
</linearGradient>
<linearGradient id="paint2_linear_0_197" x1="16.067" y1="28.5188" x2="32" y2="32" gradientUnits="userSpaceOnUse">
<stop stop-color="#61A2EF"/>
<stop offset="1" stop-color="#58E6FD"/>
</linearGradient>
<linearGradient id="paint3_linear_0_197" x1="11.9163" y1="2.27615" x2="32" y2="-3.01077e-08" gradientUnits="userSpaceOnUse">
<stop stop-color="#534EBE"/>
<stop offset="1" stop-color="#6875E2"/>
</linearGradient>
<linearGradient id="paint4_linear_0_197" x1="26.2427" y1="18.1422" x2="32" y2="25.0376" gradientUnits="userSpaceOnUse">
<stop stop-color="#71A5F3"/>
<stop offset="1" stop-color="#6CC3FA"/>
</linearGradient>
</defs>
</svg>
