<svg width="100" height="100" viewBox="0 0 100 100" fill="none" xmlns="http://www.w3.org/2000/svg">
<g id="LineDrawing01">
<path id="Ellipse 4" d="M69.25 50.5C69.25 78.1142 60.8553 100.5 50.5 100.5C40.1447 100.5 31.75 78.1142 31.75 50.5C31.75 22.8858 40.1447 0.5 50.5 0.5C60.8553 0.5 69.25 22.8858 69.25 50.5Z" stroke="black"/>
<path id="Ellipse 7" d="M50.5 31.75C78.1142 31.75 100.5 40.1447 100.5 50.5C100.5 60.8553 78.1142 69.25 50.5 69.25C22.8858 69.25 0.5 60.8553 0.5 50.5C0.5 40.1447 22.8858 31.75 50.5 31.75Z" stroke="black"/>
<path id="Ellipse 5" d="M63.758 37.2429C83.2842 56.7692 93.1774 78.5342 85.8551 85.8565C78.5327 93.1789 56.7677 83.2857 37.2415 63.7594C17.7153 44.2332 7.82206 22.4682 15.1444 15.1459C22.4667 7.82353 44.2318 17.7167 63.758 37.2429Z" stroke="black"/>
<path id="Ellipse 6" d="M37.2415 37.2429C17.7153 56.7692 7.82206 78.5342 15.1444 85.8565C22.4667 93.1789 44.2318 83.2857 63.758 63.7594C83.2842 44.2332 93.1774 22.4682 85.8551 15.1459C78.5327 7.82353 56.7677 17.7167 37.2415 37.2429Z" stroke="black"/>
</svg>
