<svg xmlns="http://www.w3.org/2000/svg" width="32" height="32" viewBox="0 0 32 32" fill="none"><path d="M0 12.8C0 8.31958 0 6.07937 0.871948 4.36808C1.63893 2.86278 2.86278 1.63893 4.36808 0.871948C6.07937 0 8.31958 0 12.8 0H19.2C23.6804 0 25.9206 0 27.6319 0.871948C29.1372 1.63893 30.3611 2.86278 31.1281 4.36808C32 6.07937 32 8.31958 32 12.8V19.2C32 23.6804 32 25.9206 31.1281 27.6319C30.3611 29.1372 29.1372 30.3611 27.6319 31.1281C25.9206 32 23.6804 32 19.2 32H12.8C8.31958 32 6.07937 32 4.36808 31.1281C2.86278 30.3611 1.63893 29.1372 0.871948 27.6319C0 25.9206 0 23.6804 0 19.2V12.8Z" fill="black" fill-opacity="0.04" />
<path d="M31.9971 11.1973C31.9983 11.5376 31.9989 11.893 31.999 12.2646H31.75V13.333H32V14.4004H31.75V15.4668H32V16.5332H31.75V17.5996H32V18.667H31.75V19.7354H31.999C31.9989 20.1066 31.9983 20.4617 31.9971 20.8018H31.748C31.7467 21.1752 31.7443 21.5302 31.7402 21.8682L31.9883 21.8701C31.9838 22.2462 31.9757 22.6016 31.9658 22.9385L31.7197 22.9326C31.7087 23.3087 31.6931 23.6605 31.6729 23.9912L31.9219 24.0059C31.8986 24.3858 31.8666 24.7387 31.8271 25.0693L31.5811 25.041C31.5366 25.4129 31.4814 25.7534 31.4111 26.0693L31.6523 26.123C31.5706 26.4905 31.4688 26.8276 31.3438 27.1445L31.1143 27.0537C31.0826 27.1339 31.0495 27.2126 31.0146 27.29L30.9053 27.5186C30.8438 27.6392 30.7794 27.7581 30.7119 27.875L30.9258 27.999C30.7858 28.2415 30.6354 28.4768 30.4717 28.7021L30.2695 28.5557C30.1104 28.7746 29.9404 28.9849 29.7598 29.1855L29.9434 29.3516C29.7565 29.5591 29.5591 29.7565 29.3516 29.9434L29.1855 29.7598C28.9849 29.9404 28.7746 30.1104 28.5557 30.2695L28.7021 30.4717C28.4768 30.6354 28.2415 30.7858 27.999 30.9258L27.875 30.7119L27.5186 30.9053C27.3686 30.9817 27.214 31.051 27.0537 31.1143L27.1445 31.3438C26.8276 31.4688 26.4905 31.5706 26.123 31.6523L26.0693 31.4111C25.7534 31.4814 25.4129 31.5366 25.041 31.5811L25.0693 31.8271C24.7387 31.8666 24.3858 31.8986 24.0059 31.9219L23.9912 31.6729C23.6605 31.6931 23.3087 31.7087 22.9326 31.7197L22.9385 31.9658C22.6016 31.9757 22.2462 31.9838 21.8701 31.9883L21.8682 31.7402C21.5302 31.7443 21.1752 31.7467 20.8018 31.748V31.9971C20.4617 31.9983 20.1066 31.9989 19.7354 31.999V31.75H18.667V32H17.5996V31.75H16.5332V32H15.4668V31.75H14.4004V32H13.333V31.75H12.2646V31.999C11.893 31.9989 11.5376 31.9983 11.1973 31.9971L11.1982 31.748C10.8248 31.7467 10.4698 31.7443 10.1318 31.7402L10.1289 31.9883C9.75278 31.9838 9.39738 31.9757 9.06055 31.9658L9.06738 31.7197C8.69128 31.7087 8.33946 31.6931 8.00879 31.6729L7.99316 31.9219C7.61323 31.8986 7.26029 31.8666 6.92969 31.8271L6.95898 31.5811C6.58713 31.5366 6.24655 31.4814 5.93066 31.4111L5.87598 31.6523C5.50854 31.5706 5.17145 31.4689 4.85449 31.3438L4.94629 31.1143C4.78603 31.051 4.63141 30.9817 4.48145 30.9053C4.36075 30.8438 4.24186 30.7794 4.125 30.7119L4 30.9258C3.75754 30.7857 3.52214 30.6354 3.29688 30.4717L3.44434 30.2695C3.22539 30.1104 3.01506 29.9404 2.81445 29.7598L2.64746 29.9434C2.43998 29.7565 2.24249 29.5591 2.05566 29.3516L2.24023 29.1855C2.05963 28.9849 1.88957 28.7746 1.73047 28.5557L1.52734 28.7021C1.36368 28.4769 1.21323 28.2415 1.07324 27.999L1.28809 27.875C1.22062 27.7581 1.15622 27.6392 1.09473 27.5186L0.985352 27.29C0.950504 27.2126 0.917368 27.1339 0.885742 27.0537L0.655273 27.1445C0.530256 26.8276 0.428409 26.4905 0.34668 26.123L0.588867 26.0693C0.518594 25.7534 0.463376 25.4129 0.418945 25.041L0.171875 25.0693C0.132403 24.7387 0.100434 24.3858 0.0771484 24.0059L0.327148 23.9912C0.306872 23.6605 0.291265 23.3087 0.280273 22.9326L0.0332031 22.9385C0.0233688 22.6016 0.0152638 22.2462 0.0107422 21.8701L0.259766 21.8682C0.255699 21.5302 0.253287 21.1752 0.251953 20.8018H0.00195312C0.000739775 20.4617 0.00110091 20.1066 0.000976562 19.7354H0.25V18.667H0V17.5996H0.25V16.5332H0V15.4668H0.25V14.4004H0V13.333H0.25V12.2646H0.000976562C0.00109806 11.9019 0.000804334 11.5546 0.00195312 11.2217V11.1973L0.251953 11.1982C0.253287 10.8248 0.255699 10.4698 0.259766 10.1318L0.0107422 10.1289C0.015268 9.75279 0.0233617 9.39737 0.0332031 9.06055L0.280273 9.06738C0.291265 8.69128 0.306872 8.33946 0.327148 8.00879L0.0771484 7.99316C0.100449 7.61325 0.132381 7.26027 0.171875 6.92969L0.418945 6.95898C0.463376 6.58713 0.518594 6.24655 0.588867 5.93066L0.34668 5.87598C0.428446 5.50859 0.530208 5.17141 0.655273 4.85449L0.885742 4.94629C0.917368 4.86612 0.950504 4.78738 0.985352 4.70996L1.09473 4.48145C1.15622 4.36075 1.22062 4.24186 1.28809 4.125L1.07324 4C1.21325 3.75755 1.36367 3.52213 1.52734 3.29688L1.52832 3.29785L1.73047 3.44434C1.88957 3.22539 2.05963 3.01506 2.24023 2.81445L2.05566 2.64746C2.24249 2.43998 2.43998 2.24249 2.64746 2.05566L2.81445 2.24023C3.01506 2.05963 3.22539 1.88957 3.44434 1.73047L3.29785 1.52832L3.29688 1.52734C3.52213 1.36367 3.75755 1.21325 4 1.07324L4.125 1.28809L4.48145 1.09473C4.63141 1.01832 4.78603 0.94896 4.94629 0.885742L4.85449 0.655273C5.17141 0.530208 5.50859 0.428446 5.87598 0.34668L5.93066 0.588867C6.24655 0.518594 6.58713 0.463376 6.95898 0.418945L6.92969 0.171875C7.26027 0.132381 7.61325 0.100449 7.99316 0.0771484L8.00879 0.327148C8.33946 0.306872 8.69128 0.291265 9.06738 0.280273L9.06055 0.0332031C9.39737 0.0233617 9.75279 0.015268 10.1289 0.0107422L10.1318 0.259766C10.4698 0.255699 10.8248 0.253287 11.1982 0.251953L11.1973 0.00195312C11.5376 0.000737031 11.893 0.000124471 12.2646 0V0.25H13.333V0H14.4004V0.25H15.4668V0H16.5332V0.25H17.5996V0H18.667V0.25H19.7354V0C20.1066 0.000124351 20.4617 0.000739775 20.8018 0.00195312V0.251953C21.1752 0.253287 21.5302 0.255699 21.8682 0.259766L21.8701 0.0107422C22.2462 0.0152638 22.6016 0.0233688 22.9385 0.0332031L22.9326 0.280273C23.3087 0.291265 23.6605 0.306872 23.9912 0.327148L24.0059 0.0771484C24.3858 0.100434 24.7387 0.132403 25.0693 0.171875L25.041 0.418945C25.4129 0.463376 25.7534 0.518594 26.0693 0.588867L26.123 0.34668C26.4905 0.428409 26.8276 0.530256 27.1445 0.655273L27.0537 0.885742C27.214 0.94896 27.3686 1.01832 27.5186 1.09473C27.6392 1.15622 27.7581 1.22062 27.875 1.28809L27.999 1.07324C28.2415 1.21323 28.4769 1.36368 28.7021 1.52734V1.52832L28.5557 1.73047C28.7746 1.88957 28.9849 2.05963 29.1855 2.24023L29.3516 2.05566C29.5591 2.24249 29.7565 2.43998 29.9434 2.64746L29.7598 2.81445C29.9404 3.01506 30.1104 3.22539 30.2695 3.44434L30.4717 3.29785V3.29688C30.6354 3.52214 30.7857 3.75754 30.9258 4L30.7119 4.125C30.7794 4.24186 30.8438 4.36075 30.9053 4.48145C30.9817 4.63141 31.051 4.78603 31.1143 4.94629L31.3438 4.85449C31.4689 5.17145 31.5706 5.50854 31.6523 5.87598L31.4111 5.93066C31.4814 6.24655 31.5366 6.58713 31.5811 6.95898L31.8271 6.92969C31.8666 7.26029 31.8986 7.61323 31.9219 7.99316L31.6729 8.00879C31.6931 8.33946 31.7087 8.69128 31.7197 9.06738L31.9658 9.06055C31.9757 9.39738 31.9838 9.75278 31.9883 10.1289L31.7402 10.1318C31.7443 10.4698 31.7467 10.8248 31.748 11.1982L31.9971 11.1973Z" stroke="black" stroke-opacity="0.8" stroke-width="0.5" stroke-dasharray="1 1" />
</svg>
