<svg preserveAspectRatio="none" width="100%" height="100%" overflow="visible" style="display: block;" viewBox="0 0 28 28" fill="none" xmlns="http://www.w3.org/2000/svg">
<g id="Frame">
<path id="back" d="M0 14C0 6.26801 6.26801 0 14 0C21.732 0 28 6.26801 28 14C28 21.732 21.732 28 14 28C6.26801 28 0 21.732 0 14Z" fill="var(--fill-0, #F26798)"/>
<path id="Path" d="M14.0008 4.2C14.6646 4.2 15.3293 4.26717 15.9754 4.39922C16.6048 4.52748 17.2251 4.71926 17.8172 4.96953C18.3981 5.2164 18.9587 5.52028 19.4822 5.8748C20.0005 6.22599 20.4888 6.62802 20.9324 7.07012C21.375 7.51455 21.778 8.00082 22.1277 8.52031C22.4828 9.04282 22.787 9.60361 23.032 10.1854C23.2828 10.7763 23.4741 11.3965 23.6033 12.0271C23.7358 12.6717 23.8035 13.3357 23.8035 13.9998C23.8035 14.6635 23.7359 15.3264 23.6033 15.9725C23.4741 16.6031 23.2828 17.2224 23.032 17.8143C22.787 18.3956 22.4828 18.9558 22.1277 19.4783C21.778 19.9974 21.375 20.4846 20.9324 20.9285C20.4889 21.3705 20.0004 21.7731 19.4822 22.1248C18.9587 22.4779 18.3982 22.7826 17.8172 23.0291C17.2251 23.2789 16.6048 23.4702 15.9754 23.5994C15.3293 23.7325 14.6646 23.7996 14.0008 23.7996C13.3366 23.7996 12.6722 23.7324 12.0271 23.5994C11.3969 23.4702 10.7769 23.2789 10.1854 23.0291C9.60435 22.7826 9.04389 22.4779 8.52031 22.1248C8.00197 21.7731 7.51382 21.3706 7.07109 20.9285C6.62793 20.4845 6.22416 19.9975 5.87383 19.4783C5.5207 18.9559 5.21645 18.3955 4.97051 17.8143C4.71969 17.2224 4.52795 16.6031 4.39824 15.9725C4.26711 15.3264 4.2 14.6635 4.2 13.9998C4.20001 13.3357 4.26706 12.6717 4.39824 12.0271C4.52794 11.3965 4.7197 10.7763 4.97051 10.1854C5.21644 9.60363 5.52072 9.04277 5.87383 8.52031C6.22415 8.0007 6.62794 7.51464 7.07109 7.07012C7.51382 6.62795 8.00197 6.22603 8.52031 5.8748C9.04377 5.52031 9.60449 5.21642 10.1854 4.96953C10.7768 4.71926 11.3969 4.52744 12.0271 4.39922C12.6722 4.26719 13.3366 4.20003 14.0008 4.2ZM15.4256 15.3689C10.4946 17.0876 8.87868 20.5479 8.85625 20.5965C10.2772 21.7013 12.0597 22.3679 14.0008 22.368C15.16 22.368 16.2647 22.1321 17.2693 21.7049C17.1453 20.9735 16.659 18.4107 15.4812 15.3504C15.4626 15.3566 15.4438 15.3623 15.4256 15.3689ZM22.2654 15.326C22.0914 15.2699 19.7502 14.5298 17.0496 14.9627C18.1474 17.9789 18.5932 20.4354 18.6785 20.9402C20.558 19.6722 21.8931 17.6583 22.2654 15.326ZM14.2312 12.5418C9.92313 13.8312 5.78902 13.739 5.6375 13.7332C5.63508 13.823 5.63067 13.91 5.63066 13.9998C5.63066 16.1496 6.44189 18.1096 7.7752 19.5916C7.79126 19.5539 10.0817 15.5187 14.5799 14.0643C14.689 14.0279 14.8009 13.9952 14.9109 13.9637C14.7009 13.4881 14.471 13.0116 14.2312 12.5418ZM20.4656 8.6834C20.4498 8.70584 19.1072 10.6455 15.8025 11.9949C15.9968 12.394 16.1845 12.8006 16.3582 13.2088C16.4199 13.3552 16.48 13.4989 16.5389 13.6424C19.4144 13.2806 22.2478 13.889 22.3689 13.9139C22.3498 11.93 21.6401 10.1089 20.4656 8.6834ZM10.4295 6.43047C8.09547 7.53251 6.35365 9.68281 5.81035 12.2742C6.03329 12.2762 9.52038 12.32 13.5379 11.2527C12.0891 8.67931 10.541 6.57933 10.4295 6.43047ZM14.0008 5.63164C13.3209 5.63167 12.6611 5.71394 12.0291 5.86602C12.1546 6.03462 13.7265 8.12004 15.158 10.7479C18.3164 9.56403 19.5085 7.74916 19.5291 7.71855C18.0554 6.41952 16.12 5.63164 14.0008 5.63164Z" fill="var(--fill-0, white)"/>
</g>
</svg>
