<svg preserveAspectRatio="none" width="100%" height="100%" overflow="visible" style="display: block;" viewBox="0 0 28 28" fill="none" xmlns="http://www.w3.org/2000/svg">
<g id="Frame">
<path id="path0_fill" d="M0 14C0 6.26803 6.26803 0 14 0C21.732 0 28 6.26803 28 14C28 21.732 21.732 28 14 28C6.26803 28 0 21.732 0 14Z" fill="var(--fill-0, #303030)"/>
<g id="Group 602">
<path id="path1_fill" d="M10.85 23.8C12.5897 23.8 14 22.3897 14 20.65V17.5H10.85C9.1103 17.5 7.7 18.9103 7.7 20.65C7.7 22.3897 9.1103 23.8 10.85 23.8Z" fill="var(--fill-0, #0ACF83)"/>
<path id="path2_fill" d="M7.7 14.35C7.7 12.6103 9.1103 11.2 10.85 11.2H14V17.5H10.85C9.1103 17.5 7.7 16.0897 7.7 14.35Z" fill="var(--fill-0, #A259FF)"/>
<path id="path2_fill_2" d="M7.7 8.05C7.7 6.3103 9.1103 4.9 10.85 4.9H14V11.2H10.85C9.1103 11.2 7.7 9.7897 7.7 8.05Z" fill="var(--fill-0, #F25022)"/>
<path id="path3_fill" d="M14 4.9H17.15C18.8897 4.9 20.3 6.3103 20.3 8.05C20.3 9.7897 18.8897 11.2 17.15 11.2H14V4.9Z" fill="var(--fill-0, #FF7262)"/>
<path id="path4_fill" d="M20.3 14.35C20.3 16.0897 18.8897 17.5 17.15 17.5C15.4103 17.5 14 16.0897 14 14.35C14 12.6103 15.4103 11.2 17.15 11.2C18.8897 11.2 20.3 12.6103 20.3 14.35Z" fill="var(--fill-0, #1ABCFE)"/>
</g>
</g>
</svg>
