<svg xmlns="http://www.w3.org/2000/svg" width="32" height="32" viewBox="0 0 32 32" fill="none"><g id="Union" opacity="0.08">
<path d="M19.75 4C19.3358 4 19 4.33579 19 4.75C19 5.16421 19.3358 5.5 19.75 5.5H23.75C24.9926 5.5 26 6.50736 26 7.75V11.75C26 12.1642 26.3358 12.5 26.75 12.5C27.1642 12.5 27.5 12.1642 27.5 11.75V7.75C27.5 5.67893 25.8211 4 23.75 4H19.75Z" fill="black" />
<path d="M11.75 27.5C12.1642 27.5 12.5 27.1642 12.5 26.75C12.5 26.3358 12.1642 26 11.75 26H7.75C6.50736 26 5.5 24.9926 5.5 23.75L5.5 19.75C5.5 19.3358 5.16421 19 4.75 19C4.33579 19 4 19.3358 4 19.75V23.75C4 25.8211 5.67893 27.5 7.75 27.5H11.75Z" fill="black" />
<path d="M4.75 12.5C4.33579 12.5 4 12.1642 4 11.75V7.75C4 5.67893 5.67893 4 7.75 4H11.75C12.1642 4 12.5 4.33579 12.5 4.75C12.5 5.16421 12.1642 5.5 11.75 5.5L7.75 5.5C6.50736 5.5 5.5 6.50736 5.5 7.75L5.5 11.75C5.5 12.1642 5.16421 12.5 4.75 12.5Z" fill="black" />
<path d="M27.5 19.75C27.5 19.3358 27.1642 19 26.75 19C26.3358 19 26 19.3358 26 19.75V23.75C26 24.9926 24.9926 26 23.75 26H19.75C19.3358 26 19 26.3358 19 26.75C19 27.1642 19.3358 27.5 19.75 27.5H23.75C25.8211 27.5 27.5 25.8211 27.5 23.75V19.75Z" fill="black" />
</g>
<g id="40">
<path d="M8.99988 19.0569V18.1876L12.4942 12.1194H13.534L10.1249 18.0512V18.1194H15.3067V19.0569H8.99988ZM13.1078 20.8467V15.3921H14.1135V20.8467H13.1078Z" fill="black" />
<path d="M19.7502 20.966C19.1082 20.966 18.5613 20.7913 18.1096 20.4419C17.6579 20.0896 17.3127 19.5796 17.0741 18.912C16.8355 18.2416 16.7161 17.4319 16.7161 16.483C16.7161 15.5399 16.8355 14.7345 17.0741 14.0669C17.3156 13.3964 17.6622 12.885 18.1139 12.5328C18.5684 12.1776 19.1139 12.0001 19.7502 12.0001C20.3866 12.0001 20.9306 12.1776 21.3823 12.5328C21.8369 12.885 22.1835 13.3964 22.4221 14.0669C22.6636 14.7345 22.7843 15.5399 22.7843 16.483C22.7843 17.4319 22.665 18.2416 22.4264 18.912C22.1877 19.5796 21.8426 20.0896 21.3909 20.4419C20.9392 20.7913 20.3923 20.966 19.7502 20.966ZM19.7502 20.0285C20.3866 20.0285 20.8809 19.7217 21.2332 19.108C21.5855 18.4944 21.7616 17.6194 21.7616 16.483C21.7616 15.7274 21.6806 15.0839 21.5187 14.5526C21.3596 14.0214 21.1295 13.6166 20.8284 13.3382C20.5301 13.0598 20.1707 12.9205 19.7502 12.9205C19.1196 12.9205 18.6267 13.2316 18.2715 13.8538C17.9164 14.4731 17.7389 15.3495 17.7389 16.483C17.7389 17.2387 17.8184 17.8808 17.9775 18.4092C18.1366 18.9376 18.3653 19.3396 18.6636 19.6151C18.9647 19.8907 19.3269 20.0285 19.7502 20.0285Z" fill="black" />
</g>
</svg>
