<svg xmlns="http://www.w3.org/2000/svg" width="32" height="32" viewBox="0 0 32 32" fill="none"><g id="Union" opacity="0.08">
<path d="M19.75 4C19.3358 4 19 4.33579 19 4.75C19 5.16421 19.3358 5.5 19.75 5.5H23.75C24.9926 5.5 26 6.50736 26 7.75V11.75C26 12.1642 26.3358 12.5 26.75 12.5C27.1642 12.5 27.5 12.1642 27.5 11.75V7.75C27.5 5.67893 25.8211 4 23.75 4H19.75Z" fill="black" />
<path d="M11.75 27.5C12.1642 27.5 12.5 27.1642 12.5 26.75C12.5 26.3358 12.1642 26 11.75 26H7.75C6.50736 26 5.5 24.9926 5.5 23.75L5.5 19.75C5.5 19.3358 5.16421 19 4.75 19C4.33579 19 4 19.3358 4 19.75V23.75C4 25.8211 5.67893 27.5 7.75 27.5H11.75Z" fill="black" />
<path d="M4.75 12.5C4.33579 12.5 4 12.1642 4 11.75V7.75C4 5.67893 5.67893 4 7.75 4H11.75C12.1642 4 12.5 4.33579 12.5 4.75C12.5 5.16421 12.1642 5.5 11.75 5.5L7.75 5.5C6.50736 5.5 5.5 6.50736 5.5 7.75L5.5 11.75C5.5 12.1642 5.16421 12.5 4.75 12.5Z" fill="black" />
<path d="M27.5 19.75C27.5 19.3358 27.1642 19 26.75 19C26.3358 19 26 19.3358 26 19.75V23.75C26 24.9926 24.9926 26 23.75 26H19.75C19.3358 26 19 26.3358 19 26.75C19 27.1642 19.3358 27.5 19.75 27.5H23.75C25.8211 27.5 27.5 25.8211 27.5 23.75V19.75Z" fill="black" />
</g>
<g id="16">
<path d="M13.9659 12V20.7273H12.9091V13.5341H12.8409C12.8011 13.6137 12.6989 13.7046 12.5341 13.8068C12.3693 13.9063 12.1562 13.9943 11.8949 14.071C11.6335 14.1449 11.3352 14.1818 11 14.1818V13.2955C11.3381 13.2955 11.6307 13.2344 11.8778 13.1122C12.125 12.9901 12.331 12.8466 12.4957 12.6818C12.6634 12.5171 12.7898 12.3679 12.875 12.2344C12.9631 12.1009 13.0142 12.0228 13.0284 12H13.9659Z" fill="black" />
<path d="M16.2628 17.9659C16.2685 17.6932 16.3097 17.4105 16.3864 17.1179C16.4631 16.8253 16.5923 16.5 16.7741 16.1421C16.956 15.7841 17.206 15.3693 17.5241 14.8978L19.4844 12H20.6435L18.3423 15.358C18.4446 15.3239 18.5497 15.2955 18.6577 15.2728C18.7685 15.25 18.8793 15.2387 18.9901 15.2387C19.5185 15.2387 19.9901 15.3608 20.4048 15.6051C20.8224 15.8495 21.1506 16.1833 21.3892 16.6066C21.6307 17.0299 21.7514 17.5114 21.7514 18.0512C21.7514 18.5909 21.6321 19.071 21.3935 19.4915C21.1577 19.912 20.8324 20.2429 20.4176 20.4844C20.0057 20.7259 19.5355 20.8466 19.0071 20.8466C18.473 20.8466 17.9986 20.723 17.5838 20.4759C17.169 20.2259 16.8438 19.885 16.608 19.4531C16.3722 19.0185 16.2571 18.5228 16.2628 17.9659ZM17.2685 18.0341C17.2685 18.4034 17.3423 18.7301 17.4901 19.0142C17.6378 19.2983 17.8423 19.5213 18.1037 19.6833C18.3651 19.8452 18.6662 19.9262 19.0071 19.9262C19.348 19.9262 19.6491 19.8466 19.9105 19.6875C20.1719 19.5256 20.3764 19.304 20.5241 19.0228C20.6719 18.7387 20.7457 18.4148 20.7457 18.0512C20.7457 17.6818 20.6719 17.3566 20.5241 17.0753C20.3764 16.7941 20.1719 16.5739 19.9105 16.4148C19.6491 16.2557 19.348 16.1762 19.0071 16.1762C18.6662 16.1762 18.3651 16.2557 18.1037 16.4148C17.8423 16.571 17.6378 16.7898 17.4901 17.071C17.3423 17.3495 17.2685 17.6705 17.2685 18.0341Z" fill="black" />
</g>
</svg>
