<svg xmlns="http://www.w3.org/2000/svg" width="32" height="32" viewBox="0 0 32 32" fill="none"><g id="Union" opacity="0.08">
<path d="M19.75 4C19.3358 4 19 4.33579 19 4.75C19 5.16421 19.3358 5.5 19.75 5.5H23.75C24.9926 5.5 26 6.50736 26 7.75V11.75C26 12.1642 26.3358 12.5 26.75 12.5C27.1642 12.5 27.5 12.1642 27.5 11.75V7.75C27.5 5.67893 25.8211 4 23.75 4H19.75Z" fill="black" />
<path d="M11.75 27.5C12.1642 27.5 12.5 27.1642 12.5 26.75C12.5 26.3358 12.1642 26 11.75 26H7.75C6.50736 26 5.5 24.9926 5.5 23.75L5.5 19.75C5.5 19.3358 5.16421 19 4.75 19C4.33579 19 4 19.3358 4 19.75V23.75C4 25.8211 5.67893 27.5 7.75 27.5H11.75Z" fill="black" />
<path d="M4.75 12.5C4.33579 12.5 4 12.1642 4 11.75V7.75C4 5.67893 5.67893 4 7.75 4H11.75C12.1642 4 12.5 4.33579 12.5 4.75C12.5 5.16421 12.1642 5.5 11.75 5.5L7.75 5.5C6.50736 5.5 5.5 6.50736 5.5 7.75L5.5 11.75C5.5 12.1642 5.16421 12.5 4.75 12.5Z" fill="black" />
<path d="M27.5 19.75C27.5 19.3358 27.1642 19 26.75 19C26.3358 19 26 19.3358 26 19.75V23.75C26 24.9926 24.9926 26 23.75 26H19.75C19.3358 26 19 26.3358 19 26.75C19 27.1642 19.3358 27.5 19.75 27.5H23.75C25.8211 27.5 27.5 25.8211 27.5 23.75V19.75Z" fill="black" />
</g>
<g id="80">
<path d="M11.966 20.966C11.3808 20.966 10.8637 20.8623 10.4149 20.6549C9.96883 20.4447 9.62082 20.1563 9.37082 19.7899C9.12082 19.4205 8.99724 19.0001 9.00008 18.5285C8.99724 18.1592 9.06968 17.8183 9.21741 17.5058C9.36514 17.1904 9.56684 16.9276 9.82252 16.7174C10.081 16.5044 10.3694 16.3694 10.6876 16.3126V16.2615C10.27 16.1535 9.93758 15.9191 9.69042 15.5583C9.44326 15.1947 9.3211 14.7813 9.32394 14.3183C9.3211 13.8751 9.43332 13.4788 9.66059 13.1294C9.88786 12.7799 10.2004 12.5044 10.5981 12.3026C10.9987 12.1009 11.4546 12.0001 11.966 12.0001C12.4717 12.0001 12.9234 12.1009 13.3211 12.3026C13.7188 12.5044 14.0313 12.7799 14.2586 13.1294C14.4887 13.4788 14.6052 13.8751 14.608 14.3183C14.6052 14.7813 14.4788 15.1947 14.2288 15.5583C13.9816 15.9191 13.6535 16.1535 13.2444 16.2615V16.3126C13.5597 16.3694 13.8438 16.5044 14.0967 16.7174C14.3495 16.9276 14.5512 17.1904 14.7018 17.5058C14.8524 17.8183 14.9291 18.1592 14.9319 18.5285C14.9291 19.0001 14.8012 19.4205 14.5484 19.7899C14.2984 20.1563 13.9504 20.4447 13.5043 20.6549C13.0612 20.8623 12.5484 20.966 11.966 20.966ZM11.966 20.0285C12.3609 20.0285 12.7018 19.9646 12.9887 19.8367C13.2756 19.7089 13.4972 19.5285 13.6535 19.2955C13.8097 19.0626 13.8893 18.7899 13.8921 18.4774C13.8893 18.1478 13.8041 17.8566 13.6364 17.6038C13.4688 17.3509 13.2401 17.1521 12.9504 17.0072C12.6634 16.8623 12.3353 16.7899 11.966 16.7899C11.5938 16.7899 11.2614 16.8623 10.9688 17.0072C10.6791 17.1521 10.4504 17.3509 10.2828 17.6038C10.118 17.8566 10.037 18.1478 10.0399 18.4774C10.037 18.7899 10.1123 19.0626 10.2657 19.2955C10.422 19.5285 10.645 19.7089 10.9347 19.8367C11.2245 19.9646 11.5683 20.0285 11.966 20.0285ZM11.966 15.8865C12.2785 15.8865 12.5555 15.824 12.797 15.699C13.0413 15.574 13.233 15.3992 13.3722 15.1748C13.5114 14.9504 13.5825 14.6876 13.5853 14.3865C13.5825 14.091 13.5129 13.8339 13.3765 13.6151C13.2401 13.3936 13.0512 13.2231 12.8097 13.1038C12.5683 12.9816 12.287 12.9205 11.966 12.9205C11.6393 12.9205 11.3538 12.9816 11.1095 13.1038C10.8651 13.2231 10.6762 13.3936 10.5427 13.6151C10.4092 13.8339 10.3438 14.091 10.3467 14.3865C10.3438 14.6876 10.4106 14.9504 10.547 15.1748C10.6862 15.3992 10.8779 15.574 11.1222 15.699C11.3666 15.824 11.6478 15.8865 11.966 15.8865Z" fill="black" />
<path d="M19.4117 20.966C18.7696 20.966 18.2227 20.7913 17.771 20.4419C17.3193 20.0896 16.9742 19.5796 16.7355 18.912C16.4969 18.2416 16.3776 17.4319 16.3776 16.483C16.3776 15.5399 16.4969 14.7345 16.7355 14.0669C16.977 13.3964 17.3236 12.885 17.7753 12.5328C18.2298 12.1776 18.7753 12.0001 19.4117 12.0001C20.048 12.0001 20.5921 12.1776 21.0438 12.5328C21.4983 12.885 21.8449 13.3964 22.0835 14.0669C22.325 14.7345 22.4457 15.5399 22.4457 16.483C22.4457 17.4319 22.3264 18.2416 22.0878 18.912C21.8492 19.5796 21.504 20.0896 21.0523 20.4419C20.6006 20.7913 20.0537 20.966 19.4117 20.966ZM19.4117 20.0285C20.048 20.0285 20.5423 19.7217 20.8946 19.108C21.2469 18.4944 21.423 17.6194 21.423 16.483C21.423 15.7274 21.3421 15.0839 21.1801 14.5526C21.021 14.0214 20.7909 13.6166 20.4898 13.3382C20.1915 13.0598 19.8321 12.9205 19.4117 12.9205C18.781 12.9205 18.2881 13.2316 17.933 13.8538C17.5779 14.4731 17.4003 15.3495 17.4003 16.483C17.4003 17.2387 17.4798 17.8808 17.6389 18.4092C17.798 18.9376 18.0267 19.3396 18.325 19.6151C18.6261 19.8907 18.9884 20.0285 19.4117 20.0285Z" fill="black" />
</g>
</svg>
