<svg xmlns="http://www.w3.org/2000/svg" width="32" height="32" viewBox="0 0 32 32" fill="none"><g id="Union" opacity="0.08">
<path d="M19.75 4C19.3358 4 19 4.33579 19 4.75C19 5.16421 19.3358 5.5 19.75 5.5H23.75C24.9926 5.5 26 6.50736 26 7.75V11.75C26 12.1642 26.3358 12.5 26.75 12.5C27.1642 12.5 27.5 12.1642 27.5 11.75V7.75C27.5 5.67893 25.8211 4 23.75 4H19.75Z" fill="black" />
<path d="M11.75 27.5C12.1642 27.5 12.5 27.1642 12.5 26.75C12.5 26.3358 12.1642 26 11.75 26H7.75C6.50736 26 5.5 24.9926 5.5 23.75L5.5 19.75C5.5 19.3358 5.16421 19 4.75 19C4.33579 19 4 19.3358 4 19.75V23.75C4 25.8211 5.67893 27.5 7.75 27.5H11.75Z" fill="black" />
<path d="M4.75 12.5C4.33579 12.5 4 12.1642 4 11.75V7.75C4 5.67893 5.67893 4 7.75 4H11.75C12.1642 4 12.5 4.33579 12.5 4.75C12.5 5.16421 12.1642 5.5 11.75 5.5L7.75 5.5C6.50736 5.5 5.5 6.50736 5.5 7.75L5.5 11.75C5.5 12.1642 5.16421 12.5 4.75 12.5Z" fill="black" />
<path d="M27.5 19.75C27.5 19.3358 27.1642 19 26.75 19C26.3358 19 26 19.3358 26 19.75V23.75C26 24.9926 24.9926 26 23.75 26H19.75C19.3358 26 19 26.3358 19 26.75C19 27.1642 19.3358 27.5 19.75 27.5H23.75C25.8211 27.5 27.5 25.8211 27.5 23.75V19.75Z" fill="black" />
</g>
<g id="20">
<path d="M9.00012 20.8467V20.0796L11.8808 16.9262C12.2189 16.5569 12.4973 16.2359 12.716 15.9632C12.9348 15.6876 13.0967 15.4291 13.2018 15.1876C13.3098 14.9433 13.3638 14.6876 13.3638 14.4205C13.3638 14.1137 13.2899 13.8481 13.1422 13.6237C12.9973 13.3992 12.7984 13.2259 12.5456 13.1038C12.2927 12.9816 12.0086 12.9205 11.6933 12.9205C11.3581 12.9205 11.0655 12.9901 10.8155 13.1294C10.5683 13.2657 10.3765 13.4575 10.2402 13.7046C10.1067 13.9518 10.0399 14.2416 10.0399 14.574H9.03421C9.03421 14.0626 9.15211 13.6137 9.38791 13.2274C9.6237 12.841 9.94472 12.5399 10.351 12.324C10.7601 12.108 11.2189 12.0001 11.7274 12.0001C12.2388 12.0001 12.6919 12.108 13.0868 12.324C13.4817 12.5399 13.7913 12.8311 14.0157 13.1975C14.2402 13.564 14.3524 13.9717 14.3524 14.4205C14.3524 14.7416 14.2942 15.0555 14.1777 15.3623C14.064 15.6663 13.8652 16.0058 13.5811 16.3808C13.2998 16.7529 12.9092 17.2075 12.4092 17.7444L10.449 19.841V19.9092H14.5058V20.8467H9.00012Z" fill="black" />
<path d="M19.1123 20.966C18.4703 20.966 17.9234 20.7913 17.4717 20.4419C17.02 20.0896 16.6748 19.5796 16.4362 18.912C16.1976 18.2416 16.0782 17.4319 16.0782 16.483C16.0782 15.5399 16.1976 14.7345 16.4362 14.0669C16.6777 13.3964 17.0243 12.885 17.476 12.5328C17.9305 12.1776 18.476 12.0001 19.1123 12.0001C19.7487 12.0001 20.2927 12.1776 20.7444 12.5328C21.199 12.885 21.5456 13.3964 21.7842 14.0669C22.0257 14.7345 22.1464 15.5399 22.1464 16.483C22.1464 17.4319 22.0271 18.2416 21.7885 18.912C21.5498 19.5796 21.2047 20.0896 20.753 20.4419C20.3013 20.7913 19.7544 20.966 19.1123 20.966ZM19.1123 20.0285C19.7487 20.0285 20.243 19.7217 20.5953 19.108C20.9476 18.4944 21.1237 17.6194 21.1237 16.483C21.1237 15.7274 21.0427 15.0839 20.8808 14.5526C20.7217 14.0214 20.4916 13.6166 20.1905 13.3382C19.8922 13.0598 19.5328 12.9205 19.1123 12.9205C18.4817 12.9205 17.9888 13.2316 17.6336 13.8538C17.2785 14.4731 17.101 15.3495 17.101 16.483C17.101 17.2387 17.1805 17.8808 17.3396 18.4092C17.4987 18.9376 17.7274 19.3396 18.0257 19.6151C18.3268 19.8907 18.689 20.0285 19.1123 20.0285Z" fill="black" />
</g>
</svg>
