<svg xmlns="http://www.w3.org/2000/svg" width="32" height="32" viewBox="0 0 32 32" fill="none"><path id="Rectangle" opacity="0.2" d="M22 16C22 14.8954 22.8954 14 24 14H30C31.1046 14 32 14.8954 32 16C32 17.1046 31.1046 18 30 18H24C22.8954 18 22 17.1046 22 16Z" fill="black" />
<path id="Rectangle_2" opacity="0.6" d="M0 16C0 14.8954 0.895431 14 2 14H8C9.10457 14 10 14.8954 10 16C10 17.1046 9.10457 18 8 18H2C0.89543 18 0 17.1046 0 16Z" fill="black" />
<path id="Rectangle_3" opacity="0.4" d="M16 22C17.1046 22 18 22.8954 18 24L18 30C18 31.1046 17.1046 32 16 32C14.8954 32 14 31.1046 14 30L14 24C14 22.8954 14.8954 22 16 22Z" fill="black" />
<path id="Rectangle_4" opacity="0.8" d="M16 -8.74228e-08C17.1046 -3.91405e-08 18 0.895431 18 2L18 8C18 9.10457 17.1046 10 16 10C14.8954 10 14 9.10457 14 8L14 2C14 0.89543 14.8954 -1.35705e-07 16 -8.74228e-08Z" fill="black" />
<path id="Rectangle_5" opacity="0.3" d="M20.2426 20.2426C21.0237 19.4616 22.29 19.4616 23.0711 20.2426L27.3137 24.4853C28.0948 25.2663 28.0948 26.5327 27.3137 27.3137C26.5327 28.0948 25.2663 28.0948 24.4853 27.3137L20.2426 23.0711C19.4616 22.29 19.4616 21.0237 20.2426 20.2426Z" fill="black" />
<path id="Rectangle_6" opacity="0.7" d="M4.68625 4.68629C5.4673 3.90524 6.73363 3.90524 7.51468 4.68629L11.7573 8.92893C12.5384 9.70998 12.5384 10.9763 11.7573 11.7574C10.9763 12.5384 9.70994 12.5384 8.92889 11.7574L4.68625 7.51472C3.9052 6.73367 3.9052 5.46734 4.68625 4.68629Z" fill="black" />
<path id="Rectangle_7" opacity="0.5" d="M11.7574 20.2426C12.5385 21.0237 12.5385 22.29 11.7574 23.0711L7.51478 27.3137C6.73373 28.0948 5.4674 28.0948 4.68635 27.3137C3.9053 26.5327 3.9053 25.2663 4.68635 24.4853L8.92899 20.2426C9.71004 19.4616 10.9764 19.4616 11.7574 20.2426Z" fill="black" />
<path id="Rectangle_8" opacity="0.1" d="M27.3137 4.6863C28.0947 5.46734 28.0947 6.73367 27.3137 7.51472L23.0711 11.7574C22.29 12.5384 21.0237 12.5384 20.2426 11.7574C19.4616 10.9763 19.4616 9.70999 20.2426 8.92894L24.4853 4.6863C25.2663 3.90525 26.5326 3.90525 27.3137 4.6863Z" fill="black" />
<defs>
<clipPath id="clip0_25596_105748">
<rect width="32" height="32" fill="white" />
</clipPath>
</defs>
</svg>
