<svg width="120" height="120" viewBox="0 0 120 120" fill="none" xmlns="http://www.w3.org/2000/svg">
<g id="DonutChart">
<g id="DonutGraph">
<g id="Frame">
<mask id="mask0_25596_105239" style="mask-type:alpha" maskUnits="userSpaceOnUse" x="46" y="0" width="74" height="120">
<path id="Subtract" fill-rule="evenodd" clip-rule="evenodd" d="M61.6656 27.2239C61.6656 28.8042 62.8962 30.0973 64.4566 30.3478C78.7479 32.6415 89.6656 45.0294 89.6656 59.9673C89.6656 76.5358 76.2342 89.9673 59.6656 89.9673C58.5978 89.9673 57.5429 89.9115 56.5039 89.8027C54.9295 89.6378 53.4026 90.5689 52.9929 92.098L46.7493 115.4C46.3107 117.037 47.3129 118.719 48.9807 119.019C52.4481 119.642 56.0189 119.967 59.6656 119.967C92.8027 119.967 119.666 93.1044 119.666 59.9673C119.666 28.5463 95.513 2.7665 64.7606 0.180577C63.0712 0.0385196 61.6656 1.40452 61.6656 3.09986L61.6656 27.2239Z" fill="url(#paint0_linear_25596_105239)"/>
</mask>
<g mask="url(#mask0_25596_105239)">
<g id="Subtract_2">
<path fill-rule="evenodd" clip-rule="evenodd" d="M61.6656 27.2239C61.6656 28.8042 62.8962 30.0973 64.4566 30.3478C78.7479 32.6415 89.6656 45.0294 89.6656 59.9673C89.6656 76.5358 76.2342 89.9673 59.6656 89.9673C58.5978 89.9673 57.5429 89.9115 56.5039 89.8027C54.9295 89.6378 53.4026 90.5689 52.9929 92.098L46.7493 115.4C46.3107 117.037 47.3129 118.719 48.9807 119.019C52.4481 119.642 56.0189 119.967 59.6656 119.967C92.8027 119.967 119.666 93.1044 119.666 59.9673C119.666 28.5463 95.513 2.7665 64.7606 0.180577C63.0712 0.0385196 61.6656 1.40452 61.6656 3.09986L61.6656 27.2239Z" fill="url(#paint1_linear_25596_105239)"/>
<path fill-rule="evenodd" clip-rule="evenodd" d="M61.6656 27.2239C61.6656 28.8042 62.8962 30.0973 64.4566 30.3478C78.7479 32.6415 89.6656 45.0294 89.6656 59.9673C89.6656 76.5358 76.2342 89.9673 59.6656 89.9673C58.5978 89.9673 57.5429 89.9115 56.5039 89.8027C54.9295 89.6378 53.4026 90.5689 52.9929 92.098L46.7493 115.4C46.3107 117.037 47.3129 118.719 48.9807 119.019C52.4481 119.642 56.0189 119.967 59.6656 119.967C92.8027 119.967 119.666 93.1044 119.666 59.9673C119.666 28.5463 95.513 2.7665 64.7606 0.180577C63.0712 0.0385196 61.6656 1.40452 61.6656 3.09986L61.6656 27.2239Z" fill="black" style="mix-blend-mode:screen"/>
</g>
</g>
</g>
</g>
<g id="DonutGraph_2">
<g id="Frame_2">
<mask id="mask1_25596_105239" style="mask-type:alpha" maskUnits="userSpaceOnUse" x="3" y="69" width="49" height="48">
<path id="Subtract_3" fill-rule="evenodd" clip-rule="evenodd" d="M45.2178 114.078C44.6454 116.214 42.4423 117.494 40.3505 116.776C23.2754 110.915 9.67952 97.5663 3.48273 80.6502C2.71168 78.5454 3.98989 76.2932 6.15511 75.713L27.5042 69.9926C29.5748 69.4378 31.6897 70.6294 32.5884 72.5755C35.7157 79.3471 41.2928 84.7552 48.1829 87.6631C50.2129 88.5198 51.4863 90.684 50.916 92.8122L45.2178 114.078Z" fill="url(#paint2_linear_25596_105239)"/>
</mask>
<g mask="url(#mask1_25596_105239)">
<path id="Subtract_4" fill-rule="evenodd" clip-rule="evenodd" d="M45.2178 114.078C44.6454 116.214 42.4423 117.494 40.3505 116.776C23.2754 110.915 9.67952 97.5663 3.48273 80.6502C2.71168 78.5454 3.98989 76.2932 6.15511 75.713L27.5042 69.9926C29.5748 69.4378 31.6897 70.6294 32.5884 72.5755C35.7157 79.3471 41.2928 84.7552 48.1829 87.6631C50.2129 88.5198 51.4863 90.684 50.916 92.8122L45.2178 114.078Z" fill="#7DBBFF"/>
</g>
</g>
</g>
<g id="DonutGraph_3">
<g id="Frame_3">
<mask id="mask2_25596_105239" style="mask-type:alpha" maskUnits="userSpaceOnUse" x="0" y="31" width="33" height="43">
<path id="Subtract_5" fill-rule="evenodd" clip-rule="evenodd" d="M32.4855 48.5757C33.3073 46.5375 32.6751 44.1163 30.772 43.0175L11.7003 32.0065C9.78277 30.8994 7.31761 31.5554 6.34794 33.546C2.48639 41.4731 0.319824 50.3778 0.319824 59.7885C0.319824 63.5006 0.656916 67.1339 1.30216 70.6595C1.70348 72.8523 3.92666 74.1455 6.07995 73.5685L27.3875 67.8592C29.4836 67.2975 30.7209 65.1663 30.4906 63.0085C30.3777 61.9506 30.3198 60.8763 30.3198 59.7885C30.3198 55.8243 31.0887 52.0397 32.4855 48.5757Z" fill="url(#paint3_linear_25596_105239)"/>
</mask>
<g mask="url(#mask2_25596_105239)">
<path id="Subtract_6" fill-rule="evenodd" clip-rule="evenodd" d="M32.4855 48.5757C33.3073 46.5375 32.6751 44.1163 30.772 43.0175L11.7003 32.0065C9.78277 30.8994 7.31761 31.5554 6.34794 33.546C2.48639 41.4731 0.319824 50.3778 0.319824 59.7885C0.319824 63.5006 0.656916 67.1339 1.30216 70.6595C1.70348 72.8523 3.92666 74.1455 6.07995 73.5685L27.3875 67.8592C29.4836 67.2975 30.7209 65.1663 30.4906 63.0085C30.3777 61.9506 30.3198 60.8763 30.3198 59.7885C30.3198 55.8243 31.0887 52.0397 32.4855 48.5757Z" fill="#71DD8C"/>
</g>
</g>
</g>
<g id="DonutGraph_4">
<g id="Frame_4">
<mask id="mask3_25596_105239" style="mask-type:alpha" maskUnits="userSpaceOnUse" x="10" y="9" width="33" height="34">
<path id="Subtract_7" fill-rule="evenodd" clip-rule="evenodd" d="M12.0088 30.4149C10.0547 29.2868 9.40983 26.7578 10.7251 24.9244C14.8718 19.1442 20.0204 14.1313 25.9167 10.1397C27.752 8.8973 30.2182 9.5606 31.3263 11.4799L42.3362 30.5496C43.4344 32.4517 42.773 34.8637 41.043 36.2169C39.4652 37.451 38.014 38.8396 36.7123 40.3599C35.3355 41.9681 33.0148 42.5428 31.1814 41.4843L12.0088 30.4149Z" fill="url(#paint4_linear_25596_105239)"/>
</mask>
<g mask="url(#mask3_25596_105239)">
<path id="Subtract_8" fill-rule="evenodd" clip-rule="evenodd" d="M12.0088 30.4149C10.0547 29.2868 9.40983 26.7578 10.7251 24.9244C14.8718 19.1442 20.0204 14.1313 25.9167 10.1397C27.752 8.8973 30.2182 9.5606 31.3263 11.4799L42.3362 30.5496C43.4344 32.4517 42.773 34.8637 41.043 36.2169C39.4652 37.451 38.014 38.8396 36.7123 40.3599C35.3355 41.9681 33.0148 42.5428 31.1814 41.4843L12.0088 30.4149Z" fill="#A0BCE8"/>
</g>
</g>
</g>
<g id="DonutGraph_5">
<g id="Frame_5">
<mask id="mask4_25596_105239" style="mask-type:alpha" maskUnits="userSpaceOnUse" x="32" y="0" width="28" height="32">
<path id="Subtract_9" fill-rule="evenodd" clip-rule="evenodd" d="M59.4386 4C59.4386 1.79086 57.6456 -0.0139507 55.4412 0.131047C48.0781 0.615375 41.0776 2.42797 34.6774 5.33149C32.6244 6.26281 31.9211 8.77325 33.0482 10.7255L44.1195 29.9016C45.1786 31.7359 47.477 32.3975 49.4749 31.6943C51.3855 31.0218 53.3846 30.5372 55.4501 30.2628C57.64 29.9719 59.4386 28.2091 59.4386 26V4Z" fill="url(#paint5_linear_25596_105239)"/>
</mask>
<g mask="url(#mask4_25596_105239)">
<path id="Subtract_10" fill-rule="evenodd" clip-rule="evenodd" d="M59.4386 4C59.4386 1.79086 57.6456 -0.0139507 55.4412 0.131047C48.0781 0.615375 41.0776 2.42797 34.6774 5.33149C32.6244 6.26281 31.9211 8.77325 33.0482 10.7255L44.1195 29.9016C45.1786 31.7359 47.477 32.3975 49.4749 31.6943C51.3855 31.0218 53.3846 30.5372 55.4501 30.2628C57.64 29.9719 59.4386 28.2091 59.4386 26V4Z" fill="#ADADFB"/>
</g>
</g>
</g>
</g>
<defs>
<linearGradient id="paint0_linear_25596_105239" x1="119.666" y1="0" x2="79.0204" y2="42.7482" gradientUnits="userSpaceOnUse">
<stop/>
<stop offset="1"/>
</linearGradient>
<linearGradient id="paint1_linear_25596_105239" x1="82.8066" y1="0" x2="82.8066" y2="119.967" gradientUnits="userSpaceOnUse">
<stop/>
<stop offset="1" stop-color="#1C1C1C" stop-opacity="0.6"/>
<stop offset="1" stop-opacity="0.6"/>
</linearGradient>
<linearGradient id="paint2_linear_25596_105239" x1="51.9474" y1="69" x2="37.5968" y2="93.9582" gradientUnits="userSpaceOnUse">
<stop/>
<stop offset="1"/>
</linearGradient>
<linearGradient id="paint3_linear_25596_105239" x1="34.2105" y1="30" x2="19.5816" y2="49.0191" gradientUnits="userSpaceOnUse">
<stop/>
<stop offset="1"/>
</linearGradient>
<linearGradient id="paint4_linear_25596_105239" x1="44.3199" y1="8" x2="33.9419" y2="26.0199" gradientUnits="userSpaceOnUse">
<stop/>
<stop offset="1"/>
</linearGradient>
<linearGradient id="paint5_linear_25596_105239" x1="59.4386" y1="0" x2="48.9681" y2="15.3713" gradientUnits="userSpaceOnUse">
<stop/>
<stop offset="1"/>
</linearGradient>
</defs>
</svg>
