<svg width="121" height="120" viewBox="0 0 121 120" fill="none" xmlns="http://www.w3.org/2000/svg">
<g id="DonutChart">
<g id="DonutGraph">
<g id="Frame">
<mask id="mask0_25596_105239" style="mask-type:alpha" maskUnits="userSpaceOnUse" x="47" y="0" width="74" height="120">
<path id="Subtract" fill-rule="evenodd" clip-rule="evenodd" d="M90.8269 59.9838C90.8269 44.8607 79.6366 32.3511 65.0845 30.2837C63.4973 30.0582 62.2326 28.7545 62.2326 27.1514L62.2326 3.06977C62.2326 1.38592 63.6197 0.0242716 65.299 0.148005C96.3475 2.43571 120.827 28.351 120.827 59.9838C120.827 93.1209 93.964 119.984 60.8269 119.984C57.1801 119.984 53.6092 119.658 50.1418 119.035C48.4741 118.735 47.4718 117.053 47.9104 115.416L54.1541 92.1145C54.5638 90.5855 56.0906 89.6543 57.665 89.8192C58.7041 89.928 59.759 89.9838 60.8269 89.9838C77.3954 89.9838 90.8269 76.5524 90.8269 59.9838Z" fill="url(#paint0_linear_25596_105239)"/>
</mask>
<g mask="url(#mask0_25596_105239)">
<g id="Subtract_2">
<path fill-rule="evenodd" clip-rule="evenodd" d="M90.8269 59.9838C90.8269 44.8607 79.6366 32.3511 65.0845 30.2837C63.4973 30.0582 62.2326 28.7545 62.2326 27.1514L62.2326 3.06977C62.2326 1.38592 63.6197 0.0242716 65.299 0.148005C96.3475 2.43571 120.827 28.351 120.827 59.9838C120.827 93.1209 93.964 119.984 60.8269 119.984C57.1801 119.984 53.6092 119.658 50.1418 119.035C48.4741 118.735 47.4718 117.053 47.9104 115.416L54.1541 92.1145C54.5638 90.5855 56.0906 89.6543 57.665 89.8192C58.7041 89.928 59.759 89.9838 60.8269 89.9838C77.3954 89.9838 90.8269 76.5524 90.8269 59.9838Z" fill="url(#paint1_linear_25596_105239)"/>
<path fill-rule="evenodd" clip-rule="evenodd" d="M90.8269 59.9838C90.8269 44.8607 79.6366 32.3511 65.0845 30.2837C63.4973 30.0582 62.2326 28.7545 62.2326 27.1514L62.2326 3.06977C62.2326 1.38592 63.6197 0.0242716 65.299 0.148005C96.3475 2.43571 120.827 28.351 120.827 59.9838C120.827 93.1209 93.964 119.984 60.8269 119.984C57.1801 119.984 53.6092 119.658 50.1418 119.035C48.4741 118.735 47.4718 117.053 47.9104 115.416L54.1541 92.1145C54.5638 90.5855 56.0906 89.6543 57.665 89.8192C58.7041 89.928 59.759 89.9838 60.8269 89.9838C77.3954 89.9838 90.8269 76.5524 90.8269 59.9838Z" fill="black" style="mix-blend-mode:screen"/>
</g>
</g>
</g>
</g>
<g id="DonutGraph_2">
<g id="Frame_2">
<mask id="mask1_25596_105239" style="mask-type:alpha" maskUnits="userSpaceOnUse" x="0" y="31" width="52" height="87">
<path id="Subtract_3" fill-rule="evenodd" clip-rule="evenodd" d="M51.0771 92.9642C51.6474 90.8359 50.3737 88.6717 48.3438 87.8149C37.5651 83.2657 30 72.5981 30 60.1635C30 56.0665 30.8213 52.1612 32.3082 48.6035C33.1644 46.555 32.5413 44.0986 30.6186 42.9885L11.5722 31.992C9.66441 30.8906 7.21205 31.5335 6.23204 33.5065C2.24293 41.5371 0 50.5884 0 60.1635C0 86.4783 16.9404 108.836 40.5105 116.927C42.6022 117.645 44.8065 116.366 45.3789 114.23L51.0771 92.9642Z" fill="url(#paint2_linear_25596_105239)"/>
</mask>
<g mask="url(#mask1_25596_105239)">
<path id="Subtract_4" fill-rule="evenodd" clip-rule="evenodd" d="M51.0771 92.9642C51.6474 90.8359 50.3737 88.6717 48.3438 87.8149C37.5651 83.2657 30 72.5981 30 60.1635C30 56.0665 30.8213 52.1612 32.3082 48.6035C33.1644 46.555 32.5413 44.0986 30.6186 42.9885L11.5722 31.992C9.66441 30.8906 7.21205 31.5335 6.23204 33.5065C2.24293 41.5371 0 50.5884 0 60.1635C0 86.4783 16.9404 108.836 40.5105 116.927C42.6022 117.645 44.8065 116.366 45.3789 114.23L51.0771 92.9642Z" fill="#7DBBFF"/>
</g>
</g>
</g>
<g id="DonutGraph_3">
<g id="Frame_3">
<mask id="mask2_25596_105239" style="mask-type:alpha" maskUnits="userSpaceOnUse" x="11" y="0" width="49" height="42">
<path id="Subtract_5" fill-rule="evenodd" clip-rule="evenodd" d="M55.965 0.17305C58.1829 0.00382083 60 1.81469 60 4.039L60 26.0798C60 28.2587 58.2477 30.0083 56.0931 30.3325C48.9363 31.4094 42.6076 35.0144 38.0453 40.209C36.663 41.783 34.368 42.3343 32.5539 41.2869L13.3479 30.1983C11.384 29.0644 10.7447 26.5174 12.0807 24.6851C22.1389 10.8902 37.938 1.54856 55.965 0.17305Z" fill="url(#paint3_linear_25596_105239)"/>
</mask>
<g mask="url(#mask2_25596_105239)">
<path id="Subtract_6" fill-rule="evenodd" clip-rule="evenodd" d="M55.965 0.17305C58.1829 0.00382083 60 1.81469 60 4.039L60 26.0798C60 28.2587 58.2477 30.0083 56.0931 30.3325C48.9363 31.4094 42.6076 35.0144 38.0453 40.209C36.663 41.783 34.368 42.3343 32.5539 41.2869L13.3479 30.1983C11.384 29.0644 10.7447 26.5174 12.0807 24.6851C22.1389 10.8902 37.938 1.54856 55.965 0.17305Z" fill="#71DD8C"/>
</g>
</g>
</g>
</g>
<defs>
<linearGradient id="paint0_linear_25596_105239" x1="120.827" y1="0" x2="80.1758" y2="42.7485" gradientUnits="userSpaceOnUse">
<stop/>
<stop offset="1"/>
</linearGradient>
<linearGradient id="paint1_linear_25596_105239" x1="83.9678" y1="0" x2="83.9678" y2="119.984" gradientUnits="userSpaceOnUse">
<stop/>
<stop offset="1" stop-color="#1C1C1C" stop-opacity="0.6"/>
<stop offset="1" stop-opacity="0.6"/>
</linearGradient>
<linearGradient id="paint2_linear_25596_105239" x1="52.1086" y1="30" x2="22.2244" y2="60.2533" gradientUnits="userSpaceOnUse">
<stop/>
<stop offset="1"/>
</linearGradient>
<linearGradient id="paint3_linear_25596_105239" x1="60" y1="0" x2="48.2679" y2="23.3866" gradientUnits="userSpaceOnUse">
<stop/>
<stop offset="1"/>
</linearGradient>
</defs>
</svg>
