<svg width="121" height="120" viewBox="0 0 121 120" fill="none" xmlns="http://www.w3.org/2000/svg">
<g id="DonutChart">
<g id="DonutGraph">
<g id="Frame">
<mask id="mask0_25596_105239" style="mask-type:alpha" maskUnits="userSpaceOnUse" x="10" y="0" width="111" height="120">
<path id="Subtract" fill-rule="evenodd" clip-rule="evenodd" d="M62.3648 27.2239C62.3648 28.8042 63.5954 30.0973 65.1558 30.3478C79.447 32.6415 90.3648 45.0294 90.3648 59.9673C90.3648 76.5358 76.9333 89.9673 60.3648 89.9673C50.7199 89.9673 42.138 85.4158 36.6499 78.3436C35.6632 77.072 33.8944 76.6222 32.5005 77.427L11.6526 89.4636C10.1966 90.3042 9.7097 92.182 10.6525 93.574C21.4402 109.5 39.6801 119.967 60.3648 119.967C93.5019 119.967 120.365 93.1044 120.365 59.9673C120.365 28.5463 96.2122 2.7665 65.4598 0.180577C63.7704 0.0385196 62.3648 1.40452 62.3648 3.09986L62.3648 27.2239Z" fill="url(#paint0_linear_25596_105239)"/>
</mask>
<g mask="url(#mask0_25596_105239)">
<g id="Subtract_2">
<path fill-rule="evenodd" clip-rule="evenodd" d="M62.3648 27.2239C62.3648 28.8042 63.5954 30.0973 65.1558 30.3478C79.447 32.6415 90.3648 45.0294 90.3648 59.9673C90.3648 76.5358 76.9333 89.9673 60.3648 89.9673C50.7199 89.9673 42.138 85.4158 36.6499 78.3436C35.6632 77.072 33.8944 76.6222 32.5005 77.427L11.6526 89.4636C10.1966 90.3042 9.7097 92.182 10.6525 93.574C21.4402 109.5 39.6801 119.967 60.3648 119.967C93.5019 119.967 120.365 93.1044 120.365 59.9673C120.365 28.5463 96.2122 2.7665 65.4598 0.180577C63.7704 0.0385196 62.3648 1.40452 62.3648 3.09986L62.3648 27.2239Z" fill="url(#paint1_linear_25596_105239)"/>
<path fill-rule="evenodd" clip-rule="evenodd" d="M62.3648 27.2239C62.3648 28.8042 63.5954 30.0973 65.1558 30.3478C79.447 32.6415 90.3648 45.0294 90.3648 59.9673C90.3648 76.5358 76.9333 89.9673 60.3648 89.9673C50.7199 89.9673 42.138 85.4158 36.6499 78.3436C35.6632 77.072 33.8944 76.6222 32.5005 77.427L11.6526 89.4636C10.1966 90.3042 9.7097 92.182 10.6525 93.574C21.4402 109.5 39.6801 119.967 60.3648 119.967C93.5019 119.967 120.365 93.1044 120.365 59.9673C120.365 28.5463 96.2122 2.7665 65.4598 0.180577C63.7704 0.0385196 62.3648 1.40452 62.3648 3.09986L62.3648 27.2239Z" fill="black" style="mix-blend-mode:screen"/>
</g>
</g>
</g>
</g>
<g id="DonutGraph_2">
<g id="Frame_2">
<mask id="mask1_25596_105239" style="mask-type:alpha" maskUnits="userSpaceOnUse" x="0" y="0" width="60" height="88">
<path id="Subtract_3" fill-rule="evenodd" clip-rule="evenodd" d="M60 4C60 1.79086 58.2036 -0.0138507 55.9992 0.131271C24.7274 2.19001 0 28.2073 0 60C0 69.1975 2.0695 77.9117 5.76824 85.7022C6.72418 87.7157 9.20594 88.3888 11.1362 87.2744L30.2434 76.2429C32.1212 75.1587 32.7647 72.7828 31.9869 70.7587C30.7034 67.419 30 63.7917 30 60C30 44.7844 41.3275 32.2145 56.0095 30.2631C58.1994 29.972 60 28.2091 60 26V4Z" fill="url(#paint2_linear_25596_105239)"/>
</mask>
<g mask="url(#mask1_25596_105239)">
<path id="Subtract_4" fill-rule="evenodd" clip-rule="evenodd" d="M60 4C60 1.79086 58.2036 -0.0138507 55.9992 0.131271C24.7274 2.19001 0 28.2073 0 60C0 69.1975 2.0695 77.9117 5.76824 85.7022C6.72418 87.7157 9.20594 88.3888 11.1362 87.2744L30.2434 76.2429C32.1212 75.1587 32.7647 72.7828 31.9869 70.7587C30.7034 67.419 30 63.7917 30 60C30 44.7844 41.3275 32.2145 56.0095 30.2631C58.1994 29.972 60 28.2091 60 26V4Z" fill="#7DBBFF"/>
</g>
</g>
</g>
</g>
<defs>
<linearGradient id="paint0_linear_25596_105239" x1="65" y1="8" x2="76.7791" y2="44.1633" gradientUnits="userSpaceOnUse">
<stop/>
<stop offset="1"/>
</linearGradient>
<linearGradient id="paint1_linear_25596_105239" x1="64.6824" y1="0" x2="64.6824" y2="119.967" gradientUnits="userSpaceOnUse">
<stop/>
<stop offset="1" stop-color="#1C1C1C" stop-opacity="0.6"/>
<stop offset="1" stop-opacity="0.6"/>
</linearGradient>
<linearGradient id="paint2_linear_25596_105239" x1="60" y1="0" x2="30" y2="34.5" gradientUnits="userSpaceOnUse">
<stop/>
<stop offset="1"/>
</linearGradient>
</defs>
</svg>
