<svg width="160" height="240" viewBox="0 0 160 240" fill="none" xmlns="http://www.w3.org/2000/svg">
<g id="Horizontal 01">
<g id="HorizontalBar 01">
<path id="Rectangle" d="M0 18.8C0 14.3196 0 12.0794 0.871948 10.3681C1.63893 8.86278 2.86278 7.63893 4.36808 6.87195C6.07937 6 8.31958 6 12.8 6H20V34H12.8C8.31958 34 6.07937 34 4.36808 33.1281C2.86278 32.3611 1.63893 31.1372 0.871948 29.6319C0 27.9206 0 25.6804 0 21.2V18.8Z" fill="#A0BCE8"/>
<rect id="Rectangle_2" x="20" y="6" width="20" height="28" fill="#A0BCE8"/>
<rect id="Rectangle_3" x="40" y="6" width="20" height="28" fill="#A0BCE8"/>
<path id="Rectangle_4" d="M60 6H67.2C71.6804 6 73.9206 6 75.6319 6.87195C77.1372 7.63893 78.3611 8.86278 79.1281 10.3681C80 12.0794 80 14.3196 80 18.8V21.2C80 25.6804 80 27.9206 79.1281 29.6319C78.3611 31.1372 77.1372 32.3611 75.6319 33.1281C73.9206 34 71.6804 34 67.2 34H60V6Z" fill="#A0BCE8"/>
</g>
<g id="HorizontalBar 01_2">
<path id="Rectangle_5" d="M0 58.8C0 54.3196 0 52.0794 0.871948 50.3681C1.63893 48.8628 2.86278 47.6389 4.36808 46.8719C6.07937 46 8.31958 46 12.8 46H20V74H12.8C8.31958 74 6.07937 74 4.36808 73.1281C2.86278 72.3611 1.63893 71.1372 0.871948 69.6319C0 67.9206 0 65.6804 0 61.2V58.8Z" fill="#6BE6D3"/>
<rect id="Rectangle_6" x="20" y="46" width="20" height="28" fill="#6BE6D3"/>
<rect id="Rectangle_7" x="40" y="46" width="20" height="28" fill="#6BE6D3"/>
<rect id="Rectangle_8" x="60" y="46" width="20" height="28" fill="#6BE6D3"/>
<rect id="Rectangle_9" x="80" y="46" width="20" height="28" fill="#6BE6D3"/>
<rect id="Rectangle_10" x="100" y="46" width="20" height="28" fill="#6BE6D3"/>
<path id="Rectangle_11" d="M120 46H127.2C131.68 46 133.921 46 135.632 46.8719C137.137 47.6389 138.361 48.8628 139.128 50.3681C140 52.0794 140 54.3196 140 58.8V61.2C140 65.6804 140 67.9206 139.128 69.6319C138.361 71.1372 137.137 72.3611 135.632 73.1281C133.921 74 131.68 74 127.2 74H120V46Z" fill="#6BE6D3"/>
</g>
<g id="HorizontalBar 01_3">
<path id="Rectangle_12" d="M0 98.8C0 94.3196 0 92.0794 0.871948 90.3681C1.63893 88.8628 2.86278 87.6389 4.36808 86.8719C6.07937 86 8.31958 86 12.8 86H20V114H12.8C8.31958 114 6.07937 114 4.36808 113.128C2.86278 112.361 1.63893 111.137 0.871948 109.632C0 107.921 0 105.68 0 101.2V98.8Z" fill="black"/>
<rect id="Rectangle_13" x="20" y="86" width="20" height="28" fill="black"/>
<rect id="Rectangle_14" x="40" y="86" width="20" height="28" fill="black"/>
<rect id="Rectangle_15" x="60" y="86" width="20" height="28" fill="black"/>
<path id="Rectangle_16" d="M80 86H87.2C91.6804 86 93.9206 86 95.6319 86.8719C97.1372 87.6389 98.3611 88.8628 99.1281 90.3681C100 92.0794 100 94.3196 100 98.8V101.2C100 105.68 100 107.921 99.1281 109.632C98.3611 111.137 97.1372 112.361 95.6319 113.128C93.9206 114 91.6804 114 87.2 114H80V86Z" fill="black"/>
</g>
<g id="HorizontalBar 01_4">
<path id="Rectangle_17" d="M0 138.8C0 134.32 0 132.079 0.871948 130.368C1.63893 128.863 2.86278 127.639 4.36808 126.872C6.07937 126 8.31958 126 12.8 126H20V154H12.8C8.31958 154 6.07937 154 4.36808 153.128C2.86278 152.361 1.63893 151.137 0.871948 149.632C0 147.921 0 145.68 0 141.2V138.8Z" fill="#7DBBFF"/>
<rect id="Rectangle_18" x="20" y="126" width="20" height="28" fill="#7DBBFF"/>
<rect id="Rectangle_19" x="40" y="126" width="20" height="28" fill="#7DBBFF"/>
<rect id="Rectangle_20" x="60" y="126" width="20" height="28" fill="#7DBBFF"/>
<rect id="Rectangle_21" x="80" y="126" width="20" height="28" fill="#7DBBFF"/>
<rect id="Rectangle_22" x="100" y="126" width="20" height="28" fill="#7DBBFF"/>
<rect id="Rectangle_23" x="120" y="126" width="20" height="28" fill="#7DBBFF"/>
<path id="Rectangle_24" d="M140 126H147.2C151.68 126 153.921 126 155.632 126.872C157.137 127.639 158.361 128.863 159.128 130.368C160 132.079 160 134.32 160 138.8V141.2C160 145.68 160 147.921 159.128 149.632C158.361 151.137 157.137 152.361 155.632 153.128C153.921 154 151.68 154 147.2 154H140V126Z" fill="#7DBBFF"/>
</g>
<g id="HorizontalBar 01_5">
<path id="Rectangle_25" d="M0 178.8C0 174.32 0 172.079 0.871948 170.368C1.63893 168.863 2.86278 167.639 4.36808 166.872C6.07937 166 8.31958 166 12.8 166H20V194H12.8C8.31958 194 6.07937 194 4.36808 193.128C2.86278 192.361 1.63893 191.137 0.871948 189.632C0 187.921 0 185.68 0 181.2V178.8Z" fill="#B899EB"/>
<rect id="Rectangle_26" x="20" y="166" width="20" height="28" fill="#B899EB"/>
<path id="Rectangle_27" d="M40 166H47.2C51.6804 166 53.9206 166 55.6319 166.872C57.1372 167.639 58.3611 168.863 59.1281 170.368C60 172.079 60 174.32 60 178.8V181.2C60 185.68 60 187.921 59.1281 189.632C58.3611 191.137 57.1372 192.361 55.6319 193.128C53.9206 194 51.6804 194 47.2 194H40V166Z" fill="#B899EB"/>
</g>
<g id="HorizontalBar 01_6">
<path id="Rectangle_28" d="M0 218.8C0 214.32 0 212.079 0.871948 210.368C1.63893 208.863 2.86278 207.639 4.36808 206.872C6.07937 206 8.31958 206 12.8 206H20V234H12.8C8.31958 234 6.07937 234 4.36808 233.128C2.86278 232.361 1.63893 231.137 0.871948 229.632C0 227.921 0 225.68 0 221.2V218.8Z" fill="#71DD8C"/>
<rect id="Rectangle_29" x="20" y="206" width="20" height="28" fill="#71DD8C"/>
<rect id="Rectangle_30" x="40" y="206" width="20" height="28" fill="#71DD8C"/>
<rect id="Rectangle_31" x="60" y="206" width="20" height="28" fill="#71DD8C"/>
<rect id="Rectangle_32" x="80" y="206" width="20" height="28" fill="#71DD8C"/>
<path id="Rectangle_33" d="M100 206H107.2C111.68 206 113.921 206 115.632 206.872C117.137 207.639 118.361 208.863 119.128 210.368C120 212.079 120 214.32 120 218.8V221.2C120 225.68 120 227.921 119.128 229.632C118.361 231.137 117.137 232.361 115.632 233.128C113.921 234 111.68 234 107.2 234H100V206Z" fill="#71DD8C"/>
</g>
</g>
</svg>
