<svg width="160" height="240" viewBox="0 0 160 240" fill="none" xmlns="http://www.w3.org/2000/svg">
<g id="Horizontal 02">
<g id="HorizontalBar 02">
<g id="Frame" opacity="0.2">
<path id="Rectangle" d="M0 18.8C0 14.3196 0 12.0794 0.871948 10.3681C1.63893 8.86278 2.86278 7.63893 4.36808 6.87195C6.07937 6 8.31958 6 12.8 6H20V34H12.8C8.31958 34 6.07937 34 4.36808 33.1281C2.86278 32.3611 1.63893 31.1372 0.871948 29.6319C0 27.9206 0 25.6804 0 21.2V18.8Z" fill="#A0BCE8"/>
<rect id="Rectangle_2" x="20" y="6" width="20" height="28" fill="#A0BCE8"/>
<rect id="Rectangle_3" x="40" y="6" width="20" height="28" fill="#A0BCE8"/>
<path id="Rectangle_4" d="M60 6H67.2C71.6804 6 73.9206 6 75.6319 6.87195C77.1372 7.63893 78.3611 8.86278 79.1281 10.3681C80 12.0794 80 14.3196 80 18.8V21.2C80 25.6804 80 27.9206 79.1281 29.6319C78.3611 31.1372 77.1372 32.3611 75.6319 33.1281C73.9206 34 71.6804 34 67.2 34H60V6Z" fill="#A0BCE8"/>
</g>
<g id="Frame_2">
<path id="Rectangle_5" d="M0 18.8C0 14.3196 0 12.0794 0.871948 10.3681C1.63893 8.86278 2.86278 7.63893 4.36808 6.87195C6.07937 6 8.31958 6 12.8 6H20V34H12.8C8.31958 34 6.07937 34 4.36808 33.1281C2.86278 32.3611 1.63893 31.1372 0.871948 29.6319C0 27.9206 0 25.6804 0 21.2V18.8Z" fill="#A0BCE8"/>
<rect id="Rectangle_6" x="20" y="6" width="20" height="28" fill="#A0BCE8"/>
<path id="Rectangle_7" d="M40 6H53.6C55.8402 6 56.9603 6 57.816 6.43597C58.5686 6.81947 59.1805 7.43139 59.564 8.18404C60 9.03969 60 10.1598 60 12.4V27.6C60 29.8402 60 30.9603 59.564 31.816C59.1805 32.5686 58.5686 33.1805 57.816 33.564C56.9603 34 55.8402 34 53.6 34H40V6Z" fill="#A0BCE8"/>
</g>
</g>
<g id="HorizontalBar 02_2">
<g id="Frame_3" opacity="0.2">
<path id="Rectangle_8" d="M0 58.8C0 54.3196 0 52.0794 0.871948 50.3681C1.63893 48.8628 2.86278 47.6389 4.36808 46.8719C6.07937 46 8.31958 46 12.8 46H20V74H12.8C8.31958 74 6.07937 74 4.36808 73.1281C2.86278 72.3611 1.63893 71.1372 0.871948 69.6319C0 67.9206 0 65.6804 0 61.2V58.8Z" fill="#6BE6D3"/>
<rect id="Rectangle_9" x="20" y="46" width="20" height="28" fill="#6BE6D3"/>
<rect id="Rectangle_10" x="40" y="46" width="20" height="28" fill="#6BE6D3"/>
<rect id="Rectangle_11" x="60" y="46" width="20" height="28" fill="#6BE6D3"/>
<rect id="Rectangle_12" x="80" y="46" width="20" height="28" fill="#6BE6D3"/>
<rect id="Rectangle_13" x="100" y="46" width="20" height="28" fill="#6BE6D3"/>
<path id="Rectangle_14" d="M120 46H127.2C131.68 46 133.921 46 135.632 46.8719C137.137 47.6389 138.361 48.8628 139.128 50.3681C140 52.0794 140 54.3196 140 58.8V61.2C140 65.6804 140 67.9206 139.128 69.6319C138.361 71.1372 137.137 72.3611 135.632 73.1281C133.921 74 131.68 74 127.2 74H120V46Z" fill="#6BE6D3"/>
</g>
<g id="Frame_4">
<path id="Rectangle_15" d="M0 58.8C0 54.3196 0 52.0794 0.871948 50.3681C1.63893 48.8628 2.86278 47.6389 4.36808 46.8719C6.07937 46 8.31958 46 12.8 46H20V74H12.8C8.31958 74 6.07937 74 4.36808 73.1281C2.86278 72.3611 1.63893 71.1372 0.871948 69.6319C0 67.9206 0 65.6804 0 61.2V58.8Z" fill="#6BE6D3"/>
<rect id="Rectangle_16" x="20" y="46" width="20" height="28" fill="#6BE6D3"/>
<rect id="Rectangle_17" x="40" y="46" width="20" height="28" fill="#6BE6D3"/>
<rect id="Rectangle_18" x="60" y="46" width="20" height="28" fill="#6BE6D3"/>
<rect id="Rectangle_19" x="80" y="46" width="20" height="28" fill="#6BE6D3"/>
<path id="Rectangle_20" d="M100 46H113.6C115.84 46 116.96 46 117.816 46.436C118.569 46.8195 119.181 47.4314 119.564 48.184C120 49.0397 120 50.1598 120 52.4V67.6C120 69.8402 120 70.9603 119.564 71.816C119.181 72.5686 118.569 73.1805 117.816 73.564C116.96 74 115.84 74 113.6 74H100V46Z" fill="#6BE6D3"/>
</g>
</g>
<g id="HorizontalBar 02_3">
<g id="Frame_5" opacity="0.2">
<path id="Rectangle_21" d="M0 98.8C0 94.3196 0 92.0794 0.871948 90.3681C1.63893 88.8628 2.86278 87.6389 4.36808 86.8719C6.07937 86 8.31958 86 12.8 86H20V114H12.8C8.31958 114 6.07937 114 4.36808 113.128C2.86278 112.361 1.63893 111.137 0.871948 109.632C0 107.921 0 105.68 0 101.2V98.8Z" fill="black"/>
<rect id="Rectangle_22" x="20" y="86" width="20" height="28" fill="black"/>
<rect id="Rectangle_23" x="40" y="86" width="20" height="28" fill="black"/>
<rect id="Rectangle_24" x="60" y="86" width="20" height="28" fill="black"/>
<path id="Rectangle_25" d="M80 86H87.2C91.6804 86 93.9206 86 95.6319 86.8719C97.1372 87.6389 98.3611 88.8628 99.1281 90.3681C100 92.0794 100 94.3196 100 98.8V101.2C100 105.68 100 107.921 99.1281 109.632C98.3611 111.137 97.1372 112.361 95.6319 113.128C93.9206 114 91.6804 114 87.2 114H80V86Z" fill="black"/>
</g>
<g id="Frame_6">
<path id="Rectangle_26" d="M0 98.8C0 94.3196 0 92.0794 0.871948 90.3681C1.63893 88.8628 2.86278 87.6389 4.36808 86.8719C6.07937 86 8.31958 86 12.8 86H20V114H12.8C8.31958 114 6.07937 114 4.36808 113.128C2.86278 112.361 1.63893 111.137 0.871948 109.632C0 107.921 0 105.68 0 101.2V98.8Z" fill="black"/>
<rect id="Rectangle_27" x="20" y="86" width="20" height="28" fill="black"/>
<rect id="Rectangle_28" x="40" y="86" width="20" height="28" fill="black"/>
<path id="Rectangle_29" d="M60 86H73.6C75.8402 86 76.9603 86 77.816 86.436C78.5686 86.8195 79.1805 87.4314 79.564 88.184C80 89.0397 80 90.1598 80 92.4V107.6C80 109.84 80 110.96 79.564 111.816C79.1805 112.569 78.5686 113.181 77.816 113.564C76.9603 114 75.8402 114 73.6 114H60V86Z" fill="black"/>
</g>
</g>
<g id="HorizontalBar 02_4">
<g id="Frame_7" opacity="0.2">
<path id="Rectangle_30" d="M0 138.8C0 134.32 0 132.079 0.871948 130.368C1.63893 128.863 2.86278 127.639 4.36808 126.872C6.07937 126 8.31958 126 12.8 126H20V154H12.8C8.31958 154 6.07937 154 4.36808 153.128C2.86278 152.361 1.63893 151.137 0.871948 149.632C0 147.921 0 145.68 0 141.2V138.8Z" fill="#7DBBFF"/>
<rect id="Rectangle_31" x="20" y="126" width="20" height="28" fill="#7DBBFF"/>
<rect id="Rectangle_32" x="40" y="126" width="20" height="28" fill="#7DBBFF"/>
<rect id="Rectangle_33" x="60" y="126" width="20" height="28" fill="#7DBBFF"/>
<rect id="Rectangle_34" x="80" y="126" width="20" height="28" fill="#7DBBFF"/>
<rect id="Rectangle_35" x="100" y="126" width="20" height="28" fill="#7DBBFF"/>
<rect id="Rectangle_36" x="120" y="126" width="20" height="28" fill="#7DBBFF"/>
<path id="Rectangle_37" d="M140 126H147.2C151.68 126 153.921 126 155.632 126.872C157.137 127.639 158.361 128.863 159.128 130.368C160 132.079 160 134.32 160 138.8V141.2C160 145.68 160 147.921 159.128 149.632C158.361 151.137 157.137 152.361 155.632 153.128C153.921 154 151.68 154 147.2 154H140V126Z" fill="#7DBBFF"/>
</g>
<g id="Frame_8">
<path id="Rectangle_38" d="M0 138.8C0 134.32 0 132.079 0.871948 130.368C1.63893 128.863 2.86278 127.639 4.36808 126.872C6.07937 126 8.31958 126 12.8 126H20V154H12.8C8.31958 154 6.07937 154 4.36808 153.128C2.86278 152.361 1.63893 151.137 0.871948 149.632C0 147.921 0 145.68 0 141.2V138.8Z" fill="#7DBBFF"/>
<rect id="Rectangle_39" x="20" y="126" width="20" height="28" fill="#7DBBFF"/>
<rect id="Rectangle_40" x="40" y="126" width="20" height="28" fill="#7DBBFF"/>
<rect id="Rectangle_41" x="60" y="126" width="20" height="28" fill="#7DBBFF"/>
<rect id="Rectangle_42" x="80" y="126" width="20" height="28" fill="#7DBBFF"/>
<rect id="Rectangle_43" x="100" y="126" width="20" height="28" fill="#7DBBFF"/>
<path id="Rectangle_44" d="M120 126H133.6C135.84 126 136.96 126 137.816 126.436C138.569 126.819 139.181 127.431 139.564 128.184C140 129.04 140 130.16 140 132.4V147.6C140 149.84 140 150.96 139.564 151.816C139.181 152.569 138.569 153.181 137.816 153.564C136.96 154 135.84 154 133.6 154H120V126Z" fill="#7DBBFF"/>
</g>
</g>
<g id="HorizontalBar 02_5">
<g id="Frame_9" opacity="0.2">
<path id="Rectangle_45" d="M0 178.8C0 174.32 0 172.079 0.871948 170.368C1.63893 168.863 2.86278 167.639 4.36808 166.872C6.07937 166 8.31958 166 12.8 166H20V194H12.8C8.31958 194 6.07937 194 4.36808 193.128C2.86278 192.361 1.63893 191.137 0.871948 189.632C0 187.921 0 185.68 0 181.2V178.8Z" fill="#B899EB"/>
<rect id="Rectangle_46" x="20" y="166" width="20" height="28" fill="#B899EB"/>
<path id="Rectangle_47" d="M40 166H47.2C51.6804 166 53.9206 166 55.6319 166.872C57.1372 167.639 58.3611 168.863 59.1281 170.368C60 172.079 60 174.32 60 178.8V181.2C60 185.68 60 187.921 59.1281 189.632C58.3611 191.137 57.1372 192.361 55.6319 193.128C53.9206 194 51.6804 194 47.2 194H40V166Z" fill="#B899EB"/>
</g>
<g id="Frame_10">
<path id="Rectangle_48" d="M0 178.8C0 174.32 0 172.079 0.871948 170.368C1.63893 168.863 2.86278 167.639 4.36808 166.872C6.07937 166 8.31958 166 12.8 166H20V194H12.8C8.31958 194 6.07937 194 4.36808 193.128C2.86278 192.361 1.63893 191.137 0.871948 189.632C0 187.921 0 185.68 0 181.2V178.8Z" fill="#B899EB"/>
<path id="Rectangle_49" d="M20 166H33.6C35.8402 166 36.9603 166 37.816 166.436C38.5686 166.819 39.1805 167.431 39.564 168.184C40 169.04 40 170.16 40 172.4V187.6C40 189.84 40 190.96 39.564 191.816C39.1805 192.569 38.5686 193.181 37.816 193.564C36.9603 194 35.8402 194 33.6 194H20V166Z" fill="#B899EB"/>
</g>
</g>
<g id="HorizontalBar 02_6">
<g id="Frame_11" opacity="0.2">
<path id="Rectangle_50" d="M0 218.8C0 214.32 0 212.079 0.871948 210.368C1.63893 208.863 2.86278 207.639 4.36808 206.872C6.07937 206 8.31958 206 12.8 206H20V234H12.8C8.31958 234 6.07937 234 4.36808 233.128C2.86278 232.361 1.63893 231.137 0.871948 229.632C0 227.921 0 225.68 0 221.2V218.8Z" fill="#71DD8C"/>
<rect id="Rectangle_51" x="20" y="206" width="20" height="28" fill="#71DD8C"/>
<rect id="Rectangle_52" x="40" y="206" width="20" height="28" fill="#71DD8C"/>
<rect id="Rectangle_53" x="60" y="206" width="20" height="28" fill="#71DD8C"/>
<rect id="Rectangle_54" x="80" y="206" width="20" height="28" fill="#71DD8C"/>
<path id="Rectangle_55" d="M100 206H107.2C111.68 206 113.921 206 115.632 206.872C117.137 207.639 118.361 208.863 119.128 210.368C120 212.079 120 214.32 120 218.8V221.2C120 225.68 120 227.921 119.128 229.632C118.361 231.137 117.137 232.361 115.632 233.128C113.921 234 111.68 234 107.2 234H100V206Z" fill="#71DD8C"/>
</g>
<g id="Frame_12">
<path id="Rectangle_56" d="M0 218.8C0 214.32 0 212.079 0.871948 210.368C1.63893 208.863 2.86278 207.639 4.36808 206.872C6.07937 206 8.31958 206 12.8 206H20V234H12.8C8.31958 234 6.07937 234 4.36808 233.128C2.86278 232.361 1.63893 231.137 0.871948 229.632C0 227.921 0 225.68 0 221.2V218.8Z" fill="#71DD8C"/>
<rect id="Rectangle_57" x="20" y="206" width="20" height="28" fill="#71DD8C"/>
<rect id="Rectangle_58" x="40" y="206" width="20" height="28" fill="#71DD8C"/>
<rect id="Rectangle_59" x="60" y="206" width="20" height="28" fill="#71DD8C"/>
<path id="Rectangle_60" d="M80 206H93.6C95.8402 206 96.9603 206 97.816 206.436C98.5686 206.819 99.1805 207.431 99.564 208.184C100 209.04 100 210.16 100 212.4V227.6C100 229.84 100 230.96 99.564 231.816C99.1805 232.569 98.5686 233.181 97.816 233.564C96.9603 234 95.8402 234 93.6 234H80V206Z" fill="#71DD8C"/>
</g>
</g>
</g>
</svg>
