<svg width="160" height="240" viewBox="0 0 160 240" fill="none" xmlns="http://www.w3.org/2000/svg">
<g id="Horizontal 03">
<g id="HorizontalBar 03">
<path id="Rectangle" d="M0 20C0 17.7909 1.79086 16 4 16H17.1429C19.352 16 21.1429 17.7909 21.1429 20C21.1429 22.2091 19.352 24 17.1429 24H3.99999C1.79086 24 0 22.2091 0 20Z" fill="black"/>
<path id="Rectangle_2" d="M23.1428 20C23.1428 17.7909 24.9337 16 27.1428 16H40.2857C42.4948 16 44.2857 17.7909 44.2857 20C44.2857 22.2091 42.4948 24 40.2857 24H27.1428C24.9337 24 23.1428 22.2091 23.1428 20Z" fill="black" fill-opacity="0.4"/>
<path id="Rectangle_3" d="M46.2858 20C46.2858 17.7909 48.0766 16 50.2858 16H63.4286C65.6378 16 67.4286 17.7909 67.4286 20C67.4286 22.2091 65.6378 24 63.4286 24H50.2858C48.0766 24 46.2858 22.2091 46.2858 20Z" fill="black" fill-opacity="0.1"/>
</g>
<g id="HorizontalBar 03_2">
<path id="Rectangle_4" d="M0 60C0 57.7909 1.79086 56 4 56H34.5C36.7091 56 38.5 57.7909 38.5 60C38.5 62.2091 36.7091 64 34.5 64H4C1.79086 64 0 62.2091 0 60Z" fill="black"/>
<path id="Rectangle_5" d="M40.5 60C40.5 57.7909 42.2909 56 44.5 56H75C77.2091 56 79 57.7909 79 60C79 62.2091 77.2091 64 75 64H44.5C42.2909 64 40.5 62.2091 40.5 60Z" fill="black" fill-opacity="0.4"/>
<path id="Rectangle_6" d="M81 60C81 57.7909 82.7909 56 85 56H115.5C117.709 56 119.5 57.7909 119.5 60C119.5 62.2091 117.709 64 115.5 64H85C82.7909 64 81 62.2091 81 60Z" fill="black" fill-opacity="0.1"/>
</g>
<g id="HorizontalBar 03_3">
<path id="Rectangle_7" d="M0 100C0 97.7909 1.79086 96 4 96H21C23.2091 96 25 97.7909 25 100C25 102.209 23.2091 104 21 104H4C1.79086 104 0 102.209 0 100Z" fill="black"/>
<path id="Rectangle_8" d="M27 100C27 97.7909 28.7909 96 31 96H48C50.2091 96 52 97.7909 52 100C52 102.209 50.2091 104 48 104H31C28.7909 104 27 102.209 27 100Z" fill="black" fill-opacity="0.4"/>
<path id="Rectangle_9" d="M54 100C54 97.7909 55.7909 96 58 96H75C77.2091 96 79 97.7909 79 100C79 102.209 77.2091 104 75 104H58C55.7909 104 54 102.209 54 100Z" fill="black" fill-opacity="0.1"/>
</g>
<g id="HorizontalBar 03_4">
<path id="Rectangle_10" d="M0 140C0 137.791 1.79086 136 4 136H48C50.2091 136 52 137.791 52 140C52 142.209 50.2091 144 48 144H4C1.79086 144 0 142.209 0 140Z" fill="black"/>
<path id="Rectangle_11" d="M54 140C54 137.791 55.7909 136 58 136H102C104.209 136 106 137.791 106 140C106 142.209 104.209 144 102 144H58C55.7909 144 54 142.209 54 140Z" fill="black" fill-opacity="0.4"/>
<path id="Rectangle_12" d="M108 140C108 137.791 109.791 136 112 136H156C158.209 136 160 137.791 160 140C160 142.209 158.209 144 156 144H112C109.791 144 108 142.209 108 140Z" fill="black" fill-opacity="0.1"/>
</g>
<g id="HorizontalBar 03_5">
<path id="Rectangle_13" d="M0 180C0 177.791 1.79086 176 4 176H14.25C16.4591 176 18.25 177.791 18.25 180C18.25 182.209 16.4591 184 14.25 184H4C1.79086 184 0 182.209 0 180Z" fill="black"/>
<path id="Rectangle_14" d="M20.25 180C20.25 177.791 22.0409 176 24.25 176H34.5C36.7091 176 38.5 177.791 38.5 180C38.5 182.209 36.7091 184 34.5 184H24.25C22.0409 184 20.25 182.209 20.25 180Z" fill="black" fill-opacity="0.4"/>
<path id="Rectangle_15" d="M40.5 180C40.5 177.791 42.2909 176 44.5 176H54.75C56.9591 176 58.75 177.791 58.75 180C58.75 182.209 56.9591 184 54.75 184H44.5C42.2909 184 40.5 182.209 40.5 180Z" fill="black" fill-opacity="0.1"/>
</g>
<g id="HorizontalBar 03_6">
<path id="Rectangle_16" d="M0 220C0 217.791 1.79086 216 4 216H26.4C28.6091 216 30.4 217.791 30.4 220C30.4 222.209 28.6091 224 26.4 224H4C1.79086 224 0 222.209 0 220Z" fill="black"/>
<path id="Rectangle_17" d="M32.4 220C32.4 217.791 34.1909 216 36.4 216H58.8C61.0092 216 62.8 217.791 62.8 220C62.8 222.209 61.0092 224 58.8 224H36.4C34.1909 224 32.4 222.209 32.4 220Z" fill="black" fill-opacity="0.4"/>
<path id="Rectangle_18" d="M64.8 220C64.8 217.791 66.5909 216 68.8 216H91.2001C93.4092 216 95.2 217.791 95.2 220C95.2 222.209 93.4092 224 91.2 224H68.8C66.5909 224 64.8 222.209 64.8 220Z" fill="black" fill-opacity="0.1"/>
</g>
</g>
</svg>
