<svg width="442" height="202" viewBox="0 0 442 202" fill="none" xmlns="http://www.w3.org/2000/svg">
<g id="ProportionStatistics">
<g id="Frame 25">
<path id="Line 3" d="M1 1L0.999996 201" stroke="black" stroke-width="2" stroke-linecap="round"/>
<g id="Frame 12">
<path id="Old users" d="M30.8239 10.9091C30.8239 11.983 30.63 12.911 30.2422 13.6932C29.8544 14.4754 29.3224 15.0786 28.6463 15.5028C27.9702 15.9271 27.1979 16.1392 26.3295 16.1392C25.4612 16.1392 24.6889 15.9271 24.0128 15.5028C23.3366 15.0786 22.8047 14.4754 22.4169 13.6932C22.0291 12.911 21.8352 11.983 21.8352 10.9091C21.8352 9.83523 22.0291 8.9072 22.4169 8.125C22.8047 7.3428 23.3366 6.73958 24.0128 6.31534C24.6889 5.8911 25.4612 5.67898 26.3295 5.67898C27.1979 5.67898 27.9702 5.8911 28.6463 6.31534C29.3224 6.73958 29.8544 7.3428 30.2422 8.125C30.63 8.9072 30.8239 9.83523 30.8239 10.9091ZM29.6307 10.9091C29.6307 10.0275 29.4832 9.28338 29.1882 8.67685C28.8965 8.07031 28.5005 7.61127 28 7.29972C27.5028 6.98816 26.946 6.83239 26.3295 6.83239C25.7131 6.83239 25.1546 6.98816 24.6541 7.29972C24.157 7.61127 23.7609 8.07031 23.4659 8.67685C23.1742 9.28338 23.0284 10.0275 23.0284 10.9091C23.0284 11.7907 23.1742 12.5348 23.4659 13.1413C23.7609 13.7479 24.157 14.2069 24.6541 14.5185C25.1546 14.83 25.7131 14.9858 26.3295 14.9858C26.946 14.9858 27.5028 14.83 28 14.5185C28.5005 14.2069 28.8965 13.7479 29.1882 13.1413C29.4832 12.5348 29.6307 11.7907 29.6307 10.9091ZM33.9112 5.81818V16H32.7379V5.81818H33.9112ZM38.9437 16.1591C38.3074 16.1591 37.7456 15.9983 37.2583 15.6768C36.7711 15.352 36.39 14.8946 36.1149 14.3047C35.8398 13.7114 35.7022 13.0104 35.7022 12.2017C35.7022 11.3996 35.8398 10.7036 36.1149 10.1136C36.39 9.52367 36.7728 9.06794 37.2633 8.74645C37.7538 8.42495 38.3206 8.2642 38.9636 8.2642C39.4608 8.2642 39.8535 8.34706 40.1419 8.51278C40.4335 8.67519 40.6556 8.8608 40.8081 9.0696C40.9638 9.27509 41.0848 9.44413 41.171 9.5767H41.2704V5.81818H42.4437V16H41.3102V14.8267H41.171C41.0848 14.9659 40.9622 15.1416 40.8031 15.3537C40.644 15.5625 40.417 15.7498 40.122 15.9155C39.827 16.0779 39.4342 16.1591 38.9437 16.1591ZM39.1028 15.1051C39.5734 15.1051 39.9712 14.9825 40.296 14.7372C40.6208 14.4886 40.8677 14.1456 41.0368 13.7081C41.2058 13.2673 41.2903 12.7585 41.2903 12.1818C41.2903 11.6117 41.2074 11.1129 41.0417 10.6854C40.876 10.2545 40.6307 9.91974 40.3059 9.68111C39.9811 9.43916 39.5801 9.31818 39.1028 9.31818C38.6056 9.31818 38.1913 9.44579 37.8599 9.70099C37.5318 9.95289 37.2849 10.2959 37.1191 10.7301C36.9567 11.161 36.8755 11.6449 36.8755 12.1818C36.8755 12.7254 36.9584 13.2192 37.1241 13.6634C37.2931 14.1042 37.5417 14.4555 37.8699 14.7173C38.2013 14.9759 38.6123 15.1051 39.1028 15.1051ZM53.5055 12.8778V8.36364H54.6788V16H53.5055V14.7074H53.426C53.247 15.0952 52.9686 15.425 52.5907 15.6967C52.2129 15.9652 51.7356 16.0994 51.1589 16.0994C50.6816 16.0994 50.2574 15.995 49.8862 15.7862C49.515 15.5741 49.2233 15.2559 49.0112 14.8317C48.7991 14.4041 48.693 13.8655 48.693 13.2159V8.36364H49.8663V13.1364C49.8663 13.6932 50.0221 14.1373 50.3336 14.4688C50.6485 14.8002 51.0495 14.9659 51.5368 14.9659C51.8284 14.9659 52.1251 14.8913 52.4267 14.7422C52.7316 14.593 52.9868 14.3643 53.1923 14.0561C53.4011 13.7479 53.5055 13.3551 53.5055 12.8778ZM62.2369 10.0739L61.1829 10.3722C61.1166 10.1965 61.0188 10.0258 60.8896 9.86009C60.7636 9.69105 60.5913 9.55185 60.3725 9.44247C60.1538 9.3331 59.8737 9.27841 59.5323 9.27841C59.065 9.27841 58.6755 9.38613 58.364 9.60156C58.0558 9.81368 57.9016 10.0838 57.9016 10.4119C57.9016 10.7036 58.0077 10.9339 58.2198 11.103C58.4319 11.272 58.7634 11.4129 59.2141 11.5256L60.3477 11.804C61.0304 11.9697 61.5392 12.2232 61.8739 12.5646C62.2087 12.9027 62.3761 13.3385 62.3761 13.8722C62.3761 14.3097 62.2501 14.7008 61.9982 15.0455C61.7496 15.3902 61.4016 15.6619 60.9542 15.8608C60.5067 16.0597 59.9864 16.1591 59.3931 16.1591C58.6142 16.1591 57.9696 15.9901 57.4592 15.652C56.9487 15.3139 56.6256 14.8201 56.4897 14.1705L57.6033 13.892C57.7094 14.303 57.9099 14.6113 58.2049 14.8168C58.5032 15.0223 58.8926 15.125 59.3732 15.125C59.9201 15.125 60.3543 15.009 60.6758 14.777C61.0006 14.5417 61.163 14.2599 61.163 13.9318C61.163 13.6667 61.0702 13.4446 60.8846 13.2656C60.699 13.0833 60.4139 12.9474 60.0295 12.858L58.7567 12.5597C58.0574 12.3939 57.5437 12.1371 57.2156 11.7891C56.8907 11.4377 56.7283 10.9986 56.7283 10.4716C56.7283 10.0407 56.8493 9.65956 57.0913 9.32812C57.3365 8.99669 57.6696 8.73651 58.0906 8.54758C58.5148 8.35866 58.9954 8.2642 59.5323 8.2642C60.288 8.2642 60.8813 8.42992 61.3121 8.76136C61.7463 9.0928 62.0546 9.5303 62.2369 10.0739ZM67.3439 16.1591C66.6081 16.1591 65.9734 15.9967 65.4398 15.6719C64.9095 15.3438 64.5002 14.8864 64.2118 14.2997C63.9268 13.7098 63.7843 13.0237 63.7843 12.2415C63.7843 11.4593 63.9268 10.7699 64.2118 10.1733C64.5002 9.57339 64.9012 9.10606 65.415 8.77131C65.932 8.43324 66.5352 8.2642 67.2246 8.2642C67.6223 8.2642 68.0151 8.33049 68.4029 8.46307C68.7907 8.59564 69.1436 8.81108 69.4618 9.10938C69.78 9.40436 70.0336 9.79545 70.2225 10.2827C70.4114 10.7699 70.5059 11.3698 70.5059 12.0824V12.5795H64.6195V11.5653H69.3127C69.3127 11.1345 69.2265 10.75 69.0542 10.4119C68.8851 10.0739 68.6432 9.80705 68.3283 9.61151C68.0167 9.41596 67.6489 9.31818 67.2246 9.31818C66.7573 9.31818 66.3529 9.43419 66.0115 9.66619C65.6735 9.89489 65.4133 10.1932 65.231 10.5611C65.0487 10.929 64.9576 11.3234 64.9576 11.7443V12.4205C64.9576 12.9972 65.057 13.486 65.2559 13.8871C65.458 14.2848 65.7381 14.5881 66.0961 14.7969C66.454 15.0024 66.87 15.1051 67.3439 15.1051C67.6522 15.1051 67.9306 15.062 68.1792 14.9759C68.431 14.8864 68.6481 14.7538 68.8304 14.5781C69.0127 14.3991 69.1536 14.1771 69.253 13.9119L70.3865 14.2301C70.2672 14.6146 70.0667 14.9527 69.785 15.2443C69.5033 15.5327 69.1552 15.758 68.7409 15.9205C68.3266 16.0795 67.861 16.1591 67.3439 16.1591ZM72.2907 16V8.36364H73.4242V9.51705H73.5037C73.6429 9.1392 73.8948 8.83262 74.2594 8.5973C74.624 8.36198 75.035 8.24432 75.4924 8.24432C75.5785 8.24432 75.6863 8.24597 75.8155 8.24929C75.9448 8.2526 76.0426 8.25758 76.1088 8.2642V9.45739C76.0691 9.44744 75.9779 9.43253 75.8354 9.41264C75.6962 9.38944 75.5487 9.37784 75.3929 9.37784C75.0217 9.37784 74.6903 9.45573 74.3986 9.61151C74.1103 9.76397 73.8816 9.97609 73.7125 10.2479C73.5468 10.5163 73.464 10.8229 73.464 11.1676V16H72.2907ZM82.9087 10.0739L81.8548 10.3722C81.7885 10.1965 81.6907 10.0258 81.5614 9.86009C81.4355 9.69105 81.2631 9.55185 81.0444 9.44247C80.8256 9.3331 80.5456 9.27841 80.2042 9.27841C79.7369 9.27841 79.3474 9.38613 79.0359 9.60156C78.7276 9.81368 78.5735 10.0838 78.5735 10.4119C78.5735 10.7036 78.6796 10.9339 78.8917 11.103C79.1038 11.272 79.4353 11.4129 79.886 11.5256L81.0195 11.804C81.7023 11.9697 82.2111 12.2232 82.5458 12.5646C82.8806 12.9027 83.0479 13.3385 83.0479 13.8722C83.0479 14.3097 82.922 14.7008 82.6701 15.0455C82.4215 15.3902 82.0735 15.6619 81.6261 15.8608C81.1786 16.0597 80.6583 16.1591 80.065 16.1591C79.2861 16.1591 78.6415 15.9901 78.131 15.652C77.6206 15.3139 77.2975 14.8201 77.1616 14.1705L78.2752 13.892C78.3813 14.303 78.5818 14.6113 78.8768 14.8168C79.1751 15.0223 79.5645 15.125 80.0451 15.125C80.592 15.125 81.0262 15.009 81.3477 14.777C81.6725 14.5417 81.8349 14.2599 81.8349 13.9318C81.8349 13.6667 81.7421 13.4446 81.5565 13.2656C81.3709 13.0833 81.0858 12.9474 80.7013 12.858L79.4286 12.5597C78.7293 12.3939 78.2156 12.1371 77.8874 11.7891C77.5626 11.4377 77.4002 10.9986 77.4002 10.4716C77.4002 10.0407 77.5212 9.65956 77.7631 9.32812C78.0084 8.99669 78.3415 8.73651 78.7624 8.54758C79.1867 8.35866 79.6673 8.2642 80.2042 8.2642C80.9599 8.2642 81.5531 8.42992 81.984 8.76136C82.4182 9.0928 82.7264 9.5303 82.9087 10.0739Z" fill="black"/>
<path id="52%" d="M31.1591 53.3182C29.6439 53.3182 28.2879 53.0341 27.0909 52.4659C25.8939 51.8902 24.9432 51.1023 24.2386 50.1023C23.5417 49.1023 23.1705 47.9583 23.125 46.6705H27.2159C27.2917 47.625 27.7045 48.4053 28.4545 49.0114C29.2045 49.6098 30.1061 49.9091 31.1591 49.9091C31.9848 49.9091 32.7197 49.7197 33.3636 49.3409C34.0076 48.9621 34.5152 48.4356 34.8864 47.7614C35.2576 47.0871 35.4394 46.3182 35.4318 45.4545C35.4394 44.5758 35.2538 43.7955 34.875 43.1136C34.4962 42.4318 33.9773 41.8977 33.3182 41.5114C32.6591 41.1174 31.9015 40.9205 31.0455 40.9205C30.3485 40.9129 29.6629 41.0417 28.9886 41.3068C28.3144 41.572 27.7803 41.9205 27.3864 42.3523L23.5795 41.7273L24.7955 29.7273H38.2955V33.25H28.2841L27.6136 39.4205H27.75C28.1818 38.9129 28.7917 38.4924 29.5795 38.1591C30.3674 37.8182 31.2311 37.6477 32.1705 37.6477C33.5795 37.6477 34.8371 37.9811 35.9432 38.6477C37.0492 39.3068 37.9205 40.2159 38.5568 41.375C39.1932 42.5341 39.5114 43.8598 39.5114 45.3523C39.5114 46.8902 39.1553 48.2614 38.4432 49.4659C37.7386 50.6629 36.7576 51.6061 35.5 52.2955C34.25 52.9773 32.803 53.3182 31.1591 53.3182ZM43.3182 53V49.9545L51.3977 42.0341C52.1705 41.2538 52.8144 40.5606 53.3295 39.9545C53.8447 39.3485 54.2311 38.7614 54.4886 38.1932C54.7462 37.625 54.875 37.0189 54.875 36.375C54.875 35.6402 54.7083 35.0114 54.375 34.4886C54.0417 33.9583 53.5833 33.5492 53 33.2614C52.4167 32.9735 51.7538 32.8295 51.0114 32.8295C50.2462 32.8295 49.5758 32.9886 49 33.3068C48.4242 33.6174 47.9773 34.0606 47.6591 34.6364C47.3485 35.2121 47.1932 35.8977 47.1932 36.6932H43.1818C43.1818 35.2159 43.5189 33.9318 44.1932 32.8409C44.8674 31.75 45.7955 30.9053 46.9773 30.3068C48.1667 29.7083 49.5303 29.4091 51.0682 29.4091C52.6288 29.4091 54 29.7008 55.1818 30.2841C56.3636 30.8674 57.2803 31.6667 57.9318 32.6818C58.5909 33.697 58.9205 34.8561 58.9205 36.1591C58.9205 37.0303 58.7538 37.8864 58.4205 38.7273C58.0871 39.5682 57.5 40.5 56.6591 41.5227C55.8258 42.5455 54.6553 43.7841 53.1477 45.2386L49.1364 49.3182V49.4773H59.2727V53H43.3182ZM75.6364 48.6364V47.4091C75.6364 46.5076 75.8258 45.678 76.2045 44.9205C76.5909 44.1629 77.1515 43.553 77.8864 43.0909C78.6212 42.6288 79.5114 42.3977 80.5568 42.3977C81.6326 42.3977 82.5341 42.6288 83.2614 43.0909C83.9886 43.5455 84.5379 44.1515 84.9091 44.9091C85.2879 45.6667 85.4773 46.5 85.4773 47.4091V48.6364C85.4773 49.5379 85.2879 50.3674 84.9091 51.125C84.5303 51.8826 83.9735 52.4924 83.2386 52.9545C82.5114 53.4167 81.6174 53.6477 80.5568 53.6477C79.4962 53.6477 78.5985 53.4167 77.8636 52.9545C77.1288 52.4924 76.572 51.8826 76.1932 51.125C75.822 50.3674 75.6364 49.5379 75.6364 48.6364ZM78.6023 47.4091V48.6364C78.6023 49.2348 78.7462 49.7841 79.0341 50.2841C79.322 50.7841 79.8295 51.0341 80.5568 51.0341C81.2917 51.0341 81.7955 50.7879 82.0682 50.2955C82.3485 49.7955 82.4886 49.2424 82.4886 48.6364V47.4091C82.4886 46.803 82.3561 46.25 82.0909 45.75C81.8258 45.2424 81.3144 44.9886 80.5568 44.9886C79.8447 44.9886 79.3409 45.2424 79.0455 45.75C78.75 46.25 78.6023 46.803 78.6023 47.4091ZM63.8068 35.3182V34.0909C63.8068 33.1818 64 32.3485 64.3864 31.5909C64.7727 30.8333 65.3333 30.2273 66.0682 29.7727C66.803 29.3106 67.6932 29.0795 68.7386 29.0795C69.8068 29.0795 70.7045 29.3106 71.4318 29.7727C72.1667 30.2273 72.7197 30.8333 73.0909 31.5909C73.4621 32.3485 73.6477 33.1818 73.6477 34.0909V35.3182C73.6477 36.2273 73.4583 37.0606 73.0795 37.8182C72.7083 38.5682 72.1553 39.1705 71.4205 39.625C70.6856 40.0795 69.7917 40.3068 68.7386 40.3068C67.6705 40.3068 66.7689 40.0795 66.0341 39.625C65.3068 39.1705 64.7538 38.5644 64.375 37.8068C63.9962 37.0492 63.8068 36.2197 63.8068 35.3182ZM66.7955 34.0909V35.3182C66.7955 35.9242 66.9356 36.4773 67.2159 36.9773C67.5038 37.4697 68.0114 37.7159 68.7386 37.7159C69.4659 37.7159 69.9659 37.4697 70.2386 36.9773C70.5189 36.4773 70.6591 35.9242 70.6591 35.3182V34.0909C70.6591 33.4848 70.5265 32.9318 70.2614 32.4318C69.9962 31.9242 69.4886 31.6705 68.7386 31.6705C68.0189 31.6705 67.5152 31.9242 67.2273 32.4318C66.9394 32.9394 66.7955 33.4924 66.7955 34.0909ZM65.1023 53L81.1023 29.7273H83.9432L67.9432 53H65.1023Z" fill="black"/>
</g>
</g>
<path id="Line 4" d="M8.09668 101L8.09668 201" stroke="black" stroke-width="2" stroke-linecap="round"/>
<path id="Line 5" d="M15.1936 101L15.1936 201" stroke="black" stroke-width="2" stroke-linecap="round"/>
<path id="Line 6" d="M22.2903 101L22.2903 201" stroke="black" stroke-width="2" stroke-linecap="round"/>
<path id="Line 7" d="M29.3872 101L29.3872 201" stroke="black" stroke-width="2" stroke-linecap="round"/>
<path id="Line 8" d="M36.4839 101L36.4839 201" stroke="black" stroke-width="2" stroke-linecap="round"/>
<path id="Line 9" d="M43.5806 101L43.5806 201" stroke="black" stroke-width="2" stroke-linecap="round"/>
<path id="Line 11" d="M50.6775 101L50.6775 201" stroke="black" stroke-width="2" stroke-linecap="round"/>
<path id="Line 13" d="M57.7742 101L57.7742 201" stroke="black" stroke-width="2" stroke-linecap="round"/>
<path id="Line 10" d="M64.8708 101L64.8708 201" stroke="black" stroke-width="2" stroke-linecap="round"/>
<path id="Line 12" d="M71.9678 101L71.9678 201" stroke="black" stroke-width="2" stroke-linecap="round"/>
<path id="Line 14" d="M79.0645 101L79.0645 201" stroke="black" stroke-width="2" stroke-linecap="round"/>
<path id="Line 15" d="M86.1614 101L86.1614 201" stroke="black" stroke-width="2" stroke-linecap="round"/>
<path id="Line 19" d="M93.2581 101L93.2581 201" stroke="black" stroke-width="2" stroke-linecap="round"/>
<path id="Line 23" d="M100.355 101L100.355 201" stroke="black" stroke-width="2" stroke-linecap="round"/>
<path id="Line 17" d="M107.452 101L107.452 201" stroke="black" stroke-width="2" stroke-linecap="round"/>
<path id="Line 21" d="M114.548 101L114.548 201" stroke="black" stroke-width="2" stroke-linecap="round"/>
<path id="Line 25" d="M121.645 101L121.645 201" stroke="black" stroke-width="2" stroke-linecap="round"/>
<path id="Line 51" d="M128.742 101L128.742 201" stroke="black" stroke-width="2" stroke-linecap="round"/>
<path id="Line 52" d="M135.839 101L135.839 201" stroke="black" stroke-width="2" stroke-linecap="round"/>
<path id="Line 53" d="M142.936 101L142.936 201" stroke="black" stroke-width="2" stroke-linecap="round"/>
<path id="Line 54" d="M150.032 101L150.032 201" stroke="black" stroke-width="2" stroke-linecap="round"/>
<path id="Line 55" d="M157.129 101L157.129 201" stroke="black" stroke-width="2" stroke-linecap="round"/>
<path id="Line 56" d="M164.226 101L164.226 201" stroke="black" stroke-width="2" stroke-linecap="round"/>
<path id="Line 57" d="M171.323 101L171.323 201" stroke="black" stroke-width="2" stroke-linecap="round"/>
<path id="Line 58" d="M178.419 101L178.419 201" stroke="black" stroke-width="2" stroke-linecap="round"/>
<path id="Line 59" d="M185.516 101L185.516 201" stroke="black" stroke-width="2" stroke-linecap="round"/>
<g id="Frame 26">
<path id="Line 16" d="M192.613 1L192.613 201" stroke="black" stroke-width="2" stroke-linecap="round"/>
<g id="Frame 13">
<path id="New users" d="M221.92 5.81818V16H220.726L215.178 8.00568H215.079V16H213.846V5.81818H215.039L220.607 13.8324H220.707V5.81818H221.92ZM227.429 16.1591C226.694 16.1591 226.059 15.9967 225.525 15.6719C224.995 15.3438 224.586 14.8864 224.297 14.2997C224.012 13.7098 223.87 13.0237 223.87 12.2415C223.87 11.4593 224.012 10.7699 224.297 10.1733C224.586 9.57339 224.987 9.10606 225.5 8.77131C226.017 8.43324 226.621 8.2642 227.31 8.2642C227.708 8.2642 228.101 8.33049 228.488 8.46307C228.876 8.59564 229.229 8.81108 229.547 9.10938C229.865 9.40436 230.119 9.79545 230.308 10.2827C230.497 10.7699 230.591 11.3698 230.591 12.0824V12.5795H224.705V11.5653H229.398C229.398 11.1345 229.312 10.75 229.14 10.4119C228.971 10.0739 228.729 9.80705 228.414 9.61151C228.102 9.41596 227.734 9.31818 227.31 9.31818C226.843 9.31818 226.438 9.43419 226.097 9.66619C225.759 9.89489 225.499 10.1932 225.316 10.5611C225.134 10.929 225.043 11.3234 225.043 11.7443V12.4205C225.043 12.9972 225.142 13.486 225.341 13.8871C225.543 14.2848 225.824 14.5881 226.182 14.7969C226.539 15.0024 226.955 15.1051 227.429 15.1051C227.738 15.1051 228.016 15.062 228.265 14.9759C228.516 14.8864 228.734 14.7538 228.916 14.5781C229.098 14.3991 229.239 14.1771 229.338 13.9119L230.472 14.2301C230.353 14.6146 230.152 14.9527 229.87 15.2443C229.589 15.5327 229.241 15.758 228.826 15.9205C228.412 16.0795 227.946 16.1591 227.429 16.1591ZM234.106 16L231.78 8.36364H233.012L234.663 14.2102H234.743L236.373 8.36364H237.626L239.237 14.1903H239.316L240.967 8.36364H242.2L239.873 16H238.72L237.049 10.1335H236.93L235.26 16H234.106ZM252.501 12.8778V8.36364H253.674V16H252.501V14.7074H252.422C252.243 15.0952 251.964 15.425 251.586 15.6967C251.208 15.9652 250.731 16.0994 250.155 16.0994C249.677 16.0994 249.253 15.995 248.882 15.7862C248.511 15.5741 248.219 15.2559 248.007 14.8317C247.795 14.4041 247.689 13.8655 247.689 13.2159V8.36364H248.862V13.1364C248.862 13.6932 249.018 14.1373 249.329 14.4688C249.644 14.8002 250.045 14.9659 250.532 14.9659C250.824 14.9659 251.121 14.8913 251.422 14.7422C251.727 14.593 251.982 14.3643 252.188 14.0561C252.397 13.7479 252.501 13.3551 252.501 12.8778ZM261.232 10.0739L260.178 10.3722C260.112 10.1965 260.014 10.0258 259.885 9.86009C259.759 9.69105 259.587 9.55185 259.368 9.44247C259.149 9.3331 258.869 9.27841 258.528 9.27841C258.061 9.27841 257.671 9.38613 257.36 9.60156C257.051 9.81368 256.897 10.0838 256.897 10.4119C256.897 10.7036 257.003 10.9339 257.215 11.103C257.428 11.272 257.759 11.4129 258.21 11.5256L259.343 11.804C260.026 11.9697 260.535 12.2232 260.87 12.5646C261.204 12.9027 261.372 13.3385 261.372 13.8722C261.372 14.3097 261.246 14.7008 260.994 15.0455C260.745 15.3902 260.397 15.6619 259.95 15.8608C259.502 16.0597 258.982 16.1591 258.389 16.1591C257.61 16.1591 256.965 15.9901 256.455 15.652C255.944 15.3139 255.621 14.8201 255.485 14.1705L256.599 13.892C256.705 14.303 256.906 14.6113 257.201 14.8168C257.499 15.0223 257.888 15.125 258.369 15.125C258.916 15.125 259.35 15.009 259.671 14.777C259.996 14.5417 260.159 14.2599 260.159 13.9318C260.159 13.6667 260.066 13.4446 259.88 13.2656C259.695 13.0833 259.41 12.9474 259.025 12.858L257.752 12.5597C257.053 12.3939 256.539 12.1371 256.211 11.7891C255.886 11.4377 255.724 10.9986 255.724 10.4716C255.724 10.0407 255.845 9.65956 256.087 9.32812C256.332 8.99669 256.665 8.73651 257.086 8.54758C257.51 8.35866 257.991 8.2642 258.528 8.2642C259.284 8.2642 259.877 8.42992 260.308 8.76136C260.742 9.0928 261.05 9.5303 261.232 10.0739ZM266.34 16.1591C265.604 16.1591 264.969 15.9967 264.435 15.6719C263.905 15.3438 263.496 14.8864 263.207 14.2997C262.922 13.7098 262.78 13.0237 262.78 12.2415C262.78 11.4593 262.922 10.7699 263.207 10.1733C263.496 9.57339 263.897 9.10606 264.411 8.77131C264.928 8.43324 265.531 8.2642 266.22 8.2642C266.618 8.2642 267.011 8.33049 267.398 8.46307C267.786 8.59564 268.139 8.81108 268.457 9.10938C268.776 9.40436 269.029 9.79545 269.218 10.2827C269.407 10.7699 269.501 11.3698 269.501 12.0824V12.5795H263.615V11.5653H268.308C268.308 11.1345 268.222 10.75 268.05 10.4119C267.881 10.0739 267.639 9.80705 267.324 9.61151C267.012 9.41596 266.644 9.31818 266.22 9.31818C265.753 9.31818 265.349 9.43419 265.007 9.66619C264.669 9.89489 264.409 10.1932 264.227 10.5611C264.044 10.929 263.953 11.3234 263.953 11.7443V12.4205C263.953 12.9972 264.053 13.486 264.251 13.8871C264.454 14.2848 264.734 14.5881 265.092 14.7969C265.45 15.0024 265.866 15.1051 266.34 15.1051C266.648 15.1051 266.926 15.062 267.175 14.9759C267.427 14.8864 267.644 14.7538 267.826 14.5781C268.008 14.3991 268.149 14.1771 268.249 13.9119L269.382 14.2301C269.263 14.6146 269.062 14.9527 268.781 15.2443C268.499 15.5327 268.151 15.758 267.737 15.9205C267.322 16.0795 266.857 16.1591 266.34 16.1591ZM271.286 16V8.36364H272.42V9.51705H272.499C272.639 9.1392 272.89 8.83262 273.255 8.5973C273.62 8.36198 274.031 8.24432 274.488 8.24432C274.574 8.24432 274.682 8.24597 274.811 8.24929C274.94 8.2526 275.038 8.25758 275.104 8.2642V9.45739C275.065 9.44744 274.974 9.43253 274.831 9.41264C274.692 9.38944 274.544 9.37784 274.389 9.37784C274.017 9.37784 273.686 9.45573 273.394 9.61151C273.106 9.76397 272.877 9.97609 272.708 10.2479C272.542 10.5163 272.46 10.8229 272.46 11.1676V16H271.286ZM281.904 10.0739L280.85 10.3722C280.784 10.1965 280.686 10.0258 280.557 9.86009C280.431 9.69105 280.259 9.55185 280.04 9.44247C279.821 9.3331 279.541 9.27841 279.2 9.27841C278.732 9.27841 278.343 9.38613 278.031 9.60156C277.723 9.81368 277.569 10.0838 277.569 10.4119C277.569 10.7036 277.675 10.9339 277.887 11.103C278.099 11.272 278.431 11.4129 278.882 11.5256L280.015 11.804C280.698 11.9697 281.207 12.2232 281.541 12.5646C281.876 12.9027 282.044 13.3385 282.044 13.8722C282.044 14.3097 281.918 14.7008 281.666 15.0455C281.417 15.3902 281.069 15.6619 280.622 15.8608C280.174 16.0597 279.654 16.1591 279.061 16.1591C278.282 16.1591 277.637 15.9901 277.127 15.652C276.616 15.3139 276.293 14.8201 276.157 14.1705L277.271 13.892C277.377 14.303 277.577 14.6113 277.872 14.8168C278.171 15.0223 278.56 15.125 279.041 15.125C279.588 15.125 280.022 15.009 280.343 14.777C280.668 14.5417 280.83 14.2599 280.83 13.9318C280.83 13.6667 280.738 13.4446 280.552 13.2656C280.366 13.0833 280.081 12.9474 279.697 12.858L278.424 12.5597C277.725 12.3939 277.211 12.1371 276.883 11.7891C276.558 11.4377 276.396 10.9986 276.396 10.4716C276.396 10.0407 276.517 9.65956 276.759 9.32812C277.004 8.99669 277.337 8.73651 277.758 8.54758C278.182 8.35866 278.663 8.2642 279.2 8.2642C279.955 8.2642 280.549 8.42992 280.98 8.76136C281.414 9.0928 281.722 9.5303 281.904 10.0739Z" fill="black"/>
<path id="18%" d="M223.59 29.7273V53H219.363V35.1136H219.17C219.018 35.3485 218.73 35.6023 218.306 35.875C217.882 36.1402 217.336 36.3674 216.67 36.5568C216.011 36.7462 215.242 36.8409 214.363 36.8409V33.4318C215.166 33.4318 215.882 33.2917 216.511 33.0114C217.139 32.7311 217.673 32.3826 218.113 31.9659C218.56 31.5492 218.904 31.1364 219.147 30.7273C219.389 30.3182 219.522 29.9848 219.545 29.7273H223.59ZM237.797 53.3182C236.108 53.3182 234.608 53.0341 233.297 52.4659C231.994 51.8977 230.972 51.1212 230.229 50.1364C229.494 49.1439 229.131 48.0189 229.138 46.7614C229.131 45.7841 229.343 44.8864 229.775 44.0682C230.207 43.25 230.79 42.5682 231.525 42.0227C232.267 41.4697 233.093 41.1174 234.002 40.9659V40.8068C232.805 40.5417 231.835 39.9318 231.093 38.9773C230.358 38.0152 229.994 36.9053 230.002 35.6477C229.994 34.4508 230.328 33.3826 231.002 32.4432C231.676 31.5038 232.6 30.7652 233.775 30.2273C234.949 29.6818 236.29 29.4091 237.797 29.4091C239.29 29.4091 240.619 29.6818 241.786 30.2273C242.96 30.7652 243.885 31.5038 244.559 32.4432C245.241 33.3826 245.582 34.4508 245.582 35.6477C245.582 36.9053 245.207 38.0152 244.457 38.9773C243.714 39.9318 242.756 40.5417 241.582 40.8068V40.9659C242.491 41.1174 243.309 41.4697 244.036 42.0227C244.771 42.5682 245.354 43.25 245.786 44.0682C246.225 44.8864 246.445 45.7841 246.445 46.7614C246.445 48.0189 246.074 49.1439 245.332 50.1364C244.589 51.1212 243.566 51.8977 242.263 52.4659C240.968 53.0341 239.479 53.3182 237.797 53.3182ZM237.797 50.0682C238.669 50.0682 239.426 49.9205 240.07 49.625C240.714 49.322 241.214 48.8977 241.57 48.3523C241.926 47.8068 242.108 47.178 242.116 46.4659C242.108 45.7235 241.915 45.0682 241.536 44.5C241.165 43.9242 240.654 43.4735 240.002 43.1477C239.358 42.822 238.623 42.6591 237.797 42.6591C236.964 42.6591 236.222 42.822 235.57 43.1477C234.919 43.4735 234.404 43.9242 234.025 44.5C233.654 45.0682 233.472 45.7235 233.479 46.4659C233.472 47.178 233.646 47.8068 234.002 48.3523C234.358 48.8902 234.858 49.3106 235.502 49.6136C236.154 49.9167 236.919 50.0682 237.797 50.0682ZM237.797 39.4659C238.51 39.4659 239.138 39.322 239.684 39.0341C240.237 38.7462 240.672 38.3447 240.991 37.8295C241.309 37.3144 241.472 36.7197 241.479 36.0455C241.472 35.3788 241.313 34.7955 241.002 34.2955C240.691 33.7879 240.26 33.3977 239.707 33.125C239.154 32.8447 238.517 32.7045 237.797 32.7045C237.063 32.7045 236.415 32.8447 235.854 33.125C235.301 33.3977 234.869 33.7879 234.559 34.2955C234.256 34.7955 234.108 35.3788 234.116 36.0455C234.108 36.7197 234.26 37.3144 234.57 37.8295C234.888 38.3371 235.324 38.7386 235.877 39.0341C236.438 39.322 237.078 39.4659 237.797 39.4659ZM262.624 48.6364V47.4091C262.624 46.5076 262.814 45.678 263.192 44.9205C263.579 44.1629 264.139 43.553 264.874 43.0909C265.609 42.6288 266.499 42.3977 267.545 42.3977C268.62 42.3977 269.522 42.6288 270.249 43.0909C270.976 43.5455 271.526 44.1515 271.897 44.9091C272.276 45.6667 272.465 46.5 272.465 47.4091V48.6364C272.465 49.5379 272.276 50.3674 271.897 51.125C271.518 51.8826 270.961 52.4924 270.226 52.9545C269.499 53.4167 268.605 53.6477 267.545 53.6477C266.484 53.6477 265.586 53.4167 264.851 52.9545C264.117 52.4924 263.56 51.8826 263.181 51.125C262.81 50.3674 262.624 49.5379 262.624 48.6364ZM265.59 47.4091V48.6364C265.59 49.2348 265.734 49.7841 266.022 50.2841C266.31 50.7841 266.817 51.0341 267.545 51.0341C268.279 51.0341 268.783 50.7879 269.056 50.2955C269.336 49.7955 269.476 49.2424 269.476 48.6364V47.4091C269.476 46.803 269.344 46.25 269.079 45.75C268.814 45.2424 268.302 44.9886 267.545 44.9886C266.832 44.9886 266.329 45.2424 266.033 45.75C265.738 46.25 265.59 46.803 265.59 47.4091ZM250.795 35.3182V34.0909C250.795 33.1818 250.988 32.3485 251.374 31.5909C251.761 30.8333 252.321 30.2273 253.056 29.7727C253.791 29.3106 254.681 29.0795 255.726 29.0795C256.795 29.0795 257.692 29.3106 258.42 29.7727C259.154 30.2273 259.707 30.8333 260.079 31.5909C260.45 32.3485 260.636 33.1818 260.636 34.0909V35.3182C260.636 36.2273 260.446 37.0606 260.067 37.8182C259.696 38.5682 259.143 39.1705 258.408 39.625C257.673 40.0795 256.779 40.3068 255.726 40.3068C254.658 40.3068 253.757 40.0795 253.022 39.625C252.295 39.1705 251.742 38.5644 251.363 37.8068C250.984 37.0492 250.795 36.2197 250.795 35.3182ZM253.783 34.0909V35.3182C253.783 35.9242 253.923 36.4773 254.204 36.9773C254.492 37.4697 254.999 37.7159 255.726 37.7159C256.454 37.7159 256.954 37.4697 257.226 36.9773C257.507 36.4773 257.647 35.9242 257.647 35.3182V34.0909C257.647 33.4848 257.514 32.9318 257.249 32.4318C256.984 31.9242 256.476 31.6705 255.726 31.6705C255.007 31.6705 254.503 31.9242 254.215 32.4318C253.927 32.9394 253.783 33.4924 253.783 34.0909ZM252.09 53L268.09 29.7273H270.931L254.931 53H252.09Z" fill="black"/>
</g>
</g>
<path id="Line 20" d="M199.709 101L199.709 201" stroke="black" stroke-width="2" stroke-linecap="round"/>
<path id="Line 24" d="M206.806 101L206.806 201" stroke="black" stroke-width="2" stroke-linecap="round"/>
<path id="Line 18" d="M213.903 101L213.903 201" stroke="black" stroke-width="2" stroke-linecap="round"/>
<path id="Line 22" d="M221 101L221 201" stroke="black" stroke-width="2" stroke-linecap="round"/>
<path id="Line 26" d="M228.097 101L228.097 201" stroke="black" stroke-width="2" stroke-linecap="round"/>
<path id="Line 27" d="M235.193 101L235.193 201" stroke="black" stroke-width="2" stroke-linecap="round"/>
<path id="Line 35" d="M242.29 101L242.29 201" stroke="black" stroke-width="2" stroke-linecap="round"/>
<path id="Line 43" d="M249.387 101L249.387 201" stroke="black" stroke-width="2" stroke-linecap="round"/>
<path id="Line 31" d="M256.484 101L256.484 201" stroke="black" stroke-width="2" stroke-linecap="round"/>
<path id="Line 39" d="M263.581 101L263.581 201" stroke="black" stroke-width="2" stroke-linecap="round"/>
<path id="Line 47" d="M270.677 101L270.677 201" stroke="black" stroke-width="2" stroke-linecap="round"/>
<path id="Line 29" d="M277.774 101L277.774 201" stroke="black" stroke-width="2" stroke-linecap="round"/>
<path id="Line 37" d="M284.871 101L284.871 201" stroke="black" stroke-width="2" stroke-linecap="round"/>
<path id="Line 45" d="M291.968 101L291.968 201" stroke="black" stroke-width="2" stroke-linecap="round"/>
<path id="Line 33" d="M299.064 101L299.064 201" stroke="black" stroke-width="2" stroke-linecap="round"/>
<g id="Frame 27">
<path id="Line 41" d="M306.161 1L306.161 201" stroke="black" stroke-opacity="0.4" stroke-width="2" stroke-linecap="round"/>
<g id="Frame 14">
<path id="Visitors" d="M327.812 5.81818L330.834 14.3892H330.954L333.976 5.81818H335.269L331.53 16H330.258L326.519 5.81818H327.812ZM336.696 16V8.36364H337.869V16H336.696ZM337.293 7.09091C337.064 7.09091 336.867 7.01302 336.701 6.85724C336.539 6.70147 336.457 6.5142 336.457 6.29545C336.457 6.0767 336.539 5.88944 336.701 5.73366C336.867 5.57789 337.064 5.5 337.293 5.5C337.521 5.5 337.717 5.57789 337.879 5.73366C338.045 5.88944 338.128 6.0767 338.128 6.29545C338.128 6.5142 338.045 6.70147 337.879 6.85724C337.717 7.01302 337.521 7.09091 337.293 7.09091ZM345.427 10.0739L344.373 10.3722C344.307 10.1965 344.209 10.0258 344.08 9.86009C343.954 9.69105 343.782 9.55185 343.563 9.44247C343.344 9.3331 343.064 9.27841 342.723 9.27841C342.255 9.27841 341.866 9.38613 341.554 9.60156C341.246 9.81368 341.092 10.0838 341.092 10.4119C341.092 10.7036 341.198 10.9339 341.41 11.103C341.622 11.272 341.954 11.4129 342.405 11.5256L343.538 11.804C344.221 11.9697 344.73 12.2232 345.064 12.5646C345.399 12.9027 345.566 13.3385 345.566 13.8722C345.566 14.3097 345.441 14.7008 345.189 15.0455C344.94 15.3902 344.592 15.6619 344.145 15.8608C343.697 16.0597 343.177 16.1591 342.584 16.1591C341.805 16.1591 341.16 15.9901 340.65 15.652C340.139 15.3139 339.816 14.8201 339.68 14.1705L340.794 13.892C340.9 14.303 341.1 14.6113 341.395 14.8168C341.694 15.0223 342.083 15.125 342.564 15.125C343.111 15.125 343.545 15.009 343.866 14.777C344.191 14.5417 344.353 14.2599 344.353 13.9318C344.353 13.6667 344.261 13.4446 344.075 13.2656C343.889 13.0833 343.604 12.9474 343.22 12.858L341.947 12.5597C341.248 12.3939 340.734 12.1371 340.406 11.7891C340.081 11.4377 339.919 10.9986 339.919 10.4716C339.919 10.0407 340.04 9.65956 340.282 9.32812C340.527 8.99669 340.86 8.73651 341.281 8.54758C341.705 8.35866 342.186 8.2642 342.723 8.2642C343.478 8.2642 344.072 8.42992 344.503 8.76136C344.937 9.0928 345.245 9.5303 345.427 10.0739ZM347.333 16V8.36364H348.506V16H347.333ZM347.929 7.09091C347.701 7.09091 347.503 7.01302 347.338 6.85724C347.175 6.70147 347.094 6.5142 347.094 6.29545C347.094 6.0767 347.175 5.88944 347.338 5.73366C347.503 5.57789 347.701 5.5 347.929 5.5C348.158 5.5 348.353 5.57789 348.516 5.73366C348.682 5.88944 348.764 6.0767 348.764 6.29545C348.764 6.5142 348.682 6.70147 348.516 6.85724C348.353 7.01302 348.158 7.09091 347.929 7.09091ZM353.976 8.36364V9.35795H350.019V8.36364H353.976ZM351.172 6.53409H352.345V13.8125C352.345 14.1439 352.393 14.3925 352.489 14.5582C352.589 14.7206 352.715 14.83 352.867 14.8864C353.023 14.9394 353.187 14.9659 353.359 14.9659C353.489 14.9659 353.595 14.9593 353.678 14.946C353.761 14.9295 353.827 14.9162 353.877 14.9062L354.115 15.9602C354.036 15.9901 353.925 16.0199 353.782 16.0497C353.64 16.0829 353.459 16.0994 353.24 16.0994C352.909 16.0994 352.584 16.0282 352.266 15.8857C351.951 15.7431 351.689 15.526 351.48 15.2344C351.275 14.9427 351.172 14.5748 351.172 14.1307V6.53409ZM358.761 16.1591C358.072 16.1591 357.467 15.995 356.946 15.6669C356.429 15.3388 356.025 14.8797 355.733 14.2898C355.445 13.6998 355.301 13.0104 355.301 12.2216C355.301 11.4261 355.445 10.7318 355.733 10.1385C356.025 9.54522 356.429 9.08452 356.946 8.75639C357.467 8.42827 358.072 8.2642 358.761 8.2642C359.45 8.2642 360.054 8.42827 360.571 8.75639C361.091 9.08452 361.495 9.54522 361.784 10.1385C362.075 10.7318 362.221 11.4261 362.221 12.2216C362.221 13.0104 362.075 13.6998 361.784 14.2898C361.495 14.8797 361.091 15.3388 360.571 15.6669C360.054 15.995 359.45 16.1591 358.761 16.1591ZM358.761 15.1051C359.285 15.1051 359.716 14.9709 360.054 14.7024C360.392 14.4339 360.642 14.081 360.804 13.6435C360.967 13.206 361.048 12.732 361.048 12.2216C361.048 11.7112 360.967 11.2356 360.804 10.7947C360.642 10.3539 360.392 9.99763 360.054 9.72585C359.716 9.45407 359.285 9.31818 358.761 9.31818C358.237 9.31818 357.807 9.45407 357.468 9.72585C357.13 9.99763 356.88 10.3539 356.718 10.7947C356.555 11.2356 356.474 11.7112 356.474 12.2216C356.474 12.732 356.555 13.206 356.718 13.6435C356.88 14.081 357.13 14.4339 357.468 14.7024C357.807 14.9709 358.237 15.1051 358.761 15.1051ZM364.012 16V8.36364H365.146V9.51705H365.225C365.365 9.1392 365.617 8.83262 365.981 8.5973C366.346 8.36198 366.757 8.24432 367.214 8.24432C367.3 8.24432 367.408 8.24597 367.537 8.24929C367.666 8.2526 367.764 8.25758 367.831 8.2642V9.45739C367.791 9.44744 367.7 9.43253 367.557 9.41264C367.418 9.38944 367.27 9.37784 367.115 9.37784C366.743 9.37784 366.412 9.45573 366.12 9.61151C365.832 9.76397 365.603 9.97609 365.434 10.2479C365.268 10.5163 365.186 10.8229 365.186 11.1676V16H364.012ZM374.63 10.0739L373.576 10.3722C373.51 10.1965 373.412 10.0258 373.283 9.86009C373.157 9.69105 372.985 9.55185 372.766 9.44247C372.547 9.3331 372.267 9.27841 371.926 9.27841C371.459 9.27841 371.069 9.38613 370.758 9.60156C370.449 9.81368 370.295 10.0838 370.295 10.4119C370.295 10.7036 370.401 10.9339 370.613 11.103C370.825 11.272 371.157 11.4129 371.608 11.5256L372.741 11.804C373.424 11.9697 373.933 12.2232 374.267 12.5646C374.602 12.9027 374.77 13.3385 374.77 13.8722C374.77 14.3097 374.644 14.7008 374.392 15.0455C374.143 15.3902 373.795 15.6619 373.348 15.8608C372.9 16.0597 372.38 16.1591 371.787 16.1591C371.008 16.1591 370.363 15.9901 369.853 15.652C369.342 15.3139 369.019 14.8201 368.883 14.1705L369.997 13.892C370.103 14.303 370.303 14.6113 370.598 14.8168C370.897 15.0223 371.286 15.125 371.767 15.125C372.314 15.125 372.748 15.009 373.069 14.777C373.394 14.5417 373.557 14.2599 373.557 13.9318C373.557 13.6667 373.464 13.4446 373.278 13.2656C373.093 13.0833 372.807 12.9474 372.423 12.858L371.15 12.5597C370.451 12.3939 369.937 12.1371 369.609 11.7891C369.284 11.4377 369.122 10.9986 369.122 10.4716C369.122 10.0407 369.243 9.65956 369.485 9.32812C369.73 8.99669 370.063 8.73651 370.484 8.54758C370.908 8.35866 371.389 8.2642 371.926 8.2642C372.682 8.2642 373.275 8.42992 373.706 8.76136C374.14 9.0928 374.448 9.5303 374.63 10.0739Z" fill="black" fill-opacity="0.4"/>
<path id="30%" d="M327.866 46.6705H332.127C332.18 47.322 332.4 47.8826 332.786 48.3523C333.172 48.8144 333.68 49.1705 334.309 49.4205C334.938 49.6629 335.638 49.7841 336.411 49.7841C337.229 49.7841 337.96 49.6439 338.604 49.3636C339.248 49.0758 339.752 48.6667 340.116 48.1364C340.487 47.5985 340.672 46.947 340.672 46.1818C340.672 45.4773 340.494 44.8371 340.138 44.2614C339.79 43.678 339.256 43.2159 338.536 42.875C337.816 42.5265 336.896 42.3523 335.775 42.3523H333.468V39.3182L338.854 33.4091V33.25H329.013V29.7273H344.172V32.7727L337.922 39.5V39.6818C339.074 39.7727 340.089 40.0152 340.968 40.4091C341.854 40.803 342.597 41.3068 343.195 41.9205C343.794 42.5341 344.244 43.2235 344.547 43.9886C344.851 44.7538 345.002 45.5568 345.002 46.3977C345.002 47.7614 344.627 48.9621 343.877 50C343.135 51.0379 342.112 51.8523 340.809 52.4432C339.513 53.0265 338.036 53.3182 336.377 53.3182C334.786 53.3182 333.358 53.0455 332.093 52.5C330.835 51.9545 329.832 51.1856 329.082 50.1932C328.332 49.1932 327.926 48.0189 327.866 46.6705ZM357.519 53.4432C355.648 53.4432 354.042 52.9697 352.701 52.0227C351.368 51.0682 350.341 49.6932 349.621 47.8977C348.909 46.0947 348.553 43.9242 348.553 41.3864C348.561 38.8485 348.921 36.6894 349.633 34.9091C350.352 33.1212 351.379 31.7576 352.712 30.8182C354.053 29.8788 355.655 29.4091 357.519 29.4091C359.383 29.4091 360.985 29.8788 362.326 30.8182C363.667 31.7576 364.693 33.1212 365.405 34.9091C366.125 36.697 366.485 38.8561 366.485 41.3864C366.485 43.9318 366.125 46.1061 365.405 47.9091C364.693 49.7045 363.667 51.0758 362.326 52.0227C360.993 52.9697 359.39 53.4432 357.519 53.4432ZM357.519 49.8864C358.974 49.8864 360.121 49.1705 360.962 47.7386C361.811 46.2992 362.235 44.1818 362.235 41.3864C362.235 39.5379 362.042 37.9848 361.655 36.7273C361.269 35.4697 360.724 34.5227 360.019 33.8864C359.315 33.2424 358.481 32.9205 357.519 32.9205C356.072 32.9205 354.928 33.6402 354.087 35.0795C353.246 36.5114 352.822 38.6136 352.815 41.3864C352.807 43.2424 352.993 44.803 353.371 46.0682C353.758 47.3333 354.303 48.2879 355.008 48.9318C355.712 49.5682 356.549 49.8864 357.519 49.8864ZM382.704 48.6364V47.4091C382.704 46.5076 382.893 45.678 383.272 44.9205C383.658 44.1629 384.219 43.553 384.954 43.0909C385.689 42.6288 386.579 42.3977 387.624 42.3977C388.7 42.3977 389.601 42.6288 390.329 43.0909C391.056 43.5455 391.605 44.1515 391.976 44.9091C392.355 45.6667 392.545 46.5 392.545 47.4091V48.6364C392.545 49.5379 392.355 50.3674 391.976 51.125C391.598 51.8826 391.041 52.4924 390.306 52.9545C389.579 53.4167 388.685 53.6477 387.624 53.6477C386.564 53.6477 385.666 53.4167 384.931 52.9545C384.196 52.4924 383.639 51.8826 383.261 51.125C382.889 50.3674 382.704 49.5379 382.704 48.6364ZM385.67 47.4091V48.6364C385.67 49.2348 385.814 49.7841 386.101 50.2841C386.389 50.7841 386.897 51.0341 387.624 51.0341C388.359 51.0341 388.863 50.7879 389.136 50.2955C389.416 49.7955 389.556 49.2424 389.556 48.6364V47.4091C389.556 46.803 389.423 46.25 389.158 45.75C388.893 45.2424 388.382 44.9886 387.624 44.9886C386.912 44.9886 386.408 45.2424 386.113 45.75C385.817 46.25 385.67 46.803 385.67 47.4091ZM370.874 35.3182V34.0909C370.874 33.1818 371.067 32.3485 371.454 31.5909C371.84 30.8333 372.401 30.2273 373.136 29.7727C373.87 29.3106 374.761 29.0795 375.806 29.0795C376.874 29.0795 377.772 29.3106 378.499 29.7727C379.234 30.2273 379.787 30.8333 380.158 31.5909C380.53 32.3485 380.715 33.1818 380.715 34.0909V35.3182C380.715 36.2273 380.526 37.0606 380.147 37.8182C379.776 38.5682 379.223 39.1705 378.488 39.625C377.753 40.0795 376.859 40.3068 375.806 40.3068C374.738 40.3068 373.836 40.0795 373.101 39.625C372.374 39.1705 371.821 38.5644 371.442 37.8068C371.064 37.0492 370.874 36.2197 370.874 35.3182ZM373.863 34.0909V35.3182C373.863 35.9242 374.003 36.4773 374.283 36.9773C374.571 37.4697 375.079 37.7159 375.806 37.7159C376.533 37.7159 377.033 37.4697 377.306 36.9773C377.586 36.4773 377.726 35.9242 377.726 35.3182V34.0909C377.726 33.4848 377.594 32.9318 377.329 32.4318C377.064 31.9242 376.556 31.6705 375.806 31.6705C375.086 31.6705 374.583 31.9242 374.295 32.4318C374.007 32.9394 373.863 33.4924 373.863 34.0909ZM372.17 53L388.17 29.7273H391.011L375.011 53H372.17Z" fill="black" fill-opacity="0.4"/>
</g>
</g>
<path id="Line 49" d="M313.258 101L313.258 201" stroke="black" stroke-opacity="0.4" stroke-width="2" stroke-linecap="round"/>
<path id="Line 28" d="M320.354 101L320.354 201" stroke="black" stroke-opacity="0.4" stroke-width="2" stroke-linecap="round"/>
<path id="Line 36" d="M327.452 101L327.452 201" stroke="black" stroke-opacity="0.4" stroke-width="2" stroke-linecap="round"/>
<path id="Line 44" d="M334.548 101L334.548 201" stroke="black" stroke-opacity="0.4" stroke-width="2" stroke-linecap="round"/>
<path id="Line 32" d="M341.645 101L341.645 201" stroke="black" stroke-opacity="0.4" stroke-width="2" stroke-linecap="round"/>
<path id="Line 40" d="M348.742 101L348.742 201" stroke="black" stroke-opacity="0.4" stroke-width="2" stroke-linecap="round"/>
<path id="Line 48" d="M355.838 101L355.838 201" stroke="black" stroke-opacity="0.4" stroke-width="2" stroke-linecap="round"/>
<path id="Line 30" d="M362.936 101L362.936 201" stroke="black" stroke-opacity="0.4" stroke-width="2" stroke-linecap="round"/>
<path id="Line 38" d="M370.032 101L370.032 201" stroke="black" stroke-opacity="0.4" stroke-width="2" stroke-linecap="round"/>
<path id="Line 46" d="M377.129 101L377.129 201" stroke="black" stroke-opacity="0.4" stroke-width="2" stroke-linecap="round"/>
<path id="Line 34" d="M384.226 101L384.226 201" stroke="black" stroke-opacity="0.4" stroke-width="2" stroke-linecap="round"/>
<path id="Line 42" d="M391.322 101L391.322 201" stroke="black" stroke-opacity="0.4" stroke-width="2" stroke-linecap="round"/>
<path id="Line 50" d="M398.419 101L398.419 201" stroke="black" stroke-opacity="0.4" stroke-width="2" stroke-linecap="round"/>
<path id="Line 60" d="M405.516 101L405.516 201" stroke="black" stroke-opacity="0.4" stroke-width="2" stroke-linecap="round"/>
<path id="Line 61" d="M412.613 101L412.613 201" stroke="black" stroke-opacity="0.4" stroke-width="2" stroke-linecap="round"/>
<path id="Line 62" d="M419.709 101L419.709 201" stroke="black" stroke-opacity="0.4" stroke-width="2" stroke-linecap="round"/>
<path id="Line 63" d="M426.806 101L426.806 201" stroke="black" stroke-opacity="0.4" stroke-width="2" stroke-linecap="round"/>
<path id="Line 64" d="M433.903 101L433.903 201" stroke="black" stroke-opacity="0.4" stroke-width="2" stroke-linecap="round"/>
<path id="Line 65" d="M441 101L441 201" stroke="black" stroke-opacity="0.4" stroke-width="2" stroke-linecap="round"/>
</g>
</svg>
