<svg width="250" height="126" viewBox="0 0 250 126" fill="none" xmlns="http://www.w3.org/2000/svg">
<g id="SemicircleChart">
<g id="Frame">
<path id="Ellipse 969 (Stroke)" fill-rule="evenodd" clip-rule="evenodd" d="M31.9472 80.7522C33.9237 81.7381 34.719 84.1362 33.8158 86.1519C28.8839 97.1593 25.9309 109.254 25.4181 122.001C25.3293 124.208 23.547 126 21.3378 126H4C1.79086 126 -0.00674738 124.208 0.0639592 122C0.601015 105.229 4.50317 89.2829 11.1245 74.8359C12.0451 72.8273 14.4537 72.0264 16.4309 73.0127L31.9472 80.7522Z" fill="black" fill-opacity="0.2"/>
<path id="Ellipse 970 (Stroke)" fill-rule="evenodd" clip-rule="evenodd" d="M124.013 25.3457C87.2157 25.3457 55.1568 45.7325 38.5468 75.8823C37.4807 77.8176 35.0853 78.6263 33.1081 77.6401L17.5918 69.9006C15.6153 68.9147 14.8063 66.5095 15.8557 64.566C36.6022 26.144 77.2447 0 124.013 0C133.211 0 142.186 1.01332 150.828 2.93875C152.984 3.41913 154.27 5.60629 153.72 7.74552L149.398 24.5436C148.847 26.6833 146.668 27.9629 144.507 27.5009C137.909 26.0902 131.054 25.3457 124.013 25.3457Z" fill="black"/>
<path id="Ellipse 971 (Stroke)" fill-rule="evenodd" clip-rule="evenodd" d="M228.662 124.208C226.453 124.208 224.671 122.416 224.582 120.208C222.876 77.9297 194.261 42.557 155.389 30.8149C153.274 30.1761 151.983 28.0037 152.534 25.8645L156.856 9.06642C157.406 6.92674 159.592 5.63276 161.712 6.25356C211.504 20.8316 248.205 66.0875 249.936 120.204C250.007 122.412 248.209 124.208 246 124.208H228.662Z" fill="#ADADFB"/>
</g>
<g id="Text">
<path id="Text_2" d="M93.5959 66V57.2727H96.5447C97.2294 57.2727 97.7891 57.3963 98.2237 57.6435C98.6612 57.8878 98.9851 58.2188 99.1953 58.6364C99.4055 59.054 99.5107 59.5199 99.5107 60.0341C99.5107 60.5483 99.4055 61.0156 99.1953 61.4361C98.9879 61.8565 98.6669 62.1918 98.2322 62.4418C97.7976 62.6889 97.2408 62.8125 96.5618 62.8125H94.4482V61.875H96.5277C96.9964 61.875 97.3729 61.794 97.657 61.6321C97.9411 61.4702 98.147 61.2514 98.2749 60.9759C98.4055 60.6974 98.4709 60.3835 98.4709 60.0341C98.4709 59.6847 98.4055 59.3722 98.2749 59.0966C98.147 58.821 97.9396 58.6051 97.6527 58.4489C97.3658 58.2898 96.9851 58.2102 96.5107 58.2102H94.6527V66H93.5959ZM103.751 66.1364C103.12 66.1364 102.576 65.9972 102.119 65.7188C101.664 65.4375 101.313 65.0455 101.066 64.5426C100.822 64.0369 100.7 63.4489 100.7 62.7784C100.7 62.108 100.822 61.517 101.066 61.0057C101.313 60.4915 101.657 60.0909 102.097 59.804C102.54 59.5142 103.058 59.3693 103.648 59.3693C103.989 59.3693 104.326 59.4261 104.658 59.5398C104.991 59.6534 105.293 59.8381 105.566 60.0938C105.839 60.3466 106.056 60.6818 106.218 61.0994C106.38 61.517 106.461 62.0312 106.461 62.642V63.0682H101.415V62.1989H105.438C105.438 61.8295 105.364 61.5 105.217 61.2102C105.072 60.9205 104.864 60.6918 104.594 60.5241C104.327 60.3565 104.012 60.2727 103.648 60.2727C103.248 60.2727 102.901 60.3722 102.609 60.571C102.319 60.767 102.096 61.0227 101.94 61.3381C101.783 61.6534 101.705 61.9915 101.705 62.3523V62.9318C101.705 63.4261 101.79 63.8452 101.961 64.1889C102.134 64.5298 102.374 64.7898 102.681 64.9688C102.988 65.1449 103.344 65.233 103.751 65.233C104.015 65.233 104.254 65.196 104.467 65.1222C104.683 65.0455 104.869 64.9318 105.025 64.7812C105.181 64.6278 105.302 64.4375 105.387 64.2102L106.359 64.483C106.256 64.8125 106.085 65.1023 105.843 65.3523C105.602 65.5994 105.303 65.7926 104.948 65.9318C104.593 66.0682 104.194 66.1364 103.751 66.1364ZM107.991 66V59.4545H108.962V60.4432H109.031C109.15 60.1193 109.366 59.8565 109.678 59.6548C109.991 59.4531 110.343 59.3523 110.735 59.3523C110.809 59.3523 110.901 59.3537 111.012 59.3565C111.123 59.3594 111.207 59.3636 111.263 59.3693V60.392C111.229 60.3835 111.151 60.3707 111.029 60.3537C110.91 60.3338 110.783 60.3239 110.65 60.3239C110.332 60.3239 110.048 60.3906 109.798 60.5241C109.55 60.6548 109.354 60.8366 109.21 61.0696C109.067 61.2997 108.996 61.5625 108.996 61.858V66H107.991ZM114.915 66.1364C114.302 66.1364 113.773 65.9915 113.33 65.7017C112.887 65.4119 112.546 65.0128 112.308 64.5043C112.069 63.9957 111.95 63.4148 111.95 62.7614C111.95 62.0966 112.072 61.5099 112.316 61.0014C112.563 60.4901 112.907 60.0909 113.347 59.804C113.79 59.5142 114.308 59.3693 114.898 59.3693C115.359 59.3693 115.773 59.4545 116.143 59.625C116.512 59.7955 116.815 60.0341 117.05 60.3409C117.286 60.6477 117.433 61.0057 117.489 61.4148H116.484C116.407 61.1165 116.237 60.8523 115.972 60.6222C115.711 60.3892 115.359 60.2727 114.915 60.2727C114.523 60.2727 114.18 60.375 113.884 60.5795C113.592 60.7812 113.363 61.0668 113.198 61.4361C113.036 61.8026 112.955 62.233 112.955 62.7273C112.955 63.233 113.035 63.6733 113.194 64.0483C113.356 64.4233 113.583 64.7145 113.876 64.9219C114.171 65.1293 114.518 65.233 114.915 65.233C115.177 65.233 115.414 65.1875 115.627 65.0966C115.84 65.0057 116.021 64.875 116.168 64.7045C116.316 64.5341 116.421 64.3295 116.484 64.0909H117.489C117.433 64.4773 117.292 64.8253 117.067 65.1349C116.846 65.4418 116.552 65.6861 116.185 65.8679C115.822 66.0469 115.398 66.1364 114.915 66.1364ZM121.704 66.1364C121.073 66.1364 120.529 65.9972 120.072 65.7188C119.617 65.4375 119.266 65.0455 119.019 64.5426C118.775 64.0369 118.653 63.4489 118.653 62.7784C118.653 62.108 118.775 61.517 119.019 61.0057C119.266 60.4915 119.61 60.0909 120.05 59.804C120.494 59.5142 121.011 59.3693 121.602 59.3693C121.942 59.3693 122.279 59.4261 122.612 59.5398C122.944 59.6534 123.246 59.8381 123.519 60.0938C123.792 60.3466 124.009 60.6818 124.171 61.0994C124.333 61.517 124.414 62.0312 124.414 62.642V63.0682H119.369V62.1989H123.391C123.391 61.8295 123.317 61.5 123.17 61.2102C123.025 60.9205 122.817 60.6918 122.548 60.5241C122.281 60.3565 121.965 60.2727 121.602 60.2727C121.201 60.2727 120.854 60.3722 120.562 60.571C120.272 60.767 120.049 61.0227 119.893 61.3381C119.737 61.6534 119.658 61.9915 119.658 62.3523V62.9318C119.658 63.4261 119.744 63.8452 119.914 64.1889C120.087 64.5298 120.327 64.7898 120.634 64.9688C120.941 65.1449 121.298 65.233 121.704 65.233C121.968 65.233 122.207 65.196 122.42 65.1222C122.636 65.0455 122.822 64.9318 122.978 64.7812C123.134 64.6278 123.255 64.4375 123.34 64.2102L124.312 64.483C124.21 64.8125 124.038 65.1023 123.796 65.3523C123.555 65.5994 123.256 65.7926 122.901 65.9318C122.546 66.0682 122.147 66.1364 121.704 66.1364ZM126.95 62.0625V66H125.944V59.4545H126.915V60.4773H127.001C127.154 60.1449 127.387 59.8778 127.7 59.6761C128.012 59.4716 128.415 59.3693 128.91 59.3693C129.353 59.3693 129.741 59.4602 130.073 59.642C130.406 59.821 130.664 60.0938 130.849 60.4602C131.033 60.8239 131.126 61.2841 131.126 61.8409V66H130.12V61.9091C130.12 61.3949 129.987 60.9943 129.719 60.7074C129.452 60.4176 129.086 60.2727 128.62 60.2727C128.299 60.2727 128.012 60.3423 127.759 60.4815C127.509 60.6207 127.312 60.8239 127.167 61.0909C127.022 61.358 126.95 61.6818 126.95 62.0625ZM135.81 59.4545V60.3068H132.418V59.4545H135.81ZM133.407 57.8864H134.412V64.125C134.412 64.4091 134.453 64.6222 134.536 64.7642C134.621 64.9034 134.729 64.9972 134.86 65.0455C134.993 65.0909 135.134 65.1136 135.282 65.1136C135.392 65.1136 135.483 65.108 135.554 65.0966C135.625 65.0824 135.682 65.071 135.725 65.0625L135.929 65.9659C135.861 65.9915 135.766 66.017 135.644 66.0426C135.522 66.071 135.367 66.0852 135.179 66.0852C134.895 66.0852 134.617 66.0241 134.344 65.902C134.074 65.7798 133.85 65.5938 133.671 65.3438C133.495 65.0938 133.407 64.7784 133.407 64.3977V57.8864ZM139.249 66.1534C138.834 66.1534 138.458 66.0753 138.12 65.919C137.782 65.7599 137.513 65.5312 137.314 65.233C137.115 64.9318 137.016 64.5682 137.016 64.142C137.016 63.767 137.09 63.4631 137.238 63.2301C137.385 62.9943 137.583 62.8097 137.83 62.6761C138.077 62.5426 138.35 62.4432 138.648 62.3778C138.949 62.3097 139.252 62.2557 139.556 62.2159C139.953 62.1648 140.276 62.1264 140.523 62.1009C140.773 62.0724 140.955 62.0256 141.069 61.9602C141.185 61.8949 141.243 61.7812 141.243 61.6193V61.5852C141.243 61.1648 141.128 60.8381 140.898 60.6051C140.671 60.3722 140.326 60.2557 139.863 60.2557C139.382 60.2557 139.006 60.3608 138.733 60.571C138.461 60.7812 138.269 61.0057 138.158 61.2443L137.203 60.9034C137.374 60.5057 137.601 60.196 137.885 59.9744C138.172 59.75 138.485 59.5937 138.823 59.5057C139.164 59.4148 139.499 59.3693 139.828 59.3693C140.039 59.3693 140.28 59.3949 140.553 59.446C140.828 59.4943 141.094 59.5952 141.35 59.7486C141.608 59.902 141.823 60.1335 141.993 60.4432C142.164 60.7528 142.249 61.1676 142.249 61.6875V66H141.243V65.1136H141.192C141.124 65.2557 141.01 65.4077 140.851 65.5696C140.692 65.7315 140.48 65.8693 140.216 65.983C139.952 66.0966 139.63 66.1534 139.249 66.1534ZM139.402 65.25C139.8 65.25 140.135 65.1719 140.408 65.0156C140.684 64.8594 140.891 64.6577 141.03 64.4105C141.172 64.1634 141.243 63.9034 141.243 63.6307V62.7102C141.201 62.7614 141.107 62.8082 140.962 62.8509C140.82 62.8906 140.655 62.9261 140.468 62.9574C140.283 62.9858 140.103 63.0114 139.926 63.0341C139.753 63.054 139.613 63.071 139.505 63.0852C139.243 63.1193 138.999 63.1747 138.772 63.2514C138.547 63.3253 138.365 63.4375 138.226 63.5881C138.09 63.7358 138.022 63.9375 138.022 64.1932C138.022 64.5426 138.151 64.8068 138.409 64.9858C138.671 65.1619 139.002 65.25 139.402 65.25ZM146.727 68.5909C146.241 68.5909 145.823 68.5284 145.474 68.4034C145.124 68.2812 144.833 68.1193 144.6 67.9176C144.37 67.7188 144.187 67.5057 144.05 67.2784L144.852 66.7159C144.942 66.8352 145.058 66.9716 145.197 67.125C145.336 67.2812 145.526 67.4162 145.768 67.5298C146.012 67.6463 146.332 67.7045 146.727 67.7045C147.255 67.7045 147.691 67.5767 148.035 67.321C148.379 67.0653 148.55 66.6648 148.55 66.1193V64.7898H148.465C148.391 64.9091 148.286 65.0568 148.15 65.233C148.016 65.4062 147.823 65.5611 147.57 65.6974C147.32 65.831 146.982 65.8977 146.556 65.8977C146.028 65.8977 145.553 65.7727 145.133 65.5227C144.715 65.2727 144.384 64.9091 144.14 64.4318C143.898 63.9545 143.778 63.375 143.778 62.6932C143.778 62.0227 143.896 61.4389 144.131 60.9418C144.367 60.4418 144.695 60.0554 145.116 59.7827C145.536 59.5071 146.022 59.3693 146.573 59.3693C146.999 59.3693 147.337 59.4403 147.587 59.5824C147.84 59.7216 148.033 59.8807 148.167 60.0597C148.303 60.2358 148.408 60.3807 148.482 60.4943H148.585V59.4545H149.556V66.1875C149.556 66.75 149.428 67.2074 149.173 67.5597C148.92 67.9148 148.579 68.1747 148.15 68.3395C147.724 68.5071 147.249 68.5909 146.727 68.5909ZM146.692 64.9943C147.096 64.9943 147.437 64.902 147.715 64.7173C147.994 64.5327 148.205 64.267 148.35 63.9205C148.495 63.5739 148.567 63.1591 148.567 62.6761C148.567 62.2045 148.496 61.7884 148.354 61.4276C148.212 61.0668 148.002 60.7841 147.724 60.5795C147.445 60.375 147.102 60.2727 146.692 60.2727C146.266 60.2727 145.911 60.3807 145.627 60.5966C145.346 60.8125 145.134 61.1023 144.992 61.4659C144.853 61.8295 144.783 62.233 144.783 62.6761C144.783 63.1307 144.854 63.5327 144.996 63.8821C145.141 64.2287 145.354 64.5014 145.636 64.7003C145.92 64.8963 146.272 64.9943 146.692 64.9943ZM154.141 66.1364C153.511 66.1364 152.967 65.9972 152.509 65.7188C152.055 65.4375 151.704 65.0455 151.457 64.5426C151.212 64.0369 151.09 63.4489 151.09 62.7784C151.09 62.108 151.212 61.517 151.457 61.0057C151.704 60.4915 152.048 60.0909 152.488 59.804C152.931 59.5142 153.448 59.3693 154.039 59.3693C154.38 59.3693 154.717 59.4261 155.049 59.5398C155.381 59.6534 155.684 59.8381 155.957 60.0938C156.229 60.3466 156.447 60.6818 156.609 61.0994C156.771 61.517 156.852 62.0312 156.852 62.642V63.0682H151.806V62.1989H155.829C155.829 61.8295 155.755 61.5 155.607 61.2102C155.462 60.9205 155.255 60.6918 154.985 60.5241C154.718 60.3565 154.403 60.2727 154.039 60.2727C153.638 60.2727 153.292 60.3722 152.999 60.571C152.71 60.767 152.487 61.0227 152.33 61.3381C152.174 61.6534 152.096 61.9915 152.096 62.3523V62.9318C152.096 63.4261 152.181 63.8452 152.352 64.1889C152.525 64.5298 152.765 64.7898 153.072 64.9688C153.379 65.1449 153.735 65.233 154.141 65.233C154.406 65.233 154.644 65.196 154.857 65.1222C155.073 65.0455 155.259 64.9318 155.415 64.7812C155.572 64.6278 155.692 64.4375 155.778 64.2102L156.749 64.483C156.647 64.8125 156.475 65.1023 156.234 65.3523C155.992 65.5994 155.694 65.7926 155.339 65.9318C154.984 66.0682 154.585 66.1364 154.141 66.1364Z" fill="black" fill-opacity="0.4"/>
<path id="Text_3" d="M107.154 95.2386C106.018 95.2386 105.001 95.0256 104.103 94.5994C103.206 94.1676 102.493 93.5767 101.964 92.8267C101.441 92.0767 101.163 91.2187 101.129 90.2528H104.197C104.254 90.9687 104.564 91.554 105.126 92.0085C105.689 92.4574 106.365 92.6818 107.154 92.6818C107.774 92.6818 108.325 92.5398 108.808 92.2557C109.291 91.9716 109.672 91.5767 109.95 91.071C110.228 90.5653 110.365 89.9886 110.359 89.3409C110.365 88.6818 110.225 88.0966 109.941 87.5852C109.657 87.0739 109.268 86.6733 108.774 86.3835C108.279 86.0881 107.711 85.9403 107.069 85.9403C106.547 85.9347 106.032 86.0312 105.527 86.2301C105.021 86.429 104.62 86.6903 104.325 87.0142L101.47 86.5455L102.382 77.5455H112.507V80.1875H104.998L104.495 84.8153H104.598C104.922 84.4347 105.379 84.1193 105.97 83.8693C106.561 83.6136 107.208 83.4858 107.913 83.4858C108.97 83.4858 109.913 83.7358 110.743 84.2358C111.572 84.7301 112.225 85.4119 112.703 86.2812C113.18 87.1506 113.419 88.1449 113.419 89.2642C113.419 90.4176 113.152 91.446 112.618 92.3494C112.089 93.2472 111.353 93.9545 110.41 94.4716C109.473 94.983 108.387 95.2386 107.154 95.2386ZM122.478 95.2386C121.211 95.2386 120.086 95.0256 119.103 94.5994C118.126 94.1733 117.359 93.5909 116.802 92.8523C116.251 92.108 115.978 91.2642 115.984 90.321C115.978 89.5881 116.137 88.9148 116.461 88.3011C116.785 87.6875 117.223 87.1761 117.774 86.767C118.331 86.3523 118.95 86.0881 119.632 85.9744V85.8551C118.734 85.6562 118.007 85.1989 117.45 84.483C116.899 83.7614 116.626 82.929 116.632 81.9858C116.626 81.0881 116.876 80.2869 117.382 79.5824C117.887 78.8778 118.581 78.3239 119.461 77.9205C120.342 77.5114 121.348 77.3068 122.478 77.3068C123.598 77.3068 124.595 77.5114 125.47 77.9205C126.35 78.3239 127.044 78.8778 127.549 79.5824C128.061 80.2869 128.316 81.0881 128.316 81.9858C128.316 82.929 128.035 83.7614 127.473 84.483C126.916 85.1989 126.197 85.6562 125.316 85.8551V85.9744C125.998 86.0881 126.612 86.3523 127.157 86.767C127.708 87.1761 128.146 87.6875 128.47 88.3011C128.799 88.9148 128.964 89.5881 128.964 90.321C128.964 91.2642 128.686 92.108 128.129 92.8523C127.572 93.5909 126.805 94.1733 125.828 94.5994C124.856 95.0256 123.74 95.2386 122.478 95.2386ZM122.478 92.8011C123.132 92.8011 123.7 92.6903 124.183 92.4688C124.666 92.2415 125.041 91.9233 125.308 91.5142C125.575 91.1051 125.711 90.6335 125.717 90.0994C125.711 89.5426 125.566 89.0511 125.282 88.625C125.004 88.1932 124.62 87.8551 124.132 87.6108C123.649 87.3665 123.098 87.2443 122.478 87.2443C121.853 87.2443 121.297 87.3665 120.808 87.6108C120.319 87.8551 119.933 88.1932 119.649 88.625C119.37 89.0511 119.234 89.5426 119.24 90.0994C119.234 90.6335 119.365 91.1051 119.632 91.5142C119.899 91.9176 120.274 92.233 120.757 92.4602C121.245 92.6875 121.819 92.8011 122.478 92.8011ZM122.478 84.8494C123.012 84.8494 123.484 84.7415 123.893 84.5256C124.308 84.3097 124.635 84.0085 124.873 83.6222C125.112 83.2358 125.234 82.7898 125.24 82.2841C125.234 81.7841 125.115 81.3466 124.882 80.9716C124.649 80.5909 124.325 80.2983 123.91 80.0938C123.495 79.8835 123.018 79.7784 122.478 79.7784C121.927 79.7784 121.441 79.8835 121.021 80.0938C120.606 80.2983 120.282 80.5909 120.049 80.9716C119.822 81.3466 119.711 81.7841 119.717 82.2841C119.711 82.7898 119.825 83.2358 120.058 83.6222C120.297 84.0028 120.623 84.304 121.038 84.5256C121.458 84.7415 121.939 84.8494 122.478 84.8494ZM141.098 91.7273V90.8068C141.098 90.1307 141.24 89.5085 141.525 88.9403C141.814 88.3722 142.235 87.9148 142.786 87.5682C143.337 87.2216 144.005 87.0483 144.789 87.0483C145.596 87.0483 146.272 87.2216 146.817 87.5682C147.363 87.9091 147.775 88.3636 148.053 88.9318C148.337 89.5 148.479 90.125 148.479 90.8068V91.7273C148.479 92.4034 148.337 93.0256 148.053 93.5938C147.769 94.1619 147.351 94.6193 146.8 94.9659C146.255 95.3125 145.584 95.4858 144.789 95.4858C143.993 95.4858 143.32 95.3125 142.769 94.9659C142.218 94.6193 141.8 94.1619 141.516 93.5938C141.238 93.0256 141.098 92.4034 141.098 91.7273ZM143.323 90.8068V91.7273C143.323 92.1761 143.431 92.5881 143.647 92.9631C143.863 93.3381 144.243 93.5256 144.789 93.5256C145.34 93.5256 145.718 93.3409 145.922 92.9716C146.132 92.5966 146.238 92.1818 146.238 91.7273V90.8068C146.238 90.3523 146.138 89.9375 145.939 89.5625C145.74 89.1818 145.357 88.9915 144.789 88.9915C144.255 88.9915 143.877 89.1818 143.655 89.5625C143.434 89.9375 143.323 90.3523 143.323 90.8068ZM132.226 81.7386V80.8182C132.226 80.1364 132.371 79.5114 132.661 78.9432C132.951 78.375 133.371 77.9205 133.922 77.5795C134.473 77.233 135.141 77.0597 135.925 77.0597C136.726 77.0597 137.4 77.233 137.945 77.5795C138.496 77.9205 138.911 78.375 139.189 78.9432C139.468 79.5114 139.607 80.1364 139.607 80.8182V81.7386C139.607 82.4205 139.465 83.0455 139.181 83.6136C138.902 84.1761 138.488 84.6278 137.936 84.9688C137.385 85.3097 136.715 85.4801 135.925 85.4801C135.124 85.4801 134.448 85.3097 133.897 84.9688C133.351 84.6278 132.936 84.1733 132.652 83.6051C132.368 83.0369 132.226 82.4148 132.226 81.7386ZM134.468 80.8182V81.7386C134.468 82.1932 134.573 82.608 134.783 82.983C134.999 83.3523 135.38 83.5369 135.925 83.5369C136.471 83.5369 136.846 83.3523 137.05 82.983C137.26 82.608 137.365 82.1932 137.365 81.7386V80.8182C137.365 80.3636 137.266 79.9489 137.067 79.5739C136.868 79.1932 136.488 79.0028 135.925 79.0028C135.385 79.0028 135.007 79.1932 134.792 79.5739C134.576 79.9545 134.468 80.3693 134.468 80.8182ZM133.198 95L145.198 77.5455H147.328L135.328 95H133.198Z" fill="black"/>
</g>
</g>
</svg>
