<svg width="240" height="160" viewBox="0 0 240 160" fill="none" xmlns="http://www.w3.org/2000/svg">
<g id="Vertical 04">
<g id="VerticalBar 04">
<g id="Rectangle">
<path d="M6 92.8C6 88.3196 6 86.0794 6.87195 84.3681C7.63893 82.8628 8.86278 81.6389 10.3681 80.8719C12.0794 80 14.3196 80 18.8 80H21.2C25.6804 80 27.9206 80 29.6319 80.8719C31.1372 81.6389 32.3611 82.8628 33.1281 84.3681C34 86.0794 34 88.3196 34 92.8V100H6V92.8Z" fill="#B899EB"/>
<path d="M6 92.8C6 88.3196 6 86.0794 6.87195 84.3681C7.63893 82.8628 8.86278 81.6389 10.3681 80.8719C12.0794 80 14.3196 80 18.8 80H21.2C25.6804 80 27.9206 80 29.6319 80.8719C31.1372 81.6389 32.3611 82.8628 33.1281 84.3681C34 86.0794 34 88.3196 34 92.8V100H6V92.8Z" fill="#ADADFB" style="mix-blend-mode:overlay"/>
</g>
<rect id="Rectangle_2" x="6" y="100" width="28" height="20" fill="#ADADFB"/>
<g id="Rectangle_3">
<rect x="6" y="120" width="28" height="20" fill="black"/>
<rect x="6" y="120" width="28" height="20" fill="white" fill-opacity="0.1" style="mix-blend-mode:plus-darker"/>
</g>
<g id="Rectangle_4">
<path d="M6 140H34V147.2C34 151.68 34 153.921 33.1281 155.632C32.3611 157.137 31.1372 158.361 29.6319 159.128C27.9206 160 25.6804 160 21.2 160H18.8C14.3196 160 12.0794 160 10.3681 159.128C8.86278 158.361 7.63893 157.137 6.87195 155.632C6 153.921 6 151.68 6 147.2V140Z" fill="black"/>
<path d="M6 140H34V147.2C34 151.68 34 153.921 33.1281 155.632C32.3611 157.137 31.1372 158.361 29.6319 159.128C27.9206 160 25.6804 160 21.2 160H18.8C14.3196 160 12.0794 160 10.3681 159.128C8.86278 158.361 7.63893 157.137 6.87195 155.632C6 153.921 6 151.68 6 147.2V140Z" fill="white" fill-opacity="0.1" style="mix-blend-mode:plus-darker"/>
</g>
</g>
<g id="VerticalBar 04_2">
<g id="Rectangle_5">
<path d="M46 32.8C46 28.3196 46 26.0794 46.8719 24.3681C47.6389 22.8628 48.8628 21.6389 50.3681 20.8719C52.0794 20 54.3196 20 58.8 20H61.2C65.6804 20 67.9206 20 69.6319 20.8719C71.1372 21.6389 72.3611 22.8628 73.1281 24.3681C74 26.0794 74 28.3196 74 32.8V40H46V32.8Z" fill="#B899EB"/>
<path d="M46 32.8C46 28.3196 46 26.0794 46.8719 24.3681C47.6389 22.8628 48.8628 21.6389 50.3681 20.8719C52.0794 20 54.3196 20 58.8 20H61.2C65.6804 20 67.9206 20 69.6319 20.8719C71.1372 21.6389 72.3611 22.8628 73.1281 24.3681C74 26.0794 74 28.3196 74 32.8V40H46V32.8Z" fill="#ADADFB" style="mix-blend-mode:overlay"/>
</g>
<rect id="Rectangle_6" x="46" y="40" width="28" height="20" fill="#ADADFB"/>
<rect id="Rectangle_7" x="46" y="60" width="28" height="20" fill="#ADADFB"/>
<g id="Rectangle_8">
<rect x="46" y="80" width="28" height="20" fill="black"/>
<rect x="46" y="80" width="28" height="20" fill="white" fill-opacity="0.1" style="mix-blend-mode:plus-darker"/>
</g>
<g id="Rectangle_9">
<rect x="46" y="100" width="28" height="20" fill="black"/>
<rect x="46" y="100" width="28" height="20" fill="white" fill-opacity="0.1" style="mix-blend-mode:plus-darker"/>
</g>
<g id="Rectangle_10">
<rect x="46" y="120" width="28" height="20" fill="black"/>
<rect x="46" y="120" width="28" height="20" fill="white" fill-opacity="0.1" style="mix-blend-mode:plus-darker"/>
</g>
<g id="Rectangle_11">
<path d="M46 140H74V147.2C74 151.68 74 153.921 73.1281 155.632C72.3611 157.137 71.1372 158.361 69.6319 159.128C67.9206 160 65.6804 160 61.2 160H58.8C54.3196 160 52.0794 160 50.3681 159.128C48.8628 158.361 47.6389 157.137 46.8719 155.632C46 153.921 46 151.68 46 147.2V140Z" fill="black"/>
<path d="M46 140H74V147.2C74 151.68 74 153.921 73.1281 155.632C72.3611 157.137 71.1372 158.361 69.6319 159.128C67.9206 160 65.6804 160 61.2 160H58.8C54.3196 160 52.0794 160 50.3681 159.128C48.8628 158.361 47.6389 157.137 46.8719 155.632C46 153.921 46 151.68 46 147.2V140Z" fill="white" fill-opacity="0.1" style="mix-blend-mode:plus-darker"/>
</g>
</g>
<g id="VerticalBar 04_3">
<g id="Rectangle_12">
<path d="M86 72.8C86 68.3196 86 66.0794 86.8719 64.3681C87.6389 62.8628 88.8628 61.6389 90.3681 60.8719C92.0794 60 94.3196 60 98.8 60H101.2C105.68 60 107.921 60 109.632 60.8719C111.137 61.6389 112.361 62.8628 113.128 64.3681C114 66.0794 114 68.3196 114 72.8V80H86V72.8Z" fill="#B899EB"/>
<path d="M86 72.8C86 68.3196 86 66.0794 86.8719 64.3681C87.6389 62.8628 88.8628 61.6389 90.3681 60.8719C92.0794 60 94.3196 60 98.8 60H101.2C105.68 60 107.921 60 109.632 60.8719C111.137 61.6389 112.361 62.8628 113.128 64.3681C114 66.0794 114 68.3196 114 72.8V80H86V72.8Z" fill="#ADADFB" style="mix-blend-mode:overlay"/>
</g>
<rect id="Rectangle_13" x="86" y="80" width="28" height="20" fill="#ADADFB"/>
<rect id="Rectangle_14" x="86" y="100" width="28" height="20" fill="#ADADFB"/>
<g id="Rectangle_15">
<rect x="86" y="120" width="28" height="20" fill="black"/>
<rect x="86" y="120" width="28" height="20" fill="white" fill-opacity="0.1" style="mix-blend-mode:plus-darker"/>
</g>
<g id="Rectangle_16">
<path d="M86 140H114V147.2C114 151.68 114 153.921 113.128 155.632C112.361 157.137 111.137 158.361 109.632 159.128C107.921 160 105.68 160 101.2 160H98.8C94.3196 160 92.0794 160 90.3681 159.128C88.8628 158.361 87.6389 157.137 86.8719 155.632C86 153.921 86 151.68 86 147.2V140Z" fill="black"/>
<path d="M86 140H114V147.2C114 151.68 114 153.921 113.128 155.632C112.361 157.137 111.137 158.361 109.632 159.128C107.921 160 105.68 160 101.2 160H98.8C94.3196 160 92.0794 160 90.3681 159.128C88.8628 158.361 87.6389 157.137 86.8719 155.632C86 153.921 86 151.68 86 147.2V140Z" fill="white" fill-opacity="0.1" style="mix-blend-mode:plus-darker"/>
</g>
</g>
<g id="VerticalBar 04_4">
<g id="Rectangle_17">
<path d="M126 12.8C126 8.31958 126 6.07937 126.872 4.36808C127.639 2.86278 128.863 1.63893 130.368 0.871948C132.079 0 134.32 0 138.8 0H141.2C145.68 0 147.921 0 149.632 0.871948C151.137 1.63893 152.361 2.86278 153.128 4.36808C154 6.07937 154 8.31958 154 12.8V20H126V12.8Z" fill="#B899EB"/>
<path d="M126 12.8C126 8.31958 126 6.07937 126.872 4.36808C127.639 2.86278 128.863 1.63893 130.368 0.871948C132.079 0 134.32 0 138.8 0H141.2C145.68 0 147.921 0 149.632 0.871948C151.137 1.63893 152.361 2.86278 153.128 4.36808C154 6.07937 154 8.31958 154 12.8V20H126V12.8Z" fill="#ADADFB" style="mix-blend-mode:overlay"/>
</g>
<path id="Rectangle_18" d="M126 20H154V40H126V20Z" fill="#ADADFB"/>
<rect id="Rectangle_19" x="126" y="40" width="28" height="20" fill="#ADADFB"/>
<g id="Rectangle_20">
<rect x="126" y="60" width="28" height="20" fill="black"/>
<rect x="126" y="60" width="28" height="20" fill="white" fill-opacity="0.1" style="mix-blend-mode:plus-darker"/>
</g>
<g id="Rectangle_21">
<rect x="126" y="80" width="28" height="20" fill="black"/>
<rect x="126" y="80" width="28" height="20" fill="white" fill-opacity="0.1" style="mix-blend-mode:plus-darker"/>
</g>
<g id="Rectangle_22">
<rect x="126" y="100" width="28" height="20" fill="black"/>
<rect x="126" y="100" width="28" height="20" fill="white" fill-opacity="0.1" style="mix-blend-mode:plus-darker"/>
</g>
<g id="Rectangle_23">
<rect x="126" y="120" width="28" height="20" fill="black"/>
<rect x="126" y="120" width="28" height="20" fill="white" fill-opacity="0.1" style="mix-blend-mode:plus-darker"/>
</g>
<g id="Rectangle_24">
<path d="M126 140H154V147.2C154 151.68 154 153.921 153.128 155.632C152.361 157.137 151.137 158.361 149.632 159.128C147.921 160 145.68 160 141.2 160H138.8C134.32 160 132.079 160 130.368 159.128C128.863 158.361 127.639 157.137 126.872 155.632C126 153.921 126 151.68 126 147.2V140Z" fill="black"/>
<path d="M126 140H154V147.2C154 151.68 154 153.921 153.128 155.632C152.361 157.137 151.137 158.361 149.632 159.128C147.921 160 145.68 160 141.2 160H138.8C134.32 160 132.079 160 130.368 159.128C128.863 158.361 127.639 157.137 126.872 155.632C126 153.921 126 151.68 126 147.2V140Z" fill="white" fill-opacity="0.1" style="mix-blend-mode:plus-darker"/>
</g>
</g>
<g id="VerticalBar 04_5">
<g id="Rectangle_25">
<path d="M166 112.8C166 108.32 166 106.079 166.872 104.368C167.639 102.863 168.863 101.639 170.368 100.872C172.079 100 174.32 100 178.8 100H181.2C185.68 100 187.921 100 189.632 100.872C191.137 101.639 192.361 102.863 193.128 104.368C194 106.079 194 108.32 194 112.8V120H166V112.8Z" fill="#B899EB"/>
<path d="M166 112.8C166 108.32 166 106.079 166.872 104.368C167.639 102.863 168.863 101.639 170.368 100.872C172.079 100 174.32 100 178.8 100H181.2C185.68 100 187.921 100 189.632 100.872C191.137 101.639 192.361 102.863 193.128 104.368C194 106.079 194 108.32 194 112.8V120H166V112.8Z" fill="#ADADFB" style="mix-blend-mode:overlay"/>
</g>
<rect id="Rectangle_26" x="166" y="120" width="28" height="20" fill="#ADADFB"/>
<g id="Rectangle_27">
<path d="M166 140H194V147.2C194 151.68 194 153.921 193.128 155.632C192.361 157.137 191.137 158.361 189.632 159.128C187.921 160 185.68 160 181.2 160H178.8C174.32 160 172.079 160 170.368 159.128C168.863 158.361 167.639 157.137 166.872 155.632C166 153.921 166 151.68 166 147.2V140Z" fill="black"/>
<path d="M166 140H194V147.2C194 151.68 194 153.921 193.128 155.632C192.361 157.137 191.137 158.361 189.632 159.128C187.921 160 185.68 160 181.2 160H178.8C174.32 160 172.079 160 170.368 159.128C168.863 158.361 167.639 157.137 166.872 155.632C166 153.921 166 151.68 166 147.2V140Z" fill="white" fill-opacity="0.1" style="mix-blend-mode:plus-darker"/>
</g>
</g>
<g id="VerticalBar 04_6">
<g id="Rectangle_28">
<path d="M206 52.8C206 48.3196 206 46.0794 206.872 44.3681C207.639 42.8628 208.863 41.6389 210.368 40.8719C212.079 40 214.32 40 218.8 40H221.2C225.68 40 227.921 40 229.632 40.8719C231.137 41.6389 232.361 42.8628 233.128 44.3681C234 46.0794 234 48.3196 234 52.8V60H206V52.8Z" fill="#B899EB"/>
<path d="M206 52.8C206 48.3196 206 46.0794 206.872 44.3681C207.639 42.8628 208.863 41.6389 210.368 40.8719C212.079 40 214.32 40 218.8 40H221.2C225.68 40 227.921 40 229.632 40.8719C231.137 41.6389 232.361 42.8628 233.128 44.3681C234 46.0794 234 48.3196 234 52.8V60H206V52.8Z" fill="#ADADFB" style="mix-blend-mode:overlay"/>
</g>
<rect id="Rectangle_29" x="206" y="60" width="28" height="20" fill="#ADADFB"/>
<rect id="Rectangle_30" x="206" y="80" width="28" height="20" fill="#ADADFB"/>
<g id="Rectangle_31">
<rect x="206" y="100" width="28" height="20" fill="black"/>
<rect x="206" y="100" width="28" height="20" fill="white" fill-opacity="0.1" style="mix-blend-mode:plus-darker"/>
</g>
<g id="Rectangle_32">
<rect x="206" y="120" width="28" height="20" fill="black"/>
<rect x="206" y="120" width="28" height="20" fill="white" fill-opacity="0.1" style="mix-blend-mode:plus-darker"/>
</g>
<g id="Rectangle_33">
<path d="M206 140H234V147.2C234 151.68 234 153.921 233.128 155.632C232.361 157.137 231.137 158.361 229.632 159.128C227.921 160 225.68 160 221.2 160H218.8C214.32 160 212.079 160 210.368 159.128C208.863 158.361 207.639 157.137 206.872 155.632C206 153.921 206 151.68 206 147.2V140Z" fill="black"/>
<path d="M206 140H234V147.2C234 151.68 234 153.921 233.128 155.632C232.361 157.137 231.137 158.361 229.632 159.128C227.921 160 225.68 160 221.2 160H218.8C214.32 160 212.079 160 210.368 159.128C208.863 158.361 207.639 157.137 206.872 155.632C206 153.921 206 151.68 206 147.2V140Z" fill="white" fill-opacity="0.1" style="mix-blend-mode:plus-darker"/>
</g>
</g>
</g>
</svg>
