<svg width="240" height="160" viewBox="0 0 240 160" fill="none" xmlns="http://www.w3.org/2000/svg">
<g id="Vertical 06">
<g id="VerticalBar 06">
<rect id="Rectangle" x="6" y="82" width="28" height="8" rx="2" fill="black" fill-opacity="0.1"/>
<rect id="Rectangle_2" x="6" y="92" width="28" height="8" rx="2" fill="black" fill-opacity="0.2"/>
<rect id="Rectangle_3" x="6" y="102" width="28" height="20" rx="2" fill="black" fill-opacity="0.4"/>
<rect id="Rectangle_4" x="6" y="124" width="28" height="36" rx="2" fill="black"/>
</g>
<g id="VerticalBar 06_2">
<rect id="Rectangle_5" x="46" y="22" width="28" height="8" rx="2" fill="black" fill-opacity="0.1"/>
<rect id="Rectangle_6" x="46" y="32" width="28" height="8" rx="2" fill="black" fill-opacity="0.2"/>
<rect id="Rectangle_7" x="46" y="42" width="28" height="40" rx="2" fill="black" fill-opacity="0.4"/>
<rect id="Rectangle_8" x="46" y="84" width="28" height="76" rx="2" fill="black"/>
</g>
<g id="VerticalBar 06_3">
<rect id="Rectangle_9" x="86" y="62" width="28" height="8" rx="2" fill="black" fill-opacity="0.1"/>
<rect id="Rectangle_10" x="86" y="72" width="28" height="8" rx="2" fill="black" fill-opacity="0.2"/>
<rect id="Rectangle_11" x="86" y="82" width="28" height="30" rx="2" fill="black" fill-opacity="0.4"/>
<rect id="Rectangle_12" x="86" y="114" width="28" height="46" rx="2" fill="black"/>
</g>
<g id="VerticalBar 06_4">
<rect id="Rectangle_13" x="126" width="28" height="8" rx="2" fill="black" fill-opacity="0.1"/>
<rect id="Rectangle_14" x="126" y="10" width="28" height="8" rx="2" fill="black" fill-opacity="0.2"/>
<rect id="Rectangle_15" x="126" y="20" width="28" height="40" rx="2" fill="black" fill-opacity="0.4"/>
<rect id="Rectangle_16" x="126" y="62" width="28" height="98" rx="2" fill="black"/>
</g>
<g id="VerticalBar 06_5">
<rect id="Rectangle_17" x="166" y="102" width="28" height="8" rx="2" fill="black" fill-opacity="0.1"/>
<rect id="Rectangle_18" x="166" y="112" width="28" height="8" rx="2" fill="black" fill-opacity="0.2"/>
<rect id="Rectangle_19" x="166" y="122" width="28" height="10" rx="2" fill="black" fill-opacity="0.4"/>
<rect id="Rectangle_20" x="166" y="134" width="28" height="26" rx="2" fill="black"/>
</g>
<g id="VerticalBar 06_6">
<rect id="Rectangle_21" x="206" y="42" width="28" height="8" rx="2" fill="black" fill-opacity="0.1"/>
<rect id="Rectangle_22" x="206" y="52" width="28" height="8" rx="2" fill="black" fill-opacity="0.2"/>
<rect id="Rectangle_23" x="206" y="62" width="28" height="40" rx="2" fill="black" fill-opacity="0.4"/>
<rect id="Rectangle_24" x="206" y="104" width="28" height="56" rx="2" fill="black"/>
</g>
</g>
</svg>
