<svg width="1100" height="212" viewBox="0 0 1100 212" fill="none" xmlns="http://www.w3.org/2000/svg">
<g id="Vertical 09">
<g id="Strip">
<path id="Rectangle" d="M10.4585 96C10.4585 95.4477 10.9062 95 11.4585 95C12.0108 95 12.4585 95.4477 12.4585 96V109C12.4585 109.552 12.0108 110 11.4585 110C10.9062 110 10.4585 109.552 10.4585 109V96Z" fill="black"/>
<path id="Rectangle_2" d="M10.4585 113C10.4585 112.448 10.9062 112 11.4585 112C12.0108 112 12.4585 112.448 12.4585 113V128C12.4585 128.552 12.0108 129 11.4585 129C10.9062 129 10.4585 128.552 10.4585 128V113Z" fill="black" fill-opacity="0.4"/>
<path id="Rectangle_3" d="M10.4585 132C10.4585 131.448 10.9062 131 11.4585 131C12.0108 131 12.4585 131.448 12.4585 132V211C12.4585 211.552 12.0108 212 11.4585 212C10.9062 212 10.4585 211.552 10.4585 211V132Z" fill="#ADADFB"/>
</g>
<g id="Strip_2">
<path id="Rectangle_4" d="M33.375 81C33.375 80.4477 33.8227 80 34.375 80C34.9273 80 35.375 80.4477 35.375 81V97C35.375 97.5523 34.9273 98 34.375 98C33.8227 98 33.375 97.5523 33.375 97V81Z" fill="black"/>
<path id="Rectangle_5" d="M33.375 101C33.375 100.448 33.8227 100 34.375 100C34.9273 100 35.375 100.448 35.375 101V114C35.375 114.552 34.9273 115 34.375 115C33.8227 115 33.375 114.552 33.375 114V101Z" fill="black" fill-opacity="0.4"/>
<path id="Rectangle_6" d="M33.375 118C33.375 117.448 33.8227 117 34.375 117C34.9273 117 35.375 117.448 35.375 118V211C35.375 211.552 34.9273 212 34.375 212C33.8227 212 33.375 211.552 33.375 211V118Z" fill="#ADADFB"/>
</g>
<g id="Strip_3">
<path id="Rectangle_7" d="M56.292 76C56.292 75.4477 56.7397 75 57.292 75C57.8443 75 58.292 75.4477 58.292 76V96C58.292 96.5523 57.8443 97 57.292 97C56.7397 97 56.292 96.5523 56.292 96V76Z" fill="black"/>
<path id="Rectangle_8" d="M56.292 100C56.292 99.4477 56.7397 99 57.292 99C57.8443 99 58.292 99.4477 58.292 100V116C58.292 116.552 57.8443 117 57.292 117C56.7397 117 56.292 116.552 56.292 116V100Z" fill="black" fill-opacity="0.4"/>
<path id="Rectangle_9" d="M56.292 120C56.292 119.448 56.7397 119 57.292 119C57.8443 119 58.292 119.448 58.292 120V211C58.292 211.552 57.8443 212 57.292 212C56.7397 212 56.292 211.552 56.292 211V120Z" fill="#ADADFB"/>
</g>
<g id="Strip_4">
<path id="Rectangle_10" d="M79.2085 49C79.2085 48.4477 79.6562 48 80.2085 48C80.7608 48 81.2085 48.4477 81.2085 49V70C81.2085 70.5523 80.7608 71 80.2085 71C79.6562 71 79.2085 70.5523 79.2085 70V49Z" fill="black"/>
<path id="Rectangle_11" d="M79.2085 74C79.2085 73.4477 79.6562 73 80.2085 73C80.7608 73 81.2085 73.4477 81.2085 74V100C81.2085 100.552 80.7608 101 80.2085 101C79.6562 101 79.2085 100.552 79.2085 100V74Z" fill="black" fill-opacity="0.4"/>
<path id="Rectangle_12" d="M79.2085 104C79.2085 103.448 79.6562 103 80.2085 103C80.7608 103 81.2085 103.448 81.2085 104V211C81.2085 211.552 80.7608 212 80.2085 212C79.6562 212 79.2085 211.552 79.2085 211V104Z" fill="#ADADFB"/>
</g>
<g id="Strip_5">
<path id="Rectangle_13" d="M102.125 33C102.125 32.4477 102.573 32 103.125 32C103.677 32 104.125 32.4477 104.125 33V68C104.125 68.5523 103.677 69 103.125 69C102.573 69 102.125 68.5523 102.125 68V33Z" fill="black"/>
<path id="Rectangle_14" d="M102.125 72C102.125 71.4477 102.573 71 103.125 71C103.677 71 104.125 71.4477 104.125 72V113C104.125 113.552 103.677 114 103.125 114C102.573 114 102.125 113.552 102.125 113V72Z" fill="black" fill-opacity="0.4"/>
<path id="Rectangle_15" d="M102.125 117C102.125 116.448 102.573 116 103.125 116C103.677 116 104.125 116.448 104.125 117V211C104.125 211.552 103.677 212 103.125 212C102.573 212 102.125 211.552 102.125 211V117Z" fill="#ADADFB"/>
</g>
<g id="Strip_6">
<path id="Rectangle_16" d="M125.042 52C125.042 51.4477 125.49 51 126.042 51C126.594 51 127.042 51.4477 127.042 52V72C127.042 72.5523 126.594 73 126.042 73C125.49 73 125.042 72.5523 125.042 72V52Z" fill="black"/>
<path id="Rectangle_17" d="M125.042 76C125.042 75.4477 125.49 75 126.042 75C126.594 75 127.042 75.4477 127.042 76V96C127.042 96.5523 126.594 97 126.042 97C125.49 97 125.042 96.5523 125.042 96V76Z" fill="black" fill-opacity="0.4"/>
<path id="Rectangle_18" d="M125.042 100C125.042 99.4477 125.49 99 126.042 99C126.594 99 127.042 99.4477 127.042 100V211C127.042 211.552 126.594 212 126.042 212C125.49 212 125.042 211.552 125.042 211V100Z" fill="#ADADFB"/>
</g>
<g id="Strip_7">
<path id="Rectangle_19" d="M147.958 72C147.958 71.4477 148.406 71 148.958 71C149.511 71 149.958 71.4477 149.958 72V89C149.958 89.5523 149.511 90 148.958 90C148.406 90 147.958 89.5523 147.958 89V72Z" fill="black"/>
<path id="Rectangle_20" d="M147.958 93C147.958 92.4477 148.406 92 148.958 92C149.511 92 149.958 92.4477 149.958 93V104C149.958 104.552 149.511 105 148.958 105C148.406 105 147.958 104.552 147.958 104V93Z" fill="black" fill-opacity="0.4"/>
<path id="Rectangle_21" d="M147.958 108C147.958 107.448 148.406 107 148.958 107C149.511 107 149.958 107.448 149.958 108V211C149.958 211.552 149.511 212 148.958 212C148.406 212 147.958 211.552 147.958 211V108Z" fill="#ADADFB"/>
</g>
<g id="Strip_8">
<path id="Rectangle_22" d="M170.875 60C170.875 59.4477 171.323 59 171.875 59C172.427 59 172.875 59.4477 172.875 60V77C172.875 77.5523 172.427 78 171.875 78C171.323 78 170.875 77.5523 170.875 77V60Z" fill="black"/>
<path id="Rectangle_23" d="M170.875 81C170.875 80.4477 171.323 80 171.875 80C172.427 80 172.875 80.4477 172.875 81V111C172.875 111.552 172.427 112 171.875 112C171.323 112 170.875 111.552 170.875 111V81Z" fill="black" fill-opacity="0.4"/>
<path id="Rectangle_24" d="M170.875 115C170.875 114.448 171.323 114 171.875 114C172.427 114 172.875 114.448 172.875 115V211C172.875 211.552 172.427 212 171.875 212C171.323 212 170.875 211.552 170.875 211V115Z" fill="#ADADFB"/>
</g>
<g id="Strip_9">
<path id="Rectangle_25" d="M193.792 89C193.792 88.4477 194.24 88 194.792 88C195.344 88 195.792 88.4477 195.792 89V112C195.792 112.552 195.344 113 194.792 113C194.24 113 193.792 112.552 193.792 112V89Z" fill="black"/>
<path id="Rectangle_26" d="M193.792 116C193.792 115.448 194.24 115 194.792 115C195.344 115 195.792 115.448 195.792 116V135C195.792 135.552 195.344 136 194.792 136C194.24 136 193.792 135.552 193.792 135V116Z" fill="black" fill-opacity="0.4"/>
<path id="Rectangle_27" d="M193.792 139C193.792 138.448 194.24 138 194.792 138C195.344 138 195.792 138.448 195.792 139V211C195.792 211.552 195.344 212 194.792 212C194.24 212 193.792 211.552 193.792 211V139Z" fill="#ADADFB"/>
</g>
<g id="Strip_10">
<path id="Rectangle_28" d="M216.708 72C216.708 71.4477 217.156 71 217.708 71C218.261 71 218.708 71.4477 218.708 72V92C218.708 92.5523 218.261 93 217.708 93C217.156 93 216.708 92.5523 216.708 92V72Z" fill="black"/>
<path id="Rectangle_29" d="M216.708 96C216.708 95.4477 217.156 95 217.708 95C218.261 95 218.708 95.4477 218.708 96V112C218.708 112.552 218.261 113 217.708 113C217.156 113 216.708 112.552 216.708 112V96Z" fill="black" fill-opacity="0.4"/>
<path id="Rectangle_30" d="M216.708 116C216.708 115.448 217.156 115 217.708 115C218.261 115 218.708 115.448 218.708 116V211C218.708 211.552 218.261 212 217.708 212C217.156 212 216.708 211.552 216.708 211V116Z" fill="#ADADFB"/>
</g>
<g id="Strip_11">
<path id="Rectangle_31" d="M239.625 82C239.625 81.4477 240.073 81 240.625 81C241.177 81 241.625 81.4477 241.625 82V101C241.625 101.552 241.177 102 240.625 102C240.073 102 239.625 101.552 239.625 101V82Z" fill="black"/>
<path id="Rectangle_32" d="M239.625 105C239.625 104.448 240.073 104 240.625 104C241.177 104 241.625 104.448 241.625 105V123C241.625 123.552 241.177 124 240.625 124C240.073 124 239.625 123.552 239.625 123V105Z" fill="black" fill-opacity="0.4"/>
<path id="Rectangle_33" d="M239.625 127C239.625 126.448 240.073 126 240.625 126C241.177 126 241.625 126.448 241.625 127V211C241.625 211.552 241.177 212 240.625 212C240.073 212 239.625 211.552 239.625 211V127Z" fill="#ADADFB"/>
</g>
<g id="Strip_12">
<path id="Rectangle_34" d="M262.542 68C262.542 67.4477 262.99 67 263.542 67C264.094 67 264.542 67.4477 264.542 68V96C264.542 96.5523 264.094 97 263.542 97C262.99 97 262.542 96.5523 262.542 96V68Z" fill="black"/>
<path id="Rectangle_35" d="M262.542 100C262.542 99.4477 262.99 99 263.542 99C264.094 99 264.542 99.4477 264.542 100V139C264.542 139.552 264.094 140 263.542 140C262.99 140 262.542 139.552 262.542 139V100Z" fill="black" fill-opacity="0.4"/>
<path id="Rectangle_36" d="M262.542 143C262.542 142.448 262.99 142 263.542 142C264.094 142 264.542 142.448 264.542 143V211C264.542 211.552 264.094 212 263.542 212C262.99 212 262.542 211.552 262.542 211V143Z" fill="#ADADFB"/>
</g>
<g id="Strip_13">
<path id="Rectangle_37" d="M285.458 66C285.458 65.4477 285.906 65 286.458 65C287.011 65 287.458 65.4477 287.458 66V85C287.458 85.5523 287.011 86 286.458 86C285.906 86 285.458 85.5523 285.458 85V66Z" fill="black"/>
<path id="Rectangle_38" d="M285.458 89C285.458 88.4477 285.906 88 286.458 88C287.011 88 287.458 88.4477 287.458 89V113C287.458 113.552 287.011 114 286.458 114C285.906 114 285.458 113.552 285.458 113V89Z" fill="black" fill-opacity="0.4"/>
<path id="Rectangle_39" d="M285.458 117C285.458 116.448 285.906 116 286.458 116C287.011 116 287.458 116.448 287.458 117V211C287.458 211.552 287.011 212 286.458 212C285.906 212 285.458 211.552 285.458 211V117Z" fill="#ADADFB"/>
</g>
<g id="Strip_14">
<path id="Rectangle_40" d="M308.375 36C308.375 35.4477 308.823 35 309.375 35C309.927 35 310.375 35.4477 310.375 36V67C310.375 67.5523 309.927 68 309.375 68C308.823 68 308.375 67.5523 308.375 67V36Z" fill="black"/>
<path id="Rectangle_41" d="M308.375 71C308.375 70.4477 308.823 70 309.375 70C309.927 70 310.375 70.4477 310.375 71V104C310.375 104.552 309.927 105 309.375 105C308.823 105 308.375 104.552 308.375 104V71Z" fill="black" fill-opacity="0.4"/>
<path id="Rectangle_42" d="M308.375 108C308.375 107.448 308.823 107 309.375 107C309.927 107 310.375 107.448 310.375 108V211C310.375 211.552 309.927 212 309.375 212C308.823 212 308.375 211.552 308.375 211V108Z" fill="#ADADFB"/>
</g>
<g id="Strip_15">
<path id="Rectangle_43" d="M331.292 64C331.292 63.4477 331.74 63 332.292 63C332.844 63 333.292 63.4477 333.292 64V86C333.292 86.5523 332.844 87 332.292 87C331.74 87 331.292 86.5523 331.292 86V64Z" fill="black"/>
<path id="Rectangle_44" d="M331.292 90C331.292 89.4477 331.74 89 332.292 89C332.844 89 333.292 89.4477 333.292 90V116C333.292 116.552 332.844 117 332.292 117C331.74 117 331.292 116.552 331.292 116V90Z" fill="black" fill-opacity="0.4"/>
<path id="Rectangle_45" d="M331.292 120C331.292 119.448 331.74 119 332.292 119C332.844 119 333.292 119.448 333.292 120V211C333.292 211.552 332.844 212 332.292 212C331.74 212 331.292 211.552 331.292 211V120Z" fill="#ADADFB"/>
</g>
<g id="Strip_16">
<path id="Rectangle_46" d="M354.208 52C354.208 51.4477 354.656 51 355.208 51C355.761 51 356.208 51.4477 356.208 52V72C356.208 72.5523 355.761 73 355.208 73C354.656 73 354.208 72.5523 354.208 72V52Z" fill="black"/>
<path id="Rectangle_47" d="M354.208 76C354.208 75.4477 354.656 75 355.208 75C355.761 75 356.208 75.4477 356.208 76V93C356.208 93.5523 355.761 94 355.208 94C354.656 94 354.208 93.5523 354.208 93V76Z" fill="black" fill-opacity="0.4"/>
<path id="Rectangle_48" d="M354.208 97C354.208 96.4477 354.656 96 355.208 96C355.761 96 356.208 96.4477 356.208 97V211C356.208 211.552 355.761 212 355.208 212C354.656 212 354.208 211.552 354.208 211V97Z" fill="#ADADFB"/>
</g>
<g id="Strip_17">
<path id="Rectangle_49" d="M377.125 36C377.125 35.4477 377.573 35 378.125 35C378.677 35 379.125 35.4477 379.125 36V59C379.125 59.5523 378.677 60 378.125 60C377.573 60 377.125 59.5523 377.125 59V36Z" fill="black"/>
<path id="Rectangle_50" d="M377.125 63C377.125 62.4477 377.573 62 378.125 62C378.677 62 379.125 62.4477 379.125 63V92C379.125 92.5523 378.677 93 378.125 93C377.573 93 377.125 92.5523 377.125 92V63Z" fill="black" fill-opacity="0.4"/>
<path id="Rectangle_51" d="M377.125 96C377.125 95.4477 377.573 95 378.125 95C378.677 95 379.125 95.4477 379.125 96V211C379.125 211.552 378.677 212 378.125 212C377.573 212 377.125 211.552 377.125 211V96Z" fill="#ADADFB"/>
</g>
<g id="Strip_18">
<path id="Rectangle_52" d="M400.042 49C400.042 48.4477 400.49 48 401.042 48C401.594 48 402.042 48.4477 402.042 49V79C402.042 79.5523 401.594 80 401.042 80C400.49 80 400.042 79.5523 400.042 79V49Z" fill="black"/>
<path id="Rectangle_53" d="M400.042 83C400.042 82.4477 400.49 82 401.042 82C401.594 82 402.042 82.4477 402.042 83V115C402.042 115.552 401.594 116 401.042 116C400.49 116 400.042 115.552 400.042 115V83Z" fill="black" fill-opacity="0.4"/>
<path id="Rectangle_54" d="M400.042 119C400.042 118.448 400.49 118 401.042 118C401.594 118 402.042 118.448 402.042 119V211C402.042 211.552 401.594 212 401.042 212C400.49 212 400.042 211.552 400.042 211V119Z" fill="#ADADFB"/>
</g>
<g id="Strip_19">
<path id="Rectangle_55" d="M422.958 1C422.958 0.447716 423.406 0 423.958 0C424.511 0 424.958 0.447715 424.958 1V24C424.958 24.5523 424.511 25 423.958 25C423.406 25 422.958 24.5523 422.958 24V1Z" fill="black"/>
<path id="Rectangle_56" d="M422.958 28C422.958 27.4477 423.406 27 423.958 27C424.511 27 424.958 27.4477 424.958 28V64C424.958 64.5523 424.511 65 423.958 65C423.406 65 422.958 64.5523 422.958 64V28Z" fill="black" fill-opacity="0.4"/>
<path id="Rectangle_57" d="M422.958 68C422.958 67.4477 423.406 67 423.958 67C424.511 67 424.958 67.4477 424.958 68V211C424.958 211.552 424.511 212 423.958 212C423.406 212 422.958 211.552 422.958 211V68Z" fill="#ADADFB"/>
</g>
<g id="Strip_20">
<path id="Rectangle_58" d="M445.875 24C445.875 23.4477 446.323 23 446.875 23C447.427 23 447.875 23.4477 447.875 24V49C447.875 49.5523 447.427 50 446.875 50C446.323 50 445.875 49.5523 445.875 49V24Z" fill="black"/>
<path id="Rectangle_59" d="M445.875 53C445.875 52.4477 446.323 52 446.875 52C447.427 52 447.875 52.4477 447.875 53V96C447.875 96.5523 447.427 97 446.875 97C446.323 97 445.875 96.5523 445.875 96V53Z" fill="black" fill-opacity="0.4"/>
<path id="Rectangle_60" d="M445.875 100C445.875 99.4477 446.323 99 446.875 99C447.427 99 447.875 99.4477 447.875 100V211C447.875 211.552 447.427 212 446.875 212C446.323 212 445.875 211.552 445.875 211V100Z" fill="#ADADFB"/>
</g>
<g id="Strip_21">
<path id="Rectangle_61" d="M468.792 36C468.792 35.4477 469.24 35 469.792 35C470.344 35 470.792 35.4477 470.792 36V55C470.792 55.5523 470.344 56 469.792 56C469.24 56 468.792 55.5523 468.792 55V36Z" fill="black"/>
<path id="Rectangle_62" d="M468.792 59C468.792 58.4477 469.24 58 469.792 58C470.344 58 470.792 58.4477 470.792 59V100C470.792 100.552 470.344 101 469.792 101C469.24 101 468.792 100.552 468.792 100V59Z" fill="black" fill-opacity="0.4"/>
<path id="Rectangle_63" d="M468.792 104C468.792 103.448 469.24 103 469.792 103C470.344 103 470.792 103.448 470.792 104V211C470.792 211.552 470.344 212 469.792 212C469.24 212 468.792 211.552 468.792 211V104Z" fill="#ADADFB"/>
</g>
<g id="Strip_22">
<path id="Rectangle_64" d="M491.708 16C491.708 15.4477 492.156 15 492.708 15C493.261 15 493.708 15.4477 493.708 16V36C493.708 36.5523 493.261 37 492.708 37C492.156 37 491.708 36.5523 491.708 36V16Z" fill="black"/>
<path id="Rectangle_65" d="M491.708 40C491.708 39.4477 492.156 39 492.708 39C493.261 39 493.708 39.4477 493.708 40V85C493.708 85.5523 493.261 86 492.708 86C492.156 86 491.708 85.5523 491.708 85V40Z" fill="black" fill-opacity="0.4"/>
<path id="Rectangle_66" d="M491.708 89C491.708 88.4477 492.156 88 492.708 88C493.261 88 493.708 88.4477 493.708 89V211C493.708 211.552 493.261 212 492.708 212C492.156 212 491.708 211.552 491.708 211V89Z" fill="#ADADFB"/>
</g>
<g id="Strip_23">
<path id="Rectangle_67" d="M514.625 51C514.625 50.4477 515.073 50 515.625 50C516.177 50 516.625 50.4477 516.625 51V79C516.625 79.5523 516.177 80 515.625 80C515.073 80 514.625 79.5523 514.625 79V51Z" fill="black"/>
<path id="Rectangle_68" d="M514.625 83C514.625 82.4477 515.073 82 515.625 82C516.177 82 516.625 82.4477 516.625 83V111C516.625 111.552 516.177 112 515.625 112C515.073 112 514.625 111.552 514.625 111V83Z" fill="black" fill-opacity="0.4"/>
<path id="Rectangle_69" d="M514.625 115C514.625 114.448 515.073 114 515.625 114C516.177 114 516.625 114.448 516.625 115V211C516.625 211.552 516.177 212 515.625 212C515.073 212 514.625 211.552 514.625 211V115Z" fill="#ADADFB"/>
</g>
<g id="Strip_24">
<path id="Rectangle_70" d="M537.542 83C537.542 82.4477 537.989 82 538.542 82C539.094 82 539.542 82.4477 539.542 83V105C539.542 105.552 539.094 106 538.542 106C537.989 106 537.542 105.552 537.542 105V83Z" fill="black"/>
<path id="Rectangle_71" d="M537.542 109C537.542 108.448 537.989 108 538.542 108C539.094 108 539.542 108.448 539.542 109V133C539.542 133.552 539.094 134 538.542 134C537.989 134 537.542 133.552 537.542 133V109Z" fill="black" fill-opacity="0.4"/>
<path id="Rectangle_72" d="M537.542 137C537.542 136.448 537.989 136 538.542 136C539.094 136 539.542 136.448 539.542 137V211C539.542 211.552 539.094 212 538.542 212C537.989 212 537.542 211.552 537.542 211V137Z" fill="#ADADFB"/>
</g>
<g id="Strip_25">
<path id="Rectangle_73" d="M560.458 51C560.458 50.4477 560.906 50 561.458 50C562.011 50 562.458 50.4477 562.458 51V78C562.458 78.5523 562.011 79 561.458 79C560.906 79 560.458 78.5523 560.458 78V51Z" fill="black"/>
<path id="Rectangle_74" d="M560.458 82C560.458 81.4477 560.906 81 561.458 81C562.011 81 562.458 81.4477 562.458 82V100C562.458 100.552 562.011 101 561.458 101C560.906 101 560.458 100.552 560.458 100V82Z" fill="black" fill-opacity="0.4"/>
<path id="Rectangle_75" d="M560.458 104C560.458 103.448 560.906 103 561.458 103C562.011 103 562.458 103.448 562.458 104V211C562.458 211.552 562.011 212 561.458 212C560.906 212 560.458 211.552 560.458 211V104Z" fill="#ADADFB"/>
</g>
<g id="Strip_26">
<path id="Rectangle_76" d="M583.375 68C583.375 67.4477 583.823 67 584.375 67C584.927 67 585.375 67.4477 585.375 68V102C585.375 102.552 584.927 103 584.375 103C583.823 103 583.375 102.552 583.375 102V68Z" fill="black"/>
<path id="Rectangle_77" d="M583.375 106C583.375 105.448 583.823 105 584.375 105C584.927 105 585.375 105.448 585.375 106V128C585.375 128.552 584.927 129 584.375 129C583.823 129 583.375 128.552 583.375 128V106Z" fill="black" fill-opacity="0.4"/>
<path id="Rectangle_78" d="M583.375 132C583.375 131.448 583.823 131 584.375 131C584.927 131 585.375 131.448 585.375 132V211C585.375 211.552 584.927 212 584.375 212C583.823 212 583.375 211.552 583.375 211V132Z" fill="#ADADFB"/>
</g>
<g id="Strip_27">
<path id="Rectangle_79" d="M606.292 61C606.292 60.4477 606.739 60 607.292 60C607.844 60 608.292 60.4477 608.292 61V76C608.292 76.5523 607.844 77 607.292 77C606.739 77 606.292 76.5523 606.292 76V61Z" fill="black"/>
<path id="Rectangle_80" d="M606.292 80C606.292 79.4477 606.739 79 607.292 79C607.844 79 608.292 79.4477 608.292 80V123C608.292 123.552 607.844 124 607.292 124C606.739 124 606.292 123.552 606.292 123V80Z" fill="black" fill-opacity="0.4"/>
<path id="Rectangle_81" d="M606.292 127C606.292 126.448 606.739 126 607.292 126C607.844 126 608.292 126.448 608.292 127V211C608.292 211.552 607.844 212 607.292 212C606.739 212 606.292 211.552 606.292 211V127Z" fill="#ADADFB"/>
</g>
<g id="Strip_28">
<path id="Rectangle_82" d="M629.208 51C629.208 50.4477 629.656 50 630.208 50C630.761 50 631.208 50.4477 631.208 51V62C631.208 62.5523 630.761 63 630.208 63C629.656 63 629.208 62.5523 629.208 62V51Z" fill="black"/>
<path id="Rectangle_83" d="M629.208 66C629.208 65.4477 629.656 65 630.208 65C630.761 65 631.208 65.4477 631.208 66V107C631.208 107.552 630.761 108 630.208 108C629.656 108 629.208 107.552 629.208 107V66Z" fill="black" fill-opacity="0.4"/>
<path id="Rectangle_84" d="M629.208 111C629.208 110.448 629.656 110 630.208 110C630.761 110 631.208 110.448 631.208 111V211C631.208 211.552 630.761 212 630.208 212C629.656 212 629.208 211.552 629.208 211V111Z" fill="#ADADFB"/>
</g>
<g id="Strip_29">
<path id="Rectangle_85" d="M652.125 39C652.125 38.4477 652.573 38 653.125 38C653.677 38 654.125 38.4477 654.125 39V62C654.125 62.5523 653.677 63 653.125 63C652.573 63 652.125 62.5523 652.125 62V39Z" fill="black"/>
<path id="Rectangle_86" d="M652.125 66C652.125 65.4477 652.573 65 653.125 65C653.677 65 654.125 65.4477 654.125 66V106C654.125 106.552 653.677 107 653.125 107C652.573 107 652.125 106.552 652.125 106V66Z" fill="black" fill-opacity="0.4"/>
<path id="Rectangle_87" d="M652.125 110C652.125 109.448 652.573 109 653.125 109C653.677 109 654.125 109.448 654.125 110V211C654.125 211.552 653.677 212 653.125 212C652.573 212 652.125 211.552 652.125 211V110Z" fill="#ADADFB"/>
</g>
<g id="Strip_30">
<path id="Rectangle_88" d="M675.042 39C675.042 38.4477 675.489 38 676.042 38C676.594 38 677.042 38.4477 677.042 39V58C677.042 58.5523 676.594 59 676.042 59C675.489 59 675.042 58.5523 675.042 58V39Z" fill="black"/>
<path id="Rectangle_89" d="M675.042 62C675.042 61.4477 675.489 61 676.042 61C676.594 61 677.042 61.4477 677.042 62V101C677.042 101.552 676.594 102 676.042 102C675.489 102 675.042 101.552 675.042 101V62Z" fill="black" fill-opacity="0.4"/>
<path id="Rectangle_90" d="M675.042 105C675.042 104.448 675.489 104 676.042 104C676.594 104 677.042 104.448 677.042 105V211C677.042 211.552 676.594 212 676.042 212C675.489 212 675.042 211.552 675.042 211V105Z" fill="#ADADFB"/>
</g>
<g id="Strip_31">
<path id="Rectangle_91" d="M697.958 54C697.958 53.4477 698.406 53 698.958 53C699.511 53 699.958 53.4477 699.958 54V77C699.958 77.5523 699.511 78 698.958 78C698.406 78 697.958 77.5523 697.958 77V54Z" fill="black"/>
<path id="Rectangle_92" d="M697.958 81C697.958 80.4477 698.406 80 698.958 80C699.511 80 699.958 80.4477 699.958 81V105C699.958 105.552 699.511 106 698.958 106C698.406 106 697.958 105.552 697.958 105V81Z" fill="black" fill-opacity="0.4"/>
<path id="Rectangle_93" d="M697.958 109C697.958 108.448 698.406 108 698.958 108C699.511 108 699.958 108.448 699.958 109V211C699.958 211.552 699.511 212 698.958 212C698.406 212 697.958 211.552 697.958 211V109Z" fill="#ADADFB"/>
</g>
<g id="Strip_32">
<path id="Rectangle_94" d="M720.875 33C720.875 32.4477 721.323 32 721.875 32C722.427 32 722.875 32.4477 722.875 33V55C722.875 55.5523 722.427 56 721.875 56C721.323 56 720.875 55.5523 720.875 55V33Z" fill="black"/>
<path id="Rectangle_95" d="M720.875 59C720.875 58.4477 721.323 58 721.875 58C722.427 58 722.875 58.4477 722.875 59V105C722.875 105.552 722.427 106 721.875 106C721.323 106 720.875 105.552 720.875 105V59Z" fill="black" fill-opacity="0.4"/>
<path id="Rectangle_96" d="M720.875 109C720.875 108.448 721.323 108 721.875 108C722.427 108 722.875 108.448 722.875 109V211C722.875 211.552 722.427 212 721.875 212C721.323 212 720.875 211.552 720.875 211V109Z" fill="#ADADFB"/>
</g>
<g id="Strip_33">
<path id="Rectangle_97" d="M743.792 16C743.792 15.4477 744.24 15 744.792 15C745.344 15 745.792 15.4477 745.792 16V50C745.792 50.5523 745.344 51 744.792 51C744.24 51 743.792 50.5523 743.792 50V16Z" fill="black"/>
<path id="Rectangle_98" d="M743.792 54C743.792 53.4477 744.24 53 744.792 53C745.344 53 745.792 53.4477 745.792 54V90C745.792 90.5523 745.344 91 744.792 91C744.24 91 743.792 90.5523 743.792 90V54Z" fill="black" fill-opacity="0.4"/>
<path id="Rectangle_99" d="M743.792 94C743.792 93.4477 744.24 93 744.792 93C745.344 93 745.792 93.4477 745.792 94V211C745.792 211.552 745.344 212 744.792 212C744.24 212 743.792 211.552 743.792 211V94Z" fill="#ADADFB"/>
</g>
<g id="Strip_34">
<path id="Rectangle_100" d="M766.708 16C766.708 15.4477 767.156 15 767.708 15C768.261 15 768.708 15.4477 768.708 16V31C768.708 31.5523 768.261 32 767.708 32C767.156 32 766.708 31.5523 766.708 31V16Z" fill="black"/>
<path id="Rectangle_101" d="M766.708 35C766.708 34.4477 767.156 34 767.708 34C768.261 34 768.708 34.4477 768.708 35V78C768.708 78.5523 768.261 79 767.708 79C767.156 79 766.708 78.5523 766.708 78V35Z" fill="black" fill-opacity="0.4"/>
<path id="Rectangle_102" d="M766.708 82C766.708 81.4477 767.156 81 767.708 81C768.261 81 768.708 81.4477 768.708 82V211C768.708 211.552 768.261 212 767.708 212C767.156 212 766.708 211.552 766.708 211V82Z" fill="#ADADFB"/>
</g>
<g id="Strip_35">
<path id="Rectangle_103" d="M789.625 36C789.625 35.4477 790.073 35 790.625 35C791.177 35 791.625 35.4477 791.625 36V54C791.625 54.5523 791.177 55 790.625 55C790.073 55 789.625 54.5523 789.625 54V36Z" fill="black"/>
<path id="Rectangle_104" d="M789.625 58C789.625 57.4477 790.073 57 790.625 57C791.177 57 791.625 57.4477 791.625 58V99C791.625 99.5523 791.177 100 790.625 100C790.073 100 789.625 99.5523 789.625 99V58Z" fill="black" fill-opacity="0.4"/>
<path id="Rectangle_105" d="M789.625 103C789.625 102.448 790.073 102 790.625 102C791.177 102 791.625 102.448 791.625 103V211C791.625 211.552 791.177 212 790.625 212C790.073 212 789.625 211.552 789.625 211V103Z" fill="#ADADFB"/>
</g>
<g id="Strip_36">
<path id="Rectangle_106" d="M812.542 46C812.542 45.4477 812.99 45 813.542 45C814.094 45 814.542 45.4477 814.542 46V67C814.542 67.5523 814.094 68 813.542 68C812.99 68 812.542 67.5523 812.542 67V46Z" fill="black"/>
<path id="Rectangle_107" d="M812.542 71C812.542 70.4477 812.99 70 813.542 70C814.094 70 814.542 70.4477 814.542 71V107C814.542 107.552 814.094 108 813.542 108C812.99 108 812.542 107.552 812.542 107V71Z" fill="black" fill-opacity="0.4"/>
<path id="Rectangle_108" d="M812.542 111C812.542 110.448 812.99 110 813.542 110C814.094 110 814.542 110.448 814.542 111V211C814.542 211.552 814.094 212 813.542 212C812.99 212 812.542 211.552 812.542 211V111Z" fill="#ADADFB"/>
</g>
<g id="Strip_37">
<path id="Rectangle_109" d="M835.458 68C835.458 67.4477 835.906 67 836.458 67C837.011 67 837.458 67.4477 837.458 68V94C837.458 94.5523 837.011 95 836.458 95C835.906 95 835.458 94.5523 835.458 94V68Z" fill="black"/>
<path id="Rectangle_110" d="M835.458 98C835.458 97.4477 835.906 97 836.458 97C837.011 97 837.458 97.4477 837.458 98V112C837.458 112.552 837.011 113 836.458 113C835.906 113 835.458 112.552 835.458 112V98Z" fill="black" fill-opacity="0.4"/>
<path id="Rectangle_111" d="M835.458 116C835.458 115.448 835.906 115 836.458 115C837.011 115 837.458 115.448 837.458 116V211C837.458 211.552 837.011 212 836.458 212C835.906 212 835.458 211.552 835.458 211V116Z" fill="#ADADFB"/>
</g>
<g id="Strip_38">
<path id="Rectangle_112" d="M858.375 36C858.375 35.4477 858.823 35 859.375 35C859.928 35 860.375 35.4477 860.375 36V55C860.375 55.5523 859.928 56 859.375 56C858.823 56 858.375 55.5523 858.375 55V36Z" fill="black"/>
<path id="Rectangle_113" d="M858.375 59C858.375 58.4477 858.823 58 859.375 58C859.928 58 860.375 58.4477 860.375 59V83C860.375 83.5523 859.928 84 859.375 84C858.823 84 858.375 83.5523 858.375 83V59Z" fill="black" fill-opacity="0.4"/>
<path id="Rectangle_114" d="M858.375 87C858.375 86.4477 858.823 86 859.375 86C859.928 86 860.375 86.4477 860.375 87V211C860.375 211.552 859.928 212 859.375 212C858.823 212 858.375 211.552 858.375 211V87Z" fill="#ADADFB"/>
</g>
<g id="Strip_39">
<path id="Rectangle_115" d="M881.292 51C881.292 50.4477 881.74 50 882.292 50C882.844 50 883.292 50.4477 883.292 51V68C883.292 68.5523 882.844 69 882.292 69C881.74 69 881.292 68.5523 881.292 68V51Z" fill="black"/>
<path id="Rectangle_116" d="M881.292 72C881.292 71.4477 881.74 71 882.292 71C882.844 71 883.292 71.4477 883.292 72V93C883.292 93.5523 882.844 94 882.292 94C881.74 94 881.292 93.5523 881.292 93V72Z" fill="black" fill-opacity="0.4"/>
<path id="Rectangle_117" d="M881.292 97C881.292 96.4477 881.74 96 882.292 96C882.844 96 883.292 96.4477 883.292 97V211C883.292 211.552 882.844 212 882.292 212C881.74 212 881.292 211.552 881.292 211V97Z" fill="#ADADFB"/>
</g>
<g id="Strip_40">
<path id="Rectangle_118" d="M904.208 65C904.208 64.4477 904.656 64 905.208 64C905.761 64 906.208 64.4477 906.208 65V78C906.208 78.5523 905.761 79 905.208 79C904.656 79 904.208 78.5523 904.208 78V65Z" fill="black"/>
<path id="Rectangle_119" d="M904.208 82C904.208 81.4477 904.656 81 905.208 81C905.761 81 906.208 81.4477 906.208 82V100C906.208 100.552 905.761 101 905.208 101C904.656 101 904.208 100.552 904.208 100V82Z" fill="black" fill-opacity="0.4"/>
<path id="Rectangle_120" d="M904.208 104C904.208 103.448 904.656 103 905.208 103C905.761 103 906.208 103.448 906.208 104V211C906.208 211.552 905.761 212 905.208 212C904.656 212 904.208 211.552 904.208 211V104Z" fill="#ADADFB"/>
</g>
<g id="Strip_41">
<path id="Rectangle_121" d="M927.125 56C927.125 55.4477 927.573 55 928.125 55C928.678 55 929.125 55.4477 929.125 56V83C929.125 83.5523 928.678 84 928.125 84C927.573 84 927.125 83.5523 927.125 83V56Z" fill="black"/>
<path id="Rectangle_122" d="M927.125 87C927.125 86.4477 927.573 86 928.125 86C928.678 86 929.125 86.4477 929.125 87V105C929.125 105.552 928.678 106 928.125 106C927.573 106 927.125 105.552 927.125 105V87Z" fill="black" fill-opacity="0.4"/>
<path id="Rectangle_123" d="M927.125 109C927.125 108.448 927.573 108 928.125 108C928.678 108 929.125 108.448 929.125 109V211C929.125 211.552 928.678 212 928.125 212C927.573 212 927.125 211.552 927.125 211V109Z" fill="#ADADFB"/>
</g>
<g id="Strip_42">
<path id="Rectangle_124" d="M950.042 36C950.042 35.4477 950.49 35 951.042 35C951.594 35 952.042 35.4477 952.042 36V55C952.042 55.5523 951.594 56 951.042 56C950.49 56 950.042 55.5523 950.042 55V36Z" fill="black"/>
<path id="Rectangle_125" d="M950.042 59C950.042 58.4477 950.49 58 951.042 58C951.594 58 952.042 58.4477 952.042 59V100C952.042 100.552 951.594 101 951.042 101C950.49 101 950.042 100.552 950.042 100V59Z" fill="black" fill-opacity="0.4"/>
<path id="Rectangle_126" d="M950.042 104C950.042 103.448 950.49 103 951.042 103C951.594 103 952.042 103.448 952.042 104V211C952.042 211.552 951.594 212 951.042 212C950.49 212 950.042 211.552 950.042 211V104Z" fill="#ADADFB"/>
</g>
<g id="Strip_43">
<path id="Rectangle_127" d="M972.958 51C972.958 50.4477 973.406 50 973.958 50C974.511 50 974.958 50.4477 974.958 51V77C974.958 77.5523 974.511 78 973.958 78C973.406 78 972.958 77.5523 972.958 77V51Z" fill="black"/>
<path id="Rectangle_128" d="M972.958 81C972.958 80.4477 973.406 80 973.958 80C974.511 80 974.958 80.4477 974.958 81V122C974.958 122.552 974.511 123 973.958 123C973.406 123 972.958 122.552 972.958 122V81Z" fill="black" fill-opacity="0.4"/>
<path id="Rectangle_129" d="M972.958 126C972.958 125.448 973.406 125 973.958 125C974.511 125 974.958 125.448 974.958 126V211C974.958 211.552 974.511 212 973.958 212C973.406 212 972.958 211.552 972.958 211V126Z" fill="#ADADFB"/>
</g>
<g id="Strip_44">
<path id="Rectangle_130" d="M995.875 62C995.875 61.4477 996.323 61 996.875 61C997.428 61 997.875 61.4477 997.875 62V81C997.875 81.5523 997.428 82 996.875 82C996.323 82 995.875 81.5523 995.875 81V62Z" fill="black"/>
<path id="Rectangle_131" d="M995.875 85C995.875 84.4477 996.323 84 996.875 84C997.428 84 997.875 84.4477 997.875 85V108C997.875 108.552 997.428 109 996.875 109C996.323 109 995.875 108.552 995.875 108V85Z" fill="black" fill-opacity="0.4"/>
<path id="Rectangle_132" d="M995.875 112C995.875 111.448 996.323 111 996.875 111C997.428 111 997.875 111.448 997.875 112V211C997.875 211.552 997.428 212 996.875 212C996.323 212 995.875 211.552 995.875 211V112Z" fill="#ADADFB"/>
</g>
<g id="Strip_45">
<path id="Rectangle_133" d="M1018.79 36C1018.79 35.4477 1019.24 35 1019.79 35C1020.34 35 1020.79 35.4477 1020.79 36V61C1020.79 61.5523 1020.34 62 1019.79 62C1019.24 62 1018.79 61.5523 1018.79 61V36Z" fill="black"/>
<path id="Rectangle_134" d="M1018.79 65C1018.79 64.4477 1019.24 64 1019.79 64C1020.34 64 1020.79 64.4477 1020.79 65V87C1020.79 87.5523 1020.34 88 1019.79 88C1019.24 88 1018.79 87.5523 1018.79 87V65Z" fill="black" fill-opacity="0.4"/>
<path id="Rectangle_135" d="M1018.79 91C1018.79 90.4477 1019.24 90 1019.79 90C1020.34 90 1020.79 90.4477 1020.79 91V211C1020.79 211.552 1020.34 212 1019.79 212C1019.24 212 1018.79 211.552 1018.79 211V91Z" fill="#ADADFB"/>
</g>
<g id="Strip_46">
<path id="Rectangle_136" d="M1041.71 66C1041.71 65.4477 1042.16 65 1042.71 65C1043.26 65 1043.71 65.4477 1043.71 66V82C1043.71 82.5523 1043.26 83 1042.71 83C1042.16 83 1041.71 82.5523 1041.71 82V66Z" fill="black"/>
<path id="Rectangle_137" d="M1041.71 86C1041.71 85.4477 1042.16 85 1042.71 85C1043.26 85 1043.71 85.4477 1043.71 86V106C1043.71 106.552 1043.26 107 1042.71 107C1042.16 107 1041.71 106.552 1041.71 106V86Z" fill="black" fill-opacity="0.4"/>
<path id="Rectangle_138" d="M1041.71 110C1041.71 109.448 1042.16 109 1042.71 109C1043.26 109 1043.71 109.448 1043.71 110V211C1043.71 211.552 1043.26 212 1042.71 212C1042.16 212 1041.71 211.552 1041.71 211V110Z" fill="#ADADFB"/>
</g>
<g id="Strip_47">
<path id="Rectangle_139" d="M1064.63 83C1064.63 82.4477 1065.07 82 1065.63 82C1066.18 82 1066.63 82.4477 1066.63 83V100C1066.63 100.552 1066.18 101 1065.63 101C1065.07 101 1064.63 100.552 1064.63 100V83Z" fill="black"/>
<path id="Rectangle_140" d="M1064.63 104C1064.63 103.448 1065.07 103 1065.63 103C1066.18 103 1066.63 103.448 1066.63 104V126C1066.63 126.552 1066.18 127 1065.63 127C1065.07 127 1064.63 126.552 1064.63 126V104Z" fill="black" fill-opacity="0.4"/>
<path id="Rectangle_141" d="M1064.63 130C1064.63 129.448 1065.07 129 1065.63 129C1066.18 129 1066.63 129.448 1066.63 130V211C1066.63 211.552 1066.18 212 1065.63 212C1065.07 212 1064.63 211.552 1064.63 211V130Z" fill="#ADADFB"/>
</g>
<g id="Strip_48">
<path id="Rectangle_142" d="M1087.54 77C1087.54 76.4477 1087.99 76 1088.54 76C1089.09 76 1089.54 76.4477 1089.54 77V90C1089.54 90.5523 1089.09 91 1088.54 91C1087.99 91 1087.54 90.5523 1087.54 90V77Z" fill="black"/>
<path id="Rectangle_143" d="M1087.54 94C1087.54 93.4477 1087.99 93 1088.54 93C1089.09 93 1089.54 93.4477 1089.54 94V115C1089.54 115.552 1089.09 116 1088.54 116C1087.99 116 1087.54 115.552 1087.54 115V94Z" fill="black" fill-opacity="0.4"/>
<path id="Rectangle_144" d="M1087.54 119C1087.54 118.448 1087.99 118 1088.54 118C1089.09 118 1089.54 118.448 1089.54 119V211C1089.54 211.552 1089.09 212 1088.54 212C1087.99 212 1087.54 211.552 1087.54 211V119Z" fill="#ADADFB"/>
</g>
</g>
</svg>
