<svg xmlns="http://www.w3.org/2000/svg" viewBox="0 0 501.379 501.379" role="img" aria-label="Folder">
  <path fill="#EF9F2C" d="M406.423,93.889H205.889c-17.067,0-30.933-13.867-30.933-30.933s-13.867-30.933-30.933-30.933H30.956c-17.067,0-30.933,13.867-30.933,30.933v375.467c0,17.067,13.867,30.933,30.933,30.933h375.467c17.067,0,30.933-13.867,30.933-30.933v-313.6C436.289,107.756,422.423,93.889,406.423,93.889z"/>
  <path fill="#FEC656" d="M470.423,157.889H97.089c-13.867,0-26.667,9.6-29.867,22.4l-66.133,249.6c-5.333,19.2,9.6,38.4,29.867,38.4h373.333c13.867,0,26.667-9.6,29.867-22.4l66.133-248.533C505.623,177.089,490.689,157.889,470.423,157.889z"/>
</svg>
