<?xml version="1.0" encoding="UTF-8"?>
<svg id="Layer_2" data-name="Layer 2" xmlns="http://www.w3.org/2000/svg" viewBox="0 0 697.81 637.27">
  <defs>
    <style>
      .cls-1 {
        fill: #fec656;
      }

      .cls-2 {
        fill: #ef9f2c;
      }
    </style>
  </defs>
  <g id="Layer_1-2" data-name="Layer 1">
    <g>
      <path class="cls-2" d="M648.45,90.15h-319.97c-27.23,0-49.36-20.21-49.36-45.07S257,0,229.77,0H49.36C22.12,0,0,20.21,0,45.07v547.12c0,24.87,22.13,45.07,49.36,45.07h599.09c27.23,0,49.36-20.21,49.36-45.07V135.23c-1.7-24.87-23.83-45.08-49.36-45.08Z"/>
      <path class="cls-1" d="M628.02,127.55H43.66c-24.01,0-43.66,20.28-43.66,45.06v414.15c0,24.79,19.65,45.07,43.66,50.51h610.49c24.01-5.44,43.66-25.72,43.66-50.51V172.61c0-24.79-19.65-45.07-43.66-45.07h-26.13Z"/>
    </g>
  </g>
</svg>