<svg preserveAspectRatio="none" width="100%" height="100%" overflow="visible" style="display: block;" viewBox="0 0 28 28" fill="none" xmlns="http://www.w3.org/2000/svg">
<g id="Frame">
<path id="back" d="M0 14C0 6.26801 6.26801 0 14 0C21.732 0 28 6.26801 28 14C28 21.732 21.732 28 14 28C6.26801 28 0 21.732 0 14Z" fill="var(--fill-0, #303030)"/>
<path id="Vector" d="M18.543 13.3183C18.4613 13.2798 18.3782 13.2427 18.294 13.2072C18.1475 10.5523 16.6721 9.03243 14.1948 9.01687C14.1836 9.01681 14.1724 9.01681 14.1612 9.01681C12.6794 9.01681 11.447 9.6387 10.6885 10.7703L12.051 11.6893C12.6176 10.844 13.5069 10.6638 14.1618 10.6638C14.1694 10.6638 14.177 10.6638 14.1845 10.6639C15.0002 10.669 15.6157 10.9022 16.0141 11.3569C16.304 11.688 16.4979 12.1455 16.5939 12.7229C15.8707 12.602 15.0886 12.5649 14.2524 12.612C11.8971 12.7454 10.3829 14.096 10.4846 15.9728C10.5362 16.9248 11.0186 17.7438 11.8427 18.2788C12.5396 18.7311 13.4371 18.9523 14.3698 18.9022C15.6017 18.8358 16.568 18.3737 17.2422 17.5288C17.7542 16.8871 18.078 16.0556 18.221 15.0078C18.808 15.3562 19.2431 15.8146 19.4834 16.3656C19.8919 17.3023 19.9158 18.8417 18.6383 20.0966C17.5191 21.196 16.1738 21.6716 14.1406 21.6863C11.8852 21.6699 10.1795 20.9587 9.07046 19.5725C8.03197 18.2745 7.49527 16.3996 7.47525 14C7.49527 11.6003 8.03197 9.72549 9.07046 8.42748C10.1795 7.04131 11.8852 6.33014 14.1405 6.31366C16.4123 6.33027 18.1477 7.04486 19.2992 8.43772C19.8638 9.12077 20.2894 9.97974 20.5701 10.9813L22.1667 10.5624C21.8265 9.32966 21.2913 8.26736 20.5629 7.38636C19.0868 5.60065 16.9278 4.68564 14.1461 4.66667H14.135C11.3589 4.68557 9.22412 5.60406 7.78999 7.3966C6.51381 8.99173 5.85552 11.2112 5.8334 13.9934L5.83333 14L5.8334 14.0066C5.85552 16.7887 6.51381 19.0083 7.78999 20.6034C9.22412 22.3959 11.3589 23.3145 14.135 23.3333H14.1461C16.6142 23.3165 18.3539 22.6812 19.787 21.2733C21.6621 19.4314 21.6056 17.1227 20.9876 15.7054C20.5442 14.689 19.6989 13.8635 18.543 13.3183ZM14.2817 17.2576C13.2494 17.3148 12.1769 16.8592 12.124 15.8834C12.0848 15.1599 12.6477 14.3525 14.345 14.2564C14.5394 14.2453 14.7301 14.2399 14.9175 14.2399C15.534 14.2399 16.1108 14.2988 16.6351 14.4115C16.4396 16.8131 15.2924 17.2031 14.2817 17.2576Z" fill="var(--fill-0, white)"/>
</g>
</svg>
