<svg width="100" height="100" viewBox="0 0 100 100" fill="none" xmlns="http://www.w3.org/2000/svg">
<g id="LineDrawing03">
<line id="Line 310" y1="49.8878" x2="100" y2="49.8878" stroke="black"/>
<line id="Line 314" x1="6.75513" y1="24.9034" x2="93.3577" y2="74.9034" stroke="black"/>
<line id="Line 318" x1="25.1613" y1="6.60608" x2="75.1613" y2="93.2086" stroke="black"/>
<line id="Line 312" x1="14.7239" y1="14.5667" x2="85.4346" y2="85.2774" stroke="black"/>
<line id="Line 315" x1="37.1677" y1="1.67497" x2="63.0496" y2="98.2676" stroke="black"/>
<line id="Line 319" x1="63.1133" y1="1.69746" x2="37.2314" y2="98.29" stroke="black"/>
<line id="Line 311" x1="49.8875" y1="100" x2="49.8874" y2="7.80561e-09" stroke="black"/>
<line id="Line 316" x1="24.9023" y1="93.2456" x2="74.9023" y2="6.64306" stroke="black"/>
<line id="Line 320" x1="6.70654" y1="74.8659" x2="93.3091" y2="24.8659" stroke="black"/>
<line id="Line 313" x1="14.5649" y1="85.2754" x2="85.2756" y2="14.5647" stroke="black"/>
<line id="Line 317" x1="1.67528" y1="62.8317" x2="98.2679" y2="36.9498" stroke="black"/>
<line id="Line 321" x1="1.79787" y1="36.9142" x2="98.3904" y2="62.7961" stroke="black"/>
<line id="Line 310_2" x1="0.427281" y1="43.4779" x2="99.6015" y2="56.3023" stroke="black"/>
<line id="Line 314_2" x1="10.3312" y1="19.5634" x2="89.8064" y2="80.2568" stroke="black"/>
<line id="Line 318_2" x1="30.9316" y1="3.78056" x2="69.4125" y2="96.0802" stroke="black"/>
<line id="Line 312_2" x1="19.5603" y1="10.3361" x2="80.6189" y2="89.5311" stroke="black"/>
<line id="Line 315_2" x1="43.4709" y1="0.429873" x2="56.7517" y2="99.5441" stroke="black"/>
<line id="Line 319_2" x1="69.1996" y1="3.77957" x2="31.144" y2="96.2554" stroke="black"/>
<line id="Line 311_2" x1="43.4769" y1="99.5717" x2="56.3013" y2="0.397414" stroke="black"/>
<line id="Line 316_2" x1="19.5638" y1="89.671" x2="80.2572" y2="10.1957" stroke="black"/>
<line id="Line 320_2" x1="3.8751" y1="69.1087" x2="96.1747" y2="30.6278" stroke="black"/>
<line id="Line 313_2" x1="10.334" y1="80.4398" x2="89.529" y2="19.3812" stroke="black"/>
<line id="Line 317_2" x1="0.429568" y1="56.5301" x2="99.5437" y2="43.2494" stroke="black"/>
<line id="Line 321_2" x1="3.87485" y1="30.8418" x2="96.3506" y2="68.8974" stroke="black"/>
</svg>
