<svg width="100" height="100" viewBox="0 0 100 100" fill="none" xmlns="http://www.w3.org/2000/svg">
<g id="LineDrawing02">
<circle id="Ellipse 980" cx="50.5" cy="50.5" r="12.1429" stroke="black"/>
<circle id="Ellipse 981" cx="50.5" cy="50.5" r="18.9286" stroke="black"/>
<circle id="Ellipse 982" cx="50.5" cy="50.5" r="24.6429" stroke="black"/>
<circle id="Ellipse 983" cx="50.5" cy="50.5" r="31.0714" stroke="black"/>
<circle id="Ellipse 984" cx="50.5" cy="50.5" r="37.5" stroke="black"/>
<circle id="Ellipse 985" cx="50.4999" cy="50.5" r="44.2857" stroke="black"/>
<circle id="Ellipse 986" cx="50.5" cy="50.5" r="50" stroke="black"/>
<circle id="Ellipse 8" cx="50.5" cy="50.5" r="3.57143" fill="black"/>
<path id="Ellipse 25" d="M52.6429 19.4286C52.6429 20.612 51.6835 21.5714 50.5 21.5714C49.3166 21.5714 48.3572 20.612 48.3572 19.4286C48.3572 18.2451 49.3166 17.2857 50.5 17.2857C51.6835 17.2857 52.6429 18.2451 52.6429 19.4286Z" fill="black"/>
<path id="Ellipse 26" d="M70.6433 55.0724C70.6433 56.2559 69.6839 57.2153 68.5004 57.2153C67.3169 57.2153 66.3575 56.2559 66.3575 55.0724C66.3575 53.889 67.3169 52.9296 68.5004 52.9296C69.6839 52.9296 70.6433 53.889 70.6433 55.0724Z" fill="black"/>
<path id="Ellipse 27" d="M15.3038 49.2423C15.3038 50.4258 14.3444 51.3852 13.1609 51.3852C11.9775 51.3852 11.0181 50.4258 11.0181 49.2423C11.0181 48.0589 11.9775 47.0995 13.1609 47.0995C14.3444 47.0995 15.3038 48.0589 15.3038 49.2423Z" fill="black"/>
<path id="Ellipse 28" d="M95.5621 60.4107C95.5621 61.5942 94.6027 62.5536 93.4192 62.5536C92.2358 62.5536 91.2764 61.5942 91.2764 60.4107C91.2764 59.2273 92.2358 58.2679 93.4192 58.2679C94.6027 58.2679 95.5621 59.2273 95.5621 60.4107Z" fill="black"/>
</svg>
