<svg width="121" height="121" viewBox="0 0 121 121" fill="none" xmlns="http://www.w3.org/2000/svg">
<g id="DonutChart">
<g id="DonutGraph">
<g id="Frame">
<mask id="mask0_25596_105239" style="mask-type:alpha" maskUnits="userSpaceOnUse" x="47" y="46" width="74" height="75">
<path id="Subtract" fill-rule="evenodd" clip-rule="evenodd" d="M90.3458 60.3006C90.3458 76.8691 76.9143 90.3006 60.3458 90.3006C59.2779 90.3006 58.2231 90.2448 57.184 90.136C55.6097 89.9711 54.0828 90.9022 53.6731 92.4313L47.4294 115.733C46.9909 117.37 47.9931 119.052 49.6609 119.352C53.1282 119.975 56.699 120.301 60.3458 120.301C93.4829 120.301 120.346 93.4377 120.346 60.3006C120.346 56.4363 119.98 52.6573 119.283 48.9964C118.967 47.3434 117.294 46.3582 115.669 46.7937L92.4078 53.0265C90.8562 53.4422 89.9237 55.0058 90.1198 56.6C90.269 57.8126 90.3458 59.0476 90.3458 60.3006Z" fill="url(#paint0_linear_25596_105239)"/>
</mask>
<g mask="url(#mask0_25596_105239)">
<g id="Subtract_2">
<path fill-rule="evenodd" clip-rule="evenodd" d="M90.3458 60.3006C90.3458 76.8691 76.9143 90.3006 60.3458 90.3006C59.2779 90.3006 58.2231 90.2448 57.184 90.136C55.6097 89.9711 54.0828 90.9022 53.6731 92.4313L47.4294 115.733C46.9909 117.37 47.9931 119.052 49.6609 119.352C53.1282 119.975 56.699 120.301 60.3458 120.301C93.4829 120.301 120.346 93.4377 120.346 60.3006C120.346 56.4363 119.98 52.6573 119.283 48.9964C118.967 47.3434 117.294 46.3582 115.669 46.7937L92.4078 53.0265C90.8562 53.4422 89.9237 55.0058 90.1198 56.6C90.269 57.8126 90.3458 59.0476 90.3458 60.3006Z" fill="url(#paint1_linear_25596_105239)"/>
<path fill-rule="evenodd" clip-rule="evenodd" d="M90.3458 60.3006C90.3458 76.8691 76.9143 90.3006 60.3458 90.3006C59.2779 90.3006 58.2231 90.2448 57.184 90.136C55.6097 89.9711 54.0828 90.9022 53.6731 92.4313L47.4294 115.733C46.9909 117.37 47.9931 119.052 49.6609 119.352C53.1282 119.975 56.699 120.301 60.3458 120.301C93.4829 120.301 120.346 93.4377 120.346 60.3006C120.346 56.4363 119.98 52.6573 119.283 48.9964C118.967 47.3434 117.294 46.3582 115.669 46.7937L92.4078 53.0265C90.8562 53.4422 89.9237 55.0058 90.1198 56.6C90.269 57.8126 90.3458 59.0476 90.3458 60.3006Z" fill="black" style="mix-blend-mode:screen"/>
</g>
</g>
</g>
</g>
<g id="DonutGraph_2">
<g id="Frame_2">
<mask id="mask1_25596_105239" style="mask-type:alpha" maskUnits="userSpaceOnUse" x="3" y="69" width="49" height="48">
<path id="Subtract_3" fill-rule="evenodd" clip-rule="evenodd" d="M4.16289 80.6502C3.39185 78.5454 4.67006 76.2932 6.83528 75.7131L28.1844 69.9926C30.255 69.4378 32.3698 70.6294 33.2686 72.5755C36.3959 79.3471 41.9729 84.7552 48.8631 87.6632C50.8931 88.5199 52.1665 90.6841 51.5962 92.8123L45.898 114.078C45.3256 116.215 43.1225 117.494 41.0307 116.776C23.9556 110.915 10.3597 97.5664 4.16289 80.6502Z" fill="url(#paint2_linear_25596_105239)"/>
</mask>
<g mask="url(#mask1_25596_105239)">
<path id="Subtract_4" fill-rule="evenodd" clip-rule="evenodd" d="M4.16289 80.6502C3.39185 78.5454 4.67006 76.2932 6.83528 75.7131L28.1844 69.9926C30.255 69.4378 32.3698 70.6294 33.2686 72.5755C36.3959 79.3471 41.9729 84.7552 48.8631 87.6632C50.8931 88.5199 52.1665 90.6841 51.5962 92.8123L45.898 114.078C45.3256 116.215 43.1225 117.494 41.0307 116.776C23.9556 110.915 10.3597 97.5664 4.16289 80.6502Z" fill="#7DBBFF"/>
</g>
</g>
</g>
<g id="DonutGraph_3">
<g id="Frame_3">
<mask id="mask2_25596_105239" style="mask-type:alpha" maskUnits="userSpaceOnUse" x="0" y="31" width="33" height="43">
<path id="Subtract_5" fill-rule="evenodd" clip-rule="evenodd" d="M11.3805 32.0065C9.46292 30.8994 6.99776 31.5554 6.02808 33.546C2.16655 41.4731 0 50.3778 0 59.7885C0 63.5005 0.337085 67.1337 0.982315 70.6593C1.38363 72.8522 3.60682 74.1453 5.76011 73.5684L27.0677 67.859C29.1638 67.2974 30.401 65.1662 30.1708 63.0084C30.0579 61.9505 30 60.8763 30 59.7885C30 55.8243 30.7689 52.0397 32.1657 48.5757C32.9875 46.5375 32.3553 44.1163 30.4521 43.0175L11.3805 32.0065Z" fill="url(#paint3_linear_25596_105239)"/>
</mask>
<g mask="url(#mask2_25596_105239)">
<path id="Subtract_6" fill-rule="evenodd" clip-rule="evenodd" d="M11.3805 32.0065C9.46292 30.8994 6.99776 31.5554 6.02808 33.546C2.16655 41.4731 0 50.3778 0 59.7885C0 63.5005 0.337085 67.1337 0.982315 70.6593C1.38363 72.8522 3.60682 74.1453 5.76011 73.5684L27.0677 67.859C29.1638 67.2974 30.401 65.1662 30.1708 63.0084C30.0579 61.9505 30 60.8763 30 59.7885C30 55.8243 30.7689 52.0397 32.1657 48.5757C32.9875 46.5375 32.3553 44.1163 30.4521 43.0175L11.3805 32.0065Z" fill="#71DD8C"/>
</g>
</g>
</g>
<g id="DonutGraph_4">
<g id="Frame_4">
<mask id="mask3_25596_105239" style="mask-type:alpha" maskUnits="userSpaceOnUse" x="10" y="9" width="34" height="34">
<path id="Subtract_7" fill-rule="evenodd" clip-rule="evenodd" d="M12.6889 30.415C10.7349 29.2868 10.09 26.7579 11.4052 24.9245C15.552 19.1443 20.7005 14.1313 26.5969 10.1397C28.4322 8.8973 30.8984 9.5606 32.0065 11.4799L43.0164 30.5496C44.1146 32.4517 43.4532 34.8637 41.7232 36.2169C40.1454 37.451 38.6942 38.8396 37.3925 40.36C36.0156 41.9681 33.695 42.5429 31.8616 41.4843L12.6889 30.415Z" fill="url(#paint4_linear_25596_105239)"/>
</mask>
<g mask="url(#mask3_25596_105239)">
<path id="Subtract_8" fill-rule="evenodd" clip-rule="evenodd" d="M12.6889 30.415C10.7349 29.2868 10.09 26.7579 11.4052 24.9245C15.552 19.1443 20.7005 14.1313 26.5969 10.1397C28.4322 8.8973 30.8984 9.5606 32.0065 11.4799L43.0164 30.5496C44.1146 32.4517 43.4532 34.8637 41.7232 36.2169C40.1454 37.451 38.6942 38.8396 37.3925 40.36C36.0156 41.9681 33.695 42.5429 31.8616 41.4843L12.6889 30.415Z" fill="#A0BCE8"/>
</g>
</g>
</g>
<g id="DonutGraph_5">
<g id="Frame_5">
<mask id="mask4_25596_105239" style="mask-type:alpha" maskUnits="userSpaceOnUse" x="33" y="0" width="28" height="32">
<path id="Subtract_9" fill-rule="evenodd" clip-rule="evenodd" d="M60.1191 4C60.1191 1.79086 58.326 -0.0139507 56.1217 0.131047C48.7585 0.615375 41.7581 2.42797 35.3578 5.33149C33.3048 6.26281 32.6015 8.77325 33.7287 10.7255L44.8 29.9016C45.859 31.7359 48.1574 32.3975 50.1553 31.6943C52.0659 31.0218 54.065 30.5372 56.1306 30.2628C58.3205 29.9719 60.1191 28.2091 60.1191 26V4Z" fill="url(#paint5_linear_25596_105239)"/>
</mask>
<g mask="url(#mask4_25596_105239)">
<path id="Subtract_10" fill-rule="evenodd" clip-rule="evenodd" d="M60.1191 4C60.1191 1.79086 58.326 -0.0139507 56.1217 0.131047C48.7585 0.615375 41.7581 2.42797 35.3578 5.33149C33.3048 6.26281 32.6015 8.77325 33.7287 10.7255L44.8 29.9016C45.859 31.7359 48.1574 32.3975 50.1553 31.6943C52.0659 31.0218 54.065 30.5372 56.1306 30.2628C58.3205 29.9719 60.1191 28.2091 60.1191 26V4Z" fill="#ADADFB"/>
</g>
</g>
</g>
<g id="DonutGraph_6">
<g id="Frame_6">
<mask id="mask5_25596_105239" style="mask-type:alpha" maskUnits="userSpaceOnUse" x="61" y="0" width="56" height="51">
<path id="Subtract_11" fill-rule="evenodd" clip-rule="evenodd" d="M61.8923 26.2875C61.8923 28.3947 63.5363 30.1117 65.6054 30.5106C75.3535 32.3901 83.4213 38.9884 87.3376 47.8345C88.2169 49.8205 90.3554 51.0511 92.4534 50.4889L113.761 44.7795C115.913 44.2031 117.191 41.9734 116.445 39.8747C108.838 18.4625 89.4139 2.64854 66.0179 0.276143C63.769 0.0480982 61.8923 1.87269 61.8923 4.13315L61.8923 26.2875Z" fill="url(#paint6_linear_25596_105239)"/>
</mask>
<g mask="url(#mask5_25596_105239)">
<path id="Subtract_12" fill-rule="evenodd" clip-rule="evenodd" d="M61.8923 26.2875C61.8923 28.3947 63.5363 30.1117 65.6054 30.5106C75.3535 32.3901 83.4213 38.9884 87.3376 47.8345C88.2169 49.8205 90.3554 51.0511 92.4534 50.4889L113.761 44.7795C115.913 44.2031 117.191 41.9734 116.445 39.8747C108.838 18.4625 89.4139 2.64854 66.0179 0.276143C63.769 0.0480982 61.8923 1.87269 61.8923 4.13315L61.8923 26.2875Z" fill="#6BE6D3"/>
</g>
</g>
</g>
</g>
<defs>
<linearGradient id="paint0_linear_25596_105239" x1="120.346" y1="46" x2="98.3039" y2="83.4307" gradientUnits="userSpaceOnUse">
<stop/>
<stop offset="1"/>
</linearGradient>
<linearGradient id="paint1_linear_25596_105239" x1="83.4867" y1="46" x2="83.4867" y2="120.301" gradientUnits="userSpaceOnUse">
<stop/>
<stop offset="1" stop-color="#1C1C1C" stop-opacity="0.6"/>
<stop offset="1" stop-opacity="0.6"/>
</linearGradient>
<linearGradient id="paint2_linear_25596_105239" x1="52.6276" y1="69" x2="38.277" y2="93.9582" gradientUnits="userSpaceOnUse">
<stop/>
<stop offset="1"/>
</linearGradient>
<linearGradient id="paint3_linear_25596_105239" x1="33.8907" y1="30" x2="19.2618" y2="49.019" gradientUnits="userSpaceOnUse">
<stop/>
<stop offset="1"/>
</linearGradient>
<linearGradient id="paint4_linear_25596_105239" x1="45.0001" y1="8" x2="34.6221" y2="26.0199" gradientUnits="userSpaceOnUse">
<stop/>
<stop offset="1"/>
</linearGradient>
<linearGradient id="paint5_linear_25596_105239" x1="60.1191" y1="0" x2="49.6485" y2="15.3713" gradientUnits="userSpaceOnUse">
<stop/>
<stop offset="1"/>
</linearGradient>
<linearGradient id="paint6_linear_25596_105239" x1="117.67" y1="0" x2="103.07" y2="27.065" gradientUnits="userSpaceOnUse">
<stop/>
<stop offset="1"/>
</linearGradient>
</defs>
</svg>
