<svg width="160" height="240" viewBox="0 0 160 240" fill="none" xmlns="http://www.w3.org/2000/svg">
<g id="Horizontal 04">
<g id="HorizontalBar 04">
<path id="Rectangle" d="M0 20C0 19.4477 0.447715 19 1 19H13.2C13.7523 19 14.2 19.4477 14.2 20C14.2 20.5523 13.7523 21 13.2 21H0.999999C0.447714 21 0 20.5523 0 20Z" fill="black"/>
<path id="Rectangle_2" d="M16.2 20C16.2 19.4477 16.6477 19 17.2 19H29.4C29.9522 19 30.4 19.4477 30.4 20C30.4 20.5523 29.9522 21 29.4 21H17.2C16.6477 21 16.2 20.5523 16.2 20Z" fill="black"/>
<path id="Rectangle_3" d="M32.4 20C32.4 19.4477 32.8477 19 33.4 19H45.6C46.1523 19 46.6 19.4477 46.6 20C46.6 20.5523 46.1523 21 45.6 21H33.4C32.8477 21 32.4 20.5523 32.4 20Z" fill="black"/>
<path id="Rectangle_4" d="M48.6 20C48.6 19.4477 49.0477 19 49.6 19H61.8C62.3523 19 62.8 19.4477 62.8 20C62.8 20.5523 62.3523 21 61.8 21H49.6C49.0477 21 48.6 20.5523 48.6 20Z" fill="black"/>
<path id="Rectangle_5" d="M64.8 20C64.8 19.4477 65.2478 19 65.8 19H78.0001C78.5523 19 79 19.4477 79 20C79 20.5523 78.5523 21 78 21H65.8C65.2478 21 64.8 20.5523 64.8 20Z" fill="black"/>
<path id="Rectangle_6" d="M81 20C81 19.4477 81.4477 19 82 19H94.2C94.7523 19 95.2 19.4477 95.2 20C95.2 20.5523 94.7523 21 94.2 21H82C81.4477 21 81 20.5523 81 20Z" fill="black"/>
</g>
<g id="HorizontalBar 04_2">
<path id="Rectangle_7" d="M0 60C0 59.4477 0.447715 59 1 59H20.1429C20.6951 59 21.1429 59.4477 21.1429 60C21.1429 60.5523 20.6951 61 20.1429 61H0.999999C0.447714 61 0 60.5523 0 60Z" fill="black"/>
<path id="Rectangle_8" d="M23.1428 60C23.1428 59.4477 23.5905 59 24.1428 59H43.2857C43.838 59 44.2857 59.4477 44.2857 60C44.2857 60.5523 43.838 61 43.2857 61H24.1428C23.5905 61 23.1428 60.5523 23.1428 60Z" fill="black"/>
<path id="Rectangle_9" d="M46.2858 60C46.2858 59.4477 46.7335 59 47.2858 59H66.4286C66.9809 59 67.4286 59.4477 67.4286 60C67.4286 60.5523 66.9809 61 66.4286 61H47.2858C46.7335 61 46.2858 60.5523 46.2858 60Z" fill="black"/>
<path id="Rectangle_10" d="M69.4286 60C69.4286 59.4477 69.8763 59 70.4286 59H89.5714C90.1237 59 90.5714 59.4477 90.5714 60C90.5714 60.5523 90.1237 61 89.5714 61H70.4286C69.8763 61 69.4286 60.5523 69.4286 60Z" fill="black"/>
<path id="Rectangle_11" d="M92.5714 60C92.5714 59.4477 93.0191 59 93.5714 59H112.714C113.267 59 113.714 59.4477 113.714 60C113.714 60.5523 113.267 61 112.714 61H93.5714C93.0191 61 92.5714 60.5523 92.5714 60Z" fill="black"/>
<path id="Rectangle_12" d="M115.714 60C115.714 59.4477 116.162 59 116.714 59H135.857C136.409 59 136.857 59.4477 136.857 60C136.857 60.5523 136.409 61 135.857 61H116.714C116.162 61 115.714 60.5523 115.714 60Z" fill="black"/>
</g>
<g id="HorizontalBar 04_3">
<path id="Rectangle_13" d="M0 100C0 99.4477 0.447715 99 1 99H15C15.5523 99 16 99.4477 16 100C16 100.552 15.5523 101 15 101H1C0.447715 101 0 100.552 0 100Z" fill="black"/>
<path id="Rectangle_14" d="M18 100C18 99.4477 18.4477 99 19 99H33C33.5523 99 34 99.4477 34 100C34 100.552 33.5523 101 33 101H19C18.4477 101 18 100.552 18 100Z" fill="black"/>
<path id="Rectangle_15" d="M36 100C36 99.4477 36.4477 99 37 99H51C51.5523 99 52 99.4477 52 100C52 100.552 51.5523 101 51 101H37C36.4477 101 36 100.552 36 100Z" fill="black"/>
<path id="Rectangle_16" d="M54 100C54 99.4477 54.4477 99 55 99H69C69.5523 99 70 99.4477 70 100C70 100.552 69.5523 101 69 101H55C54.4477 101 54 100.552 54 100Z" fill="black"/>
<path id="Rectangle_17" d="M72 100C72 99.4477 72.4477 99 73 99H87C87.5523 99 88 99.4477 88 100C88 100.552 87.5523 101 87 101H73C72.4477 101 72 100.552 72 100Z" fill="black"/>
<path id="Rectangle_18" d="M90 100C90 99.4477 90.4477 99 91 99H105C105.552 99 106 99.4477 106 100C106 100.552 105.552 101 105 101H91C90.4477 101 90 100.552 90 100Z" fill="black"/>
</g>
<g id="HorizontalBar 04_4">
<path id="Rectangle_19" d="M0 140C0 139.448 0.447715 139 1 139H24C24.5523 139 25 139.448 25 140C25 140.552 24.5523 141 24 141H1C0.447716 141 0 140.552 0 140Z" fill="black"/>
<path id="Rectangle_20" d="M27 140C27 139.448 27.4477 139 28 139H51C51.5523 139 52 139.448 52 140C52 140.552 51.5523 141 51 141H28C27.4477 141 27 140.552 27 140Z" fill="black"/>
<path id="Rectangle_21" d="M54 140C54 139.448 54.4477 139 55 139H78C78.5523 139 79 139.448 79 140C79 140.552 78.5523 141 78 141H55C54.4477 141 54 140.552 54 140Z" fill="black"/>
<path id="Rectangle_22" d="M81 140C81 139.448 81.4477 139 82 139H105C105.552 139 106 139.448 106 140C106 140.552 105.552 141 105 141H82C81.4477 141 81 140.552 81 140Z" fill="black"/>
<path id="Rectangle_23" d="M108 140C108 139.448 108.448 139 109 139H132C132.552 139 133 139.448 133 140C133 140.552 132.552 141 132 141H109C108.448 141 108 140.552 108 140Z" fill="black"/>
<path id="Rectangle_24" d="M135 140C135 139.448 135.448 139 136 139H159C159.552 139 160 139.448 160 140C160 140.552 159.552 141 159 141H136C135.448 141 135 140.552 135 140Z" fill="black"/>
</g>
<g id="HorizontalBar 04_5">
<path id="Rectangle_25" d="M0 180C0 179.448 0.447715 179 1 179H11.7273C12.2796 179 12.7273 179.448 12.7273 180C12.7273 180.552 12.2796 181 11.7273 181H1C0.447716 181 0 180.552 0 180Z" fill="black"/>
<path id="Rectangle_26" d="M14.7273 180C14.7273 179.448 15.175 179 15.7273 179H26.4546C27.0069 179 27.4546 179.448 27.4546 180C27.4546 180.552 27.0069 181 26.4546 181H15.7273C15.175 181 14.7273 180.552 14.7273 180Z" fill="black"/>
<path id="Rectangle_27" d="M29.4546 180C29.4546 179.448 29.9023 179 30.4546 179H41.1819C41.7341 179 42.1819 179.448 42.1819 180C42.1819 180.552 41.7341 181 41.1819 181H30.4546C29.9023 181 29.4546 180.552 29.4546 180Z" fill="black"/>
<path id="Rectangle_28" d="M44.1818 180C44.1818 179.448 44.6295 179 45.1818 179H55.909C56.4613 179 56.909 179.448 56.909 180C56.909 180.552 56.4613 181 55.909 181H45.1818C44.6295 181 44.1818 180.552 44.1818 180Z" fill="black"/>
<path id="Rectangle_29" d="M58.9091 180C58.9091 179.448 59.3568 179 59.9091 179H70.6363C71.1886 179 71.6363 179.448 71.6363 180C71.6363 180.552 71.1886 181 70.6363 181H59.9091C59.3568 181 58.9091 180.552 58.9091 180Z" fill="black"/>
<path id="Rectangle_30" d="M73.6364 180C73.6364 179.448 74.0841 179 74.6364 179H85.3636C85.9159 179 86.3636 179.448 86.3636 180C86.3636 180.552 85.9159 181 85.3636 181H74.6364C74.0841 181 73.6364 180.552 73.6364 180Z" fill="black"/>
</g>
<g id="HorizontalBar 04_6">
<path id="Rectangle_31" d="M0 220C0 219.448 0.447715 219 1 219H17.25C17.8023 219 18.25 219.448 18.25 220C18.25 220.552 17.8023 221 17.25 221H1C0.447716 221 0 220.552 0 220Z" fill="black"/>
<path id="Rectangle_32" d="M20.25 220C20.25 219.448 20.6977 219 21.25 219H37.5C38.0523 219 38.5 219.448 38.5 220C38.5 220.552 38.0523 221 37.5 221H21.25C20.6977 221 20.25 220.552 20.25 220Z" fill="black"/>
<path id="Rectangle_33" d="M40.5 220C40.5 219.448 40.9477 219 41.5 219H57.75C58.3023 219 58.75 219.448 58.75 220C58.75 220.552 58.3023 221 57.75 221H41.5C40.9477 221 40.5 220.552 40.5 220Z" fill="black"/>
<path id="Rectangle_34" d="M60.75 220C60.75 219.448 61.1977 219 61.75 219H78C78.5523 219 79 219.448 79 220C79 220.552 78.5523 221 78 221H61.75C61.1977 221 60.75 220.552 60.75 220Z" fill="black"/>
<path id="Rectangle_35" d="M81 220C81 219.448 81.4477 219 82 219H98.25C98.8023 219 99.25 219.448 99.25 220C99.25 220.552 98.8023 221 98.25 221H82C81.4477 221 81 220.552 81 220Z" fill="black"/>
<path id="Rectangle_36" d="M101.25 220C101.25 219.448 101.698 219 102.25 219H118.5C119.052 219 119.5 219.448 119.5 220C119.5 220.552 119.052 221 118.5 221H102.25C101.698 221 101.25 220.552 101.25 220Z" fill="black"/>
</g>
</g>
</svg>
