<svg width="240" height="160" viewBox="0 0 240 160" fill="none" xmlns="http://www.w3.org/2000/svg">
<g id="Vertical 05">
<g id="VerticalBar 05">
<rect id="Rectangle" x="6" y="81" width="28" height="18.25" rx="2" fill="black"/>
<rect id="Rectangle_2" x="6" y="101.25" width="28" height="18.25" rx="2" fill="black" fill-opacity="0.4"/>
<rect id="Rectangle_3" x="6" y="121.5" width="28" height="18.25" rx="2" fill="black" fill-opacity="0.4"/>
<rect id="Rectangle_4" x="6" y="141.75" width="28" height="18.25" rx="2" fill="#ADADFB"/>
</g>
<g id="VerticalBar 05_2">
<rect id="Rectangle_5" x="46" y="20.25" width="28" height="18.25" rx="2" fill="black"/>
<rect id="Rectangle_6" x="46" y="40.5" width="28" height="18.25" rx="2" fill="black" fill-opacity="0.4"/>
<rect id="Rectangle_7" x="46" y="60.75" width="28" height="18.25" rx="2" fill="black" fill-opacity="0.4"/>
<rect id="Rectangle_8" x="46" y="81" width="28" height="18.25" rx="2" fill="#ADADFB"/>
<rect id="Rectangle_9" x="46" y="101.25" width="28" height="18.25" rx="2" fill="#ADADFB"/>
<rect id="Rectangle_10" x="46" y="121.5" width="28" height="18.25" rx="2" fill="#ADADFB"/>
<rect id="Rectangle_11" x="46" y="141.75" width="28" height="18.25" rx="2" fill="#ADADFB"/>
</g>
<g id="VerticalBar 05_3">
<rect id="Rectangle_12" x="86" y="60.75" width="28" height="18.25" rx="2" fill="black"/>
<rect id="Rectangle_13" x="86" y="81" width="28" height="18.25" rx="2" fill="black" fill-opacity="0.4"/>
<rect id="Rectangle_14" x="86" y="101.25" width="28" height="18.25" rx="2" fill="black" fill-opacity="0.4"/>
<rect id="Rectangle_15" x="86" y="121.5" width="28" height="18.25" rx="2" fill="#ADADFB"/>
<rect id="Rectangle_16" x="86" y="141.75" width="28" height="18.25" rx="2" fill="#ADADFB"/>
</g>
<g id="VerticalBar 05_4">
<rect id="Rectangle_17" x="126" width="28" height="18.25" rx="2" fill="black"/>
<rect id="Rectangle_18" x="126" y="20.25" width="28" height="18.25" rx="2" fill="black" fill-opacity="0.4"/>
<rect id="Rectangle_19" x="126" y="40.5" width="28" height="18.25" rx="2" fill="black" fill-opacity="0.4"/>
<rect id="Rectangle_20" x="126" y="60.75" width="28" height="18.25" rx="2" fill="#ADADFB"/>
<rect id="Rectangle_21" x="126" y="81" width="28" height="18.25" rx="2" fill="#ADADFB"/>
<rect id="Rectangle_22" x="126" y="101.25" width="28" height="18.25" rx="2" fill="#ADADFB"/>
<rect id="Rectangle_23" x="126" y="121.5" width="28" height="18.25" rx="2" fill="#ADADFB"/>
<rect id="Rectangle_24" x="126" y="141.75" width="28" height="18.25" rx="2" fill="#ADADFB"/>
</g>
<g id="VerticalBar 05_5">
<rect id="Rectangle_25" x="166" y="101.25" width="28" height="18.25" rx="2" fill="black"/>
<rect id="Rectangle_26" x="166" y="121.5" width="28" height="18.25" rx="2" fill="black" fill-opacity="0.4"/>
<rect id="Rectangle_27" x="166" y="141.75" width="28" height="18.25" rx="2" fill="#ADADFB"/>
</g>
<g id="VerticalBar 05_6">
<rect id="Rectangle_28" x="206" y="40.5" width="28" height="18.25" rx="2" fill="black"/>
<rect id="Rectangle_29" x="206" y="60.75" width="28" height="18.25" rx="2" fill="black" fill-opacity="0.4"/>
<rect id="Rectangle_30" x="206" y="81" width="28" height="18.25" rx="2" fill="black" fill-opacity="0.4"/>
<rect id="Rectangle_31" x="206" y="101.25" width="28" height="18.25" rx="2" fill="#ADADFB"/>
<rect id="Rectangle_32" x="206" y="121.5" width="28" height="18.25" rx="2" fill="#ADADFB"/>
<rect id="Rectangle_33" x="206" y="141.75" width="28" height="18.25" rx="2" fill="#ADADFB"/>
</g>
</g>
</svg>
