<svg width="240" height="160" viewBox="0 0 240 160" fill="none" xmlns="http://www.w3.org/2000/svg">
<g id="Vertical 11">
<g id="VerticalBar 9">
<path id="Rectangle" d="M0 95C0 86.7157 6.71573 80 15 80C23.2843 80 30 86.7157 30 95V145C30 153.284 23.2843 160 15 160C6.71573 160 0 153.284 0 145V95Z" fill="black"/>
</g>
<g id="VerticalBar 9_2">
<path id="Rectangle_2" d="M42 35C42 26.7157 48.7157 20 57 20C65.2843 20 72 26.7157 72 35V145C72 153.284 65.2843 160 57 160C48.7157 160 42 153.284 42 145V35Z" fill="black"/>
</g>
<g id="VerticalBar 9_3">
<path id="Rectangle_3" d="M84 75C84 66.7157 90.7157 60 99 60C107.284 60 114 66.7157 114 75V145C114 153.284 107.284 160 99 160C90.7157 160 84 153.284 84 145V75Z" fill="black"/>
</g>
<g id="VerticalBar 9_4">
<path id="Rectangle_4" d="M126 15C126 6.71573 132.716 0 141 0C149.284 0 156 6.71573 156 15V145C156 153.284 149.284 160 141 160C132.716 160 126 153.284 126 145V15Z" fill="black"/>
</g>
<g id="VerticalBar 9_5">
<path id="Rectangle_5" d="M168 115C168 106.716 174.716 100 183 100C191.284 100 198 106.716 198 115V145C198 153.284 191.284 160 183 160C174.716 160 168 153.284 168 145V115Z" fill="black"/>
</g>
<g id="VerticalBar 9_6">
<path id="Rectangle_6" d="M210 55C210 46.7157 216.716 40 225 40C233.284 40 240 46.7157 240 55V145C240 153.284 233.284 160 225 160C216.716 160 210 153.284 210 145V55Z" fill="black"/>
</g>
</g>
</svg>
