<svg width="240" height="160" viewBox="0 0 240 160" fill="none" xmlns="http://www.w3.org/2000/svg">
<g id="Vertical 07">
<g id="VerticalBar 07">
<path id="Rectangle" opacity="0.5" d="M20 87C20 85.8954 20.8954 85 22 85C23.1046 85 24 85.8954 24 87V160H20V87Z" fill="#A0BCE8"/>
<path id="Rectangle_2" d="M16 82C16 80.8954 16.8954 80 18 80C19.1046 80 20 80.8954 20 82V160H16V82Z" fill="#A0BCE8"/>
</g>
<g id="VerticalBar 07_2">
<path id="Rectangle_3" opacity="0.5" d="M60 31C60 29.8954 60.8954 29 62 29C63.1046 29 64 29.8954 64 31V160H60V31Z" fill="#A0BCE8"/>
<path id="Rectangle_4" d="M56 22C56 20.8954 56.8954 20 58 20C59.1046 20 60 20.8954 60 22V160H56V22Z" fill="#A0BCE8"/>
</g>
<g id="VerticalBar 07_3">
<path id="Rectangle_5" opacity="0.5" d="M100 68C100 66.8954 100.895 66 102 66C103.105 66 104 66.8954 104 68V160H100V68Z" fill="#A0BCE8"/>
<path id="Rectangle_6" d="M96 62C96 60.8954 96.8954 60 98 60C99.1046 60 100 60.8954 100 62V160H96V62Z" fill="#A0BCE8"/>
</g>
<g id="VerticalBar 07_4">
<path id="Rectangle_7" opacity="0.5" d="M140 12C140 10.8954 140.895 10 142 10C143.105 10 144 10.8954 144 12V160H140V12Z" fill="#A0BCE8"/>
<path id="Rectangle_8" d="M136 2C136 0.895429 136.895 0 138 0C139.105 0 140 0.895431 140 2V160H136V2Z" fill="#A0BCE8"/>
</g>
<g id="VerticalBar 07_5">
<path id="Rectangle_9" opacity="0.5" d="M180 105C180 103.895 180.895 103 182 103C183.105 103 184 103.895 184 105V160H180V105Z" fill="#A0BCE8"/>
<path id="Rectangle_10" d="M176 102C176 100.895 176.895 100 178 100C179.105 100 180 100.895 180 102V160H176V102Z" fill="#A0BCE8"/>
</g>
<g id="VerticalBar 07_6">
<path id="Rectangle_11" opacity="0.5" d="M220 49C220 47.8954 220.895 47 222 47C223.105 47 224 47.8954 224 49V160H220V49Z" fill="#A0BCE8"/>
<path id="Rectangle_12" d="M216 42C216 40.8954 216.895 40 218 40C219.105 40 220 40.8954 220 42V160H216V42Z" fill="#A0BCE8"/>
</g>
</g>
</svg>
