<svg width="240" height="160" viewBox="0 0 240 160" fill="none" xmlns="http://www.w3.org/2000/svg">
<g id="Vertical 03">
<g id="VerticalBar 03">
<g id="Rectangle">
<rect x="6" y="81" width="28" height="8.125" rx="2" fill="black" fill-opacity="0.8"/>
<rect x="6" y="81" width="28" height="8.125" rx="2" fill="#A0BCE8" style="mix-blend-mode:color"/>
</g>
<g id="Rectangle_2" opacity="0.2">
<rect x="6" y="91.125" width="28" height="8.125" rx="2" fill="black" fill-opacity="0.8"/>
<rect x="6" y="91.125" width="28" height="8.125" rx="2" fill="#A0BCE8" style="mix-blend-mode:color"/>
</g>
<g id="Rectangle_3" opacity="0.33">
<rect x="6" y="101.25" width="28" height="8.125" rx="2" fill="black" fill-opacity="0.8"/>
<rect x="6" y="101.25" width="28" height="8.125" rx="2" fill="#A0BCE8" style="mix-blend-mode:color"/>
</g>
<g id="Rectangle_4" opacity="0.46">
<rect x="6" y="111.375" width="28" height="8.125" rx="2" fill="black" fill-opacity="0.8"/>
<rect x="6" y="111.375" width="28" height="8.125" rx="2" fill="#A0BCE8" style="mix-blend-mode:color"/>
</g>
<g id="Rectangle_5" opacity="0.59">
<rect x="6" y="121.5" width="28" height="8.125" rx="2" fill="black" fill-opacity="0.8"/>
<rect x="6" y="121.5" width="28" height="8.125" rx="2" fill="#A0BCE8" style="mix-blend-mode:color"/>
</g>
<g id="Rectangle_6" opacity="0.72">
<rect x="6" y="131.625" width="28" height="8.125" rx="2" fill="black" fill-opacity="0.8"/>
<rect x="6" y="131.625" width="28" height="8.125" rx="2" fill="#A0BCE8" style="mix-blend-mode:color"/>
</g>
<g id="Rectangle_7" opacity="0.85">
<rect x="6" y="141.75" width="28" height="8.125" rx="2" fill="black" fill-opacity="0.8"/>
<rect x="6" y="141.75" width="28" height="8.125" rx="2" fill="#A0BCE8" style="mix-blend-mode:color"/>
</g>
<g id="Rectangle_8">
<rect x="6" y="151.875" width="28" height="8.125" rx="2" fill="black" fill-opacity="0.8"/>
<rect x="6" y="151.875" width="28" height="8.125" rx="2" fill="#A0BCE8" style="mix-blend-mode:color"/>
</g>
</g>
<g id="VerticalBar 03_2">
<g id="Rectangle_9">
<rect x="46" y="20.25" width="28" height="8.125" rx="2" fill="black" fill-opacity="0.8"/>
<rect x="46" y="20.25" width="28" height="8.125" rx="2" fill="#A0BCE8" style="mix-blend-mode:color"/>
</g>
<g id="Rectangle_10" opacity="0.2">
<rect x="46" y="30.375" width="28" height="8.125" rx="2" fill="black" fill-opacity="0.8"/>
<rect x="46" y="30.375" width="28" height="8.125" rx="2" fill="#A0BCE8" style="mix-blend-mode:color"/>
</g>
<g id="Rectangle_11" opacity="0.26">
<rect x="46" y="40.5" width="28" height="8.125" rx="2" fill="black" fill-opacity="0.8"/>
<rect x="46" y="40.5" width="28" height="8.125" rx="2" fill="#A0BCE8" style="mix-blend-mode:color"/>
</g>
<g id="Rectangle_12" opacity="0.32">
<rect x="46" y="50.625" width="28" height="8.125" rx="2" fill="black" fill-opacity="0.8"/>
<rect x="46" y="50.625" width="28" height="8.125" rx="2" fill="#A0BCE8" style="mix-blend-mode:color"/>
</g>
<g id="Rectangle_13" opacity="0.38">
<rect x="46" y="60.75" width="28" height="8.125" rx="2" fill="black" fill-opacity="0.8"/>
<rect x="46" y="60.75" width="28" height="8.125" rx="2" fill="#A0BCE8" style="mix-blend-mode:color"/>
</g>
<g id="Rectangle_14" opacity="0.44">
<rect x="46" y="70.875" width="28" height="8.125" rx="2" fill="black" fill-opacity="0.8"/>
<rect x="46" y="70.875" width="28" height="8.125" rx="2" fill="#A0BCE8" style="mix-blend-mode:color"/>
</g>
<g id="Rectangle_15" opacity="0.5">
<rect x="46" y="81" width="28" height="8.125" rx="2" fill="black" fill-opacity="0.8"/>
<rect x="46" y="81" width="28" height="8.125" rx="2" fill="#A0BCE8" style="mix-blend-mode:color"/>
</g>
<g id="Rectangle_16" opacity="0.56">
<rect x="46" y="91.125" width="28" height="8.125" rx="2" fill="black" fill-opacity="0.8"/>
<rect x="46" y="91.125" width="28" height="8.125" rx="2" fill="#A0BCE8" style="mix-blend-mode:color"/>
</g>
<g id="Rectangle_17" opacity="0.62">
<rect x="46" y="101.25" width="28" height="8.125" rx="2" fill="black" fill-opacity="0.8"/>
<rect x="46" y="101.25" width="28" height="8.125" rx="2" fill="#A0BCE8" style="mix-blend-mode:color"/>
</g>
<g id="Rectangle_18" opacity="0.68">
<rect x="46" y="111.375" width="28" height="8.125" rx="2" fill="black" fill-opacity="0.8"/>
<rect x="46" y="111.375" width="28" height="8.125" rx="2" fill="#A0BCE8" style="mix-blend-mode:color"/>
</g>
<g id="Rectangle_19" opacity="0.74">
<rect x="46" y="121.5" width="28" height="8.125" rx="2" fill="black" fill-opacity="0.8"/>
<rect x="46" y="121.5" width="28" height="8.125" rx="2" fill="#A0BCE8" style="mix-blend-mode:color"/>
</g>
<g id="Rectangle_20" opacity="0.8">
<rect x="46" y="131.625" width="28" height="8.125" rx="2" fill="black" fill-opacity="0.8"/>
<rect x="46" y="131.625" width="28" height="8.125" rx="2" fill="#A0BCE8" style="mix-blend-mode:color"/>
</g>
<g id="Rectangle_21" opacity="0.86">
<rect x="46" y="141.75" width="28" height="8.125" rx="2" fill="black" fill-opacity="0.8"/>
<rect x="46" y="141.75" width="28" height="8.125" rx="2" fill="#A0BCE8" style="mix-blend-mode:color"/>
</g>
<g id="Rectangle_22">
<rect x="46" y="151.875" width="28" height="8.125" rx="2" fill="black" fill-opacity="0.8"/>
<rect x="46" y="151.875" width="28" height="8.125" rx="2" fill="#A0BCE8" style="mix-blend-mode:color"/>
</g>
</g>
<g id="VerticalBar 03_3">
<g id="Rectangle_23">
<rect x="86" y="60.75" width="28" height="8.125" rx="2" fill="black" fill-opacity="0.8"/>
<rect x="86" y="60.75" width="28" height="8.125" rx="2" fill="#A0BCE8" style="mix-blend-mode:color"/>
</g>
<g id="Rectangle_24" opacity="0.2">
<rect x="86" y="70.875" width="28" height="8.125" rx="2" fill="black" fill-opacity="0.8"/>
<rect x="86" y="70.875" width="28" height="8.125" rx="2" fill="#A0BCE8" style="mix-blend-mode:color"/>
</g>
<g id="Rectangle_25" opacity="0.3">
<rect x="86" y="81" width="28" height="8.125" rx="2" fill="black" fill-opacity="0.8"/>
<rect x="86" y="81" width="28" height="8.125" rx="2" fill="#A0BCE8" style="mix-blend-mode:color"/>
</g>
<g id="Rectangle_26" opacity="0.4">
<rect x="86" y="91.125" width="28" height="8.125" rx="2" fill="black" fill-opacity="0.8"/>
<rect x="86" y="91.125" width="28" height="8.125" rx="2" fill="#A0BCE8" style="mix-blend-mode:color"/>
</g>
<g id="Rectangle_27" opacity="0.5">
<rect x="86" y="101.25" width="28" height="8.125" rx="2" fill="black" fill-opacity="0.8"/>
<rect x="86" y="101.25" width="28" height="8.125" rx="2" fill="#A0BCE8" style="mix-blend-mode:color"/>
</g>
<g id="Rectangle_28" opacity="0.6">
<rect x="86" y="111.375" width="28" height="8.125" rx="2" fill="black" fill-opacity="0.8"/>
<rect x="86" y="111.375" width="28" height="8.125" rx="2" fill="#A0BCE8" style="mix-blend-mode:color"/>
</g>
<g id="Rectangle_29" opacity="0.7">
<rect x="86" y="121.5" width="28" height="8.125" rx="2" fill="black" fill-opacity="0.8"/>
<rect x="86" y="121.5" width="28" height="8.125" rx="2" fill="#A0BCE8" style="mix-blend-mode:color"/>
</g>
<g id="Rectangle_30" opacity="0.8">
<rect x="86" y="131.625" width="28" height="8.125" rx="2" fill="black" fill-opacity="0.8"/>
<rect x="86" y="131.625" width="28" height="8.125" rx="2" fill="#A0BCE8" style="mix-blend-mode:color"/>
</g>
<g id="Rectangle_31" opacity="0.9">
<rect x="86" y="141.75" width="28" height="8.125" rx="2" fill="black" fill-opacity="0.8"/>
<rect x="86" y="141.75" width="28" height="8.125" rx="2" fill="#A0BCE8" style="mix-blend-mode:color"/>
</g>
<g id="Rectangle_32">
<rect x="86" y="151.875" width="28" height="8.125" rx="2" fill="black" fill-opacity="0.8"/>
<rect x="86" y="151.875" width="28" height="8.125" rx="2" fill="#A0BCE8" style="mix-blend-mode:color"/>
</g>
</g>
<g id="VerticalBar 03_4">
<g id="Rectangle_33">
<rect x="126" width="28" height="8.125" rx="2" fill="black" fill-opacity="0.8"/>
<rect x="126" width="28" height="8.125" rx="2" fill="#A0BCE8" style="mix-blend-mode:color"/>
</g>
<g id="Rectangle_34" opacity="0.2">
<rect x="126" y="10.125" width="28" height="8.125" rx="2" fill="black" fill-opacity="0.8"/>
<rect x="126" y="10.125" width="28" height="8.125" rx="2" fill="#A0BCE8" style="mix-blend-mode:color"/>
</g>
<g id="Rectangle_35" opacity="0.26">
<rect x="126" y="20.25" width="28" height="8.125" rx="2" fill="black" fill-opacity="0.8"/>
<rect x="126" y="20.25" width="28" height="8.125" rx="2" fill="#A0BCE8" style="mix-blend-mode:color"/>
</g>
<g id="Rectangle_36" opacity="0.32">
<rect x="126" y="30.375" width="28" height="8.125" rx="2" fill="black" fill-opacity="0.8"/>
<rect x="126" y="30.375" width="28" height="8.125" rx="2" fill="#A0BCE8" style="mix-blend-mode:color"/>
</g>
<g id="Rectangle_37" opacity="0.38">
<rect x="126" y="40.5" width="28" height="8.125" rx="2" fill="black" fill-opacity="0.8"/>
<rect x="126" y="40.5" width="28" height="8.125" rx="2" fill="#A0BCE8" style="mix-blend-mode:color"/>
</g>
<g id="Rectangle_38" opacity="0.44">
<rect x="126" y="50.625" width="28" height="8.125" rx="2" fill="black" fill-opacity="0.8"/>
<rect x="126" y="50.625" width="28" height="8.125" rx="2" fill="#A0BCE8" style="mix-blend-mode:color"/>
</g>
<g id="Rectangle_39" opacity="0.5">
<rect x="126" y="60.75" width="28" height="8.125" rx="2" fill="black" fill-opacity="0.8"/>
<rect x="126" y="60.75" width="28" height="8.125" rx="2" fill="#A0BCE8" style="mix-blend-mode:color"/>
</g>
<g id="Rectangle_40" opacity="0.56">
<rect x="126" y="70.875" width="28" height="8.125" rx="2" fill="black" fill-opacity="0.8"/>
<rect x="126" y="70.875" width="28" height="8.125" rx="2" fill="#A0BCE8" style="mix-blend-mode:color"/>
</g>
<g id="Rectangle_41" opacity="0.62">
<rect x="126" y="81" width="28" height="8.125" rx="2" fill="black" fill-opacity="0.8"/>
<rect x="126" y="81" width="28" height="8.125" rx="2" fill="#A0BCE8" style="mix-blend-mode:color"/>
</g>
<g id="Rectangle_42" opacity="0.68">
<rect x="126" y="91.125" width="28" height="8.125" rx="2" fill="black" fill-opacity="0.8"/>
<rect x="126" y="91.125" width="28" height="8.125" rx="2" fill="#A0BCE8" style="mix-blend-mode:color"/>
</g>
<g id="Rectangle_43" opacity="0.74">
<rect x="126" y="101.25" width="28" height="8.125" rx="2" fill="black" fill-opacity="0.8"/>
<rect x="126" y="101.25" width="28" height="8.125" rx="2" fill="#A0BCE8" style="mix-blend-mode:color"/>
</g>
<g id="Rectangle_44" opacity="0.8">
<rect x="126" y="111.375" width="28" height="8.125" rx="2" fill="black" fill-opacity="0.8"/>
<rect x="126" y="111.375" width="28" height="8.125" rx="2" fill="#A0BCE8" style="mix-blend-mode:color"/>
</g>
<g id="Rectangle_45" opacity="0.86">
<rect x="126" y="121.5" width="28" height="8.125" rx="2" fill="black" fill-opacity="0.8"/>
<rect x="126" y="121.5" width="28" height="8.125" rx="2" fill="#A0BCE8" style="mix-blend-mode:color"/>
</g>
<g id="Rectangle_46" opacity="0.92">
<rect x="126" y="131.625" width="28" height="8.125" rx="2" fill="black" fill-opacity="0.8"/>
<rect x="126" y="131.625" width="28" height="8.125" rx="2" fill="#A0BCE8" style="mix-blend-mode:color"/>
</g>
<g id="Rectangle_47" opacity="0.98">
<rect x="126" y="141.75" width="28" height="8.125" rx="2" fill="black" fill-opacity="0.8"/>
<rect x="126" y="141.75" width="28" height="8.125" rx="2" fill="#A0BCE8" style="mix-blend-mode:color"/>
</g>
<g id="Rectangle_48">
<rect x="126" y="151.875" width="28" height="8.125" rx="2" fill="black" fill-opacity="0.8"/>
<rect x="126" y="151.875" width="28" height="8.125" rx="2" fill="#A0BCE8" style="mix-blend-mode:color"/>
</g>
</g>
<g id="VerticalBar 03_5">
<g id="Rectangle_49">
<rect x="166" y="101.25" width="28" height="8.125" rx="2" fill="black" fill-opacity="0.8"/>
<rect x="166" y="101.25" width="28" height="8.125" rx="2" fill="#A0BCE8" style="mix-blend-mode:color"/>
</g>
<g id="Rectangle_50" opacity="0.2">
<rect x="166" y="111.375" width="28" height="8.125" rx="2" fill="black" fill-opacity="0.8"/>
<rect x="166" y="111.375" width="28" height="8.125" rx="2" fill="#A0BCE8" style="mix-blend-mode:color"/>
</g>
<g id="Rectangle_51" opacity="0.4">
<rect x="166" y="121.5" width="28" height="8.125" rx="2" fill="black" fill-opacity="0.8"/>
<rect x="166" y="121.5" width="28" height="8.125" rx="2" fill="#A0BCE8" style="mix-blend-mode:color"/>
</g>
<g id="Rectangle_52" opacity="0.6">
<rect x="166" y="131.625" width="28" height="8.125" rx="2" fill="black" fill-opacity="0.8"/>
<rect x="166" y="131.625" width="28" height="8.125" rx="2" fill="#A0BCE8" style="mix-blend-mode:color"/>
</g>
<g id="Rectangle_53" opacity="0.8">
<rect x="166" y="141.75" width="28" height="8.125" rx="2" fill="black" fill-opacity="0.8"/>
<rect x="166" y="141.75" width="28" height="8.125" rx="2" fill="#A0BCE8" style="mix-blend-mode:color"/>
</g>
<g id="Rectangle_54">
<rect x="166" y="151.875" width="28" height="8.125" rx="2" fill="black" fill-opacity="0.8"/>
<rect x="166" y="151.875" width="28" height="8.125" rx="2" fill="#A0BCE8" style="mix-blend-mode:color"/>
</g>
</g>
<g id="VerticalBar 03_6">
<g id="Rectangle_55">
<rect x="206" y="40.5" width="28" height="8.125" rx="2" fill="black" fill-opacity="0.8"/>
<rect x="206" y="40.5" width="28" height="8.125" rx="2" fill="#A0BCE8" style="mix-blend-mode:color"/>
</g>
<g id="Rectangle_56" opacity="0.2">
<rect x="206" y="50.625" width="28" height="8.125" rx="2" fill="black" fill-opacity="0.8"/>
<rect x="206" y="50.625" width="28" height="8.125" rx="2" fill="#A0BCE8" style="mix-blend-mode:color"/>
</g>
<g id="Rectangle_57" opacity="0.28">
<rect x="206" y="60.75" width="28" height="8.125" rx="2" fill="black" fill-opacity="0.8"/>
<rect x="206" y="60.75" width="28" height="8.125" rx="2" fill="#A0BCE8" style="mix-blend-mode:color"/>
</g>
<g id="Rectangle_58" opacity="0.36">
<rect x="206" y="70.875" width="28" height="8.125" rx="2" fill="black" fill-opacity="0.8"/>
<rect x="206" y="70.875" width="28" height="8.125" rx="2" fill="#A0BCE8" style="mix-blend-mode:color"/>
</g>
<g id="Rectangle_59" opacity="0.44">
<rect x="206" y="81" width="28" height="8.125" rx="2" fill="black" fill-opacity="0.8"/>
<rect x="206" y="81" width="28" height="8.125" rx="2" fill="#A0BCE8" style="mix-blend-mode:color"/>
</g>
<g id="Rectangle_60" opacity="0.52">
<rect x="206" y="91.125" width="28" height="8.125" rx="2" fill="black" fill-opacity="0.8"/>
<rect x="206" y="91.125" width="28" height="8.125" rx="2" fill="#A0BCE8" style="mix-blend-mode:color"/>
</g>
<g id="Rectangle_61" opacity="0.6">
<rect x="206" y="101.25" width="28" height="8.125" rx="2" fill="black" fill-opacity="0.8"/>
<rect x="206" y="101.25" width="28" height="8.125" rx="2" fill="#A0BCE8" style="mix-blend-mode:color"/>
</g>
<g id="Rectangle_62" opacity="0.68">
<rect x="206" y="111.375" width="28" height="8.125" rx="2" fill="black" fill-opacity="0.8"/>
<rect x="206" y="111.375" width="28" height="8.125" rx="2" fill="#A0BCE8" style="mix-blend-mode:color"/>
</g>
<g id="Rectangle_63" opacity="0.76">
<rect x="206" y="121.5" width="28" height="8.125" rx="2" fill="black" fill-opacity="0.8"/>
<rect x="206" y="121.5" width="28" height="8.125" rx="2" fill="#A0BCE8" style="mix-blend-mode:color"/>
</g>
<g id="Rectangle_64" opacity="0.84">
<rect x="206" y="131.625" width="28" height="8.125" rx="2" fill="black" fill-opacity="0.8"/>
<rect x="206" y="131.625" width="28" height="8.125" rx="2" fill="#A0BCE8" style="mix-blend-mode:color"/>
</g>
<g id="Rectangle_65" opacity="0.92">
<rect x="206" y="141.75" width="28" height="8.125" rx="2" fill="black" fill-opacity="0.8"/>
<rect x="206" y="141.75" width="28" height="8.125" rx="2" fill="#A0BCE8" style="mix-blend-mode:color"/>
</g>
<g id="Rectangle_66">
<rect x="206" y="151.875" width="28" height="8.125" rx="2" fill="black" fill-opacity="0.8"/>
<rect x="206" y="151.875" width="28" height="8.125" rx="2" fill="#A0BCE8" style="mix-blend-mode:color"/>
</g>
</g>
</g>
</svg>
