<svg width="240" height="160" viewBox="0 0 240 160" fill="none" xmlns="http://www.w3.org/2000/svg">
<g id="Vertical 02">
<g id="VerticalBar 02 A">
<path id="Rectangle" opacity="0.2" d="M6 92.8C6 88.3196 6 86.0794 6.87195 84.3681C7.63893 82.8628 8.86278 81.6389 10.3681 80.8719C12.0794 80 14.3196 80 18.8 80H21.2C25.6804 80 27.9206 80 29.6319 80.8719C31.1372 81.6389 32.3611 82.8628 33.1281 84.3681C34 86.0794 34 88.3196 34 92.8V147.2C34 151.68 34 153.921 33.1281 155.632C32.3611 157.137 31.1372 158.361 29.6319 159.128C27.9206 160 25.6804 160 21.2 160H18.8C14.3196 160 12.0794 160 10.3681 159.128C8.86278 158.361 7.63893 157.137 6.87195 155.632C6 153.921 6 151.68 6 147.2V92.8Z" fill="#A0BCE8"/>
<path id="Rectangle_2" d="M6 106.4C6 104.16 6 103.04 6.43597 102.184C6.81947 101.431 7.43139 100.819 8.18404 100.436C9.03969 100 10.1598 100 12.4 100H27.6C29.8402 100 30.9603 100 31.816 100.436C32.5686 100.819 33.1805 101.431 33.564 102.184C34 103.04 34 104.16 34 106.4V147.2C34 151.68 34 153.921 33.1281 155.632C32.3611 157.137 31.1372 158.361 29.6319 159.128C27.9206 160 25.6804 160 21.2 160H18.8C14.3196 160 12.0794 160 10.3681 159.128C8.86278 158.361 7.63893 157.137 6.87195 155.632C6 153.921 6 151.68 6 147.2V106.4Z" fill="#A0BCE8"/>
</g>
<g id="VerticalBar 02 A_2">
<path id="Rectangle_3" opacity="0.2" d="M46 32.8C46 28.3196 46 26.0794 46.8719 24.3681C47.6389 22.8628 48.8628 21.6389 50.3681 20.8719C52.0794 20 54.3196 20 58.8 20H61.2C65.6804 20 67.9206 20 69.6319 20.8719C71.1372 21.6389 72.3611 22.8628 73.1281 24.3681C74 26.0794 74 28.3196 74 32.8V147.2C74 151.68 74 153.921 73.1281 155.632C72.3611 157.137 71.1372 158.361 69.6319 159.128C67.9206 160 65.6804 160 61.2 160H58.8C54.3196 160 52.0794 160 50.3681 159.128C48.8628 158.361 47.6389 157.137 46.8719 155.632C46 153.921 46 151.68 46 147.2V32.8Z" fill="#6BE6D3"/>
<path id="Rectangle_4" d="M46 46.4C46 44.1598 46 43.0397 46.436 42.184C46.8195 41.4314 47.4314 40.8195 48.184 40.436C49.0397 40 50.1598 40 52.4 40H67.6C69.8402 40 70.9603 40 71.816 40.436C72.5686 40.8195 73.1805 41.4314 73.564 42.184C74 43.0397 74 44.1598 74 46.4V147.2C74 151.68 74 153.921 73.1281 155.632C72.3611 157.137 71.1372 158.361 69.6319 159.128C67.9206 160 65.6804 160 61.2 160H58.8C54.3196 160 52.0794 160 50.3681 159.128C48.8628 158.361 47.6389 157.137 46.8719 155.632C46 153.921 46 151.68 46 147.2V46.4Z" fill="#6BE6D3"/>
</g>
<g id="VerticalBar 02 A_3">
<path id="Rectangle_5" opacity="0.2" d="M86 72.8C86 68.3196 86 66.0794 86.8719 64.3681C87.6389 62.8628 88.8628 61.6389 90.3681 60.8719C92.0794 60 94.3196 60 98.8 60H101.2C105.68 60 107.921 60 109.632 60.8719C111.137 61.6389 112.361 62.8628 113.128 64.3681C114 66.0794 114 68.3196 114 72.8V147.2C114 151.68 114 153.921 113.128 155.632C112.361 157.137 111.137 158.361 109.632 159.128C107.921 160 105.68 160 101.2 160H98.8C94.3196 160 92.0794 160 90.3681 159.128C88.8628 158.361 87.6389 157.137 86.8719 155.632C86 153.921 86 151.68 86 147.2V72.8Z" fill="black"/>
<path id="Rectangle_6" d="M86 86.4C86 84.1598 86 83.0397 86.436 82.184C86.8195 81.4314 87.4314 80.8195 88.184 80.436C89.0397 80 90.1598 80 92.4 80H107.6C109.84 80 110.96 80 111.816 80.436C112.569 80.8195 113.181 81.4314 113.564 82.184C114 83.0397 114 84.1598 114 86.4V147.2C114 151.68 114 153.921 113.128 155.632C112.361 157.137 111.137 158.361 109.632 159.128C107.921 160 105.68 160 101.2 160H98.8C94.3196 160 92.0794 160 90.3681 159.128C88.8628 158.361 87.6389 157.137 86.8719 155.632C86 153.921 86 151.68 86 147.2V86.4Z" fill="black"/>
</g>
<g id="VerticalBar 02 A_4">
<path id="Rectangle_7" opacity="0.2" d="M126 12.8C126 8.31958 126 6.07937 126.872 4.36808C127.639 2.86278 128.863 1.63893 130.368 0.871948C132.079 0 134.32 0 138.8 0H141.2C145.68 0 147.921 0 149.632 0.871948C151.137 1.63893 152.361 2.86278 153.128 4.36808C154 6.07937 154 8.31958 154 12.8V147.2C154 151.68 154 153.921 153.128 155.632C152.361 157.137 151.137 158.361 149.632 159.128C147.921 160 145.68 160 141.2 160H138.8C134.32 160 132.079 160 130.368 159.128C128.863 158.361 127.639 157.137 126.872 155.632C126 153.921 126 151.68 126 147.2V12.8Z" fill="#7DBBFF"/>
<path id="Rectangle_8" d="M126 26.4C126 24.1598 126 23.0397 126.436 22.184C126.819 21.4314 127.431 20.8195 128.184 20.436C129.04 20 130.16 20 132.4 20H147.6C149.84 20 150.96 20 151.816 20.436C152.569 20.8195 153.181 21.4314 153.564 22.184C154 23.0397 154 24.1598 154 26.4V147.2C154 151.68 154 153.921 153.128 155.632C152.361 157.137 151.137 158.361 149.632 159.128C147.921 160 145.68 160 141.2 160H138.8C134.32 160 132.079 160 130.368 159.128C128.863 158.361 127.639 157.137 126.872 155.632C126 153.921 126 151.68 126 147.2V26.4Z" fill="#7DBBFF"/>
</g>
<g id="VerticalBar 02 A_5">
<path id="Rectangle_9" opacity="0.2" d="M166 112.8C166 108.32 166 106.079 166.872 104.368C167.639 102.863 168.863 101.639 170.368 100.872C172.079 100 174.32 100 178.8 100H181.2C185.68 100 187.921 100 189.632 100.872C191.137 101.639 192.361 102.863 193.128 104.368C194 106.079 194 108.32 194 112.8V147.2C194 151.68 194 153.921 193.128 155.632C192.361 157.137 191.137 158.361 189.632 159.128C187.921 160 185.68 160 181.2 160H178.8C174.32 160 172.079 160 170.368 159.128C168.863 158.361 167.639 157.137 166.872 155.632C166 153.921 166 151.68 166 147.2V112.8Z" fill="#B899EB"/>
<path id="Rectangle_10" d="M166 126.4C166 124.16 166 123.04 166.436 122.184C166.819 121.431 167.431 120.819 168.184 120.436C169.04 120 170.16 120 172.4 120H187.6C189.84 120 190.96 120 191.816 120.436C192.569 120.819 193.181 121.431 193.564 122.184C194 123.04 194 124.16 194 126.4V147.2C194 151.68 194 153.921 193.128 155.632C192.361 157.137 191.137 158.361 189.632 159.128C187.921 160 185.68 160 181.2 160H178.8C174.32 160 172.079 160 170.368 159.128C168.863 158.361 167.639 157.137 166.872 155.632C166 153.921 166 151.68 166 147.2V126.4Z" fill="#B899EB"/>
</g>
<g id="VerticalBar 02 A_6">
<path id="Rectangle_11" opacity="0.2" d="M206 52.8C206 48.3196 206 46.0794 206.872 44.3681C207.639 42.8628 208.863 41.6389 210.368 40.8719C212.079 40 214.32 40 218.8 40H221.2C225.68 40 227.921 40 229.632 40.8719C231.137 41.6389 232.361 42.8628 233.128 44.3681C234 46.0794 234 48.3196 234 52.8V147.2C234 151.68 234 153.921 233.128 155.632C232.361 157.137 231.137 158.361 229.632 159.128C227.921 160 225.68 160 221.2 160H218.8C214.32 160 212.079 160 210.368 159.128C208.863 158.361 207.639 157.137 206.872 155.632C206 153.921 206 151.68 206 147.2V52.8Z" fill="#71DD8C"/>
<path id="Rectangle_12" d="M206 66.4C206 64.1598 206 63.0397 206.436 62.184C206.819 61.4314 207.431 60.8195 208.184 60.436C209.04 60 210.16 60 212.4 60H227.6C229.84 60 230.96 60 231.816 60.436C232.569 60.8195 233.181 61.4314 233.564 62.184C234 63.0397 234 64.1598 234 66.4V147.2C234 151.68 234 153.921 233.128 155.632C232.361 157.137 231.137 158.361 229.632 159.128C227.921 160 225.68 160 221.2 160H218.8C214.32 160 212.079 160 210.368 159.128C208.863 158.361 207.639 157.137 206.872 155.632C206 153.921 206 151.68 206 147.2V66.4Z" fill="#71DD8C"/>
</g>
</g>
</svg>
