<svg preserveAspectRatio="none" width="100%" height="100%" overflow="visible" style="display: block;" viewBox="0 0 28 28" fill="none" xmlns="http://www.w3.org/2000/svg">
<g id="Frame">
<path id="back" d="M0 14C0 6.26801 6.26801 0 14 0C21.732 0 28 6.26801 28 14C28 21.732 21.732 28 14 28C6.26801 28 0 21.732 0 14Z" fill="var(--fill-0, #1769FF)"/>
<path id="Shape" d="M18.0763 11.5257C18.6707 11.5257 19.2059 11.6316 19.6818 11.8421C20.1585 12.0517 20.5515 12.3844 20.8605 12.8382C21.1421 13.2383 21.3229 13.7025 21.4054 14.2298C21.4537 14.5382 21.4729 14.9855 21.465 15.5667H16.4923C16.5222 16.2414 16.7577 16.7156 17.2072 16.9867C17.4793 17.1555 17.807 17.2396 18.1915 17.2396C18.5961 17.2396 18.9271 17.137 19.1808 16.932C19.3204 16.8202 19.4436 16.6656 19.549 16.4681H21.3712C21.3229 16.8665 21.1015 17.2727 20.7101 17.6849C20.099 18.3388 19.2428 18.6663 18.1427 18.6663C17.234 18.6663 16.4321 18.3909 15.7394 17.8382C15.0432 17.2864 14.6974 16.3876 14.6974 15.1439C14.6974 13.9771 15.0108 13.0821 15.6368 12.4593C16.2645 11.8384 17.0765 11.5258 18.0763 11.5257ZM10.9923 9.33333C12.1179 9.34979 12.9151 9.67253 13.3849 10.3031C13.6667 10.6902 13.8077 11.1531 13.8077 11.6927C13.8077 12.2479 13.6663 12.6957 13.381 13.0335C13.2212 13.2224 12.9868 13.3962 12.6769 13.5521C13.1474 13.7219 13.5019 13.9894 13.7433 14.3558C13.9821 14.7213 14.1027 15.1666 14.1027 15.6898C14.1026 16.2293 13.9653 16.7131 13.6906 17.141C13.5167 17.4242 13.2989 17.6637 13.0372 17.8577C12.7432 18.0802 12.3963 18.2317 11.9952 18.3148C11.594 18.397 11.1603 18.4368 10.6915 18.4368H6.53333V9.33333H10.9923ZM8.37318 14.429V16.8568H10.6134C11.0138 16.8568 11.3268 16.8032 11.549 16.6966C11.9533 16.4974 12.1553 16.12 12.1554 15.5609C12.1554 15.0862 11.96 14.7609 11.5675 14.5833C11.348 14.4847 11.0396 14.4325 10.6447 14.429H8.37318ZM18.0773 12.9779C17.621 12.9779 17.2648 13.1065 17.0128 13.3626C16.7609 13.619 16.6013 13.9665 16.5363 14.4046H19.6124C19.5799 13.937 19.4195 13.5835 19.1368 13.3402C18.8507 13.0987 18.4985 12.9779 18.0773 12.9779ZM8.37318 10.9144V12.9232H10.6173C11.0165 12.9231 11.3419 12.8472 11.5929 12.6966C11.8423 12.5459 11.9679 12.2789 11.9679 11.8978C11.9678 11.4727 11.8028 11.1928 11.4728 11.056C11.1867 10.9617 10.8233 10.9144 10.382 10.9144H8.37318ZM20.0304 10.891H16.0753V9.75814H20.0304V10.891Z" fill="var(--fill-0, white)"/>
</g>
</svg>
