<svg width="48" height="36" viewBox="0 0 48 36" fill="none" xmlns="http://www.w3.org/2000/svg">
  <path opacity="0.1" d="M0 6C0 2.68629 2.68629 0 6 0H42C45.3137 0 48 2.68629 48 6V30C48 33.3137 45.3137 36 42 36H6C2.68629 36 0 33.3137 0 30V6Z" fill="#fff"/>
  <path fill-rule="evenodd" clip-rule="evenodd" d="M42 0C45.3137 0 48 2.68629 48 6V30C48 33.3137 45.3137 36 42 36H6C2.68629 36 0 33.3137 0 30V6C0 2.68629 2.68629 0 6 0H42ZM32.25 1.5H6C3.51472 1.5 1.5 3.51472 1.5 6V11.25H11.0625C14.4798 11.25 17.25 14.0202 17.25 17.4375V34.5H32.25V1.5ZM33.75 34.5H42C44.4853 34.5 46.5 32.4853 46.5 30V29.5962H33.75V34.5ZM46.5 28.0962V20.5577H33.75V28.0962H46.5ZM46.5 19.0577V11.5192H33.75V19.0577H46.5ZM46.5 10.0192V6C46.5 3.51472 44.4853 1.5 42 1.5H33.75V10.0192H46.5ZM1.5 19.8476V12.75H11.0625C13.6513 12.75 15.75 14.8487 15.75 17.4375V19.8476H1.5ZM1.5 28.4451V21.3476H15.75V28.4451H1.5ZM1.5 30V29.9451H15.75V34.5H6C3.51472 34.5 1.5 32.4853 1.5 30Z" fill="#fff"/>
</svg>
