<svg width="16" height="16" viewBox="0 0 16 16" fill="none" xmlns="http://www.w3.org/2000/svg">
<path d="M12.5 7.5C12.5 7.63261 12.4473 7.75979 12.3536 7.85355C12.2598 7.94732 12.1326 8 12 8H4C3.86739 8 3.74021 7.94732 3.64645 7.85355C3.55268 7.75979 3.5 7.63261 3.5 7.5C3.5 7.36739 3.55268 7.24021 3.64645 7.14645C3.74021 7.05268 3.86739 7 4 7H12C12.1326 7 12.2598 7.05268 12.3536 7.14645C12.4473 7.24021 12.5 7.36739 12.5 7.5ZM14.5 4H1.5C1.36739 4 1.24021 4.05268 1.14645 4.14645C1.05268 4.24021 1 4.36739 1 4.5C1 4.63261 1.05268 4.75979 1.14645 4.85355C1.24021 4.94732 1.36739 5 1.5 5H14.5C14.6326 5 14.7598 4.94732 14.8536 4.85355C14.9473 4.75979 15 4.63261 15 4.5C15 4.36739 14.9473 4.24021 14.8536 4.14645C14.7598 4.05268 14.6326 4 14.5 4ZM9.5 10H6.5C6.36739 10 6.24021 10.0527 6.14645 10.1464C6.05268 10.2402 6 10.3674 6 10.5C6 10.6326 6.05268 10.7598 6.14645 10.8536C6.24021 10.9473 6.36739 11 6.5 11H9.5C9.63261 11 9.75979 10.9473 9.85355 10.8536C9.94732 10.7598 10 10.6326 10 10.5C10 10.3674 9.94732 10.2402 9.85355 10.1464C9.75979 10.0527 9.63261 10 9.5 10Z" fill="black"/>
</svg>
