<svg xmlns="http://www.w3.org/2000/svg" width="32" height="32" viewBox="0 0 32 32" fill="none"><g id="Union" opacity="0.08">
<path d="M19.75 4C19.3358 4 19 4.33579 19 4.75C19 5.16421 19.3358 5.5 19.75 5.5H23.75C24.9926 5.5 26 6.50736 26 7.75V11.75C26 12.1642 26.3358 12.5 26.75 12.5C27.1642 12.5 27.5 12.1642 27.5 11.75V7.75C27.5 5.67893 25.8211 4 23.75 4H19.75Z" fill="black" />
<path d="M11.75 27.5C12.1642 27.5 12.5 27.1642 12.5 26.75C12.5 26.3358 12.1642 26 11.75 26H7.75C6.50736 26 5.5 24.9926 5.5 23.75L5.5 19.75C5.5 19.3358 5.16421 19 4.75 19C4.33579 19 4 19.3358 4 19.75V23.75C4 25.8211 5.67893 27.5 7.75 27.5H11.75Z" fill="black" />
<path d="M4.75 12.5C4.33579 12.5 4 12.1642 4 11.75V7.75C4 5.67893 5.67893 4 7.75 4H11.75C12.1642 4 12.5 4.33579 12.5 4.75C12.5 5.16421 12.1642 5.5 11.75 5.5L7.75 5.5C6.50736 5.5 5.5 6.50736 5.5 7.75L5.5 11.75C5.5 12.1642 5.16421 12.5 4.75 12.5Z" fill="black" />
<path d="M27.5 19.75C27.5 19.3358 27.1642 19 26.75 19C26.3358 19 26 19.3358 26 19.75V23.75C26 24.9926 24.9926 26 23.75 26H19.75C19.3358 26 19 26.3358 19 26.75C19 27.1642 19.3358 27.5 19.75 27.5H23.75C25.8211 27.5 27.5 25.8211 27.5 23.75V19.75Z" fill="black" />
</g>
<g id="32">
<path d="M9 18.6649H10.0739C10.1051 18.9603 10.206 19.2103 10.3764 19.4149C10.5497 19.6166 10.7741 19.77 11.0497 19.8751C11.3253 19.9774 11.6307 20.0285 11.9659 20.0285C12.3295 20.0285 12.6562 19.9674 12.946 19.8453C13.2358 19.7231 13.4659 19.5413 13.6364 19.2998C13.8068 19.0555 13.892 18.7529 13.892 18.3921C13.892 18.0768 13.8182 17.7842 13.6705 17.5143C13.5227 17.2416 13.2855 17.0214 12.9588 16.8538C12.6321 16.6862 12.1989 16.6024 11.6591 16.6024H10.9602V15.7501L13.142 13.1251V13.0569H9.42614V12.1194H14.5909V12.8865L12.2557 15.716V15.7842C12.6307 15.8012 12.9801 15.8779 13.304 16.0143C13.6307 16.1507 13.9148 16.3353 14.1562 16.5683C14.4006 16.8012 14.5909 17.0725 14.7273 17.3822C14.8636 17.6919 14.9318 18.0285 14.9318 18.3921C14.9318 18.8893 14.804 19.3325 14.5483 19.7217C14.2955 20.108 13.9446 20.412 13.4957 20.6336C13.0497 20.8552 12.5341 20.966 11.9489 20.966C11.4318 20.966 10.956 20.8751 10.5213 20.6933C10.0866 20.5115 9.73295 20.2487 9.46023 19.9049C9.1875 19.5612 9.03409 19.1478 9 18.6649Z" fill="black" />
<path d="M16.6715 20.8467V20.0796L19.5522 16.9262C19.8903 16.5569 20.1687 16.2359 20.3874 15.9632C20.6062 15.6876 20.7681 15.4291 20.8732 15.1876C20.9812 14.9433 21.0352 14.6876 21.0352 14.4205C21.0352 14.1137 20.9613 13.8481 20.8136 13.6237C20.6687 13.3992 20.4698 13.2259 20.217 13.1038C19.9641 12.9816 19.68 12.9205 19.3647 12.9205C19.0295 12.9205 18.7369 12.9901 18.4869 13.1294C18.2397 13.2657 18.0479 13.4575 17.9116 13.7046C17.7781 13.9518 17.7113 14.2416 17.7113 14.574H16.7056C16.7056 14.0626 16.8235 13.6137 17.0593 13.2274C17.2951 12.841 17.6161 12.5399 18.0224 12.324C18.4315 12.108 18.8903 12.0001 19.3988 12.0001C19.9102 12.0001 20.3633 12.108 20.7582 12.324C21.1531 12.5399 21.4627 12.8311 21.6871 13.1975C21.9116 13.564 22.0238 13.9717 22.0238 14.4205C22.0238 14.7416 21.9656 15.0555 21.8491 15.3623C21.7354 15.6663 21.5366 16.0058 21.2525 16.3808C20.9712 16.7529 20.5806 17.2075 20.0806 17.7444L18.1204 19.841V19.9092H22.1772V20.8467H16.6715Z" fill="black" />
</g>
</svg>
