<svg xmlns="http://www.w3.org/2000/svg" width="32" height="32" viewBox="0 0 32 32" fill="none"><g id="Union" opacity="0.08">
<path d="M19.75 4C19.3358 4 19 4.33579 19 4.75C19 5.16421 19.3358 5.5 19.75 5.5H23.75C24.9926 5.5 26 6.50736 26 7.75V11.75C26 12.1642 26.3358 12.5 26.75 12.5C27.1642 12.5 27.5 12.1642 27.5 11.75V7.75C27.5 5.67893 25.8211 4 23.75 4H19.75Z" fill="black" />
<path d="M11.75 27.5C12.1642 27.5 12.5 27.1642 12.5 26.75C12.5 26.3358 12.1642 26 11.75 26H7.75C6.50736 26 5.5 24.9926 5.5 23.75L5.5 19.75C5.5 19.3358 5.16421 19 4.75 19C4.33579 19 4 19.3358 4 19.75V23.75C4 25.8211 5.67893 27.5 7.75 27.5H11.75Z" fill="black" />
<path d="M4.75 12.5C4.33579 12.5 4 12.1642 4 11.75V7.75C4 5.67893 5.67893 4 7.75 4H11.75C12.1642 4 12.5 4.33579 12.5 4.75C12.5 5.16421 12.1642 5.5 11.75 5.5L7.75 5.5C6.50736 5.5 5.5 6.50736 5.5 7.75L5.5 11.75C5.5 12.1642 5.16421 12.5 4.75 12.5Z" fill="black" />
<path d="M27.5 19.75C27.5 19.3358 27.1642 19 26.75 19C26.3358 19 26 19.3358 26 19.75V23.75C26 24.9926 24.9926 26 23.75 26H19.75C19.3358 26 19 26.3358 19 26.75C19 27.1642 19.3358 27.5 19.75 27.5H23.75C25.8211 27.5 27.5 25.8211 27.5 23.75V19.75Z" fill="black" />
</g>
<g id="28">
<path d="M9.00012 20.8467V20.0796L11.8808 16.9262C12.2189 16.5569 12.4973 16.2359 12.716 15.9632C12.9348 15.6876 13.0967 15.4291 13.2018 15.1876C13.3098 14.9433 13.3638 14.6876 13.3638 14.4205C13.3638 14.1137 13.2899 13.8481 13.1422 13.6237C12.9973 13.3992 12.7984 13.2259 12.5456 13.1038C12.2927 12.9816 12.0086 12.9205 11.6933 12.9205C11.3581 12.9205 11.0655 12.9901 10.8155 13.1294C10.5683 13.2657 10.3765 13.4575 10.2402 13.7046C10.1067 13.9518 10.0399 14.2416 10.0399 14.574H9.03421C9.03421 14.0626 9.15211 13.6137 9.38791 13.2274C9.6237 12.841 9.94472 12.5399 10.351 12.324C10.7601 12.108 11.2189 12.0001 11.7274 12.0001C12.2388 12.0001 12.6919 12.108 13.0868 12.324C13.4817 12.5399 13.7913 12.8311 14.0157 13.1975C14.2402 13.564 14.3524 13.9717 14.3524 14.4205C14.3524 14.7416 14.2942 15.0555 14.1777 15.3623C14.064 15.6663 13.8652 16.0058 13.5811 16.3808C13.2998 16.7529 12.9092 17.2075 12.4092 17.7444L10.449 19.841V19.9092H14.5058V20.8467H9.00012Z" fill="black" />
<path d="M19.0612 20.966C18.476 20.966 17.9589 20.8623 17.5101 20.6549C17.064 20.4447 16.716 20.1563 16.466 19.7899C16.216 19.4205 16.0925 19.0001 16.0953 18.5285C16.0925 18.1592 16.1649 17.8183 16.3126 17.5058C16.4603 17.1904 16.6621 16.9276 16.9177 16.7174C17.1763 16.5044 17.4646 16.3694 17.7828 16.3126V16.2615C17.3652 16.1535 17.0328 15.9191 16.7856 15.5583C16.5385 15.1947 16.4163 14.7813 16.4192 14.3183C16.4163 13.8751 16.5285 13.4788 16.7558 13.1294C16.9831 12.7799 17.2956 12.5044 17.6933 12.3026C18.0939 12.1009 18.5498 12.0001 19.0612 12.0001C19.5669 12.0001 20.0186 12.1009 20.4163 12.3026C20.814 12.5044 21.1265 12.7799 21.3538 13.1294C21.5839 13.4788 21.7004 13.8751 21.7032 14.3183C21.7004 14.7813 21.574 15.1947 21.324 15.5583C21.0768 15.9191 20.7487 16.1535 20.3396 16.2615V16.3126C20.655 16.3694 20.939 16.5044 21.1919 16.7174C21.4447 16.9276 21.6464 17.1904 21.797 17.5058C21.9476 17.8183 22.0243 18.1592 22.0271 18.5285C22.0243 19.0001 21.8964 19.4205 21.6436 19.7899C21.3936 20.1563 21.0456 20.4447 20.5996 20.6549C20.1564 20.8623 19.6436 20.966 19.0612 20.966ZM19.0612 20.0285C19.4561 20.0285 19.797 19.9646 20.0839 19.8367C20.3709 19.7089 20.5925 19.5285 20.7487 19.2955C20.905 19.0626 20.9845 18.7899 20.9873 18.4774C20.9845 18.1478 20.8993 17.8566 20.7317 17.6038C20.564 17.3509 20.3354 17.1521 20.0456 17.0072C19.7586 16.8623 19.4305 16.7899 19.0612 16.7899C18.689 16.7899 18.3567 16.8623 18.064 17.0072C17.7743 17.1521 17.5456 17.3509 17.378 17.6038C17.2132 17.8566 17.1322 18.1478 17.1351 18.4774C17.1322 18.7899 17.2075 19.0626 17.3609 19.2955C17.5172 19.5285 17.7402 19.7089 18.03 19.8367C18.3197 19.9646 18.6635 20.0285 19.0612 20.0285ZM19.0612 15.8865C19.3737 15.8865 19.6507 15.824 19.8922 15.699C20.1365 15.574 20.3282 15.3992 20.4675 15.1748C20.6067 14.9504 20.6777 14.6876 20.6805 14.3865C20.6777 14.091 20.6081 13.8339 20.4717 13.6151C20.3354 13.3936 20.1464 13.2231 19.905 13.1038C19.6635 12.9816 19.3822 12.9205 19.0612 12.9205C18.7345 12.9205 18.449 12.9816 18.2047 13.1038C17.9603 13.2231 17.7714 13.3936 17.6379 13.6151C17.5044 13.8339 17.439 14.091 17.4419 14.3865C17.439 14.6876 17.5058 14.9504 17.6422 15.1748C17.7814 15.3992 17.9731 15.574 18.2175 15.699C18.4618 15.824 18.743 15.8865 19.0612 15.8865Z" fill="black" />
</g>
</svg>
