<svg xmlns="http://www.w3.org/2000/svg" width="32" height="32" viewBox="0 0 32 32" fill="none"><g id="Union" opacity="0.08">
<path d="M19.75 4C19.3358 4 19 4.33579 19 4.75C19 5.16421 19.3358 5.5 19.75 5.5H23.75C24.9926 5.5 26 6.50736 26 7.75V11.75C26 12.1642 26.3358 12.5 26.75 12.5C27.1642 12.5 27.5 12.1642 27.5 11.75V7.75C27.5 5.67893 25.8211 4 23.75 4H19.75Z" fill="black" />
<path d="M11.75 27.5C12.1642 27.5 12.5 27.1642 12.5 26.75C12.5 26.3358 12.1642 26 11.75 26H7.75C6.50736 26 5.5 24.9926 5.5 23.75L5.5 19.75C5.5 19.3358 5.16421 19 4.75 19C4.33579 19 4 19.3358 4 19.75V23.75C4 25.8211 5.67893 27.5 7.75 27.5H11.75Z" fill="black" />
<path d="M4.75 12.5C4.33579 12.5 4 12.1642 4 11.75V7.75C4 5.67893 5.67893 4 7.75 4H11.75C12.1642 4 12.5 4.33579 12.5 4.75C12.5 5.16421 12.1642 5.5 11.75 5.5L7.75 5.5C6.50736 5.5 5.5 6.50736 5.5 7.75L5.5 11.75C5.5 12.1642 5.16421 12.5 4.75 12.5Z" fill="black" />
<path d="M27.5 19.75C27.5 19.3358 27.1642 19 26.75 19C26.3358 19 26 19.3358 26 19.75V23.75C26 24.9926 24.9926 26 23.75 26H19.75C19.3358 26 19 26.3358 19 26.75C19 27.1642 19.3358 27.5 19.75 27.5H23.75C25.8211 27.5 27.5 25.8211 27.5 23.75V19.75Z" fill="black" />
</g>
<g id="48">
<path d="M8.99988 19.0569V18.1876L12.4942 12.1194H13.534L10.1249 18.0512V18.1194H15.3067V19.0569H8.99988ZM13.1078 20.8467V15.3921H14.1135V20.8467H13.1078Z" fill="black" />
<path d="M19.6991 20.966C19.1139 20.966 18.5968 20.8623 18.148 20.6549C17.7019 20.4447 17.3539 20.1563 17.1039 19.7899C16.8539 19.4205 16.7303 19.0001 16.7332 18.5285C16.7303 18.1592 16.8028 17.8183 16.9505 17.5058C17.0982 17.1904 17.2999 16.9276 17.5556 16.7174C17.8142 16.5044 18.1025 16.3694 18.4207 16.3126V16.2615C18.0031 16.1535 17.6707 15.9191 17.4235 15.5583C17.1764 15.1947 17.0542 14.7813 17.0571 14.3183C17.0542 13.8751 17.1664 13.4788 17.3937 13.1294C17.621 12.7799 17.9335 12.5044 18.3312 12.3026C18.7318 12.1009 19.1877 12.0001 19.6991 12.0001C20.2048 12.0001 20.6565 12.1009 21.0542 12.3026C21.4519 12.5044 21.7644 12.7799 21.9917 13.1294C22.2218 13.4788 22.3383 13.8751 22.3411 14.3183C22.3383 14.7813 22.2119 15.1947 21.9619 15.5583C21.7147 15.9191 21.3866 16.1535 20.9775 16.2615V16.3126C21.2928 16.3694 21.5769 16.5044 21.8298 16.7174C22.0826 16.9276 22.2843 17.1904 22.4349 17.5058C22.5855 17.8183 22.6622 18.1592 22.665 18.5285C22.6622 19.0001 22.5343 19.4205 22.2815 19.7899C22.0315 20.1563 21.6835 20.4447 21.2374 20.6549C20.7943 20.8623 20.2815 20.966 19.6991 20.966ZM19.6991 20.0285C20.094 20.0285 20.4349 19.9646 20.7218 19.8367C21.0088 19.7089 21.2303 19.5285 21.3866 19.2955C21.5428 19.0626 21.6224 18.7899 21.6252 18.4774C21.6224 18.1478 21.5372 17.8566 21.3696 17.6038C21.2019 17.3509 20.9732 17.1521 20.6835 17.0072C20.3965 16.8623 20.0684 16.7899 19.6991 16.7899C19.3269 16.7899 18.9946 16.8623 18.7019 17.0072C18.4122 17.1521 18.1835 17.3509 18.0159 17.6038C17.8511 17.8566 17.7701 18.1478 17.773 18.4774C17.7701 18.7899 17.8454 19.0626 17.9988 19.2955C18.1551 19.5285 18.3781 19.7089 18.6678 19.8367C18.9576 19.9646 19.3014 20.0285 19.6991 20.0285ZM19.6991 15.8865C20.0116 15.8865 20.2886 15.824 20.5301 15.699C20.7744 15.574 20.9661 15.3992 21.1053 15.1748C21.2446 14.9504 21.3156 14.6876 21.3184 14.3865C21.3156 14.091 21.246 13.8339 21.1096 13.6151C20.9732 13.3936 20.7843 13.2231 20.5428 13.1038C20.3014 12.9816 20.0201 12.9205 19.6991 12.9205C19.3724 12.9205 19.0869 12.9816 18.8426 13.1038C18.5982 13.2231 18.4093 13.3936 18.2758 13.6151C18.1423 13.8339 18.0769 14.091 18.0798 14.3865C18.0769 14.6876 18.1437 14.9504 18.2801 15.1748C18.4193 15.3992 18.611 15.574 18.8553 15.699C19.0997 15.824 19.3809 15.8865 19.6991 15.8865Z" fill="black" />
</g>
</svg>
