<svg preserveAspectRatio="none" width="100%" height="100%" overflow="visible" style="display: block;" viewBox="0 0 28 28" fill="none" xmlns="http://www.w3.org/2000/svg">
<g id="Frame">
<g id="Ellipse">
<circle cx="14" cy="14" r="14" fill="url(#paint0_radial_0_1784)"/>
<circle cx="14" cy="14" r="14" fill="url(#paint1_radial_0_1784)"/>
</g>
<path id="Vector" d="M14.0008 5.6C11.7195 5.6 11.4332 5.60998 10.5372 5.65075C9.64289 5.6917 9.03249 5.83328 8.49838 6.041C7.9459 6.25555 7.47724 6.54255 7.01034 7.00963C6.54309 7.47653 6.25608 7.94518 6.04083 8.49748C5.83258 9.03175 5.69083 9.64233 5.65058 10.5362C5.6105 11.4322 5.6 11.7187 5.6 14C5.6 16.2813 5.61015 16.5667 5.65075 17.4627C5.69188 18.357 5.83345 18.9674 6.04101 19.5015C6.25573 20.0539 6.54274 20.5226 7.00981 20.9895C7.47654 21.4568 7.9452 21.7445 8.49733 21.959C9.03179 22.1667 9.64237 22.3083 10.5365 22.3492C11.4325 22.39 11.7186 22.4 13.9997 22.4C16.2812 22.4 16.5667 22.39 17.4627 22.3492C18.3569 22.3083 18.968 22.1667 19.5025 21.959C20.0548 21.7445 20.5228 21.4568 20.9895 20.9895C21.4567 20.5226 21.7437 20.054 21.959 19.5017C22.1655 18.9674 22.3072 18.3568 22.3492 17.4629C22.3895 16.5669 22.4 16.2813 22.4 14C22.4 11.7187 22.3895 11.4324 22.3492 10.5364C22.3072 9.64215 22.1655 9.03175 21.959 8.49765C21.7437 7.94518 21.4567 7.47653 20.9895 7.00963C20.5222 6.54238 20.055 6.25538 19.502 6.041C18.9665 5.83328 18.3557 5.6917 17.4614 5.65075C16.5654 5.60998 16.2802 5.6 13.9982 5.6H14.0008ZM13.2472 7.11375C13.4709 7.1134 13.7204 7.11375 14.0008 7.11375C16.2436 7.11375 16.5094 7.1218 17.3951 7.16205C18.2141 7.1995 18.6586 7.33635 18.9547 7.45133C19.3467 7.60358 19.6262 7.78558 19.92 8.07958C20.2141 8.37358 20.3961 8.65358 20.5487 9.04558C20.6636 9.34133 20.8007 9.78583 20.8379 10.6048C20.8782 11.4903 20.8869 11.7563 20.8869 13.9981C20.8869 16.2398 20.8782 16.5058 20.8379 17.3913C20.8005 18.2103 20.6636 18.6548 20.5487 18.9506C20.3964 19.3426 20.2141 19.6217 19.92 19.9155C19.626 20.2095 19.3469 20.3915 18.9547 20.5438C18.659 20.6593 18.2141 20.7958 17.3951 20.8332C16.5096 20.8735 16.2436 20.8822 14.0008 20.8822C11.7578 20.8822 11.492 20.8735 10.6065 20.8332C9.78744 20.7954 9.34294 20.6586 9.04666 20.5436C8.65466 20.3913 8.37465 20.2094 8.08065 19.9154C7.78665 19.6214 7.60465 19.3421 7.45204 18.9499C7.33707 18.6541 7.20004 18.2096 7.16277 17.3906C7.12252 16.5051 7.11447 16.2391 7.11447 13.996C7.11447 11.7528 7.12252 11.4882 7.16277 10.6027C7.20022 9.78373 7.33707 9.33923 7.45204 9.04313C7.6043 8.65113 7.78665 8.37113 8.08065 8.07713C8.37465 7.78313 8.65466 7.60113 9.04666 7.44853C9.34276 7.33303 9.78744 7.19653 10.6065 7.1589C11.3814 7.1239 11.6817 7.1134 13.2472 7.11165V7.11375ZM18.4847 8.5085C17.9282 8.5085 17.4767 8.95948 17.4767 9.51615C17.4767 10.0727 17.9282 10.5242 18.4847 10.5242C19.0412 10.5242 19.4927 10.0727 19.4927 9.51615C19.4927 8.95965 19.0412 8.50815 18.4847 8.50815V8.5085ZM14.0008 9.68625C11.6185 9.68625 9.68699 11.6177 9.68699 14C9.68699 16.3823 11.6185 18.3129 14.0008 18.3129C16.3831 18.3129 18.3139 16.3823 18.3139 14C18.3139 11.6177 16.3829 9.68625 14.0006 9.68625H14.0008ZM14.0008 11.2C15.5471 11.2 16.8008 12.4535 16.8008 14C16.8008 15.5463 15.5471 16.8 14.0008 16.8C12.4543 16.8 11.2008 15.5463 11.2008 14C11.2008 12.4535 12.4543 11.2 14.0008 11.2V11.2Z" fill="var(--fill-0, white)"/>
</g>
<defs>
<radialGradient id="paint0_radial_0_1784" cx="0" cy="0" r="1" gradientUnits="userSpaceOnUse" gradientTransform="translate(7.43754 30.1566) rotate(-90) scale(27.7501 25.8097)">
<stop stop-color="#FFDD55"/>
<stop offset="0.1" stop-color="#FFDD55"/>
<stop offset="0.5" stop-color="#FF543E"/>
<stop offset="1" stop-color="#C837AB"/>
</radialGradient>
<radialGradient id="paint1_radial_0_1784" cx="0" cy="0" r="1" gradientTransform="matrix(2.4347 12.1631 -50.1358 10.0414 -4.69015 2.01707)" gradientUnits="userSpaceOnUse">
<stop stop-color="#3771C8"/>
<stop offset="0.128" stop-color="#3771C8"/>
<stop offset="1" stop-color="#6600FF" stop-opacity="0"/>
</radialGradient>
</defs>
</svg>
