<svg xmlns="http://www.w3.org/2000/svg" viewBox="160 0 40 40" fill="none"><g id="Icon">
<g id="Medium">
<g id="Frame_2">
<path id="Vector" d="M182.562 19.9998C182.562 26.4431 177.512 31.6666 171.281 31.6666C165.05 31.6666 160 26.4447 160 19.9998C160 13.5549 165.051 8.33331 171.281 8.33331C177.511 8.33331 182.562 13.5565 182.562 19.9998ZM194.938 19.9998C194.938 26.0654 192.413 30.982 189.297 30.982C186.182 30.982 183.657 26.0638 183.657 19.9998C183.657 13.9358 186.182 9.01754 189.297 9.01754C192.413 9.01754 194.938 13.9358 194.938 19.9998ZM200 19.9998C200 25.4342 199.112 29.8394 198.016 29.8394C196.921 29.8394 196.032 25.4327 196.032 19.9998C196.032 14.5669 196.921 10.1601 198.016 10.1601C199.112 10.1601 200 14.5657 200 19.9998Z" fill="black"/>
</g>
</g>
</g></svg>