<svg xmlns="http://www.w3.org/2000/svg" width="32" height="32" viewBox="0 0 32 32" fill="none"><g id="Star">
<path id="Vector" d="M29.3124 14.2975L23.6749 19.2175L25.3637 26.5425C25.453 26.9254 25.4275 27.3262 25.2904 27.6947C25.1532 28.0632 24.9104 28.3831 24.5924 28.6144C24.2744 28.8457 23.8953 28.9782 23.5025 28.9951C23.1096 29.0121 22.7205 28.913 22.3837 28.71L15.9949 24.835L9.61993 28.71C9.28314 28.913 8.894 29.0121 8.50115 28.9951C8.1083 28.9782 7.72917 28.8457 7.41117 28.6144C7.09317 28.3831 6.85041 28.0632 6.71324 27.6947C6.57607 27.3262 6.55057 26.9254 6.63993 26.5425L8.32618 19.225L2.68743 14.2975C2.38919 14.0403 2.17353 13.7007 2.0675 13.3214C1.96147 12.9421 1.96978 12.54 2.0914 12.1654C2.21301 11.7908 2.44251 11.4604 2.75113 11.2158C3.05974 10.9711 3.43372 10.823 3.82618 10.79L11.2587 10.1462L14.1599 3.22624C14.3114 2.86314 14.567 2.55298 14.8944 2.33482C15.2218 2.11665 15.6065 2.00024 15.9999 2.00024C16.3934 2.00024 16.778 2.11665 17.1054 2.33482C17.4329 2.55298 17.6884 2.86314 17.8399 3.22624L20.7499 10.1462L28.1799 10.79C28.5724 10.823 28.9464 10.9711 29.255 11.2158C29.5636 11.4604 29.7931 11.7908 29.9147 12.1654C30.0363 12.54 30.0446 12.9421 29.9386 13.3214C29.8326 13.7007 29.6169 14.0403 29.3187 14.2975H29.3124Z" fill="black" />
</g>
<path id="5" d="M15.9803 21.1193C15.4803 21.1193 15.03 21.0199 14.6294 20.821C14.2289 20.6222 13.9078 20.3494 13.6664 20.0028C13.4249 19.6562 13.2928 19.2614 13.2701 18.8182H14.2928C14.3326 19.2131 14.5115 19.5398 14.8297 19.7983C15.1507 20.054 15.5343 20.1818 15.9803 20.1818C16.3382 20.1818 16.6564 20.098 16.9348 19.9304C17.2161 19.7628 17.4363 19.5327 17.5953 19.2401C17.7573 18.9446 17.8382 18.6108 17.8382 18.2386C17.8382 17.858 17.7544 17.5185 17.5868 17.2202C17.4221 16.919 17.1948 16.6818 16.905 16.5085C16.6152 16.3352 16.2843 16.2472 15.9121 16.2443C15.6451 16.2415 15.3709 16.2827 15.0897 16.3679C14.8084 16.4503 14.5769 16.5568 14.3951 16.6875L13.4064 16.5682L13.9348 12.2727H18.4689V13.2102H14.8212L14.5144 15.7841H14.5655C14.7445 15.642 14.9689 15.5241 15.2388 15.4304C15.5087 15.3366 15.79 15.2898 16.0826 15.2898C16.6167 15.2898 17.0925 15.4176 17.5101 15.6733C17.9306 15.9261 18.2601 16.2727 18.4988 16.7131C18.7402 17.1534 18.861 17.6562 18.861 18.2216C18.861 18.7784 18.736 19.2756 18.486 19.7131C18.2388 20.1477 17.8979 20.4915 17.4632 20.7443C17.0286 20.9943 16.5343 21.1193 15.9803 21.1193Z" fill="white" />
</svg>
