<svg preserveAspectRatio="none" width="100%" height="100%" overflow="visible" style="display: block;" viewBox="0 0 17.5009 15.6252" fill="none" xmlns="http://www.w3.org/2000/svg">
<path id="Vector" d="M17.2508 12.8196L10.4188 0.954739C10.2481 0.664055 10.0044 0.423035 9.71178 0.255567C9.41921 0.0880999 9.08795 0 8.75084 0C8.41373 0 8.08247 0.0880999 7.78989 0.255567C7.49732 0.423035 7.25359 0.664055 7.08287 0.954739L0.250838 12.8196C0.0865693 13.1007 0 13.4205 0 13.7461C0 14.0718 0.0865693 14.3915 0.250838 14.6727C0.419377 14.9651 0.66269 15.2075 0.955808 15.3748C1.24893 15.5422 1.58129 15.6286 1.91881 15.6251H15.5829C15.9201 15.6283 16.2522 15.5418 16.545 15.3744C16.8378 15.2071 17.0809 14.9649 17.2493 14.6727C17.4138 14.3917 17.5006 14.072 17.5009 13.7464C17.5012 13.4207 17.4149 13.1009 17.2508 12.8196ZM8.12584 6.25005C8.12584 6.08429 8.19169 5.92532 8.3089 5.80811C8.42611 5.6909 8.58508 5.62505 8.75084 5.62505C8.9166 5.62505 9.07557 5.6909 9.19278 5.80811C9.30999 5.92532 9.37584 6.08429 9.37584 6.25005V9.37505C9.37584 9.54081 9.30999 9.69978 9.19278 9.81699C9.07557 9.9342 8.9166 10.0001 8.75084 10.0001C8.58508 10.0001 8.42611 9.9342 8.3089 9.81699C8.19169 9.69978 8.12584 9.54081 8.12584 9.37505V6.25005ZM8.75084 13.1251C8.56542 13.1251 8.38416 13.0701 8.22999 12.9671C8.07582 12.864 7.95566 12.7176 7.8847 12.5463C7.81374 12.375 7.79518 12.1865 7.83135 12.0047C7.86753 11.8228 7.95681 11.6558 8.08793 11.5246C8.21904 11.3935 8.38608 11.3042 8.56794 11.2681C8.7498 11.2319 8.9383 11.2505 9.1096 11.3214C9.28091 11.3924 9.42733 11.5125 9.53034 11.6667C9.63335 11.8209 9.68834 12.0021 9.68834 12.1876C9.68834 12.4362 9.58957 12.6746 9.41375 12.8505C9.23793 13.0263 8.99948 13.1251 8.75084 13.1251Z" fill="var(--fill-0, #FFCC00)"/>
</svg>
