<svg preserveAspectRatio="none" width="100%" height="100%" overflow="visible" style="display: block;" viewBox="0 0 28 28" fill="none" xmlns="http://www.w3.org/2000/svg">
<g id="Frame">
<circle id="Ellipse" cx="14" cy="14" r="14" fill="var(--fill-0, #349DF0)"/>
<path id="Shape" d="M14.077 10.3966L14.118 11.0627L13.4352 10.9812C10.9497 10.6685 8.77839 9.6082 6.93479 7.82742L6.03347 6.94383L5.80131 7.59633C5.30969 9.05086 5.62378 10.587 6.64801 11.6201C7.19426 12.191 7.07135 12.2726 6.12907 11.9327C5.80131 11.824 5.51453 11.7424 5.48722 11.7832C5.39163 11.8784 5.71938 13.1154 5.97885 13.6048C6.33391 14.2845 7.05769 14.9505 7.84976 15.3448L8.51892 15.6574L7.72685 15.671C6.9621 15.671 6.93479 15.6846 7.01673 15.9701C7.28985 16.8537 8.3687 17.7916 9.57045 18.1994L10.4171 18.4849L9.6797 18.9199C8.5872 19.5452 7.30351 19.8987 6.01982 19.9259C5.40528 19.9394 4.9 19.9938 4.9 20.0346C4.9 20.1705 6.56607 20.9318 7.53566 21.2309C10.4445 22.1144 13.8995 21.7338 16.4942 20.2249C18.3378 19.151 20.1814 17.0168 21.0417 14.9505C21.5061 13.8495 21.9704 11.8376 21.9704 10.8724C21.9704 10.2471 22.0113 10.1655 22.7761 9.41789C23.2267 8.98289 23.6501 8.50711 23.732 8.37117C23.8686 8.11289 23.8549 8.11289 23.1585 8.34399C21.9977 8.7518 21.8338 8.69742 22.4074 8.0857C22.8307 7.6507 23.336 6.86227 23.336 6.63117C23.336 6.59039 23.1312 6.65836 22.899 6.78071C22.6532 6.91664 22.1069 7.12055 21.6972 7.24289L20.9598 7.47399L20.2906 7.02539C19.9219 6.78071 19.403 6.50883 19.1299 6.42727C18.4334 6.23696 17.3682 6.26414 16.74 6.48164C15.033 7.09336 13.9541 8.67024 14.077 10.3966Z" fill="var(--fill-0, white)"/>
</g>
</svg>
