<svg width="32" height="32" viewBox="0 0 32 32" fill="none" xmlns="http://www.w3.org/2000/svg">
<g id="BombEmoji">
<g id="Spark">
<path fill-rule="evenodd" clip-rule="evenodd" d="M27.903 3.16352C27.9071 3.10599 27.8924 3.04848 27.8559 3.00385C27.6127 2.7067 27.0088 2.23867 26.2449 2.27962C26.1826 2.28296 26.1251 2.31311 26.0832 2.35949L25.9943 2.45807C25.8563 2.61108 25.768 2.80237 25.741 3.00665L25.6656 3.57887C25.6312 3.83964 25.2538 3.83964 25.2194 3.57887L25.144 3.00665C25.117 2.80237 25.0287 2.61108 24.8907 2.45807L24.8018 2.35949C24.76 2.31311 24.7025 2.28296 24.6401 2.27962C23.8762 2.23867 23.2724 2.7067 23.0291 3.00385C22.9926 3.04848 22.9779 3.10599 22.982 3.16352L22.9908 3.28687C23.0043 3.47561 23.0701 3.65685 23.1809 3.81025L23.5821 4.3658C23.7509 4.59944 23.4556 4.88602 23.2271 4.71037L22.8004 4.38238C22.6371 4.2568 22.4394 4.18376 22.2337 4.17293L22.1011 4.16594C22.0387 4.16266 21.9767 4.18193 21.9302 4.22361C21.3606 4.73415 21.2637 5.49198 21.3014 5.87413C21.307 5.93153 21.3372 5.98265 21.3808 6.02047L21.4741 6.10156C21.617 6.22565 21.7916 6.30745 21.9784 6.33779L22.4658 6.41697C22.7457 6.46243 22.7457 6.86503 22.4658 6.9105L21.9784 6.98968C21.7916 7.02002 21.617 7.10182 21.4741 7.22591L21.3808 7.307C21.3372 7.34482 21.307 7.39594 21.3014 7.45334C21.2637 7.83548 21.3606 8.59332 21.9302 9.10386C21.9767 9.14554 22.0387 9.16481 22.1011 9.16152L22.2337 9.15454C22.4394 9.1437 22.6371 9.07067 22.8004 8.94509L23.2271 8.61709C23.4556 8.44145 23.7509 8.72803 23.5821 8.96167L23.1809 9.51722C23.0701 9.67062 23.0043 9.85186 22.9908 10.0406L22.982 10.1639C22.9779 10.2215 22.9926 10.279 23.0291 10.3236C23.2724 10.6208 23.8762 11.0888 24.6401 11.0479C24.7025 11.0445 24.76 11.0144 24.8018 10.968L24.8907 10.8694C25.0287 10.7164 25.117 10.5251 25.144 10.3208L25.1947 9.93652C25.2329 9.64678 25.6521 9.64678 25.6904 9.93652L25.741 10.3208C25.768 10.5251 25.8563 10.7164 25.9943 10.8694L26.0832 10.968C26.1251 11.0144 26.1826 11.0445 26.2449 11.0479C27.0088 11.0888 27.6127 10.6208 27.8559 10.3236C27.8924 10.279 27.9071 10.2215 27.903 10.1639L27.8942 10.0406C27.8807 9.85186 27.8149 9.67062 27.7041 9.51722L27.3029 8.96167C27.1342 8.72803 27.4294 8.44145 27.6579 8.61709L28.0846 8.94509C28.248 9.07067 28.4456 9.1437 28.6514 9.15454L28.7839 9.16152C28.8463 9.16481 28.9083 9.14554 28.9548 9.10386C29.5245 8.59332 29.6214 7.83548 29.5837 7.45334C29.578 7.39594 29.5478 7.34482 29.5043 7.307L29.4109 7.22591C29.2681 7.10182 29.0934 7.02002 28.9067 6.98968L28.4192 6.9105C28.1393 6.86503 28.1393 6.46243 28.4192 6.41697L28.9067 6.33779C29.0934 6.30745 29.2681 6.22565 29.4109 6.10156L29.5043 6.02047C29.5478 5.98265 29.578 5.93153 29.5837 5.87413C29.6214 5.49198 29.5245 4.73415 28.9548 4.22361C28.9083 4.18193 28.8463 4.16266 28.7839 4.16594L28.6514 4.17293C28.4456 4.18376 28.248 4.2568 28.0846 4.38238L27.6579 4.71037C27.4294 4.88602 27.1342 4.59944 27.3029 4.3658L27.7041 3.81025C27.8149 3.65685 27.8807 3.47561 27.8942 3.28687L27.903 3.16352Z" fill="url(#paint0_linear_25596_105751)"/>
<path fill-rule="evenodd" clip-rule="evenodd" d="M27.903 3.16352C27.9071 3.10599 27.8924 3.04848 27.8559 3.00385C27.6127 2.7067 27.0088 2.23867 26.2449 2.27962C26.1826 2.28296 26.1251 2.31311 26.0832 2.35949L25.9943 2.45807C25.8563 2.61108 25.768 2.80237 25.741 3.00665L25.6656 3.57887C25.6312 3.83964 25.2538 3.83964 25.2194 3.57887L25.144 3.00665C25.117 2.80237 25.0287 2.61108 24.8907 2.45807L24.8018 2.35949C24.76 2.31311 24.7025 2.28296 24.6401 2.27962C23.8762 2.23867 23.2724 2.7067 23.0291 3.00385C22.9926 3.04848 22.9779 3.10599 22.982 3.16352L22.9908 3.28687C23.0043 3.47561 23.0701 3.65685 23.1809 3.81025L23.5821 4.3658C23.7509 4.59944 23.4556 4.88602 23.2271 4.71037L22.8004 4.38238C22.6371 4.2568 22.4394 4.18376 22.2337 4.17293L22.1011 4.16594C22.0387 4.16266 21.9767 4.18193 21.9302 4.22361C21.3606 4.73415 21.2637 5.49198 21.3014 5.87413C21.307 5.93153 21.3372 5.98265 21.3808 6.02047L21.4741 6.10156C21.617 6.22565 21.7916 6.30745 21.9784 6.33779L22.4658 6.41697C22.7457 6.46243 22.7457 6.86503 22.4658 6.9105L21.9784 6.98968C21.7916 7.02002 21.617 7.10182 21.4741 7.22591L21.3808 7.307C21.3372 7.34482 21.307 7.39594 21.3014 7.45334C21.2637 7.83548 21.3606 8.59332 21.9302 9.10386C21.9767 9.14554 22.0387 9.16481 22.1011 9.16152L22.2337 9.15454C22.4394 9.1437 22.6371 9.07067 22.8004 8.94509L23.2271 8.61709C23.4556 8.44145 23.7509 8.72803 23.5821 8.96167L23.1809 9.51722C23.0701 9.67062 23.0043 9.85186 22.9908 10.0406L22.982 10.1639C22.9779 10.2215 22.9926 10.279 23.0291 10.3236C23.2724 10.6208 23.8762 11.0888 24.6401 11.0479C24.7025 11.0445 24.76 11.0144 24.8018 10.968L24.8907 10.8694C25.0287 10.7164 25.117 10.5251 25.144 10.3208L25.1947 9.93652C25.2329 9.64678 25.6521 9.64678 25.6904 9.93652L25.741 10.3208C25.768 10.5251 25.8563 10.7164 25.9943 10.8694L26.0832 10.968C26.1251 11.0144 26.1826 11.0445 26.2449 11.0479C27.0088 11.0888 27.6127 10.6208 27.8559 10.3236C27.8924 10.279 27.9071 10.2215 27.903 10.1639L27.8942 10.0406C27.8807 9.85186 27.8149 9.67062 27.7041 9.51722L27.3029 8.96167C27.1342 8.72803 27.4294 8.44145 27.6579 8.61709L28.0846 8.94509C28.248 9.07067 28.4456 9.1437 28.6514 9.15454L28.7839 9.16152C28.8463 9.16481 28.9083 9.14554 28.9548 9.10386C29.5245 8.59332 29.6214 7.83548 29.5837 7.45334C29.578 7.39594 29.5478 7.34482 29.5043 7.307L29.4109 7.22591C29.2681 7.10182 29.0934 7.02002 28.9067 6.98968L28.4192 6.9105C28.1393 6.86503 28.1393 6.46243 28.4192 6.41697L28.9067 6.33779C29.0934 6.30745 29.2681 6.22565 29.4109 6.10156L29.5043 6.02047C29.5478 5.98265 29.578 5.93153 29.5837 5.87413C29.6214 5.49198 29.5245 4.73415 28.9548 4.22361C28.9083 4.18193 28.8463 4.16266 28.7839 4.16594L28.6514 4.17293C28.4456 4.18376 28.248 4.2568 28.0846 4.38238L27.6579 4.71037C27.4294 4.88602 27.1342 4.59944 27.3029 4.3658L27.7041 3.81025C27.8149 3.65685 27.8807 3.47561 27.8942 3.28687L27.903 3.16352Z" fill="url(#paint1_linear_25596_105751)"/>
<path fill-rule="evenodd" clip-rule="evenodd" d="M27.903 3.16352C27.9071 3.10599 27.8924 3.04848 27.8559 3.00385C27.6127 2.7067 27.0088 2.23867 26.2449 2.27962C26.1826 2.28296 26.1251 2.31311 26.0832 2.35949L25.9943 2.45807C25.8563 2.61108 25.768 2.80237 25.741 3.00665L25.6656 3.57887C25.6312 3.83964 25.2538 3.83964 25.2194 3.57887L25.144 3.00665C25.117 2.80237 25.0287 2.61108 24.8907 2.45807L24.8018 2.35949C24.76 2.31311 24.7025 2.28296 24.6401 2.27962C23.8762 2.23867 23.2724 2.7067 23.0291 3.00385C22.9926 3.04848 22.9779 3.10599 22.982 3.16352L22.9908 3.28687C23.0043 3.47561 23.0701 3.65685 23.1809 3.81025L23.5821 4.3658C23.7509 4.59944 23.4556 4.88602 23.2271 4.71037L22.8004 4.38238C22.6371 4.2568 22.4394 4.18376 22.2337 4.17293L22.1011 4.16594C22.0387 4.16266 21.9767 4.18193 21.9302 4.22361C21.3606 4.73415 21.2637 5.49198 21.3014 5.87413C21.307 5.93153 21.3372 5.98265 21.3808 6.02047L21.4741 6.10156C21.617 6.22565 21.7916 6.30745 21.9784 6.33779L22.4658 6.41697C22.7457 6.46243 22.7457 6.86503 22.4658 6.9105L21.9784 6.98968C21.7916 7.02002 21.617 7.10182 21.4741 7.22591L21.3808 7.307C21.3372 7.34482 21.307 7.39594 21.3014 7.45334C21.2637 7.83548 21.3606 8.59332 21.9302 9.10386C21.9767 9.14554 22.0387 9.16481 22.1011 9.16152L22.2337 9.15454C22.4394 9.1437 22.6371 9.07067 22.8004 8.94509L23.2271 8.61709C23.4556 8.44145 23.7509 8.72803 23.5821 8.96167L23.1809 9.51722C23.0701 9.67062 23.0043 9.85186 22.9908 10.0406L22.982 10.1639C22.9779 10.2215 22.9926 10.279 23.0291 10.3236C23.2724 10.6208 23.8762 11.0888 24.6401 11.0479C24.7025 11.0445 24.76 11.0144 24.8018 10.968L24.8907 10.8694C25.0287 10.7164 25.117 10.5251 25.144 10.3208L25.1947 9.93652C25.2329 9.64678 25.6521 9.64678 25.6904 9.93652L25.741 10.3208C25.768 10.5251 25.8563 10.7164 25.9943 10.8694L26.0832 10.968C26.1251 11.0144 26.1826 11.0445 26.2449 11.0479C27.0088 11.0888 27.6127 10.6208 27.8559 10.3236C27.8924 10.279 27.9071 10.2215 27.903 10.1639L27.8942 10.0406C27.8807 9.85186 27.8149 9.67062 27.7041 9.51722L27.3029 8.96167C27.1342 8.72803 27.4294 8.44145 27.6579 8.61709L28.0846 8.94509C28.248 9.07067 28.4456 9.1437 28.6514 9.15454L28.7839 9.16152C28.8463 9.16481 28.9083 9.14554 28.9548 9.10386C29.5245 8.59332 29.6214 7.83548 29.5837 7.45334C29.578 7.39594 29.5478 7.34482 29.5043 7.307L29.4109 7.22591C29.2681 7.10182 29.0934 7.02002 28.9067 6.98968L28.4192 6.9105C28.1393 6.86503 28.1393 6.46243 28.4192 6.41697L28.9067 6.33779C29.0934 6.30745 29.2681 6.22565 29.4109 6.10156L29.5043 6.02047C29.5478 5.98265 29.578 5.93153 29.5837 5.87413C29.6214 5.49198 29.5245 4.73415 28.9548 4.22361C28.9083 4.18193 28.8463 4.16266 28.7839 4.16594L28.6514 4.17293C28.4456 4.18376 28.248 4.2568 28.0846 4.38238L27.6579 4.71037C27.4294 4.88602 27.1342 4.59944 27.3029 4.3658L27.7041 3.81025C27.8149 3.65685 27.8807 3.47561 27.8942 3.28687L27.903 3.16352Z" fill="url(#paint2_radial_25596_105751)"/>
<path fill-rule="evenodd" clip-rule="evenodd" d="M27.903 3.16352C27.9071 3.10599 27.8924 3.04848 27.8559 3.00385C27.6127 2.7067 27.0088 2.23867 26.2449 2.27962C26.1826 2.28296 26.1251 2.31311 26.0832 2.35949L25.9943 2.45807C25.8563 2.61108 25.768 2.80237 25.741 3.00665L25.6656 3.57887C25.6312 3.83964 25.2538 3.83964 25.2194 3.57887L25.144 3.00665C25.117 2.80237 25.0287 2.61108 24.8907 2.45807L24.8018 2.35949C24.76 2.31311 24.7025 2.28296 24.6401 2.27962C23.8762 2.23867 23.2724 2.7067 23.0291 3.00385C22.9926 3.04848 22.9779 3.10599 22.982 3.16352L22.9908 3.28687C23.0043 3.47561 23.0701 3.65685 23.1809 3.81025L23.5821 4.3658C23.7509 4.59944 23.4556 4.88602 23.2271 4.71037L22.8004 4.38238C22.6371 4.2568 22.4394 4.18376 22.2337 4.17293L22.1011 4.16594C22.0387 4.16266 21.9767 4.18193 21.9302 4.22361C21.3606 4.73415 21.2637 5.49198 21.3014 5.87413C21.307 5.93153 21.3372 5.98265 21.3808 6.02047L21.4741 6.10156C21.617 6.22565 21.7916 6.30745 21.9784 6.33779L22.4658 6.41697C22.7457 6.46243 22.7457 6.86503 22.4658 6.9105L21.9784 6.98968C21.7916 7.02002 21.617 7.10182 21.4741 7.22591L21.3808 7.307C21.3372 7.34482 21.307 7.39594 21.3014 7.45334C21.2637 7.83548 21.3606 8.59332 21.9302 9.10386C21.9767 9.14554 22.0387 9.16481 22.1011 9.16152L22.2337 9.15454C22.4394 9.1437 22.6371 9.07067 22.8004 8.94509L23.2271 8.61709C23.4556 8.44145 23.7509 8.72803 23.5821 8.96167L23.1809 9.51722C23.0701 9.67062 23.0043 9.85186 22.9908 10.0406L22.982 10.1639C22.9779 10.2215 22.9926 10.279 23.0291 10.3236C23.2724 10.6208 23.8762 11.0888 24.6401 11.0479C24.7025 11.0445 24.76 11.0144 24.8018 10.968L24.8907 10.8694C25.0287 10.7164 25.117 10.5251 25.144 10.3208L25.1947 9.93652C25.2329 9.64678 25.6521 9.64678 25.6904 9.93652L25.741 10.3208C25.768 10.5251 25.8563 10.7164 25.9943 10.8694L26.0832 10.968C26.1251 11.0144 26.1826 11.0445 26.2449 11.0479C27.0088 11.0888 27.6127 10.6208 27.8559 10.3236C27.8924 10.279 27.9071 10.2215 27.903 10.1639L27.8942 10.0406C27.8807 9.85186 27.8149 9.67062 27.7041 9.51722L27.3029 8.96167C27.1342 8.72803 27.4294 8.44145 27.6579 8.61709L28.0846 8.94509C28.248 9.07067 28.4456 9.1437 28.6514 9.15454L28.7839 9.16152C28.8463 9.16481 28.9083 9.14554 28.9548 9.10386C29.5245 8.59332 29.6214 7.83548 29.5837 7.45334C29.578 7.39594 29.5478 7.34482 29.5043 7.307L29.4109 7.22591C29.2681 7.10182 29.0934 7.02002 28.9067 6.98968L28.4192 6.9105C28.1393 6.86503 28.1393 6.46243 28.4192 6.41697L28.9067 6.33779C29.0934 6.30745 29.2681 6.22565 29.4109 6.10156L29.5043 6.02047C29.5478 5.98265 29.578 5.93153 29.5837 5.87413C29.6214 5.49198 29.5245 4.73415 28.9548 4.22361C28.9083 4.18193 28.8463 4.16266 28.7839 4.16594L28.6514 4.17293C28.4456 4.18376 28.248 4.2568 28.0846 4.38238L27.6579 4.71037C27.4294 4.88602 27.1342 4.59944 27.3029 4.3658L27.7041 3.81025C27.8149 3.65685 27.8807 3.47561 27.8942 3.28687L27.903 3.16352Z" fill="url(#paint3_radial_25596_105751)"/>
<path fill-rule="evenodd" clip-rule="evenodd" d="M27.903 3.16352C27.9071 3.10599 27.8924 3.04848 27.8559 3.00385C27.6127 2.7067 27.0088 2.23867 26.2449 2.27962C26.1826 2.28296 26.1251 2.31311 26.0832 2.35949L25.9943 2.45807C25.8563 2.61108 25.768 2.80237 25.741 3.00665L25.6656 3.57887C25.6312 3.83964 25.2538 3.83964 25.2194 3.57887L25.144 3.00665C25.117 2.80237 25.0287 2.61108 24.8907 2.45807L24.8018 2.35949C24.76 2.31311 24.7025 2.28296 24.6401 2.27962C23.8762 2.23867 23.2724 2.7067 23.0291 3.00385C22.9926 3.04848 22.9779 3.10599 22.982 3.16352L22.9908 3.28687C23.0043 3.47561 23.0701 3.65685 23.1809 3.81025L23.5821 4.3658C23.7509 4.59944 23.4556 4.88602 23.2271 4.71037L22.8004 4.38238C22.6371 4.2568 22.4394 4.18376 22.2337 4.17293L22.1011 4.16594C22.0387 4.16266 21.9767 4.18193 21.9302 4.22361C21.3606 4.73415 21.2637 5.49198 21.3014 5.87413C21.307 5.93153 21.3372 5.98265 21.3808 6.02047L21.4741 6.10156C21.617 6.22565 21.7916 6.30745 21.9784 6.33779L22.4658 6.41697C22.7457 6.46243 22.7457 6.86503 22.4658 6.9105L21.9784 6.98968C21.7916 7.02002 21.617 7.10182 21.4741 7.22591L21.3808 7.307C21.3372 7.34482 21.307 7.39594 21.3014 7.45334C21.2637 7.83548 21.3606 8.59332 21.9302 9.10386C21.9767 9.14554 22.0387 9.16481 22.1011 9.16152L22.2337 9.15454C22.4394 9.1437 22.6371 9.07067 22.8004 8.94509L23.2271 8.61709C23.4556 8.44145 23.7509 8.72803 23.5821 8.96167L23.1809 9.51722C23.0701 9.67062 23.0043 9.85186 22.9908 10.0406L22.982 10.1639C22.9779 10.2215 22.9926 10.279 23.0291 10.3236C23.2724 10.6208 23.8762 11.0888 24.6401 11.0479C24.7025 11.0445 24.76 11.0144 24.8018 10.968L24.8907 10.8694C25.0287 10.7164 25.117 10.5251 25.144 10.3208L25.1947 9.93652C25.2329 9.64678 25.6521 9.64678 25.6904 9.93652L25.741 10.3208C25.768 10.5251 25.8563 10.7164 25.9943 10.8694L26.0832 10.968C26.1251 11.0144 26.1826 11.0445 26.2449 11.0479C27.0088 11.0888 27.6127 10.6208 27.8559 10.3236C27.8924 10.279 27.9071 10.2215 27.903 10.1639L27.8942 10.0406C27.8807 9.85186 27.8149 9.67062 27.7041 9.51722L27.3029 8.96167C27.1342 8.72803 27.4294 8.44145 27.6579 8.61709L28.0846 8.94509C28.248 9.07067 28.4456 9.1437 28.6514 9.15454L28.7839 9.16152C28.8463 9.16481 28.9083 9.14554 28.9548 9.10386C29.5245 8.59332 29.6214 7.83548 29.5837 7.45334C29.578 7.39594 29.5478 7.34482 29.5043 7.307L29.4109 7.22591C29.2681 7.10182 29.0934 7.02002 28.9067 6.98968L28.4192 6.9105C28.1393 6.86503 28.1393 6.46243 28.4192 6.41697L28.9067 6.33779C29.0934 6.30745 29.2681 6.22565 29.4109 6.10156L29.5043 6.02047C29.5478 5.98265 29.578 5.93153 29.5837 5.87413C29.6214 5.49198 29.5245 4.73415 28.9548 4.22361C28.9083 4.18193 28.8463 4.16266 28.7839 4.16594L28.6514 4.17293C28.4456 4.18376 28.248 4.2568 28.0846 4.38238L27.6579 4.71037C27.4294 4.88602 27.1342 4.59944 27.3029 4.3658L27.7041 3.81025C27.8149 3.65685 27.8807 3.47561 27.8942 3.28687L27.903 3.16352Z" fill="url(#paint4_radial_25596_105751)"/>
<path fill-rule="evenodd" clip-rule="evenodd" d="M27.903 3.16352C27.9071 3.10599 27.8924 3.04848 27.8559 3.00385C27.6127 2.7067 27.0088 2.23867 26.2449 2.27962C26.1826 2.28296 26.1251 2.31311 26.0832 2.35949L25.9943 2.45807C25.8563 2.61108 25.768 2.80237 25.741 3.00665L25.6656 3.57887C25.6312 3.83964 25.2538 3.83964 25.2194 3.57887L25.144 3.00665C25.117 2.80237 25.0287 2.61108 24.8907 2.45807L24.8018 2.35949C24.76 2.31311 24.7025 2.28296 24.6401 2.27962C23.8762 2.23867 23.2724 2.7067 23.0291 3.00385C22.9926 3.04848 22.9779 3.10599 22.982 3.16352L22.9908 3.28687C23.0043 3.47561 23.0701 3.65685 23.1809 3.81025L23.5821 4.3658C23.7509 4.59944 23.4556 4.88602 23.2271 4.71037L22.8004 4.38238C22.6371 4.2568 22.4394 4.18376 22.2337 4.17293L22.1011 4.16594C22.0387 4.16266 21.9767 4.18193 21.9302 4.22361C21.3606 4.73415 21.2637 5.49198 21.3014 5.87413C21.307 5.93153 21.3372 5.98265 21.3808 6.02047L21.4741 6.10156C21.617 6.22565 21.7916 6.30745 21.9784 6.33779L22.4658 6.41697C22.7457 6.46243 22.7457 6.86503 22.4658 6.9105L21.9784 6.98968C21.7916 7.02002 21.617 7.10182 21.4741 7.22591L21.3808 7.307C21.3372 7.34482 21.307 7.39594 21.3014 7.45334C21.2637 7.83548 21.3606 8.59332 21.9302 9.10386C21.9767 9.14554 22.0387 9.16481 22.1011 9.16152L22.2337 9.15454C22.4394 9.1437 22.6371 9.07067 22.8004 8.94509L23.2271 8.61709C23.4556 8.44145 23.7509 8.72803 23.5821 8.96167L23.1809 9.51722C23.0701 9.67062 23.0043 9.85186 22.9908 10.0406L22.982 10.1639C22.9779 10.2215 22.9926 10.279 23.0291 10.3236C23.2724 10.6208 23.8762 11.0888 24.6401 11.0479C24.7025 11.0445 24.76 11.0144 24.8018 10.968L24.8907 10.8694C25.0287 10.7164 25.117 10.5251 25.144 10.3208L25.1947 9.93652C25.2329 9.64678 25.6521 9.64678 25.6904 9.93652L25.741 10.3208C25.768 10.5251 25.8563 10.7164 25.9943 10.8694L26.0832 10.968C26.1251 11.0144 26.1826 11.0445 26.2449 11.0479C27.0088 11.0888 27.6127 10.6208 27.8559 10.3236C27.8924 10.279 27.9071 10.2215 27.903 10.1639L27.8942 10.0406C27.8807 9.85186 27.8149 9.67062 27.7041 9.51722L27.3029 8.96167C27.1342 8.72803 27.4294 8.44145 27.6579 8.61709L28.0846 8.94509C28.248 9.07067 28.4456 9.1437 28.6514 9.15454L28.7839 9.16152C28.8463 9.16481 28.9083 9.14554 28.9548 9.10386C29.5245 8.59332 29.6214 7.83548 29.5837 7.45334C29.578 7.39594 29.5478 7.34482 29.5043 7.307L29.4109 7.22591C29.2681 7.10182 29.0934 7.02002 28.9067 6.98968L28.4192 6.9105C28.1393 6.86503 28.1393 6.46243 28.4192 6.41697L28.9067 6.33779C29.0934 6.30745 29.2681 6.22565 29.4109 6.10156L29.5043 6.02047C29.5478 5.98265 29.578 5.93153 29.5837 5.87413C29.6214 5.49198 29.5245 4.73415 28.9548 4.22361C28.9083 4.18193 28.8463 4.16266 28.7839 4.16594L28.6514 4.17293C28.4456 4.18376 28.248 4.2568 28.0846 4.38238L27.6579 4.71037C27.4294 4.88602 27.1342 4.59944 27.3029 4.3658L27.7041 3.81025C27.8149 3.65685 27.8807 3.47561 27.8942 3.28687L27.903 3.16352Z" fill="url(#paint5_radial_25596_105751)"/>
<path fill-rule="evenodd" clip-rule="evenodd" d="M27.903 3.16352C27.9071 3.10599 27.8924 3.04848 27.8559 3.00385C27.6127 2.7067 27.0088 2.23867 26.2449 2.27962C26.1826 2.28296 26.1251 2.31311 26.0832 2.35949L25.9943 2.45807C25.8563 2.61108 25.768 2.80237 25.741 3.00665L25.6656 3.57887C25.6312 3.83964 25.2538 3.83964 25.2194 3.57887L25.144 3.00665C25.117 2.80237 25.0287 2.61108 24.8907 2.45807L24.8018 2.35949C24.76 2.31311 24.7025 2.28296 24.6401 2.27962C23.8762 2.23867 23.2724 2.7067 23.0291 3.00385C22.9926 3.04848 22.9779 3.10599 22.982 3.16352L22.9908 3.28687C23.0043 3.47561 23.0701 3.65685 23.1809 3.81025L23.5821 4.3658C23.7509 4.59944 23.4556 4.88602 23.2271 4.71037L22.8004 4.38238C22.6371 4.2568 22.4394 4.18376 22.2337 4.17293L22.1011 4.16594C22.0387 4.16266 21.9767 4.18193 21.9302 4.22361C21.3606 4.73415 21.2637 5.49198 21.3014 5.87413C21.307 5.93153 21.3372 5.98265 21.3808 6.02047L21.4741 6.10156C21.617 6.22565 21.7916 6.30745 21.9784 6.33779L22.4658 6.41697C22.7457 6.46243 22.7457 6.86503 22.4658 6.9105L21.9784 6.98968C21.7916 7.02002 21.617 7.10182 21.4741 7.22591L21.3808 7.307C21.3372 7.34482 21.307 7.39594 21.3014 7.45334C21.2637 7.83548 21.3606 8.59332 21.9302 9.10386C21.9767 9.14554 22.0387 9.16481 22.1011 9.16152L22.2337 9.15454C22.4394 9.1437 22.6371 9.07067 22.8004 8.94509L23.2271 8.61709C23.4556 8.44145 23.7509 8.72803 23.5821 8.96167L23.1809 9.51722C23.0701 9.67062 23.0043 9.85186 22.9908 10.0406L22.982 10.1639C22.9779 10.2215 22.9926 10.279 23.0291 10.3236C23.2724 10.6208 23.8762 11.0888 24.6401 11.0479C24.7025 11.0445 24.76 11.0144 24.8018 10.968L24.8907 10.8694C25.0287 10.7164 25.117 10.5251 25.144 10.3208L25.1947 9.93652C25.2329 9.64678 25.6521 9.64678 25.6904 9.93652L25.741 10.3208C25.768 10.5251 25.8563 10.7164 25.9943 10.8694L26.0832 10.968C26.1251 11.0144 26.1826 11.0445 26.2449 11.0479C27.0088 11.0888 27.6127 10.6208 27.8559 10.3236C27.8924 10.279 27.9071 10.2215 27.903 10.1639L27.8942 10.0406C27.8807 9.85186 27.8149 9.67062 27.7041 9.51722L27.3029 8.96167C27.1342 8.72803 27.4294 8.44145 27.6579 8.61709L28.0846 8.94509C28.248 9.07067 28.4456 9.1437 28.6514 9.15454L28.7839 9.16152C28.8463 9.16481 28.9083 9.14554 28.9548 9.10386C29.5245 8.59332 29.6214 7.83548 29.5837 7.45334C29.578 7.39594 29.5478 7.34482 29.5043 7.307L29.4109 7.22591C29.2681 7.10182 29.0934 7.02002 28.9067 6.98968L28.4192 6.9105C28.1393 6.86503 28.1393 6.46243 28.4192 6.41697L28.9067 6.33779C29.0934 6.30745 29.2681 6.22565 29.4109 6.10156L29.5043 6.02047C29.5478 5.98265 29.578 5.93153 29.5837 5.87413C29.6214 5.49198 29.5245 4.73415 28.9548 4.22361C28.9083 4.18193 28.8463 4.16266 28.7839 4.16594L28.6514 4.17293C28.4456 4.18376 28.248 4.2568 28.0846 4.38238L27.6579 4.71037C27.4294 4.88602 27.1342 4.59944 27.3029 4.3658L27.7041 3.81025C27.8149 3.65685 27.8807 3.47561 27.8942 3.28687L27.903 3.16352Z" fill="url(#paint6_radial_25596_105751)"/>
<path fill-rule="evenodd" clip-rule="evenodd" d="M27.903 3.16352C27.9071 3.10599 27.8924 3.04848 27.8559 3.00385C27.6127 2.7067 27.0088 2.23867 26.2449 2.27962C26.1826 2.28296 26.1251 2.31311 26.0832 2.35949L25.9943 2.45807C25.8563 2.61108 25.768 2.80237 25.741 3.00665L25.6656 3.57887C25.6312 3.83964 25.2538 3.83964 25.2194 3.57887L25.144 3.00665C25.117 2.80237 25.0287 2.61108 24.8907 2.45807L24.8018 2.35949C24.76 2.31311 24.7025 2.28296 24.6401 2.27962C23.8762 2.23867 23.2724 2.7067 23.0291 3.00385C22.9926 3.04848 22.9779 3.10599 22.982 3.16352L22.9908 3.28687C23.0043 3.47561 23.0701 3.65685 23.1809 3.81025L23.5821 4.3658C23.7509 4.59944 23.4556 4.88602 23.2271 4.71037L22.8004 4.38238C22.6371 4.2568 22.4394 4.18376 22.2337 4.17293L22.1011 4.16594C22.0387 4.16266 21.9767 4.18193 21.9302 4.22361C21.3606 4.73415 21.2637 5.49198 21.3014 5.87413C21.307 5.93153 21.3372 5.98265 21.3808 6.02047L21.4741 6.10156C21.617 6.22565 21.7916 6.30745 21.9784 6.33779L22.4658 6.41697C22.7457 6.46243 22.7457 6.86503 22.4658 6.9105L21.9784 6.98968C21.7916 7.02002 21.617 7.10182 21.4741 7.22591L21.3808 7.307C21.3372 7.34482 21.307 7.39594 21.3014 7.45334C21.2637 7.83548 21.3606 8.59332 21.9302 9.10386C21.9767 9.14554 22.0387 9.16481 22.1011 9.16152L22.2337 9.15454C22.4394 9.1437 22.6371 9.07067 22.8004 8.94509L23.2271 8.61709C23.4556 8.44145 23.7509 8.72803 23.5821 8.96167L23.1809 9.51722C23.0701 9.67062 23.0043 9.85186 22.9908 10.0406L22.982 10.1639C22.9779 10.2215 22.9926 10.279 23.0291 10.3236C23.2724 10.6208 23.8762 11.0888 24.6401 11.0479C24.7025 11.0445 24.76 11.0144 24.8018 10.968L24.8907 10.8694C25.0287 10.7164 25.117 10.5251 25.144 10.3208L25.1947 9.93652C25.2329 9.64678 25.6521 9.64678 25.6904 9.93652L25.741 10.3208C25.768 10.5251 25.8563 10.7164 25.9943 10.8694L26.0832 10.968C26.1251 11.0144 26.1826 11.0445 26.2449 11.0479C27.0088 11.0888 27.6127 10.6208 27.8559 10.3236C27.8924 10.279 27.9071 10.2215 27.903 10.1639L27.8942 10.0406C27.8807 9.85186 27.8149 9.67062 27.7041 9.51722L27.3029 8.96167C27.1342 8.72803 27.4294 8.44145 27.6579 8.61709L28.0846 8.94509C28.248 9.07067 28.4456 9.1437 28.6514 9.15454L28.7839 9.16152C28.8463 9.16481 28.9083 9.14554 28.9548 9.10386C29.5245 8.59332 29.6214 7.83548 29.5837 7.45334C29.578 7.39594 29.5478 7.34482 29.5043 7.307L29.4109 7.22591C29.2681 7.10182 29.0934 7.02002 28.9067 6.98968L28.4192 6.9105C28.1393 6.86503 28.1393 6.46243 28.4192 6.41697L28.9067 6.33779C29.0934 6.30745 29.2681 6.22565 29.4109 6.10156L29.5043 6.02047C29.5478 5.98265 29.578 5.93153 29.5837 5.87413C29.6214 5.49198 29.5245 4.73415 28.9548 4.22361C28.9083 4.18193 28.8463 4.16266 28.7839 4.16594L28.6514 4.17293C28.4456 4.18376 28.248 4.2568 28.0846 4.38238L27.6579 4.71037C27.4294 4.88602 27.1342 4.59944 27.3029 4.3658L27.7041 3.81025C27.8149 3.65685 27.8807 3.47561 27.8942 3.28687L27.903 3.16352Z" fill="url(#paint7_radial_25596_105751)"/>
<path fill-rule="evenodd" clip-rule="evenodd" d="M27.903 3.16352C27.9071 3.10599 27.8924 3.04848 27.8559 3.00385C27.6127 2.7067 27.0088 2.23867 26.2449 2.27962C26.1826 2.28296 26.1251 2.31311 26.0832 2.35949L25.9943 2.45807C25.8563 2.61108 25.768 2.80237 25.741 3.00665L25.6656 3.57887C25.6312 3.83964 25.2538 3.83964 25.2194 3.57887L25.144 3.00665C25.117 2.80237 25.0287 2.61108 24.8907 2.45807L24.8018 2.35949C24.76 2.31311 24.7025 2.28296 24.6401 2.27962C23.8762 2.23867 23.2724 2.7067 23.0291 3.00385C22.9926 3.04848 22.9779 3.10599 22.982 3.16352L22.9908 3.28687C23.0043 3.47561 23.0701 3.65685 23.1809 3.81025L23.5821 4.3658C23.7509 4.59944 23.4556 4.88602 23.2271 4.71037L22.8004 4.38238C22.6371 4.2568 22.4394 4.18376 22.2337 4.17293L22.1011 4.16594C22.0387 4.16266 21.9767 4.18193 21.9302 4.22361C21.3606 4.73415 21.2637 5.49198 21.3014 5.87413C21.307 5.93153 21.3372 5.98265 21.3808 6.02047L21.4741 6.10156C21.617 6.22565 21.7916 6.30745 21.9784 6.33779L22.4658 6.41697C22.7457 6.46243 22.7457 6.86503 22.4658 6.9105L21.9784 6.98968C21.7916 7.02002 21.617 7.10182 21.4741 7.22591L21.3808 7.307C21.3372 7.34482 21.307 7.39594 21.3014 7.45334C21.2637 7.83548 21.3606 8.59332 21.9302 9.10386C21.9767 9.14554 22.0387 9.16481 22.1011 9.16152L22.2337 9.15454C22.4394 9.1437 22.6371 9.07067 22.8004 8.94509L23.2271 8.61709C23.4556 8.44145 23.7509 8.72803 23.5821 8.96167L23.1809 9.51722C23.0701 9.67062 23.0043 9.85186 22.9908 10.0406L22.982 10.1639C22.9779 10.2215 22.9926 10.279 23.0291 10.3236C23.2724 10.6208 23.8762 11.0888 24.6401 11.0479C24.7025 11.0445 24.76 11.0144 24.8018 10.968L24.8907 10.8694C25.0287 10.7164 25.117 10.5251 25.144 10.3208L25.1947 9.93652C25.2329 9.64678 25.6521 9.64678 25.6904 9.93652L25.741 10.3208C25.768 10.5251 25.8563 10.7164 25.9943 10.8694L26.0832 10.968C26.1251 11.0144 26.1826 11.0445 26.2449 11.0479C27.0088 11.0888 27.6127 10.6208 27.8559 10.3236C27.8924 10.279 27.9071 10.2215 27.903 10.1639L27.8942 10.0406C27.8807 9.85186 27.8149 9.67062 27.7041 9.51722L27.3029 8.96167C27.1342 8.72803 27.4294 8.44145 27.6579 8.61709L28.0846 8.94509C28.248 9.07067 28.4456 9.1437 28.6514 9.15454L28.7839 9.16152C28.8463 9.16481 28.9083 9.14554 28.9548 9.10386C29.5245 8.59332 29.6214 7.83548 29.5837 7.45334C29.578 7.39594 29.5478 7.34482 29.5043 7.307L29.4109 7.22591C29.2681 7.10182 29.0934 7.02002 28.9067 6.98968L28.4192 6.9105C28.1393 6.86503 28.1393 6.46243 28.4192 6.41697L28.9067 6.33779C29.0934 6.30745 29.2681 6.22565 29.4109 6.10156L29.5043 6.02047C29.5478 5.98265 29.578 5.93153 29.5837 5.87413C29.6214 5.49198 29.5245 4.73415 28.9548 4.22361C28.9083 4.18193 28.8463 4.16266 28.7839 4.16594L28.6514 4.17293C28.4456 4.18376 28.248 4.2568 28.0846 4.38238L27.6579 4.71037C27.4294 4.88602 27.1342 4.59944 27.3029 4.3658L27.7041 3.81025C27.8149 3.65685 27.8807 3.47561 27.8942 3.28687L27.903 3.16352Z" fill="url(#paint8_radial_25596_105751)"/>
<path fill-rule="evenodd" clip-rule="evenodd" d="M27.903 3.16352C27.9071 3.10599 27.8924 3.04848 27.8559 3.00385C27.6127 2.7067 27.0088 2.23867 26.2449 2.27962C26.1826 2.28296 26.1251 2.31311 26.0832 2.35949L25.9943 2.45807C25.8563 2.61108 25.768 2.80237 25.741 3.00665L25.6656 3.57887C25.6312 3.83964 25.2538 3.83964 25.2194 3.57887L25.144 3.00665C25.117 2.80237 25.0287 2.61108 24.8907 2.45807L24.8018 2.35949C24.76 2.31311 24.7025 2.28296 24.6401 2.27962C23.8762 2.23867 23.2724 2.7067 23.0291 3.00385C22.9926 3.04848 22.9779 3.10599 22.982 3.16352L22.9908 3.28687C23.0043 3.47561 23.0701 3.65685 23.1809 3.81025L23.5821 4.3658C23.7509 4.59944 23.4556 4.88602 23.2271 4.71037L22.8004 4.38238C22.6371 4.2568 22.4394 4.18376 22.2337 4.17293L22.1011 4.16594C22.0387 4.16266 21.9767 4.18193 21.9302 4.22361C21.3606 4.73415 21.2637 5.49198 21.3014 5.87413C21.307 5.93153 21.3372 5.98265 21.3808 6.02047L21.4741 6.10156C21.617 6.22565 21.7916 6.30745 21.9784 6.33779L22.4658 6.41697C22.7457 6.46243 22.7457 6.86503 22.4658 6.9105L21.9784 6.98968C21.7916 7.02002 21.617 7.10182 21.4741 7.22591L21.3808 7.307C21.3372 7.34482 21.307 7.39594 21.3014 7.45334C21.2637 7.83548 21.3606 8.59332 21.9302 9.10386C21.9767 9.14554 22.0387 9.16481 22.1011 9.16152L22.2337 9.15454C22.4394 9.1437 22.6371 9.07067 22.8004 8.94509L23.2271 8.61709C23.4556 8.44145 23.7509 8.72803 23.5821 8.96167L23.1809 9.51722C23.0701 9.67062 23.0043 9.85186 22.9908 10.0406L22.982 10.1639C22.9779 10.2215 22.9926 10.279 23.0291 10.3236C23.2724 10.6208 23.8762 11.0888 24.6401 11.0479C24.7025 11.0445 24.76 11.0144 24.8018 10.968L24.8907 10.8694C25.0287 10.7164 25.117 10.5251 25.144 10.3208L25.1947 9.93652C25.2329 9.64678 25.6521 9.64678 25.6904 9.93652L25.741 10.3208C25.768 10.5251 25.8563 10.7164 25.9943 10.8694L26.0832 10.968C26.1251 11.0144 26.1826 11.0445 26.2449 11.0479C27.0088 11.0888 27.6127 10.6208 27.8559 10.3236C27.8924 10.279 27.9071 10.2215 27.903 10.1639L27.8942 10.0406C27.8807 9.85186 27.8149 9.67062 27.7041 9.51722L27.3029 8.96167C27.1342 8.72803 27.4294 8.44145 27.6579 8.61709L28.0846 8.94509C28.248 9.07067 28.4456 9.1437 28.6514 9.15454L28.7839 9.16152C28.8463 9.16481 28.9083 9.14554 28.9548 9.10386C29.5245 8.59332 29.6214 7.83548 29.5837 7.45334C29.578 7.39594 29.5478 7.34482 29.5043 7.307L29.4109 7.22591C29.2681 7.10182 29.0934 7.02002 28.9067 6.98968L28.4192 6.9105C28.1393 6.86503 28.1393 6.46243 28.4192 6.41697L28.9067 6.33779C29.0934 6.30745 29.2681 6.22565 29.4109 6.10156L29.5043 6.02047C29.5478 5.98265 29.578 5.93153 29.5837 5.87413C29.6214 5.49198 29.5245 4.73415 28.9548 4.22361C28.9083 4.18193 28.8463 4.16266 28.7839 4.16594L28.6514 4.17293C28.4456 4.18376 28.248 4.2568 28.0846 4.38238L27.6579 4.71037C27.4294 4.88602 27.1342 4.59944 27.3029 4.3658L27.7041 3.81025C27.8149 3.65685 27.8807 3.47561 27.8942 3.28687L27.903 3.16352Z" fill="url(#paint9_radial_25596_105751)"/>
<path fill-rule="evenodd" clip-rule="evenodd" d="M27.903 3.16352C27.9071 3.10599 27.8924 3.04848 27.8559 3.00385C27.6127 2.7067 27.0088 2.23867 26.2449 2.27962C26.1826 2.28296 26.1251 2.31311 26.0832 2.35949L25.9943 2.45807C25.8563 2.61108 25.768 2.80237 25.741 3.00665L25.6656 3.57887C25.6312 3.83964 25.2538 3.83964 25.2194 3.57887L25.144 3.00665C25.117 2.80237 25.0287 2.61108 24.8907 2.45807L24.8018 2.35949C24.76 2.31311 24.7025 2.28296 24.6401 2.27962C23.8762 2.23867 23.2724 2.7067 23.0291 3.00385C22.9926 3.04848 22.9779 3.10599 22.982 3.16352L22.9908 3.28687C23.0043 3.47561 23.0701 3.65685 23.1809 3.81025L23.5821 4.3658C23.7509 4.59944 23.4556 4.88602 23.2271 4.71037L22.8004 4.38238C22.6371 4.2568 22.4394 4.18376 22.2337 4.17293L22.1011 4.16594C22.0387 4.16266 21.9767 4.18193 21.9302 4.22361C21.3606 4.73415 21.2637 5.49198 21.3014 5.87413C21.307 5.93153 21.3372 5.98265 21.3808 6.02047L21.4741 6.10156C21.617 6.22565 21.7916 6.30745 21.9784 6.33779L22.4658 6.41697C22.7457 6.46243 22.7457 6.86503 22.4658 6.9105L21.9784 6.98968C21.7916 7.02002 21.617 7.10182 21.4741 7.22591L21.3808 7.307C21.3372 7.34482 21.307 7.39594 21.3014 7.45334C21.2637 7.83548 21.3606 8.59332 21.9302 9.10386C21.9767 9.14554 22.0387 9.16481 22.1011 9.16152L22.2337 9.15454C22.4394 9.1437 22.6371 9.07067 22.8004 8.94509L23.2271 8.61709C23.4556 8.44145 23.7509 8.72803 23.5821 8.96167L23.1809 9.51722C23.0701 9.67062 23.0043 9.85186 22.9908 10.0406L22.982 10.1639C22.9779 10.2215 22.9926 10.279 23.0291 10.3236C23.2724 10.6208 23.8762 11.0888 24.6401 11.0479C24.7025 11.0445 24.76 11.0144 24.8018 10.968L24.8907 10.8694C25.0287 10.7164 25.117 10.5251 25.144 10.3208L25.1947 9.93652C25.2329 9.64678 25.6521 9.64678 25.6904 9.93652L25.741 10.3208C25.768 10.5251 25.8563 10.7164 25.9943 10.8694L26.0832 10.968C26.1251 11.0144 26.1826 11.0445 26.2449 11.0479C27.0088 11.0888 27.6127 10.6208 27.8559 10.3236C27.8924 10.279 27.9071 10.2215 27.903 10.1639L27.8942 10.0406C27.8807 9.85186 27.8149 9.67062 27.7041 9.51722L27.3029 8.96167C27.1342 8.72803 27.4294 8.44145 27.6579 8.61709L28.0846 8.94509C28.248 9.07067 28.4456 9.1437 28.6514 9.15454L28.7839 9.16152C28.8463 9.16481 28.9083 9.14554 28.9548 9.10386C29.5245 8.59332 29.6214 7.83548 29.5837 7.45334C29.578 7.39594 29.5478 7.34482 29.5043 7.307L29.4109 7.22591C29.2681 7.10182 29.0934 7.02002 28.9067 6.98968L28.4192 6.9105C28.1393 6.86503 28.1393 6.46243 28.4192 6.41697L28.9067 6.33779C29.0934 6.30745 29.2681 6.22565 29.4109 6.10156L29.5043 6.02047C29.5478 5.98265 29.578 5.93153 29.5837 5.87413C29.6214 5.49198 29.5245 4.73415 28.9548 4.22361C28.9083 4.18193 28.8463 4.16266 28.7839 4.16594L28.6514 4.17293C28.4456 4.18376 28.248 4.2568 28.0846 4.38238L27.6579 4.71037C27.4294 4.88602 27.1342 4.59944 27.3029 4.3658L27.7041 3.81025C27.8149 3.65685 27.8807 3.47561 27.8942 3.28687L27.903 3.16352Z" fill="url(#paint10_radial_25596_105751)"/>
<path fill-rule="evenodd" clip-rule="evenodd" d="M27.903 3.16352C27.9071 3.10599 27.8924 3.04848 27.8559 3.00385C27.6127 2.7067 27.0088 2.23867 26.2449 2.27962C26.1826 2.28296 26.1251 2.31311 26.0832 2.35949L25.9943 2.45807C25.8563 2.61108 25.768 2.80237 25.741 3.00665L25.6656 3.57887C25.6312 3.83964 25.2538 3.83964 25.2194 3.57887L25.144 3.00665C25.117 2.80237 25.0287 2.61108 24.8907 2.45807L24.8018 2.35949C24.76 2.31311 24.7025 2.28296 24.6401 2.27962C23.8762 2.23867 23.2724 2.7067 23.0291 3.00385C22.9926 3.04848 22.9779 3.10599 22.982 3.16352L22.9908 3.28687C23.0043 3.47561 23.0701 3.65685 23.1809 3.81025L23.5821 4.3658C23.7509 4.59944 23.4556 4.88602 23.2271 4.71037L22.8004 4.38238C22.6371 4.2568 22.4394 4.18376 22.2337 4.17293L22.1011 4.16594C22.0387 4.16266 21.9767 4.18193 21.9302 4.22361C21.3606 4.73415 21.2637 5.49198 21.3014 5.87413C21.307 5.93153 21.3372 5.98265 21.3808 6.02047L21.4741 6.10156C21.617 6.22565 21.7916 6.30745 21.9784 6.33779L22.4658 6.41697C22.7457 6.46243 22.7457 6.86503 22.4658 6.9105L21.9784 6.98968C21.7916 7.02002 21.617 7.10182 21.4741 7.22591L21.3808 7.307C21.3372 7.34482 21.307 7.39594 21.3014 7.45334C21.2637 7.83548 21.3606 8.59332 21.9302 9.10386C21.9767 9.14554 22.0387 9.16481 22.1011 9.16152L22.2337 9.15454C22.4394 9.1437 22.6371 9.07067 22.8004 8.94509L23.2271 8.61709C23.4556 8.44145 23.7509 8.72803 23.5821 8.96167L23.1809 9.51722C23.0701 9.67062 23.0043 9.85186 22.9908 10.0406L22.982 10.1639C22.9779 10.2215 22.9926 10.279 23.0291 10.3236C23.2724 10.6208 23.8762 11.0888 24.6401 11.0479C24.7025 11.0445 24.76 11.0144 24.8018 10.968L24.8907 10.8694C25.0287 10.7164 25.117 10.5251 25.144 10.3208L25.1947 9.93652C25.2329 9.64678 25.6521 9.64678 25.6904 9.93652L25.741 10.3208C25.768 10.5251 25.8563 10.7164 25.9943 10.8694L26.0832 10.968C26.1251 11.0144 26.1826 11.0445 26.2449 11.0479C27.0088 11.0888 27.6127 10.6208 27.8559 10.3236C27.8924 10.279 27.9071 10.2215 27.903 10.1639L27.8942 10.0406C27.8807 9.85186 27.8149 9.67062 27.7041 9.51722L27.3029 8.96167C27.1342 8.72803 27.4294 8.44145 27.6579 8.61709L28.0846 8.94509C28.248 9.07067 28.4456 9.1437 28.6514 9.15454L28.7839 9.16152C28.8463 9.16481 28.9083 9.14554 28.9548 9.10386C29.5245 8.59332 29.6214 7.83548 29.5837 7.45334C29.578 7.39594 29.5478 7.34482 29.5043 7.307L29.4109 7.22591C29.2681 7.10182 29.0934 7.02002 28.9067 6.98968L28.4192 6.9105C28.1393 6.86503 28.1393 6.46243 28.4192 6.41697L28.9067 6.33779C29.0934 6.30745 29.2681 6.22565 29.4109 6.10156L29.5043 6.02047C29.5478 5.98265 29.578 5.93153 29.5837 5.87413C29.6214 5.49198 29.5245 4.73415 28.9548 4.22361C28.9083 4.18193 28.8463 4.16266 28.7839 4.16594L28.6514 4.17293C28.4456 4.18376 28.248 4.2568 28.0846 4.38238L27.6579 4.71037C27.4294 4.88602 27.1342 4.59944 27.3029 4.3658L27.7041 3.81025C27.8149 3.65685 27.8807 3.47561 27.8942 3.28687L27.903 3.16352Z" fill="url(#paint11_radial_25596_105751)"/>
<path fill-rule="evenodd" clip-rule="evenodd" d="M27.903 3.16352C27.9071 3.10599 27.8924 3.04848 27.8559 3.00385C27.6127 2.7067 27.0088 2.23867 26.2449 2.27962C26.1826 2.28296 26.1251 2.31311 26.0832 2.35949L25.9943 2.45807C25.8563 2.61108 25.768 2.80237 25.741 3.00665L25.6656 3.57887C25.6312 3.83964 25.2538 3.83964 25.2194 3.57887L25.144 3.00665C25.117 2.80237 25.0287 2.61108 24.8907 2.45807L24.8018 2.35949C24.76 2.31311 24.7025 2.28296 24.6401 2.27962C23.8762 2.23867 23.2724 2.7067 23.0291 3.00385C22.9926 3.04848 22.9779 3.10599 22.982 3.16352L22.9908 3.28687C23.0043 3.47561 23.0701 3.65685 23.1809 3.81025L23.5821 4.3658C23.7509 4.59944 23.4556 4.88602 23.2271 4.71037L22.8004 4.38238C22.6371 4.2568 22.4394 4.18376 22.2337 4.17293L22.1011 4.16594C22.0387 4.16266 21.9767 4.18193 21.9302 4.22361C21.3606 4.73415 21.2637 5.49198 21.3014 5.87413C21.307 5.93153 21.3372 5.98265 21.3808 6.02047L21.4741 6.10156C21.617 6.22565 21.7916 6.30745 21.9784 6.33779L22.4658 6.41697C22.7457 6.46243 22.7457 6.86503 22.4658 6.9105L21.9784 6.98968C21.7916 7.02002 21.617 7.10182 21.4741 7.22591L21.3808 7.307C21.3372 7.34482 21.307 7.39594 21.3014 7.45334C21.2637 7.83548 21.3606 8.59332 21.9302 9.10386C21.9767 9.14554 22.0387 9.16481 22.1011 9.16152L22.2337 9.15454C22.4394 9.1437 22.6371 9.07067 22.8004 8.94509L23.2271 8.61709C23.4556 8.44145 23.7509 8.72803 23.5821 8.96167L23.1809 9.51722C23.0701 9.67062 23.0043 9.85186 22.9908 10.0406L22.982 10.1639C22.9779 10.2215 22.9926 10.279 23.0291 10.3236C23.2724 10.6208 23.8762 11.0888 24.6401 11.0479C24.7025 11.0445 24.76 11.0144 24.8018 10.968L24.8907 10.8694C25.0287 10.7164 25.117 10.5251 25.144 10.3208L25.1947 9.93652C25.2329 9.64678 25.6521 9.64678 25.6904 9.93652L25.741 10.3208C25.768 10.5251 25.8563 10.7164 25.9943 10.8694L26.0832 10.968C26.1251 11.0144 26.1826 11.0445 26.2449 11.0479C27.0088 11.0888 27.6127 10.6208 27.8559 10.3236C27.8924 10.279 27.9071 10.2215 27.903 10.1639L27.8942 10.0406C27.8807 9.85186 27.8149 9.67062 27.7041 9.51722L27.3029 8.96167C27.1342 8.72803 27.4294 8.44145 27.6579 8.61709L28.0846 8.94509C28.248 9.07067 28.4456 9.1437 28.6514 9.15454L28.7839 9.16152C28.8463 9.16481 28.9083 9.14554 28.9548 9.10386C29.5245 8.59332 29.6214 7.83548 29.5837 7.45334C29.578 7.39594 29.5478 7.34482 29.5043 7.307L29.4109 7.22591C29.2681 7.10182 29.0934 7.02002 28.9067 6.98968L28.4192 6.9105C28.1393 6.86503 28.1393 6.46243 28.4192 6.41697L28.9067 6.33779C29.0934 6.30745 29.2681 6.22565 29.4109 6.10156L29.5043 6.02047C29.5478 5.98265 29.578 5.93153 29.5837 5.87413C29.6214 5.49198 29.5245 4.73415 28.9548 4.22361C28.9083 4.18193 28.8463 4.16266 28.7839 4.16594L28.6514 4.17293C28.4456 4.18376 28.248 4.2568 28.0846 4.38238L27.6579 4.71037C27.4294 4.88602 27.1342 4.59944 27.3029 4.3658L27.7041 3.81025C27.8149 3.65685 27.8807 3.47561 27.8942 3.28687L27.903 3.16352Z" fill="url(#paint12_radial_25596_105751)"/>
<path fill-rule="evenodd" clip-rule="evenodd" d="M27.903 3.16352C27.9071 3.10599 27.8924 3.04848 27.8559 3.00385C27.6127 2.7067 27.0088 2.23867 26.2449 2.27962C26.1826 2.28296 26.1251 2.31311 26.0832 2.35949L25.9943 2.45807C25.8563 2.61108 25.768 2.80237 25.741 3.00665L25.6656 3.57887C25.6312 3.83964 25.2538 3.83964 25.2194 3.57887L25.144 3.00665C25.117 2.80237 25.0287 2.61108 24.8907 2.45807L24.8018 2.35949C24.76 2.31311 24.7025 2.28296 24.6401 2.27962C23.8762 2.23867 23.2724 2.7067 23.0291 3.00385C22.9926 3.04848 22.9779 3.10599 22.982 3.16352L22.9908 3.28687C23.0043 3.47561 23.0701 3.65685 23.1809 3.81025L23.5821 4.3658C23.7509 4.59944 23.4556 4.88602 23.2271 4.71037L22.8004 4.38238C22.6371 4.2568 22.4394 4.18376 22.2337 4.17293L22.1011 4.16594C22.0387 4.16266 21.9767 4.18193 21.9302 4.22361C21.3606 4.73415 21.2637 5.49198 21.3014 5.87413C21.307 5.93153 21.3372 5.98265 21.3808 6.02047L21.4741 6.10156C21.617 6.22565 21.7916 6.30745 21.9784 6.33779L22.4658 6.41697C22.7457 6.46243 22.7457 6.86503 22.4658 6.9105L21.9784 6.98968C21.7916 7.02002 21.617 7.10182 21.4741 7.22591L21.3808 7.307C21.3372 7.34482 21.307 7.39594 21.3014 7.45334C21.2637 7.83548 21.3606 8.59332 21.9302 9.10386C21.9767 9.14554 22.0387 9.16481 22.1011 9.16152L22.2337 9.15454C22.4394 9.1437 22.6371 9.07067 22.8004 8.94509L23.2271 8.61709C23.4556 8.44145 23.7509 8.72803 23.5821 8.96167L23.1809 9.51722C23.0701 9.67062 23.0043 9.85186 22.9908 10.0406L22.982 10.1639C22.9779 10.2215 22.9926 10.279 23.0291 10.3236C23.2724 10.6208 23.8762 11.0888 24.6401 11.0479C24.7025 11.0445 24.76 11.0144 24.8018 10.968L24.8907 10.8694C25.0287 10.7164 25.117 10.5251 25.144 10.3208L25.1947 9.93652C25.2329 9.64678 25.6521 9.64678 25.6904 9.93652L25.741 10.3208C25.768 10.5251 25.8563 10.7164 25.9943 10.8694L26.0832 10.968C26.1251 11.0144 26.1826 11.0445 26.2449 11.0479C27.0088 11.0888 27.6127 10.6208 27.8559 10.3236C27.8924 10.279 27.9071 10.2215 27.903 10.1639L27.8942 10.0406C27.8807 9.85186 27.8149 9.67062 27.7041 9.51722L27.3029 8.96167C27.1342 8.72803 27.4294 8.44145 27.6579 8.61709L28.0846 8.94509C28.248 9.07067 28.4456 9.1437 28.6514 9.15454L28.7839 9.16152C28.8463 9.16481 28.9083 9.14554 28.9548 9.10386C29.5245 8.59332 29.6214 7.83548 29.5837 7.45334C29.578 7.39594 29.5478 7.34482 29.5043 7.307L29.4109 7.22591C29.2681 7.10182 29.0934 7.02002 28.9067 6.98968L28.4192 6.9105C28.1393 6.86503 28.1393 6.46243 28.4192 6.41697L28.9067 6.33779C29.0934 6.30745 29.2681 6.22565 29.4109 6.10156L29.5043 6.02047C29.5478 5.98265 29.578 5.93153 29.5837 5.87413C29.6214 5.49198 29.5245 4.73415 28.9548 4.22361C28.9083 4.18193 28.8463 4.16266 28.7839 4.16594L28.6514 4.17293C28.4456 4.18376 28.248 4.2568 28.0846 4.38238L27.6579 4.71037C27.4294 4.88602 27.1342 4.59944 27.3029 4.3658L27.7041 3.81025C27.8149 3.65685 27.8807 3.47561 27.8942 3.28687L27.903 3.16352Z" fill="url(#paint13_radial_25596_105751)"/>
<path fill-rule="evenodd" clip-rule="evenodd" d="M27.903 3.16352C27.9071 3.10599 27.8924 3.04848 27.8559 3.00385C27.6127 2.7067 27.0088 2.23867 26.2449 2.27962C26.1826 2.28296 26.1251 2.31311 26.0832 2.35949L25.9943 2.45807C25.8563 2.61108 25.768 2.80237 25.741 3.00665L25.6656 3.57887C25.6312 3.83964 25.2538 3.83964 25.2194 3.57887L25.144 3.00665C25.117 2.80237 25.0287 2.61108 24.8907 2.45807L24.8018 2.35949C24.76 2.31311 24.7025 2.28296 24.6401 2.27962C23.8762 2.23867 23.2724 2.7067 23.0291 3.00385C22.9926 3.04848 22.9779 3.10599 22.982 3.16352L22.9908 3.28687C23.0043 3.47561 23.0701 3.65685 23.1809 3.81025L23.5821 4.3658C23.7509 4.59944 23.4556 4.88602 23.2271 4.71037L22.8004 4.38238C22.6371 4.2568 22.4394 4.18376 22.2337 4.17293L22.1011 4.16594C22.0387 4.16266 21.9767 4.18193 21.9302 4.22361C21.3606 4.73415 21.2637 5.49198 21.3014 5.87413C21.307 5.93153 21.3372 5.98265 21.3808 6.02047L21.4741 6.10156C21.617 6.22565 21.7916 6.30745 21.9784 6.33779L22.4658 6.41697C22.7457 6.46243 22.7457 6.86503 22.4658 6.9105L21.9784 6.98968C21.7916 7.02002 21.617 7.10182 21.4741 7.22591L21.3808 7.307C21.3372 7.34482 21.307 7.39594 21.3014 7.45334C21.2637 7.83548 21.3606 8.59332 21.9302 9.10386C21.9767 9.14554 22.0387 9.16481 22.1011 9.16152L22.2337 9.15454C22.4394 9.1437 22.6371 9.07067 22.8004 8.94509L23.2271 8.61709C23.4556 8.44145 23.7509 8.72803 23.5821 8.96167L23.1809 9.51722C23.0701 9.67062 23.0043 9.85186 22.9908 10.0406L22.982 10.1639C22.9779 10.2215 22.9926 10.279 23.0291 10.3236C23.2724 10.6208 23.8762 11.0888 24.6401 11.0479C24.7025 11.0445 24.76 11.0144 24.8018 10.968L24.8907 10.8694C25.0287 10.7164 25.117 10.5251 25.144 10.3208L25.1947 9.93652C25.2329 9.64678 25.6521 9.64678 25.6904 9.93652L25.741 10.3208C25.768 10.5251 25.8563 10.7164 25.9943 10.8694L26.0832 10.968C26.1251 11.0144 26.1826 11.0445 26.2449 11.0479C27.0088 11.0888 27.6127 10.6208 27.8559 10.3236C27.8924 10.279 27.9071 10.2215 27.903 10.1639L27.8942 10.0406C27.8807 9.85186 27.8149 9.67062 27.7041 9.51722L27.3029 8.96167C27.1342 8.72803 27.4294 8.44145 27.6579 8.61709L28.0846 8.94509C28.248 9.07067 28.4456 9.1437 28.6514 9.15454L28.7839 9.16152C28.8463 9.16481 28.9083 9.14554 28.9548 9.10386C29.5245 8.59332 29.6214 7.83548 29.5837 7.45334C29.578 7.39594 29.5478 7.34482 29.5043 7.307L29.4109 7.22591C29.2681 7.10182 29.0934 7.02002 28.9067 6.98968L28.4192 6.9105C28.1393 6.86503 28.1393 6.46243 28.4192 6.41697L28.9067 6.33779C29.0934 6.30745 29.2681 6.22565 29.4109 6.10156L29.5043 6.02047C29.5478 5.98265 29.578 5.93153 29.5837 5.87413C29.6214 5.49198 29.5245 4.73415 28.9548 4.22361C28.9083 4.18193 28.8463 4.16266 28.7839 4.16594L28.6514 4.17293C28.4456 4.18376 28.248 4.2568 28.0846 4.38238L27.6579 4.71037C27.4294 4.88602 27.1342 4.59944 27.3029 4.3658L27.7041 3.81025C27.8149 3.65685 27.8807 3.47561 27.8942 3.28687L27.903 3.16352Z" fill="url(#paint14_radial_25596_105751)"/>
<path fill-rule="evenodd" clip-rule="evenodd" d="M27.903 3.16352C27.9071 3.10599 27.8924 3.04848 27.8559 3.00385C27.6127 2.7067 27.0088 2.23867 26.2449 2.27962C26.1826 2.28296 26.1251 2.31311 26.0832 2.35949L25.9943 2.45807C25.8563 2.61108 25.768 2.80237 25.741 3.00665L25.6656 3.57887C25.6312 3.83964 25.2538 3.83964 25.2194 3.57887L25.144 3.00665C25.117 2.80237 25.0287 2.61108 24.8907 2.45807L24.8018 2.35949C24.76 2.31311 24.7025 2.28296 24.6401 2.27962C23.8762 2.23867 23.2724 2.7067 23.0291 3.00385C22.9926 3.04848 22.9779 3.10599 22.982 3.16352L22.9908 3.28687C23.0043 3.47561 23.0701 3.65685 23.1809 3.81025L23.5821 4.3658C23.7509 4.59944 23.4556 4.88602 23.2271 4.71037L22.8004 4.38238C22.6371 4.2568 22.4394 4.18376 22.2337 4.17293L22.1011 4.16594C22.0387 4.16266 21.9767 4.18193 21.9302 4.22361C21.3606 4.73415 21.2637 5.49198 21.3014 5.87413C21.307 5.93153 21.3372 5.98265 21.3808 6.02047L21.4741 6.10156C21.617 6.22565 21.7916 6.30745 21.9784 6.33779L22.4658 6.41697C22.7457 6.46243 22.7457 6.86503 22.4658 6.9105L21.9784 6.98968C21.7916 7.02002 21.617 7.10182 21.4741 7.22591L21.3808 7.307C21.3372 7.34482 21.307 7.39594 21.3014 7.45334C21.2637 7.83548 21.3606 8.59332 21.9302 9.10386C21.9767 9.14554 22.0387 9.16481 22.1011 9.16152L22.2337 9.15454C22.4394 9.1437 22.6371 9.07067 22.8004 8.94509L23.2271 8.61709C23.4556 8.44145 23.7509 8.72803 23.5821 8.96167L23.1809 9.51722C23.0701 9.67062 23.0043 9.85186 22.9908 10.0406L22.982 10.1639C22.9779 10.2215 22.9926 10.279 23.0291 10.3236C23.2724 10.6208 23.8762 11.0888 24.6401 11.0479C24.7025 11.0445 24.76 11.0144 24.8018 10.968L24.8907 10.8694C25.0287 10.7164 25.117 10.5251 25.144 10.3208L25.1947 9.93652C25.2329 9.64678 25.6521 9.64678 25.6904 9.93652L25.741 10.3208C25.768 10.5251 25.8563 10.7164 25.9943 10.8694L26.0832 10.968C26.1251 11.0144 26.1826 11.0445 26.2449 11.0479C27.0088 11.0888 27.6127 10.6208 27.8559 10.3236C27.8924 10.279 27.9071 10.2215 27.903 10.1639L27.8942 10.0406C27.8807 9.85186 27.8149 9.67062 27.7041 9.51722L27.3029 8.96167C27.1342 8.72803 27.4294 8.44145 27.6579 8.61709L28.0846 8.94509C28.248 9.07067 28.4456 9.1437 28.6514 9.15454L28.7839 9.16152C28.8463 9.16481 28.9083 9.14554 28.9548 9.10386C29.5245 8.59332 29.6214 7.83548 29.5837 7.45334C29.578 7.39594 29.5478 7.34482 29.5043 7.307L29.4109 7.22591C29.2681 7.10182 29.0934 7.02002 28.9067 6.98968L28.4192 6.9105C28.1393 6.86503 28.1393 6.46243 28.4192 6.41697L28.9067 6.33779C29.0934 6.30745 29.2681 6.22565 29.4109 6.10156L29.5043 6.02047C29.5478 5.98265 29.578 5.93153 29.5837 5.87413C29.6214 5.49198 29.5245 4.73415 28.9548 4.22361C28.9083 4.18193 28.8463 4.16266 28.7839 4.16594L28.6514 4.17293C28.4456 4.18376 28.248 4.2568 28.0846 4.38238L27.6579 4.71037C27.4294 4.88602 27.1342 4.59944 27.3029 4.3658L27.7041 3.81025C27.8149 3.65685 27.8807 3.47561 27.8942 3.28687L27.903 3.16352Z" fill="url(#paint15_radial_25596_105751)"/>
<path fill-rule="evenodd" clip-rule="evenodd" d="M27.903 3.16352C27.9071 3.10599 27.8924 3.04848 27.8559 3.00385C27.6127 2.7067 27.0088 2.23867 26.2449 2.27962C26.1826 2.28296 26.1251 2.31311 26.0832 2.35949L25.9943 2.45807C25.8563 2.61108 25.768 2.80237 25.741 3.00665L25.6656 3.57887C25.6312 3.83964 25.2538 3.83964 25.2194 3.57887L25.144 3.00665C25.117 2.80237 25.0287 2.61108 24.8907 2.45807L24.8018 2.35949C24.76 2.31311 24.7025 2.28296 24.6401 2.27962C23.8762 2.23867 23.2724 2.7067 23.0291 3.00385C22.9926 3.04848 22.9779 3.10599 22.982 3.16352L22.9908 3.28687C23.0043 3.47561 23.0701 3.65685 23.1809 3.81025L23.5821 4.3658C23.7509 4.59944 23.4556 4.88602 23.2271 4.71037L22.8004 4.38238C22.6371 4.2568 22.4394 4.18376 22.2337 4.17293L22.1011 4.16594C22.0387 4.16266 21.9767 4.18193 21.9302 4.22361C21.3606 4.73415 21.2637 5.49198 21.3014 5.87413C21.307 5.93153 21.3372 5.98265 21.3808 6.02047L21.4741 6.10156C21.617 6.22565 21.7916 6.30745 21.9784 6.33779L22.4658 6.41697C22.7457 6.46243 22.7457 6.86503 22.4658 6.9105L21.9784 6.98968C21.7916 7.02002 21.617 7.10182 21.4741 7.22591L21.3808 7.307C21.3372 7.34482 21.307 7.39594 21.3014 7.45334C21.2637 7.83548 21.3606 8.59332 21.9302 9.10386C21.9767 9.14554 22.0387 9.16481 22.1011 9.16152L22.2337 9.15454C22.4394 9.1437 22.6371 9.07067 22.8004 8.94509L23.2271 8.61709C23.4556 8.44145 23.7509 8.72803 23.5821 8.96167L23.1809 9.51722C23.0701 9.67062 23.0043 9.85186 22.9908 10.0406L22.982 10.1639C22.9779 10.2215 22.9926 10.279 23.0291 10.3236C23.2724 10.6208 23.8762 11.0888 24.6401 11.0479C24.7025 11.0445 24.76 11.0144 24.8018 10.968L24.8907 10.8694C25.0287 10.7164 25.117 10.5251 25.144 10.3208L25.1947 9.93652C25.2329 9.64678 25.6521 9.64678 25.6904 9.93652L25.741 10.3208C25.768 10.5251 25.8563 10.7164 25.9943 10.8694L26.0832 10.968C26.1251 11.0144 26.1826 11.0445 26.2449 11.0479C27.0088 11.0888 27.6127 10.6208 27.8559 10.3236C27.8924 10.279 27.9071 10.2215 27.903 10.1639L27.8942 10.0406C27.8807 9.85186 27.8149 9.67062 27.7041 9.51722L27.3029 8.96167C27.1342 8.72803 27.4294 8.44145 27.6579 8.61709L28.0846 8.94509C28.248 9.07067 28.4456 9.1437 28.6514 9.15454L28.7839 9.16152C28.8463 9.16481 28.9083 9.14554 28.9548 9.10386C29.5245 8.59332 29.6214 7.83548 29.5837 7.45334C29.578 7.39594 29.5478 7.34482 29.5043 7.307L29.4109 7.22591C29.2681 7.10182 29.0934 7.02002 28.9067 6.98968L28.4192 6.9105C28.1393 6.86503 28.1393 6.46243 28.4192 6.41697L28.9067 6.33779C29.0934 6.30745 29.2681 6.22565 29.4109 6.10156L29.5043 6.02047C29.5478 5.98265 29.578 5.93153 29.5837 5.87413C29.6214 5.49198 29.5245 4.73415 28.9548 4.22361C28.9083 4.18193 28.8463 4.16266 28.7839 4.16594L28.6514 4.17293C28.4456 4.18376 28.248 4.2568 28.0846 4.38238L27.6579 4.71037C27.4294 4.88602 27.1342 4.59944 27.3029 4.3658L27.7041 3.81025C27.8149 3.65685 27.8807 3.47561 27.8942 3.28687L27.903 3.16352Z" fill="url(#paint16_radial_25596_105751)"/>
</g>
<g id="Line (Stroke)">
<path fill-rule="evenodd" clip-rule="evenodd" d="M25.5214 6.48804C25.8921 6.81915 25.9242 7.38809 25.5931 7.75881L23.0462 10.6104C22.7151 10.9811 22.1462 11.0132 21.7755 10.6821C21.4047 10.351 21.3726 9.78204 21.7037 9.41132L24.2506 6.55976C24.5817 6.18904 25.1507 6.15693 25.5214 6.48804Z" fill="url(#paint17_radial_25596_105751)"/>
<path fill-rule="evenodd" clip-rule="evenodd" d="M25.5214 6.48804C25.8921 6.81915 25.9242 7.38809 25.5931 7.75881L23.0462 10.6104C22.7151 10.9811 22.1462 11.0132 21.7755 10.6821C21.4047 10.351 21.3726 9.78204 21.7037 9.41132L24.2506 6.55976C24.5817 6.18904 25.1507 6.15693 25.5214 6.48804Z" fill="url(#paint18_linear_25596_105751)"/>
</g>
<g id="Bomb">
<path d="M15.3281 30.082C8.59716 30.082 3.14063 24.6255 3.14063 17.8945C3.14063 11.1636 8.59716 5.70703 15.3281 5.70703C22.0591 5.70703 27.5156 11.1636 27.5156 17.8945C27.5156 24.6255 22.0591 30.082 15.3281 30.082Z" fill="url(#paint19_radial_25596_105751)"/>
<path d="M15.3281 30.082C8.59716 30.082 3.14063 24.6255 3.14063 17.8945C3.14063 11.1636 8.59716 5.70703 15.3281 5.70703C22.0591 5.70703 27.5156 11.1636 27.5156 17.8945C27.5156 24.6255 22.0591 30.082 15.3281 30.082Z" fill="url(#paint20_radial_25596_105751)"/>
<path d="M15.3281 30.082C8.59716 30.082 3.14063 24.6255 3.14063 17.8945C3.14063 11.1636 8.59716 5.70703 15.3281 5.70703C22.0591 5.70703 27.5156 11.1636 27.5156 17.8945C27.5156 24.6255 22.0591 30.082 15.3281 30.082Z" fill="url(#paint21_radial_25596_105751)"/>
<path d="M15.3281 30.082C8.59716 30.082 3.14063 24.6255 3.14063 17.8945C3.14063 11.1636 8.59716 5.70703 15.3281 5.70703C22.0591 5.70703 27.5156 11.1636 27.5156 17.8945C27.5156 24.6255 22.0591 30.082 15.3281 30.082Z" fill="url(#paint22_radial_25596_105751)"/>
<defs>
<linearGradient id="paint0_linear_25596_105751" x1="29.1875" y1="4.76949" x2="21.875" y2="8.957" gradientUnits="userSpaceOnUse">
<stop stop-color="#FFC709"/>
<stop offset="0.7556" stop-color="#EE4C27"/>
</linearGradient>
<linearGradient id="paint1_linear_25596_105751" x1="24.1875" y1="11.3945" x2="26.9375" y2="8.95699" gradientUnits="userSpaceOnUse">
<stop stop-color="#D3390D"/>
<stop offset="1" stop-color="#D3390D" stop-opacity="0"/>
</linearGradient>
<radialGradient id="paint2_radial_25596_105751" cx="0" cy="0" r="1" gradientUnits="userSpaceOnUse" gradientTransform="translate(22.0625 5.22256) rotate(32.1523) scale(0.645938 1.00458)">
<stop stop-color="#FFE975" stop-opacity="0.3"/>
<stop offset="1" stop-color="#FFE975" stop-opacity="0"/>
</radialGradient>
<radialGradient id="paint3_radial_25596_105751" cx="0" cy="0" r="1" gradientUnits="userSpaceOnUse" gradientTransform="translate(24.0781 3.16006) rotate(69.6236) scale(0.58338 0.907283)">
<stop stop-color="#FFE975" stop-opacity="0.3"/>
<stop offset="1" stop-color="#FFE975" stop-opacity="0"/>
</radialGradient>
<radialGradient id="paint4_radial_25596_105751" cx="0" cy="0" r="1" gradientUnits="userSpaceOnUse" gradientTransform="translate(26.8008 3.14834) rotate(116.068) scale(0.60446 0.940067)">
<stop stop-color="#FFE975" stop-opacity="0.3"/>
<stop offset="1" stop-color="#FFE975" stop-opacity="0"/>
</radialGradient>
<radialGradient id="paint5_radial_25596_105751" cx="0" cy="0" r="1" gradientUnits="userSpaceOnUse" gradientTransform="translate(28.75 5.23818) rotate(160.017) scale(0.548658 0.853283)">
<stop stop-color="white" stop-opacity="0.3"/>
<stop offset="1" stop-color="white" stop-opacity="0"/>
</radialGradient>
<radialGradient id="paint6_radial_25596_105751" cx="0" cy="0" r="1" gradientUnits="userSpaceOnUse" gradientTransform="translate(28.8594 8.08193) rotate(-156.448) scale(0.664751 1.03383)">
<stop stop-color="white" stop-opacity="0.3"/>
<stop offset="1" stop-color="white" stop-opacity="0"/>
</radialGradient>
<radialGradient id="paint7_radial_25596_105751" cx="0" cy="0" r="1" gradientUnits="userSpaceOnUse" gradientTransform="translate(26.8594 10.2226) rotate(-118.61) scale(0.587343 0.913446)">
<stop stop-color="#FFE975" stop-opacity="0.3"/>
<stop offset="1" stop-color="#FFE975" stop-opacity="0"/>
</radialGradient>
<radialGradient id="paint8_radial_25596_105751" cx="0" cy="0" r="1" gradientUnits="userSpaceOnUse" gradientTransform="translate(25.4425 6.66373) rotate(90) scale(7.07445 6.69011)">
<stop offset="0.491788" stop-color="#D3390D" stop-opacity="0"/>
<stop offset="1" stop-color="#D3390D"/>
</radialGradient>
<radialGradient id="paint9_radial_25596_105751" cx="0" cy="0" r="1" gradientUnits="userSpaceOnUse" gradientTransform="translate(25.4425 6.66373) rotate(90) scale(7.07445 6.69011)">
<stop stop-color="#D3390D" stop-opacity="0.7"/>
<stop offset="0.317708" stop-color="#D3390D" stop-opacity="0"/>
</radialGradient>
<radialGradient id="paint10_radial_25596_105751" cx="0" cy="0" r="1" gradientUnits="userSpaceOnUse" gradientTransform="translate(25.4425 9.72256) rotate(90) scale(3.54688 0.523213)">
<stop stop-color="#D3390D" stop-opacity="0.7"/>
<stop offset="1" stop-color="#D3390D" stop-opacity="0"/>
</radialGradient>
<radialGradient id="paint11_radial_25596_105751" cx="0" cy="0" r="1" gradientUnits="userSpaceOnUse" gradientTransform="translate(23.5312 4.69131) rotate(-128.973) scale(3.10533 0.45808)">
<stop stop-color="#D3390D" stop-opacity="0.4"/>
<stop offset="1" stop-color="#D3390D" stop-opacity="0"/>
</radialGradient>
<radialGradient id="paint12_radial_25596_105751" cx="0" cy="0" r="1" gradientUnits="userSpaceOnUse" gradientTransform="translate(22.6875 6.66373) rotate(-180) scale(3.03125 0.447151)">
<stop stop-color="#D3390D" stop-opacity="0.4"/>
<stop offset="1" stop-color="#D3390D" stop-opacity="0"/>
</radialGradient>
<radialGradient id="paint13_radial_25596_105751" cx="0" cy="0" r="1" gradientUnits="userSpaceOnUse" gradientTransform="translate(25.4425 3.78506) rotate(-90) scale(2.8125 0.414883)">
<stop stop-color="#D3390D" stop-opacity="0.3"/>
<stop offset="1" stop-color="#D3390D" stop-opacity="0"/>
</radialGradient>
<radialGradient id="paint14_radial_25596_105751" cx="0" cy="0" r="1" gradientUnits="userSpaceOnUse" gradientTransform="translate(27.3594 4.69131) rotate(-48.4373) scale(3.22656 0.475962)">
<stop stop-color="#D3390D" stop-opacity="0.2"/>
<stop offset="1" stop-color="#D3390D" stop-opacity="0"/>
</radialGradient>
<radialGradient id="paint15_radial_25596_105751" cx="0" cy="0" r="1" gradientUnits="userSpaceOnUse" gradientTransform="translate(28.2344 6.66373) rotate(-2.3346) scale(3.15887 0.465977)">
<stop stop-color="#D3390D" stop-opacity="0.2"/>
<stop offset="1" stop-color="#D3390D" stop-opacity="0"/>
</radialGradient>
<radialGradient id="paint16_radial_25596_105751" cx="0" cy="0" r="1" gradientUnits="userSpaceOnUse" gradientTransform="translate(27.3906 8.59756) rotate(39.4007) scale(3.39706 0.501114)">
<stop stop-color="#D3390D" stop-opacity="0.3"/>
<stop offset="1" stop-color="#D3390D" stop-opacity="0"/>
</radialGradient>
<radialGradient id="paint17_radial_25596_105751" cx="0" cy="0" r="1" gradientUnits="userSpaceOnUse" gradientTransform="translate(25.75 6.62901) rotate(136.679) scale(3.39336 2.12789)">
<stop stop-color="#E1DFE1"/>
<stop offset="0.394388" stop-color="#C1BEC5"/>
</radialGradient>
<linearGradient id="paint18_linear_25596_105751" x1="23.5469" y1="7.31651" x2="23.7969" y2="7.51964" gradientUnits="userSpaceOnUse">
<stop stop-color="#A3A1A7"/>
<stop offset="1" stop-color="#B8B6BD" stop-opacity="0"/>
</linearGradient>
<radialGradient id="paint19_radial_25596_105751" cx="0" cy="0" r="1" gradientUnits="userSpaceOnUse" gradientTransform="translate(18.375 28.457) rotate(-119.386) scale(21.0166 34.5675)">
<stop offset="0.00558659" stop-color="#5C0F71"/>
<stop offset="1" stop-color="#2E255B"/>
</radialGradient>
<radialGradient id="paint20_radial_25596_105751" cx="0" cy="0" r="1" gradientUnits="userSpaceOnUse" gradientTransform="translate(20.75 23.7695) rotate(-131.465) scale(22.9362 26.3218)">
<stop offset="0.71875" stop-color="#29233A" stop-opacity="0"/>
<stop offset="1" stop-color="#29233A"/>
</radialGradient>
<radialGradient id="paint21_radial_25596_105751" cx="0" cy="0" r="1" gradientUnits="userSpaceOnUse" gradientTransform="translate(13.375 12.8945) rotate(67.5499) scale(19.476 16.5325)">
<stop offset="0.809845" stop-color="#662B81" stop-opacity="0"/>
<stop offset="1" stop-color="#662B81"/>
</radialGradient>
<radialGradient id="paint22_radial_25596_105751" cx="0" cy="0" r="1" gradientUnits="userSpaceOnUse" gradientTransform="translate(20.5 14.457) rotate(135.649) scale(9.0055 7.2044)">
<stop stop-color="#66558E"/>
<stop offset="0.727773" stop-color="#66558E" stop-opacity="0"/>
</radialGradient>
</defs>
</svg>
